%TF.GenerationSoftware,KiCad,Pcbnew,9.0.2-9.0.2-0~ubuntu22.04.1*%
%TF.CreationDate,2025-06-13T09:38:05-03:00*%
%TF.ProjectId,ram_tester,72616d5f-7465-4737-9465-722e6b696361,rev?*%
%TF.SameCoordinates,Original*%
%TF.FileFunction,Copper,L1,Top*%
%TF.FilePolarity,Positive*%
%FSLAX46Y46*%
G04 Gerber Fmt 4.6, Leading zero omitted, Abs format (unit mm)*
G04 Created by KiCad (PCBNEW 9.0.2-9.0.2-0~ubuntu22.04.1) date 2025-06-13 09:38:05*
%MOMM*%
%LPD*%
G01*
G04 APERTURE LIST*
%TA.AperFunction,ComponentPad*%
%ADD10C,1.600000*%
%TD*%
%TA.AperFunction,ComponentPad*%
%ADD11O,1.600000X1.600000*%
%TD*%
%TA.AperFunction,ComponentPad*%
%ADD12R,1.800000X1.800000*%
%TD*%
%TA.AperFunction,ComponentPad*%
%ADD13C,1.800000*%
%TD*%
%TA.AperFunction,ComponentPad*%
%ADD14R,1.700000X1.700000*%
%TD*%
%TA.AperFunction,ComponentPad*%
%ADD15O,1.700000X1.700000*%
%TD*%
%TA.AperFunction,ComponentPad*%
%ADD16C,3.000000*%
%TD*%
%TA.AperFunction,ComponentPad*%
%ADD17R,1.800000X2.600000*%
%TD*%
%TA.AperFunction,ComponentPad*%
%ADD18O,1.800000X2.600000*%
%TD*%
%TA.AperFunction,ConnectorPad*%
%ADD19R,2.794000X8.382000*%
%TD*%
%TA.AperFunction,ConnectorPad*%
%ADD20R,1.778000X8.382000*%
%TD*%
%TA.AperFunction,ComponentPad*%
%ADD21C,2.000000*%
%TD*%
%TA.AperFunction,ViaPad*%
%ADD22C,2.500000*%
%TD*%
%TA.AperFunction,Conductor*%
%ADD23C,1.000000*%
%TD*%
G04 APERTURE END LIST*
D10*
%TO.P,R6,1*%
%TO.N,Net-(D6-K)*%
X60850000Y-42320000D03*
D11*
%TO.P,R6,2*%
%TO.N,GND*%
X60850000Y-52480000D03*
%TD*%
D10*
%TO.P,R2,1*%
%TO.N,Net-(D2-K)*%
X85050000Y-42320000D03*
D11*
%TO.P,R2,2*%
%TO.N,GND*%
X85050000Y-52480000D03*
%TD*%
D12*
%TO.P,D6,1,K*%
%TO.N,Net-(D6-K)*%
X60800000Y-35075000D03*
D13*
%TO.P,D6,2,A*%
%TO.N,Net-(D6-A)*%
X58260000Y-35075000D03*
%TD*%
D10*
%TO.P,R5,1*%
%TO.N,Net-(D5-K)*%
X66850000Y-42320000D03*
D11*
%TO.P,R5,2*%
%TO.N,GND*%
X66850000Y-52480000D03*
%TD*%
D14*
%TO.P,J1,1,Pin_1*%
%TO.N,Net-(J1-Pin_1)*%
X116350000Y-23300000D03*
D15*
%TO.P,J1,2,Pin_2*%
%TO.N,Net-(J1-Pin_2)*%
X113810000Y-23300000D03*
%TO.P,J1,3,Pin_3*%
%TO.N,+5V*%
X111270000Y-23300000D03*
%TO.P,J1,4,Pin_4*%
%TO.N,GND*%
X108730000Y-23300000D03*
%TD*%
D16*
%TO.P,DS1,*%
%TO.N,*%
X128400900Y10700000D03*
X128400900Y-20300700D03*
X203399480Y-20300700D03*
X203400000Y10700000D03*
D17*
%TO.P,DS1,1,VSS*%
%TO.N,unconnected-(DS1-VSS-Pad1)*%
X133900000Y10700000D03*
D18*
%TO.P,DS1,2,VDD*%
%TO.N,unconnected-(DS1-VDD-Pad2)*%
X136440000Y10700000D03*
%TO.P,DS1,3,VO*%
%TO.N,unconnected-(DS1-VO-Pad3)*%
X138980000Y10700000D03*
%TO.P,DS1,4,RS*%
%TO.N,unconnected-(DS1-RS-Pad4)*%
X141520000Y10700000D03*
%TO.P,DS1,5,R/W*%
%TO.N,unconnected-(DS1-R{slash}W-Pad5)*%
X144060000Y10700000D03*
%TO.P,DS1,6,E*%
%TO.N,unconnected-(DS1-E-Pad6)*%
X146600000Y10700000D03*
%TO.P,DS1,7,D0*%
%TO.N,unconnected-(DS1-D0-Pad7)*%
X149140000Y10700000D03*
%TO.P,DS1,8,D1*%
%TO.N,unconnected-(DS1-D1-Pad8)*%
X151680000Y10700000D03*
%TO.P,DS1,9,D2*%
%TO.N,unconnected-(DS1-D2-Pad9)*%
X154220000Y10700000D03*
%TO.P,DS1,10,D3*%
%TO.N,unconnected-(DS1-D3-Pad10)*%
X156760000Y10700000D03*
%TO.P,DS1,11,D4*%
%TO.N,unconnected-(DS1-D4-Pad11)*%
X159300000Y10700000D03*
%TO.P,DS1,12,D5*%
%TO.N,unconnected-(DS1-D5-Pad12)*%
X161840000Y10700000D03*
%TO.P,DS1,13,D6*%
%TO.N,unconnected-(DS1-D6-Pad13)*%
X164380000Y10700000D03*
%TO.P,DS1,14,D7*%
%TO.N,unconnected-(DS1-D7-Pad14)*%
X166920000Y10700000D03*
%TO.P,DS1,15,LED(+)*%
%TO.N,unconnected-(DS1-LED(+)-Pad15)*%
X169460000Y10700000D03*
%TO.P,DS1,16,LED(-)*%
%TO.N,unconnected-(DS1-LED(-)-Pad16)*%
X172000000Y10700000D03*
%TD*%
D19*
%TO.P,U2,1*%
%TO.N,+5V*%
X60839863Y-157499300D03*
D20*
%TO.P,U2,2*%
%TO.N,unconnected-(U2-Pad2)*%
X64522863Y-157499300D03*
%TO.P,U2,3*%
%TO.N,unconnected-(U2-Pad3)*%
X67697863Y-157499300D03*
%TO.P,U2,4*%
%TO.N,unconnected-(U2-Pad4)*%
X70872863Y-157499300D03*
%TO.P,U2,5*%
%TO.N,unconnected-(U2-Pad5)*%
X74047863Y-157499300D03*
%TO.P,U2,6*%
%TO.N,unconnected-(U2-Pad6)*%
X77222863Y-157499300D03*
%TO.P,U2,7*%
%TO.N,unconnected-(U2-Pad7)*%
X80397863Y-157499300D03*
%TO.P,U2,8*%
%TO.N,unconnected-(U2-Pad8)*%
X83572863Y-157499300D03*
%TO.P,U2,9*%
%TO.N,unconnected-(U2-Pad9)*%
X86747863Y-157499300D03*
%TO.P,U2,10*%
%TO.N,unconnected-(U2-Pad10)*%
X89922863Y-157499300D03*
%TO.P,U2,11*%
%TO.N,unconnected-(U2-Pad11)*%
X93097863Y-157499300D03*
%TO.P,U2,12*%
%TO.N,unconnected-(U2-Pad12)*%
X96272863Y-157499300D03*
%TO.P,U2,13*%
%TO.N,unconnected-(U2-Pad13)*%
X99447863Y-157499300D03*
%TO.P,U2,14*%
%TO.N,unconnected-(U2-Pad14)*%
X102622863Y-157499300D03*
%TO.P,U2,15*%
%TO.N,unconnected-(U2-Pad15)*%
X105797863Y-157499300D03*
%TO.P,U2,16*%
%TO.N,unconnected-(U2-Pad16)*%
X108972863Y-157499300D03*
%TO.P,U2,17*%
%TO.N,unconnected-(U2-Pad17)*%
X112147863Y-157499300D03*
%TO.P,U2,18*%
%TO.N,unconnected-(U2-Pad18)*%
X115322863Y-157499300D03*
%TO.P,U2,19*%
%TO.N,unconnected-(U2-Pad19)*%
X118497863Y-157499300D03*
%TO.P,U2,20*%
%TO.N,unconnected-(U2-Pad20)*%
X121672863Y-157499300D03*
%TO.P,U2,21*%
%TO.N,unconnected-(U2-Pad21)*%
X124847863Y-157499300D03*
%TO.P,U2,22*%
%TO.N,unconnected-(U2-Pad22)*%
X128022863Y-157499300D03*
%TO.P,U2,23*%
%TO.N,unconnected-(U2-Pad23)*%
X131197863Y-157499300D03*
%TO.P,U2,24*%
%TO.N,Net-(U1A-31{slash}A13)*%
X134372863Y-157499300D03*
%TO.P,U2,25*%
%TO.N,unconnected-(U2-Pad25)*%
X137547863Y-157499300D03*
%TO.P,U2,26*%
%TO.N,unconnected-(U2-Pad26)*%
X140722863Y-157499300D03*
%TO.P,U2,27*%
%TO.N,unconnected-(U2-Pad27)*%
X143897863Y-157499300D03*
%TO.P,U2,28*%
%TO.N,unconnected-(U2-Pad28)*%
X147072863Y-157499300D03*
%TO.P,U2,29*%
%TO.N,Net-(U1A-15)*%
X150247863Y-157499300D03*
%TO.P,U2,30*%
%TO.N,Net-(U1A-14)*%
X153422863Y-157499300D03*
%TO.P,U2,31*%
%TO.N,Net-(U1A-13)*%
X156597863Y-157499300D03*
%TO.P,U2,32*%
%TO.N,Net-(U1A-12)*%
X159772863Y-157499300D03*
%TO.P,U2,33*%
%TO.N,Net-(U1A-11)*%
X162947863Y-157499300D03*
%TO.P,U2,34*%
%TO.N,Net-(U1A-10)*%
X166122863Y-157499300D03*
%TO.P,U2,35*%
%TO.N,Net-(U1A-23)*%
X169297863Y-157499300D03*
%TO.P,U2,36*%
%TO.N,Net-(U1A-22)*%
X172472863Y-157499300D03*
%TO.P,U2,37*%
%TO.N,Net-(U1A-9)*%
X175647863Y-157499300D03*
%TO.P,U2,38*%
%TO.N,Net-(U1A-21)*%
X178822863Y-157499300D03*
%TO.P,U2,39*%
%TO.N,Net-(U1A-20)*%
X181997863Y-157499300D03*
%TO.P,U2,40*%
%TO.N,Net-(U1A-19)*%
X185172863Y-157499300D03*
%TO.P,U2,41*%
%TO.N,unconnected-(U2-Pad41)*%
X188347863Y-157499300D03*
%TO.P,U2,42*%
%TO.N,unconnected-(U2-Pad42)*%
X191522863Y-157499300D03*
%TO.P,U2,43*%
%TO.N,unconnected-(U2-Pad43)*%
X194697863Y-157499300D03*
%TO.P,U2,44*%
%TO.N,unconnected-(U2-Pad44)*%
X197872863Y-157499300D03*
%TO.P,U2,45*%
%TO.N,unconnected-(U2-Pad45)*%
X201047863Y-157499300D03*
%TO.P,U2,46*%
%TO.N,unconnected-(U2-Pad46)*%
X204222863Y-157499300D03*
%TO.P,U2,47*%
%TO.N,Net-(U1A-30{slash}A14)*%
X207397863Y-157499300D03*
%TO.P,U2,48*%
%TO.N,unconnected-(U2-Pad48)*%
X210572863Y-157499300D03*
%TO.P,U2,49*%
%TO.N,unconnected-(U2-Pad49)*%
X213747863Y-157499300D03*
D19*
%TO.P,U2,50*%
%TO.N,GND*%
X217430863Y-157499300D03*
%TD*%
D10*
%TO.P,R3,1*%
%TO.N,Net-(D3-K)*%
X78950000Y-42220000D03*
D11*
%TO.P,R3,2*%
%TO.N,GND*%
X78950000Y-52380000D03*
%TD*%
D14*
%TO.P,U1,1,vout*%
%TO.N,unconnected-(U1A-vout-Pad1)*%
X169102863Y-87999300D03*
D15*
%TO.P,U1,2,GND*%
%TO.N,GND*%
X166562863Y-87999300D03*
%TO.P,U1,3,3.3V*%
%TO.N,+3.3V*%
X164022863Y-87999300D03*
%TO.P,U1,4,0*%
%TO.N,Net-(U1A-0)*%
X161482863Y-87999300D03*
%TO.P,U1,5,1*%
%TO.N,Net-(U1A-1)*%
X158942863Y-87999300D03*
%TO.P,U1,6,2*%
%TO.N,Net-(U1A-2)*%
X156402863Y-87999300D03*
%TO.P,U1,7,3*%
%TO.N,Net-(U1A-3)*%
X153862863Y-87999300D03*
%TO.P,U1,8,4*%
%TO.N,Net-(U1A-4)*%
X151322863Y-87999300D03*
%TO.P,U1,9,5*%
%TO.N,Net-(U1A-5)*%
X148782863Y-87999300D03*
%TO.P,U1,10,6*%
%TO.N,Net-(U1A-6)*%
X146242863Y-87999300D03*
%TO.P,U1,11,7*%
%TO.N,Net-(U1A-7)*%
X143702863Y-87999300D03*
%TO.P,U1,12,8*%
%TO.N,Net-(U1A-8)*%
X141162863Y-87999300D03*
%TO.P,U1,13,9*%
%TO.N,Net-(U1A-9)*%
X138622863Y-87999300D03*
%TO.P,U1,14,10*%
%TO.N,Net-(U1A-10)*%
X136082863Y-87999300D03*
%TO.P,U1,15,11*%
%TO.N,Net-(U1A-11)*%
X133542863Y-87999300D03*
%TO.P,U1,16,12*%
%TO.N,Net-(U1A-12)*%
X131002863Y-87999300D03*
%TO.P,U1,17,13*%
%TO.N,Net-(U1A-13)*%
X128462863Y-87999300D03*
%TO.P,U1,18,14*%
%TO.N,Net-(U1A-14)*%
X125922863Y-87999300D03*
%TO.P,U1,19,15*%
%TO.N,Net-(U1A-15)*%
X123382863Y-87999300D03*
%TO.P,U1,20,16*%
%TO.N,Net-(U1A-16)*%
X120842863Y-87999300D03*
%TO.P,U1,21,17*%
%TO.N,Net-(U1A-17)*%
X118302863Y-87999300D03*
%TO.P,U1,22,18*%
%TO.N,Net-(U1A-18)*%
X115762863Y-87999300D03*
%TO.P,U1,23,19*%
%TO.N,Net-(U1A-19)*%
X113222863Y-87999300D03*
%TO.P,U1,24,20*%
%TO.N,Net-(U1A-20)*%
X110682863Y-87999300D03*
%TO.P,U1,25,21*%
%TO.N,Net-(U1A-21)*%
X108142863Y-87999300D03*
%TO.P,U1,26,22*%
%TO.N,Net-(U1A-22)*%
X105602863Y-87999300D03*
%TO.P,U1,27,23*%
%TO.N,Net-(U1A-23)*%
X103062863Y-87999300D03*
%TO.P,U1,28,GND*%
%TO.N,GND*%
X100522863Y-87999300D03*
D14*
%TO.P,U1,29,vin*%
%TO.N,+5V*%
X169052863Y-110999300D03*
D15*
%TO.P,U1,30,GND*%
%TO.N,GND*%
X166512863Y-110999300D03*
%TO.P,U1,31,3.3V*%
%TO.N,+3.3V*%
X163972863Y-110999300D03*
%TO.P,U1,32,29/TX*%
%TO.N,Net-(J1-Pin_1)*%
X161432863Y-110999300D03*
%TO.P,U1,33,28/RX*%
%TO.N,Net-(J1-Pin_2)*%
X158892863Y-110999300D03*
%TO.P,U1,34,44/A0*%
%TO.N,Net-(D1-A)*%
X156352863Y-110999300D03*
%TO.P,U1,35,43/A1*%
%TO.N,Net-(D2-A)*%
X153812863Y-110999300D03*
%TO.P,U1,36,42/A2*%
%TO.N,Net-(D3-A)*%
X151272863Y-110999300D03*
%TO.P,U1,37,41/A3*%
%TO.N,Net-(D4-A)*%
X148732863Y-110999300D03*
%TO.P,U1,38,40/A4*%
%TO.N,Net-(D5-A)*%
X146192863Y-110999300D03*
%TO.P,U1,39,39/A5*%
%TO.N,Net-(D6-A)*%
X143652863Y-110999300D03*
%TO.P,U1,40,38/A6*%
%TO.N,Net-(D7-A)*%
X141112863Y-110999300D03*
%TO.P,U1,41,37/A7*%
%TO.N,Net-(D8-A)*%
X138572863Y-110999300D03*
%TO.P,U1,42,36/A8*%
%TO.N,Net-(U1A-36{slash}A8)*%
X136032863Y-110999300D03*
%TO.P,U1,43,35/A9*%
%TO.N,unconnected-(U1A-35{slash}A9-Pad43)*%
X133492863Y-110999300D03*
%TO.P,U1,44,GND*%
%TO.N,GND*%
X130952863Y-110999300D03*
%TO.P,U1,45,3.3V*%
%TO.N,+3.3V*%
X128412863Y-110999300D03*
%TO.P,U1,46,RESET*%
%TO.N,unconnected-(U1A-RESET-Pad46)*%
X125872863Y-110999300D03*
%TO.P,U1,47,34/A10*%
%TO.N,unconnected-(U1A-34{slash}A10-Pad47)*%
X123332863Y-110999300D03*
%TO.P,U1,48,33/A11*%
%TO.N,unconnected-(U1A-33{slash}A11-Pad48)*%
X120792863Y-110999300D03*
%TO.P,U1,49,32/A12*%
%TO.N,unconnected-(U1A-32{slash}A12-Pad49)*%
X118252863Y-110999300D03*
%TO.P,U1,50,31/A13*%
%TO.N,Net-(U1A-31{slash}A13)*%
X115712863Y-110999300D03*
%TO.P,U1,51,30/A14*%
%TO.N,Net-(U1A-30{slash}A14)*%
X113172863Y-110999300D03*
%TO.P,U1,52,27*%
%TO.N,unconnected-(U1A-27-Pad52)*%
X110632863Y-110999300D03*
%TO.P,U1,53,26*%
%TO.N,unconnected-(U1A-26-Pad53)*%
X108092863Y-110999300D03*
%TO.P,U1,54,25*%
%TO.N,unconnected-(U1A-25-Pad54)*%
X105552863Y-110999300D03*
%TO.P,U1,55,24*%
%TO.N,unconnected-(U1A-24-Pad55)*%
X103012863Y-110999300D03*
%TO.P,U1,56,GND*%
%TO.N,GND*%
X100472863Y-110999300D03*
%TD*%
D10*
%TO.P,R4,1*%
%TO.N,Net-(D4-K)*%
X72850000Y-42220000D03*
D11*
%TO.P,R4,2*%
%TO.N,GND*%
X72850000Y-52380000D03*
%TD*%
D12*
%TO.P,D2,1,K*%
%TO.N,Net-(D2-K)*%
X85000000Y-35075000D03*
D13*
%TO.P,D2,2,A*%
%TO.N,Net-(D2-A)*%
X82460000Y-35075000D03*
%TD*%
D10*
%TO.P,R8,1*%
%TO.N,Net-(D8-K)*%
X48750000Y-42420000D03*
D11*
%TO.P,R8,2*%
%TO.N,GND*%
X48750000Y-52580000D03*
%TD*%
D12*
%TO.P,D1,1,K*%
%TO.N,Net-(D1-K)*%
X91050000Y-35075000D03*
D13*
%TO.P,D1,2,A*%
%TO.N,Net-(D1-A)*%
X88510000Y-35075000D03*
%TD*%
D12*
%TO.P,D5,1,K*%
%TO.N,Net-(D5-K)*%
X66850000Y-35075000D03*
D13*
%TO.P,D5,2,A*%
%TO.N,Net-(D5-A)*%
X64310000Y-35075000D03*
%TD*%
D12*
%TO.P,D7,1,K*%
%TO.N,Net-(D7-K)*%
X54750000Y-35075000D03*
D13*
%TO.P,D7,2,A*%
%TO.N,Net-(D7-A)*%
X52210000Y-35075000D03*
%TD*%
D10*
%TO.P,R9,1*%
%TO.N,GND*%
X98200000Y-52180000D03*
D11*
%TO.P,R9,2*%
%TO.N,Net-(U1A-36{slash}A8)*%
X98200000Y-42020000D03*
%TD*%
D10*
%TO.P,R1,1*%
%TO.N,Net-(D1-K)*%
X90850000Y-42020000D03*
D11*
%TO.P,R1,2*%
%TO.N,GND*%
X90850000Y-52180000D03*
%TD*%
D10*
%TO.P,R7,1*%
%TO.N,Net-(D7-K)*%
X54750000Y-42420000D03*
D11*
%TO.P,R7,2*%
%TO.N,GND*%
X54750000Y-52580000D03*
%TD*%
D12*
%TO.P,D4,1,K*%
%TO.N,Net-(D4-K)*%
X72900000Y-35075000D03*
D13*
%TO.P,D4,2,A*%
%TO.N,Net-(D4-A)*%
X70360000Y-35075000D03*
%TD*%
D21*
%TO.P,SW1,1,1*%
%TO.N,Net-(U1A-36{slash}A8)*%
X98150000Y-30650000D03*
X98150000Y-24150000D03*
%TO.P,SW1,2,2*%
%TO.N,+3.3V*%
X102650000Y-30650000D03*
X102650000Y-24150000D03*
%TD*%
D12*
%TO.P,D3,1,K*%
%TO.N,Net-(D3-K)*%
X78950000Y-35075000D03*
D13*
%TO.P,D3,2,A*%
%TO.N,Net-(D3-A)*%
X76410000Y-35075000D03*
%TD*%
D12*
%TO.P,D8,1,K*%
%TO.N,Net-(D8-K)*%
X48700000Y-35075000D03*
D13*
%TO.P,D8,2,A*%
%TO.N,Net-(D8-A)*%
X46160000Y-35075000D03*
%TD*%
D22*
%TO.N,Net-(U1A-22)*%
X188091903Y-130518340D03*
X176921863Y-132288594D03*
%TO.N,Net-(U1A-23)*%
X170977590Y-135403027D03*
X192145286Y-136056470D03*
%TO.N,Net-(D4-A)*%
X69050000Y-60400000D03*
%TO.N,Net-(U1A-21)*%
X187922863Y-126798292D03*
X180329974Y-139759528D03*
%TO.N,Net-(D6-A)*%
X57450000Y-60500000D03*
%TO.N,Net-(D5-A)*%
X63150000Y-60500000D03*
%TO.N,Net-(U1A-7)*%
X171872863Y-148299300D03*
X173452466Y-132928151D03*
%TO.N,Net-(D1-A)*%
X87750000Y-60700000D03*
%TO.N,Net-(D2-A)*%
X81250000Y-60500000D03*
%TO.N,Net-(D7-A)*%
X50750000Y-60400000D03*
%TO.N,Net-(D8-A)*%
X44750000Y-60400000D03*
%TO.N,Net-(U1A-20)*%
X187922863Y-123298289D03*
X182422863Y-131538386D03*
%TO.N,Net-(D3-A)*%
X74850000Y-60400000D03*
%TD*%
D23*
%TO.N,Net-(U1A-9)*%
X188801420Y-115449792D02*
X188801420Y-106538333D01*
X179672863Y-133428096D02*
X179672863Y-131149092D01*
X177730590Y-138861916D02*
X177730590Y-135370370D01*
X176672863Y-139919644D02*
X177730590Y-138861916D01*
X141420785Y-91999300D02*
X138622863Y-89201379D01*
X179672863Y-131149092D02*
X179671863Y-131148092D01*
X179671863Y-124579349D02*
X188801420Y-115449792D01*
X188801420Y-106538333D02*
X174262387Y-91999300D01*
X175647863Y-157499300D02*
X175647863Y-151673300D01*
X174262387Y-91999300D02*
X141420785Y-91999300D01*
X175647863Y-151673300D02*
X176672863Y-150648300D01*
X179671863Y-131148092D02*
X179671863Y-124579349D01*
X177730590Y-135370370D02*
X179672863Y-133428096D01*
X176672863Y-150648300D02*
X176672863Y-139919644D01*
X138622863Y-89201379D02*
X138622863Y-87999300D01*
%TO.N,Net-(U1A-22)*%
X113634259Y-77896300D02*
X176529546Y-77896300D01*
X172472863Y-151589802D02*
X174623863Y-149438802D01*
X105602863Y-87999300D02*
X105602863Y-85927695D01*
X176921863Y-133349256D02*
X176921863Y-132288594D01*
X176771757Y-132438700D02*
X176921863Y-132288594D01*
X182372863Y-88790409D02*
X197500420Y-103917966D01*
X105602863Y-85927695D02*
X113634259Y-77896300D01*
X172472863Y-157499300D02*
X172472863Y-151589802D01*
X175729590Y-134541529D02*
X176921863Y-133349256D01*
X182372863Y-83739617D02*
X182372863Y-88790409D01*
X175729590Y-138033075D02*
X175729590Y-134541529D01*
X197500420Y-121109823D02*
X188091903Y-130518340D01*
X188091903Y-130518340D02*
X188313362Y-130739799D01*
X176529546Y-77896300D02*
X182372863Y-83739617D01*
X174623863Y-149438802D02*
X174623863Y-139138802D01*
X197500420Y-103917966D02*
X197500420Y-121109823D01*
X174623863Y-139138802D02*
X175729590Y-138033075D01*
%TO.N,Net-(U1A-23)*%
X199501420Y-103089124D02*
X199501420Y-128700336D01*
X169297863Y-157499300D02*
X169297863Y-137082754D01*
X184373863Y-87961567D02*
X199501420Y-103089124D01*
X199501420Y-128700336D02*
X192145286Y-136056470D01*
X177358388Y-75895300D02*
X184373863Y-82910776D01*
X112805418Y-75895300D02*
X177358388Y-75895300D01*
X169297863Y-137082754D02*
X170977590Y-135403027D01*
X103062863Y-87999300D02*
X103062863Y-85637855D01*
X103062863Y-85637855D02*
X112805418Y-75895300D01*
X184373863Y-82910776D02*
X184373863Y-87961567D01*
%TO.N,Net-(U1A-13)*%
X128462863Y-90360745D02*
X138301420Y-100199300D01*
X179201420Y-108568173D02*
X179201420Y-113730425D01*
X156597863Y-131874300D02*
X156597863Y-157499300D01*
X128462863Y-87999300D02*
X128462863Y-90360745D01*
X165480545Y-127451300D02*
X161020863Y-127451300D01*
X179201420Y-113730425D02*
X165480545Y-127451300D01*
X170832547Y-100199300D02*
X179201420Y-108568173D01*
X161020863Y-127451300D02*
X156597863Y-131874300D01*
X138301420Y-100199300D02*
X170832547Y-100199300D01*
%TO.N,Net-(U1A-12)*%
X171874863Y-98101300D02*
X182798420Y-109024859D01*
X139033262Y-98101300D02*
X171874863Y-98101300D01*
X131002863Y-90070903D02*
X139033262Y-98101300D01*
X162419863Y-129452300D02*
X159772863Y-132099300D01*
X182798420Y-109024859D02*
X182798420Y-112963265D01*
X166309385Y-129452300D02*
X162419863Y-129452300D01*
X131002863Y-87999300D02*
X131002863Y-90070903D01*
X159772863Y-132099300D02*
X159772863Y-157499300D01*
X182798420Y-112963265D02*
X166309385Y-129452300D01*
%TO.N,Net-(D4-A)*%
X70360000Y-59090000D02*
X70360000Y-35075000D01*
X69050000Y-60400000D02*
X70360000Y-59090000D01*
%TO.N,Net-(U1A-21)*%
X195499420Y-119612234D02*
X195499420Y-104746808D01*
X188313362Y-126798292D02*
X195499420Y-119612234D01*
X178822863Y-152819458D02*
X178822863Y-157499300D01*
X108142863Y-86217537D02*
X108142863Y-87999300D01*
X175360384Y-79897300D02*
X114463099Y-79897300D01*
X114463099Y-79897300D02*
X108142863Y-86217537D01*
X187922863Y-126798292D02*
X188313362Y-126798292D01*
X179874863Y-84411778D02*
X175360384Y-79897300D01*
X180072863Y-140016639D02*
X180329974Y-139759528D01*
X195499420Y-104746808D02*
X179874863Y-89122251D01*
X180072863Y-151569458D02*
X180072863Y-140016639D01*
X180072863Y-151569458D02*
X178822863Y-152819458D01*
X179874863Y-89122251D02*
X179874863Y-84411778D01*
X187922863Y-126798292D02*
X188313362Y-127188791D01*
%TO.N,Net-(U1A-30{slash}A14)*%
X97751420Y-86649300D02*
X110702420Y-73698300D01*
X207397863Y-103104933D02*
X207397863Y-157499300D01*
X177991230Y-73698300D02*
X207397863Y-103104933D01*
X97751420Y-92977858D02*
X101137141Y-96363579D01*
X113172863Y-110999300D02*
X113172863Y-108399300D01*
X97751420Y-86649300D02*
X97751420Y-92977858D01*
X113172863Y-108399300D02*
X101137141Y-96363579D01*
X110702420Y-73698300D02*
X177991230Y-73698300D01*
%TO.N,Net-(U1A-31{slash}A13)*%
X171872221Y-112570100D02*
X162994021Y-121448300D01*
X115712863Y-110999300D02*
X115712863Y-109797219D01*
X162994021Y-121448300D02*
X157094021Y-121448300D01*
X115712863Y-109797219D02*
X119307782Y-106202300D01*
X134372863Y-144169458D02*
X134372863Y-157499300D01*
X119307782Y-106202300D02*
X168346021Y-106202300D01*
X157094021Y-121448300D02*
X134372863Y-144169458D01*
X168346021Y-106202300D02*
X171872221Y-109728500D01*
X171872221Y-109728500D02*
X171872221Y-112570100D01*
%TO.N,Net-(U1A-10)*%
X186800420Y-107367175D02*
X186800420Y-114620949D01*
X166122863Y-135298507D02*
X166122863Y-157499300D01*
X136082863Y-89491221D02*
X140690944Y-94099300D01*
X140690944Y-94099300D02*
X173532547Y-94099300D01*
X136082863Y-87999300D02*
X136082863Y-89491221D01*
X186800420Y-114620949D02*
X166122863Y-135298507D01*
X173532547Y-94099300D02*
X186800420Y-107367175D01*
%TO.N,Net-(D6-A)*%
X57450000Y-60500000D02*
X58260000Y-59690000D01*
X58260000Y-59690000D02*
X58260000Y-35075000D01*
%TO.N,Net-(D5-A)*%
X63150000Y-60500000D02*
X64310000Y-59340000D01*
X64310000Y-59340000D02*
X64310000Y-35075000D01*
%TO.N,Net-(U1A-7)*%
X172072863Y-138198256D02*
X173728590Y-136542529D01*
X172072863Y-148099300D02*
X172072863Y-138198256D01*
X173728590Y-133204275D02*
X173452466Y-132928151D01*
X171872863Y-148299300D02*
X172072863Y-148099300D01*
X173728590Y-136542529D02*
X173728590Y-133204275D01*
%TO.N,Net-(U1A-19)*%
X175872863Y-90779934D02*
X191201420Y-106108491D01*
X173702702Y-83899300D02*
X175872863Y-86069461D01*
X113222863Y-87999300D02*
X113222863Y-86797219D01*
X185172863Y-121908190D02*
X185172863Y-157499300D01*
X113222863Y-86797219D02*
X116120782Y-83899300D01*
X191201420Y-115879633D02*
X185172863Y-121908190D01*
X116120782Y-83899300D02*
X173702702Y-83899300D01*
X191201420Y-106108491D02*
X191201420Y-115879633D01*
X175872863Y-86069461D02*
X175872863Y-90779934D01*
%TO.N,Net-(D1-A)*%
X87750000Y-60700000D02*
X88510000Y-59940000D01*
X88510000Y-59940000D02*
X88510000Y-35075000D01*
%TO.N,Net-(U1A-14)*%
X177200420Y-109397015D02*
X177200420Y-112901584D01*
X177200420Y-112901584D02*
X164651704Y-125450300D01*
X153422863Y-130779142D02*
X153422863Y-157499300D01*
X164651704Y-125450300D02*
X158751705Y-125450300D01*
X125922863Y-87999300D02*
X125922863Y-90650585D01*
X170003705Y-102200300D02*
X177200420Y-109397015D01*
X137472579Y-102200300D02*
X170003705Y-102200300D01*
X158751705Y-125450300D02*
X153422863Y-130779142D01*
X125922863Y-90650585D02*
X137472579Y-102200300D01*
%TO.N,Net-(U1A-11)*%
X133542863Y-89781062D02*
X139862103Y-96100300D01*
X167138227Y-131453300D02*
X165218863Y-131453300D01*
X184799420Y-108196017D02*
X184799420Y-113792107D01*
X184799420Y-113792107D02*
X167138227Y-131453300D01*
X162947863Y-133724300D02*
X162947863Y-157499300D01*
X139862103Y-96100300D02*
X172703705Y-96100300D01*
X133542863Y-87999300D02*
X133542863Y-89781062D01*
X165218863Y-131453300D02*
X162947863Y-133724300D01*
X172703705Y-96100300D02*
X184799420Y-108196017D01*
%TO.N,Net-(D2-A)*%
X81250000Y-60500000D02*
X82460000Y-59290000D01*
X82460000Y-59290000D02*
X82460000Y-35075000D01*
%TO.N,Net-(D7-A)*%
X52210000Y-58940000D02*
X52210000Y-35075000D01*
X50750000Y-60400000D02*
X52210000Y-58940000D01*
%TO.N,Net-(D8-A)*%
X46160000Y-58990000D02*
X46160000Y-35075000D01*
X44750000Y-60400000D02*
X46160000Y-58990000D01*
%TO.N,Net-(U1A-20)*%
X110682863Y-87999300D02*
X110682863Y-86507378D01*
X183171863Y-151300300D02*
X183171863Y-132287386D01*
X193498420Y-117722732D02*
X187922863Y-123298289D01*
X181997863Y-157499300D02*
X181997863Y-152474300D01*
X183171863Y-132287386D02*
X182422863Y-131538386D01*
X177873863Y-85240620D02*
X177873863Y-89951093D01*
X193498420Y-105575650D02*
X193498420Y-117722732D01*
X174531543Y-81898300D02*
X177873863Y-85240620D01*
X177873863Y-89951093D02*
X193498420Y-105575650D01*
X181997863Y-152474300D02*
X183171863Y-151300300D01*
X110682863Y-86507378D02*
X115291941Y-81898300D01*
X115291941Y-81898300D02*
X174531543Y-81898300D01*
%TO.N,Net-(U1A-15)*%
X150247863Y-131124300D02*
X150247863Y-157499300D01*
X163822863Y-123449300D02*
X157922863Y-123449300D01*
X136643736Y-104201300D02*
X169174863Y-104201300D01*
X157922863Y-123449300D02*
X150247863Y-131124300D01*
X169174863Y-104201300D02*
X174501420Y-109527857D01*
X123382863Y-90940427D02*
X136643736Y-104201300D01*
X123382863Y-87999300D02*
X123382863Y-90940427D01*
X174501420Y-109527857D02*
X174501420Y-112770743D01*
X174501420Y-112770743D02*
X163822863Y-123449300D01*
%TO.N,Net-(D3-A)*%
X74850000Y-60400000D02*
X76410000Y-58840000D01*
X76410000Y-58840000D02*
X76410000Y-35075000D01*
%TO.N,Net-(J1-Pin_1)*%
X93749420Y-84991618D02*
X93749420Y-112077142D01*
X106379000Y-22326183D02*
X106379000Y-72362037D01*
X93749420Y-112077142D02*
X100172579Y-118500300D01*
X114783817Y-20949000D02*
X107756183Y-20949000D01*
X116350000Y-22515183D02*
X114783817Y-20949000D01*
X155423786Y-118500300D02*
X161432863Y-112491223D01*
X101620519Y-77120518D02*
X101620519Y-77120519D01*
X161432863Y-112491223D02*
X161432863Y-110999300D01*
X101620519Y-77120519D02*
X93749420Y-84991618D01*
X107756183Y-20949000D02*
X106379000Y-22326183D01*
X116350000Y-23300000D02*
X116350000Y-22515183D01*
X100172579Y-118500300D02*
X155423786Y-118500300D01*
X106379000Y-72362037D02*
X101620519Y-77120518D01*
X102450420Y-76290618D02*
X101620519Y-77120519D01*
%TO.N,Net-(J1-Pin_2)*%
X110685439Y-70885439D02*
X113710000Y-67860879D01*
X158892863Y-112201381D02*
X154594944Y-116499300D01*
X113810000Y-23300000D02*
X113810000Y-67760878D01*
X158892863Y-110999300D02*
X158892863Y-112201381D01*
X95750420Y-111248300D02*
X95750420Y-85820459D01*
X95750420Y-85820459D02*
X110685439Y-70885439D01*
X113810000Y-67760878D02*
X110685439Y-70885439D01*
X154594944Y-116499300D02*
X101001420Y-116499300D01*
X101001420Y-116499300D02*
X95750420Y-111248300D01*
%TD*%
%TA.AperFunction,Conductor*%
%TO.N,GND*%
G36*
X271909785Y-12120431D02*
G01*
X271972122Y-12175657D01*
X272001654Y-12253527D01*
X272002918Y-12273139D01*
X272626796Y-92026095D01*
X272626801Y-92027397D01*
X272647134Y-151926010D01*
X272627231Y-152006879D01*
X272572026Y-152069235D01*
X272494166Y-152098793D01*
X272473462Y-152100069D01*
X220047407Y-152198799D01*
X220047404Y-152198800D01*
X219981971Y-152198800D01*
X219981507Y-152198924D01*
X219981029Y-152198925D01*
X219981025Y-152198925D01*
X219981023Y-152198926D01*
X219918189Y-152215888D01*
X219917881Y-152215971D01*
X219854672Y-152232909D01*
X219854162Y-152233120D01*
X219854160Y-152233120D01*
X219853819Y-152233261D01*
X219836220Y-152243466D01*
X219797274Y-152266048D01*
X219797149Y-152266121D01*
X219740543Y-152298803D01*
X219740243Y-152299033D01*
X219739807Y-152299368D01*
X219739799Y-152299373D01*
X219693784Y-152345563D01*
X219693554Y-152345794D01*
X219647358Y-152391990D01*
X219646908Y-152392576D01*
X219646795Y-152392722D01*
X219614382Y-152449108D01*
X219614220Y-152449390D01*
X219581468Y-152506118D01*
X219581247Y-152506650D01*
X219581216Y-152506725D01*
X219577542Y-152515571D01*
X219577350Y-152516138D01*
X219576861Y-152517331D01*
X219575536Y-152516788D01*
X219541248Y-152579310D01*
X219471853Y-152625356D01*
X219412935Y-152635561D01*
X215451002Y-152630857D01*
X215370164Y-152610830D01*
X215341252Y-152591710D01*
X215204339Y-152480074D01*
X215190270Y-152468602D01*
X215009912Y-152374391D01*
X214814281Y-152318414D01*
X214814280Y-152318413D01*
X214814274Y-152318412D01*
X214694903Y-152307800D01*
X212800829Y-152307800D01*
X212800816Y-152307801D01*
X212681450Y-152318413D01*
X212681447Y-152318413D01*
X212681445Y-152318414D01*
X212485814Y-152374391D01*
X212485812Y-152374391D01*
X212485812Y-152374392D01*
X212305454Y-152468603D01*
X212270320Y-152497251D01*
X212195056Y-152532904D01*
X212111844Y-152529496D01*
X212050406Y-152497251D01*
X212020281Y-152472688D01*
X212015270Y-152468602D01*
X211834912Y-152374391D01*
X211639281Y-152318414D01*
X211639280Y-152318413D01*
X211639274Y-152318412D01*
X211519903Y-152307800D01*
X209625829Y-152307800D01*
X209625816Y-152307801D01*
X209506450Y-152318413D01*
X209506447Y-152318413D01*
X209506445Y-152318414D01*
X209310814Y-152374391D01*
X209310812Y-152374391D01*
X209310812Y-152374392D01*
X209310808Y-152374393D01*
X209152923Y-152456865D01*
X209072023Y-152476638D01*
X208991200Y-152456549D01*
X208928971Y-152401201D01*
X208899591Y-152323274D01*
X208898363Y-152302638D01*
X208898363Y-102986843D01*
X208895859Y-102971032D01*
X208861416Y-102753565D01*
X208788431Y-102528941D01*
X208788428Y-102528936D01*
X208788427Y-102528932D01*
X208731632Y-102417466D01*
X208681208Y-102318502D01*
X208681207Y-102318501D01*
X208681206Y-102318499D01*
X208542380Y-102127423D01*
X178968740Y-72553783D01*
X178777664Y-72414957D01*
X178777661Y-72414955D01*
X178777659Y-72414954D01*
X178567230Y-72307735D01*
X178567222Y-72307732D01*
X178342598Y-72234747D01*
X178109322Y-72197800D01*
X178109319Y-72197800D01*
X111915179Y-72197800D01*
X111834317Y-72177869D01*
X111771980Y-72122643D01*
X111742448Y-72044773D01*
X111752486Y-71962099D01*
X111792140Y-71900765D01*
X114854517Y-68838390D01*
X114854518Y-68838387D01*
X114864435Y-68828471D01*
X114864437Y-68828467D01*
X114954518Y-68738388D01*
X115093343Y-68547311D01*
X115200568Y-68336870D01*
X115273553Y-68112246D01*
X115310500Y-67878970D01*
X115310500Y-25324499D01*
X115330431Y-25243637D01*
X115385657Y-25181300D01*
X115463527Y-25151768D01*
X115484483Y-25150499D01*
X117258036Y-25150499D01*
X117377418Y-25139886D01*
X117573049Y-25083909D01*
X117753407Y-24989698D01*
X117911109Y-24861109D01*
X118039698Y-24703407D01*
X118133909Y-24523049D01*
X118189886Y-24327418D01*
X118200500Y-24208037D01*
X118200499Y-22391964D01*
X118189886Y-22272582D01*
X118133909Y-22076951D01*
X118039698Y-21896593D01*
X117911109Y-21738891D01*
X117753407Y-21610302D01*
X117573049Y-21516091D01*
X117573046Y-21516090D01*
X117573044Y-21516089D01*
X117476120Y-21488355D01*
X117403861Y-21446949D01*
X117400950Y-21444106D01*
X116117111Y-20160267D01*
X125900400Y-20160267D01*
X125900400Y-20441132D01*
X125931846Y-20720216D01*
X125931846Y-20720218D01*
X125994337Y-20994006D01*
X125994340Y-20994019D01*
X126087102Y-21259116D01*
X126130230Y-21348671D01*
X126208955Y-21512145D01*
X126358377Y-21749948D01*
X126533484Y-21969525D01*
X126732075Y-22168116D01*
X126951652Y-22343223D01*
X127189455Y-22492645D01*
X127333927Y-22562219D01*
X127442483Y-22614497D01*
X127442485Y-22614497D01*
X127442492Y-22614501D01*
X127707582Y-22707260D01*
X127981391Y-22769755D01*
X128260475Y-22801200D01*
X128260477Y-22801200D01*
X128541323Y-22801200D01*
X128541325Y-22801200D01*
X128820409Y-22769755D01*
X129094218Y-22707260D01*
X129359308Y-22614501D01*
X129612345Y-22492645D01*
X129850148Y-22343223D01*
X130069725Y-22168116D01*
X130268316Y-21969525D01*
X130443423Y-21749948D01*
X130592845Y-21512145D01*
X130714701Y-21259108D01*
X130807460Y-20994018D01*
X130869955Y-20720209D01*
X130901400Y-20441125D01*
X130901400Y-20160275D01*
X130901399Y-20160267D01*
X200898980Y-20160267D01*
X200898980Y-20441132D01*
X200930426Y-20720216D01*
X200930426Y-20720218D01*
X200992917Y-20994006D01*
X200992920Y-20994019D01*
X201085682Y-21259116D01*
X201128810Y-21348671D01*
X201207535Y-21512145D01*
X201356957Y-21749948D01*
X201532064Y-21969525D01*
X201730655Y-22168116D01*
X201950232Y-22343223D01*
X202188035Y-22492645D01*
X202332507Y-22562219D01*
X202441063Y-22614497D01*
X202441065Y-22614497D01*
X202441072Y-22614501D01*
X202706162Y-22707260D01*
X202979971Y-22769755D01*
X203259055Y-22801200D01*
X203259057Y-22801200D01*
X203539903Y-22801200D01*
X203539905Y-22801200D01*
X203818989Y-22769755D01*
X204092798Y-22707260D01*
X204357888Y-22614501D01*
X204610925Y-22492645D01*
X204848728Y-22343223D01*
X205068305Y-22168116D01*
X205266896Y-21969525D01*
X205442003Y-21749948D01*
X205591425Y-21512145D01*
X205713281Y-21259108D01*
X205806040Y-20994018D01*
X205868535Y-20720209D01*
X205899980Y-20441125D01*
X205899980Y-20160275D01*
X205868535Y-19881191D01*
X205806040Y-19607382D01*
X205713281Y-19342292D01*
X205591425Y-19089255D01*
X205442003Y-18851452D01*
X205266896Y-18631875D01*
X205068305Y-18433284D01*
X204848728Y-18258177D01*
X204610925Y-18108755D01*
X204610921Y-18108753D01*
X204357896Y-17986902D01*
X204357889Y-17986899D01*
X204357888Y-17986899D01*
X204261274Y-17953092D01*
X204092799Y-17894140D01*
X204092786Y-17894137D01*
X203818997Y-17831646D01*
X203818989Y-17831645D01*
X203787977Y-17828150D01*
X203539912Y-17800200D01*
X203539905Y-17800200D01*
X203259055Y-17800200D01*
X203259047Y-17800200D01*
X203007487Y-17828544D01*
X202979971Y-17831645D01*
X202979970Y-17831645D01*
X202979963Y-17831646D01*
X202979961Y-17831646D01*
X202706173Y-17894137D01*
X202706160Y-17894140D01*
X202441063Y-17986902D01*
X202188038Y-18108753D01*
X201950239Y-18258172D01*
X201950235Y-18258175D01*
X201730654Y-18433284D01*
X201532064Y-18631874D01*
X201356955Y-18851455D01*
X201356952Y-18851459D01*
X201207533Y-19089258D01*
X201085682Y-19342283D01*
X200992920Y-19607380D01*
X200992917Y-19607393D01*
X200930426Y-19881181D01*
X200930426Y-19881183D01*
X200898980Y-20160267D01*
X130901399Y-20160267D01*
X130869955Y-19881191D01*
X130807460Y-19607382D01*
X130714701Y-19342292D01*
X130592845Y-19089255D01*
X130443423Y-18851452D01*
X130268316Y-18631875D01*
X130069725Y-18433284D01*
X129850148Y-18258177D01*
X129612345Y-18108755D01*
X129612341Y-18108753D01*
X129359316Y-17986902D01*
X129359309Y-17986899D01*
X129359308Y-17986899D01*
X129262694Y-17953092D01*
X129094219Y-17894140D01*
X129094206Y-17894137D01*
X128820417Y-17831646D01*
X128820409Y-17831645D01*
X128789397Y-17828150D01*
X128541332Y-17800200D01*
X128541325Y-17800200D01*
X128260475Y-17800200D01*
X128260467Y-17800200D01*
X128008907Y-17828544D01*
X127981391Y-17831645D01*
X127981390Y-17831645D01*
X127981383Y-17831646D01*
X127981381Y-17831646D01*
X127707593Y-17894137D01*
X127707580Y-17894140D01*
X127442483Y-17986902D01*
X127189458Y-18108753D01*
X126951659Y-18258172D01*
X126951655Y-18258175D01*
X126732074Y-18433284D01*
X126533484Y-18631874D01*
X126358375Y-18851455D01*
X126358372Y-18851459D01*
X126208953Y-19089258D01*
X126087102Y-19342283D01*
X125994340Y-19607380D01*
X125994337Y-19607393D01*
X125931846Y-19881181D01*
X125931846Y-19881183D01*
X125900400Y-20160267D01*
X116117111Y-20160267D01*
X115761328Y-19804484D01*
X115761327Y-19804483D01*
X115570251Y-19665657D01*
X115570248Y-19665655D01*
X115570246Y-19665654D01*
X115359817Y-19558435D01*
X115359809Y-19558432D01*
X115135185Y-19485447D01*
X114901909Y-19448500D01*
X107874275Y-19448500D01*
X107638091Y-19448500D01*
X107404815Y-19485447D01*
X107292503Y-19521939D01*
X107180190Y-19558432D01*
X107180187Y-19558433D01*
X106969750Y-19665657D01*
X106778671Y-19804484D01*
X105234484Y-21348671D01*
X105234483Y-21348673D01*
X105095657Y-21539749D01*
X105093519Y-21543946D01*
X105059709Y-21610301D01*
X104988433Y-21750187D01*
X104988432Y-21750190D01*
X104988432Y-21750191D01*
X104915447Y-21974815D01*
X104882359Y-22183730D01*
X104878500Y-22208093D01*
X104878500Y-23427760D01*
X104858569Y-23508622D01*
X104803343Y-23570959D01*
X104725473Y-23600491D01*
X104642799Y-23590453D01*
X104574259Y-23543143D01*
X104543745Y-23494347D01*
X104500499Y-23389943D01*
X104448043Y-23263303D01*
X104448041Y-23263299D01*
X104448037Y-23263291D01*
X104357806Y-23107007D01*
X104316924Y-23036197D01*
X104212340Y-22899901D01*
X104157287Y-22828155D01*
X104157285Y-22828153D01*
X104157282Y-22828149D01*
X103971851Y-22642718D01*
X103971846Y-22642714D01*
X103971844Y-22642712D01*
X103763804Y-22483077D01*
X103763805Y-22483077D01*
X103763803Y-22483076D01*
X103705647Y-22449500D01*
X103536708Y-22351962D01*
X103536700Y-22351959D01*
X103536701Y-22351959D01*
X103536697Y-22351957D01*
X103400084Y-22295370D01*
X103294418Y-22251601D01*
X103294415Y-22251600D01*
X103097856Y-22198933D01*
X103041116Y-22183730D01*
X103041113Y-22183729D01*
X103041106Y-22183728D01*
X102781133Y-22149501D01*
X102781123Y-22149500D01*
X102781120Y-22149500D01*
X102518880Y-22149500D01*
X102518876Y-22149500D01*
X102518866Y-22149501D01*
X102258893Y-22183728D01*
X102258884Y-22183730D01*
X102005584Y-22251600D01*
X102005581Y-22251601D01*
X101825196Y-22326319D01*
X101763303Y-22351957D01*
X101763300Y-22351958D01*
X101763299Y-22351959D01*
X101763291Y-22351962D01*
X101536195Y-22483077D01*
X101328155Y-22642712D01*
X101142712Y-22828155D01*
X100983077Y-23036195D01*
X100851962Y-23263291D01*
X100851959Y-23263299D01*
X100751601Y-23505581D01*
X100751600Y-23505584D01*
X100683730Y-23758884D01*
X100683728Y-23758893D01*
X100649501Y-24018866D01*
X100649500Y-24018885D01*
X100649500Y-24281114D01*
X100649501Y-24281133D01*
X100683728Y-24541106D01*
X100683729Y-24541113D01*
X100683730Y-24541116D01*
X100695453Y-24584868D01*
X100751600Y-24794415D01*
X100751601Y-24794418D01*
X100779226Y-24861109D01*
X100851957Y-25036697D01*
X100851959Y-25036700D01*
X100851962Y-25036708D01*
X100983077Y-25263804D01*
X101142712Y-25471844D01*
X101142714Y-25471846D01*
X101142718Y-25471851D01*
X101328149Y-25657282D01*
X101328153Y-25657285D01*
X101328155Y-25657287D01*
X101423802Y-25730679D01*
X101536197Y-25816924D01*
X101644437Y-25879416D01*
X101763291Y-25948037D01*
X101763295Y-25948038D01*
X101763303Y-25948043D01*
X102005581Y-26048398D01*
X102005584Y-26048399D01*
X102047122Y-26059528D01*
X102258884Y-26116270D01*
X102518880Y-26150500D01*
X102518885Y-26150500D01*
X102781115Y-26150500D01*
X102781120Y-26150500D01*
X103041116Y-26116270D01*
X103294419Y-26048398D01*
X103536697Y-25948043D01*
X103536706Y-25948037D01*
X103536708Y-25948037D01*
X103581630Y-25922100D01*
X103763803Y-25816924D01*
X103971851Y-25657282D01*
X104157282Y-25471851D01*
X104316924Y-25263803D01*
X104436867Y-25056054D01*
X104448037Y-25036708D01*
X104448037Y-25036706D01*
X104448043Y-25036697D01*
X104543745Y-24805651D01*
X104593103Y-24738572D01*
X104667981Y-24702114D01*
X104751225Y-24704630D01*
X104823765Y-24745543D01*
X104868982Y-24815480D01*
X104878500Y-24872239D01*
X104878500Y-29927760D01*
X104858569Y-30008622D01*
X104803343Y-30070959D01*
X104725473Y-30100491D01*
X104642799Y-30090453D01*
X104574259Y-30043143D01*
X104543745Y-29994347D01*
X104448041Y-29763299D01*
X104448037Y-29763291D01*
X104379416Y-29644437D01*
X104316924Y-29536197D01*
X104157282Y-29328149D01*
X103971851Y-29142718D01*
X103971846Y-29142714D01*
X103971844Y-29142712D01*
X103763804Y-28983077D01*
X103763805Y-28983077D01*
X103763803Y-28983076D01*
X103709682Y-28951829D01*
X103536708Y-28851962D01*
X103536700Y-28851959D01*
X103536701Y-28851959D01*
X103536697Y-28851957D01*
X103400084Y-28795370D01*
X103294418Y-28751601D01*
X103294415Y-28751600D01*
X103097856Y-28698933D01*
X103041116Y-28683730D01*
X103041113Y-28683729D01*
X103041106Y-28683728D01*
X102781133Y-28649501D01*
X102781123Y-28649500D01*
X102781120Y-28649500D01*
X102518880Y-28649500D01*
X102518876Y-28649500D01*
X102518866Y-28649501D01*
X102258893Y-28683728D01*
X102258884Y-28683730D01*
X102005584Y-28751600D01*
X102005581Y-28751601D01*
X101825196Y-28826319D01*
X101763303Y-28851957D01*
X101763300Y-28851958D01*
X101763299Y-28851959D01*
X101763291Y-28851962D01*
X101536195Y-28983077D01*
X101328155Y-29142712D01*
X101142712Y-29328155D01*
X100983077Y-29536195D01*
X100851962Y-29763291D01*
X100851959Y-29763299D01*
X100751601Y-30005581D01*
X100751600Y-30005584D01*
X100683730Y-30258884D01*
X100683728Y-30258893D01*
X100649501Y-30518866D01*
X100649500Y-30518885D01*
X100649500Y-30781114D01*
X100649501Y-30781133D01*
X100683728Y-31041106D01*
X100683730Y-31041115D01*
X100751600Y-31294415D01*
X100751601Y-31294418D01*
X100783836Y-31372239D01*
X100851957Y-31536697D01*
X100851959Y-31536700D01*
X100851962Y-31536708D01*
X100983077Y-31763804D01*
X101142712Y-31971844D01*
X101142714Y-31971846D01*
X101142718Y-31971851D01*
X101328149Y-32157282D01*
X101328153Y-32157285D01*
X101328155Y-32157287D01*
X101423802Y-32230679D01*
X101536197Y-32316924D01*
X101644437Y-32379416D01*
X101763291Y-32448037D01*
X101763295Y-32448038D01*
X101763303Y-32448043D01*
X102005581Y-32548398D01*
X102005584Y-32548399D01*
X102047122Y-32559528D01*
X102258884Y-32616270D01*
X102518880Y-32650500D01*
X102518885Y-32650500D01*
X102781115Y-32650500D01*
X102781120Y-32650500D01*
X103041116Y-32616270D01*
X103294419Y-32548398D01*
X103536697Y-32448043D01*
X103536706Y-32448037D01*
X103536708Y-32448037D01*
X103581630Y-32422100D01*
X103763803Y-32316924D01*
X103971851Y-32157282D01*
X104157282Y-31971851D01*
X104316924Y-31763803D01*
X104448043Y-31536697D01*
X104543745Y-31305651D01*
X104593103Y-31238572D01*
X104667981Y-31202114D01*
X104751225Y-31204630D01*
X104823765Y-31245543D01*
X104868982Y-31315480D01*
X104878500Y-31372239D01*
X104878500Y-71668436D01*
X104858569Y-71749298D01*
X104827537Y-71791473D01*
X92604904Y-84014106D01*
X92466074Y-84205188D01*
X92428813Y-84278318D01*
X92409813Y-84315609D01*
X92393035Y-84348537D01*
X92358853Y-84415622D01*
X92358852Y-84415625D01*
X92358852Y-84415626D01*
X92285867Y-84640250D01*
X92248920Y-84873526D01*
X92248920Y-111959050D01*
X92248920Y-112195234D01*
X92285867Y-112428511D01*
X92322494Y-112541235D01*
X92358852Y-112653134D01*
X92358855Y-112653142D01*
X92466074Y-112863571D01*
X92466077Y-112863576D01*
X92604903Y-113054652D01*
X99195069Y-119644818D01*
X99195072Y-119644820D01*
X99195073Y-119644821D01*
X99195074Y-119644822D01*
X99386140Y-119783639D01*
X99386146Y-119783643D01*
X99596587Y-119890868D01*
X99821211Y-119963853D01*
X100054487Y-120000800D01*
X100054490Y-120000800D01*
X155541875Y-120000800D01*
X155541878Y-120000800D01*
X155775154Y-119963853D01*
X155999778Y-119890868D01*
X156210220Y-119783643D01*
X156401296Y-119644817D01*
X162577380Y-113468733D01*
X162716206Y-113277657D01*
X162823431Y-113067215D01*
X162896416Y-112842592D01*
X162904480Y-112791676D01*
X162936813Y-112714930D01*
X163001110Y-112661999D01*
X163082641Y-112645011D01*
X163147011Y-112661256D01*
X163147389Y-112660344D01*
X163152648Y-112662522D01*
X163152651Y-112662524D01*
X163376763Y-112755354D01*
X163611074Y-112818138D01*
X163611088Y-112818139D01*
X163611089Y-112818140D01*
X163851559Y-112849798D01*
X163851561Y-112849798D01*
X163851575Y-112849800D01*
X163851582Y-112849800D01*
X164094144Y-112849800D01*
X164094151Y-112849800D01*
X164334652Y-112818138D01*
X164568963Y-112755354D01*
X164793075Y-112662524D01*
X164793083Y-112662519D01*
X164793086Y-112662518D01*
X164846019Y-112631956D01*
X165003152Y-112541236D01*
X165195601Y-112393565D01*
X165367128Y-112222038D01*
X165454344Y-112108374D01*
X165519380Y-112056358D01*
X165601142Y-112040521D01*
X165680898Y-112064496D01*
X165694661Y-112073532D01*
X165805309Y-112153922D01*
X165994640Y-112250392D01*
X165994642Y-112250393D01*
X166196728Y-112316055D01*
X166196734Y-112316056D01*
X166262863Y-112326530D01*
X166262863Y-111432312D01*
X166319870Y-111465225D01*
X166447037Y-111499300D01*
X166578689Y-111499300D01*
X166705856Y-111465225D01*
X166762863Y-111432312D01*
X166762863Y-112326530D01*
X166828991Y-112316056D01*
X166828997Y-112316055D01*
X167031083Y-112250393D01*
X167031084Y-112250392D01*
X167077047Y-112226973D01*
X167158143Y-112208020D01*
X167238759Y-112228925D01*
X167300425Y-112284899D01*
X167310269Y-112301442D01*
X167363165Y-112402707D01*
X167491754Y-112560409D01*
X167649456Y-112688998D01*
X167829814Y-112783209D01*
X168025445Y-112839186D01*
X168025448Y-112839186D01*
X168025451Y-112839187D01*
X168075583Y-112843643D01*
X168144826Y-112849800D01*
X169050420Y-112849799D01*
X169131281Y-112869730D01*
X169193618Y-112924956D01*
X169223150Y-113002825D01*
X169213112Y-113085500D01*
X169173456Y-113146836D01*
X162423457Y-119896837D01*
X162352186Y-119939921D01*
X162300420Y-119947800D01*
X157212113Y-119947800D01*
X156975929Y-119947800D01*
X156742653Y-119984747D01*
X156630341Y-120021239D01*
X156518028Y-120057732D01*
X156518025Y-120057733D01*
X156307587Y-120164957D01*
X156307582Y-120164960D01*
X156116516Y-120303777D01*
X133228347Y-143191946D01*
X133089519Y-143383025D01*
X133089517Y-143383028D01*
X132982298Y-143593457D01*
X132982295Y-143593465D01*
X132909310Y-143818091D01*
X132872363Y-144051368D01*
X132872363Y-152302638D01*
X132852432Y-152383500D01*
X132797206Y-152445837D01*
X132719336Y-152475369D01*
X132636662Y-152465331D01*
X132617803Y-152456865D01*
X132459917Y-152374393D01*
X132459914Y-152374392D01*
X132459912Y-152374391D01*
X132264281Y-152318414D01*
X132264280Y-152318413D01*
X132264274Y-152318412D01*
X132144903Y-152307800D01*
X130250829Y-152307800D01*
X130250816Y-152307801D01*
X130131450Y-152318413D01*
X130131447Y-152318413D01*
X130131445Y-152318414D01*
X129935814Y-152374391D01*
X129935812Y-152374391D01*
X129935812Y-152374392D01*
X129755457Y-152468601D01*
X129755453Y-152468604D01*
X129729438Y-152489816D01*
X129694843Y-152506202D01*
X129660921Y-152523954D01*
X129656157Y-152524526D01*
X129654172Y-152525467D01*
X129619274Y-152528960D01*
X129601005Y-152528938D01*
X129520168Y-152508910D01*
X129491259Y-152489793D01*
X129465270Y-152468602D01*
X129449321Y-152460271D01*
X129284912Y-152374391D01*
X129089281Y-152318414D01*
X129089280Y-152318413D01*
X129089274Y-152318412D01*
X128969903Y-152307800D01*
X127075829Y-152307800D01*
X127075816Y-152307801D01*
X126956450Y-152318413D01*
X126956447Y-152318413D01*
X126956445Y-152318414D01*
X126760814Y-152374391D01*
X126760812Y-152374391D01*
X126760812Y-152374392D01*
X126580457Y-152468601D01*
X126580454Y-152468603D01*
X126559053Y-152486053D01*
X126524449Y-152502443D01*
X126490544Y-152520188D01*
X126485777Y-152520761D01*
X126483787Y-152521704D01*
X126448898Y-152525196D01*
X126421383Y-152525164D01*
X126340544Y-152505139D01*
X126311627Y-152486016D01*
X126290272Y-152468603D01*
X126259490Y-152452524D01*
X126109912Y-152374391D01*
X125914281Y-152318414D01*
X125914280Y-152318413D01*
X125914274Y-152318412D01*
X125794903Y-152307800D01*
X123900829Y-152307800D01*
X123900816Y-152307801D01*
X123781450Y-152318413D01*
X123781447Y-152318413D01*
X123781445Y-152318414D01*
X123585814Y-152374391D01*
X123585812Y-152374391D01*
X123585812Y-152374392D01*
X123405452Y-152468604D01*
X123388669Y-152482289D01*
X123354076Y-152498674D01*
X123320154Y-152516427D01*
X123315389Y-152516999D01*
X123313404Y-152517940D01*
X123278507Y-152521433D01*
X123241748Y-152521389D01*
X123160910Y-152501361D01*
X123131999Y-152482243D01*
X123129339Y-152480074D01*
X123115270Y-152468602D01*
X122934912Y-152374391D01*
X122739281Y-152318414D01*
X122739280Y-152318413D01*
X122739274Y-152318412D01*
X122619903Y-152307800D01*
X120725829Y-152307800D01*
X120725816Y-152307801D01*
X120606450Y-152318413D01*
X120606447Y-152318413D01*
X120606445Y-152318414D01*
X120410814Y-152374391D01*
X120230456Y-152468602D01*
X120230454Y-152468603D01*
X120230453Y-152468604D01*
X120218284Y-152478526D01*
X120183700Y-152494906D01*
X120149770Y-152512663D01*
X120145002Y-152513236D01*
X120143018Y-152514176D01*
X120108123Y-152517669D01*
X120062119Y-152517614D01*
X119981281Y-152497587D01*
X119952372Y-152478469D01*
X119940273Y-152468604D01*
X119940271Y-152468603D01*
X119940270Y-152468602D01*
X119759912Y-152374391D01*
X119564281Y-152318414D01*
X119564280Y-152318413D01*
X119564274Y-152318412D01*
X119444903Y-152307800D01*
X117550829Y-152307800D01*
X117550816Y-152307801D01*
X117431450Y-152318413D01*
X117431447Y-152318413D01*
X117431445Y-152318414D01*
X117235814Y-152374391D01*
X117235812Y-152374391D01*
X117235812Y-152374392D01*
X117055457Y-152468601D01*
X117055456Y-152468602D01*
X117050299Y-152472807D01*
X117047899Y-152474764D01*
X117013299Y-152491151D01*
X116979387Y-152508898D01*
X116974620Y-152509471D01*
X116972632Y-152510413D01*
X116937740Y-152513905D01*
X116882489Y-152513839D01*
X116801651Y-152493812D01*
X116772742Y-152474694D01*
X116765273Y-152468604D01*
X116765271Y-152468603D01*
X116765270Y-152468602D01*
X116584912Y-152374391D01*
X116389281Y-152318414D01*
X116389280Y-152318413D01*
X116389274Y-152318412D01*
X116269903Y-152307800D01*
X114375829Y-152307800D01*
X114375816Y-152307801D01*
X114256450Y-152318413D01*
X114256447Y-152318413D01*
X114256445Y-152318414D01*
X114060814Y-152374391D01*
X114060812Y-152374391D01*
X114060812Y-152374392D01*
X113880457Y-152468601D01*
X113880452Y-152468605D01*
X113877510Y-152471004D01*
X113875031Y-152472177D01*
X113873089Y-152473458D01*
X113872908Y-152473183D01*
X113842922Y-152487384D01*
X113809006Y-152505134D01*
X113804230Y-152505708D01*
X113802242Y-152506650D01*
X113767359Y-152510141D01*
X113702863Y-152510065D01*
X113622025Y-152490039D01*
X113593112Y-152470919D01*
X113590271Y-152468602D01*
X113496060Y-152419390D01*
X113409912Y-152374391D01*
X113214281Y-152318414D01*
X113214280Y-152318413D01*
X113214274Y-152318412D01*
X113094903Y-152307800D01*
X111200829Y-152307800D01*
X111200816Y-152307801D01*
X111081450Y-152318413D01*
X111081447Y-152318413D01*
X111081445Y-152318414D01*
X110885814Y-152374391D01*
X110885812Y-152374391D01*
X110885812Y-152374392D01*
X110705457Y-152468601D01*
X110698089Y-152473457D01*
X110697116Y-152471982D01*
X110672531Y-152483623D01*
X110638621Y-152501370D01*
X110633837Y-152501945D01*
X110631844Y-152502889D01*
X110596974Y-152506377D01*
X110523233Y-152506290D01*
X110442394Y-152486264D01*
X110422755Y-152473276D01*
X110422637Y-152473457D01*
X110415273Y-152468603D01*
X110317374Y-152417465D01*
X110234912Y-152374391D01*
X110039281Y-152318414D01*
X110039280Y-152318413D01*
X110039274Y-152318412D01*
X109919903Y-152307800D01*
X108025829Y-152307800D01*
X108025816Y-152307801D01*
X107906450Y-152318413D01*
X107906447Y-152318413D01*
X107906445Y-152318414D01*
X107710814Y-152374391D01*
X107710812Y-152374391D01*
X107710812Y-152374392D01*
X107530452Y-152468604D01*
X107523083Y-152473461D01*
X107521327Y-152470796D01*
X107502079Y-152479894D01*
X107468234Y-152497607D01*
X107463371Y-152498191D01*
X107461346Y-152499149D01*
X107426587Y-152502614D01*
X107343601Y-152502515D01*
X107262763Y-152482488D01*
X107248082Y-152472783D01*
X107247638Y-152473458D01*
X107240271Y-152468603D01*
X107240270Y-152468602D01*
X107059912Y-152374391D01*
X106864281Y-152318414D01*
X106864280Y-152318413D01*
X106864274Y-152318412D01*
X106744903Y-152307800D01*
X104850829Y-152307800D01*
X104850816Y-152307801D01*
X104731450Y-152318413D01*
X104731447Y-152318413D01*
X104731445Y-152318414D01*
X104535814Y-152374391D01*
X104355456Y-152468602D01*
X104355454Y-152468603D01*
X104355451Y-152468605D01*
X104353119Y-152470142D01*
X104351216Y-152470816D01*
X104347635Y-152472688D01*
X104347370Y-152472181D01*
X104325129Y-152480074D01*
X104298817Y-152493844D01*
X104279922Y-152496115D01*
X104274632Y-152497993D01*
X104257170Y-152498851D01*
X104162972Y-152498739D01*
X104082134Y-152478712D01*
X104067430Y-152470025D01*
X104065274Y-152468604D01*
X104021690Y-152445838D01*
X103884912Y-152374391D01*
X103689281Y-152318414D01*
X103689280Y-152318413D01*
X103689274Y-152318412D01*
X103569903Y-152307800D01*
X101675829Y-152307800D01*
X101675816Y-152307801D01*
X101556450Y-152318413D01*
X101556447Y-152318413D01*
X101556445Y-152318414D01*
X101360814Y-152374391D01*
X101180456Y-152468602D01*
X101180453Y-152468603D01*
X101172635Y-152472688D01*
X101171607Y-152470720D01*
X101155826Y-152476317D01*
X101129527Y-152490081D01*
X101110604Y-152492355D01*
X101105312Y-152494233D01*
X101087880Y-152495088D01*
X100982242Y-152494963D01*
X100901404Y-152474937D01*
X100893833Y-152470464D01*
X100890272Y-152468604D01*
X100890270Y-152468602D01*
X100709912Y-152374391D01*
X100514281Y-152318414D01*
X100514280Y-152318413D01*
X100514274Y-152318412D01*
X100394903Y-152307800D01*
X98500829Y-152307800D01*
X98500816Y-152307801D01*
X98381450Y-152318413D01*
X98381447Y-152318413D01*
X98381445Y-152318414D01*
X98185814Y-152374391D01*
X98185812Y-152374391D01*
X98185812Y-152374392D01*
X98185807Y-152374393D01*
X97999803Y-152471553D01*
X97979315Y-152476568D01*
X97960684Y-152486319D01*
X97919037Y-152491326D01*
X97801007Y-152491186D01*
X97720652Y-152471413D01*
X97631383Y-152424783D01*
X97534912Y-152374391D01*
X97339281Y-152318414D01*
X97339280Y-152318413D01*
X97339274Y-152318412D01*
X97219903Y-152307800D01*
X95325829Y-152307800D01*
X95325816Y-152307801D01*
X95206450Y-152318413D01*
X95206447Y-152318413D01*
X95206445Y-152318414D01*
X95010814Y-152374391D01*
X95010812Y-152374391D01*
X95010812Y-152374392D01*
X95010808Y-152374393D01*
X94832004Y-152467792D01*
X94811516Y-152472807D01*
X94792885Y-152482558D01*
X94751238Y-152487565D01*
X94618775Y-152487408D01*
X94538420Y-152467635D01*
X94436047Y-152414160D01*
X94359912Y-152374391D01*
X94164281Y-152318414D01*
X94164280Y-152318413D01*
X94164274Y-152318412D01*
X94044903Y-152307800D01*
X92150829Y-152307800D01*
X92150816Y-152307801D01*
X92031450Y-152318413D01*
X92031447Y-152318413D01*
X92031445Y-152318414D01*
X91835814Y-152374391D01*
X91835812Y-152374391D01*
X91835812Y-152374392D01*
X91664204Y-152464032D01*
X91643713Y-152469048D01*
X91625083Y-152478798D01*
X91583436Y-152483805D01*
X91436540Y-152483630D01*
X91356186Y-152463857D01*
X91349321Y-152460271D01*
X91184912Y-152374391D01*
X90989281Y-152318414D01*
X90989280Y-152318413D01*
X90989274Y-152318412D01*
X90869903Y-152307800D01*
X88975829Y-152307800D01*
X88975816Y-152307801D01*
X88856450Y-152318413D01*
X88856447Y-152318413D01*
X88856445Y-152318414D01*
X88660814Y-152374391D01*
X88660812Y-152374391D01*
X88660812Y-152374392D01*
X88660807Y-152374393D01*
X88496402Y-152460271D01*
X88475912Y-152465287D01*
X88457282Y-152475037D01*
X88415635Y-152480044D01*
X88254307Y-152479852D01*
X88173953Y-152460079D01*
X88009912Y-152374391D01*
X87814281Y-152318414D01*
X87814280Y-152318413D01*
X87814274Y-152318412D01*
X87694903Y-152307800D01*
X85800829Y-152307800D01*
X85800816Y-152307801D01*
X85681450Y-152318413D01*
X85681447Y-152318413D01*
X85681445Y-152318414D01*
X85485814Y-152374391D01*
X85485812Y-152374391D01*
X85485812Y-152374392D01*
X85485807Y-152374393D01*
X85328602Y-152456510D01*
X85308112Y-152461526D01*
X85289482Y-152471276D01*
X85247835Y-152476283D01*
X85072075Y-152476074D01*
X84991721Y-152456301D01*
X84965727Y-152442723D01*
X84834912Y-152374391D01*
X84639281Y-152318414D01*
X84639280Y-152318413D01*
X84639274Y-152318412D01*
X84519903Y-152307800D01*
X82625829Y-152307800D01*
X82625816Y-152307801D01*
X82506450Y-152318413D01*
X82506447Y-152318413D01*
X82506445Y-152318414D01*
X82310814Y-152374391D01*
X82310812Y-152374391D01*
X82310812Y-152374392D01*
X82310807Y-152374393D01*
X82160802Y-152452749D01*
X82140313Y-152457764D01*
X82121683Y-152467515D01*
X82080036Y-152472522D01*
X81889845Y-152472297D01*
X81809490Y-152452524D01*
X81659912Y-152374391D01*
X81464281Y-152318414D01*
X81464280Y-152318413D01*
X81464274Y-152318412D01*
X81344903Y-152307800D01*
X79450829Y-152307800D01*
X79450816Y-152307801D01*
X79331450Y-152318413D01*
X79331447Y-152318413D01*
X79331445Y-152318414D01*
X79135814Y-152374391D01*
X79135812Y-152374391D01*
X79135812Y-152374392D01*
X78993003Y-152448989D01*
X78972512Y-152454005D01*
X78953882Y-152463755D01*
X78912235Y-152468762D01*
X78707612Y-152468519D01*
X78627258Y-152448746D01*
X78581383Y-152424783D01*
X78484912Y-152374391D01*
X78289281Y-152318414D01*
X78289280Y-152318413D01*
X78289274Y-152318412D01*
X78169903Y-152307800D01*
X76275829Y-152307800D01*
X76275816Y-152307801D01*
X76156450Y-152318413D01*
X76156447Y-152318413D01*
X76156445Y-152318414D01*
X76061563Y-152345563D01*
X75960809Y-152374392D01*
X75960806Y-152374394D01*
X75825200Y-152445228D01*
X75804711Y-152450243D01*
X75786080Y-152459994D01*
X75744433Y-152465001D01*
X75525379Y-152464741D01*
X75445025Y-152444968D01*
X75407221Y-152425221D01*
X75309912Y-152374391D01*
X75114281Y-152318414D01*
X75114280Y-152318413D01*
X75114274Y-152318412D01*
X74994903Y-152307800D01*
X73100829Y-152307800D01*
X73100816Y-152307801D01*
X72981450Y-152318413D01*
X72981447Y-152318413D01*
X72981445Y-152318414D01*
X72785814Y-152374391D01*
X72785812Y-152374391D01*
X72785812Y-152374392D01*
X72657401Y-152441468D01*
X72636910Y-152446484D01*
X72618280Y-152456234D01*
X72576633Y-152461241D01*
X72343147Y-152460963D01*
X72262794Y-152441190D01*
X72169390Y-152392401D01*
X72134912Y-152374391D01*
X71939281Y-152318414D01*
X71939280Y-152318413D01*
X71939274Y-152318412D01*
X71819903Y-152307800D01*
X69925829Y-152307800D01*
X69925816Y-152307801D01*
X69806450Y-152318413D01*
X69806447Y-152318413D01*
X69806445Y-152318414D01*
X69668762Y-152357810D01*
X69610810Y-152374392D01*
X69489600Y-152437707D01*
X69469109Y-152442723D01*
X69450479Y-152452473D01*
X69408832Y-152457480D01*
X69160915Y-152457185D01*
X69080562Y-152437412D01*
X68959918Y-152374393D01*
X68959914Y-152374392D01*
X68959912Y-152374391D01*
X68764281Y-152318414D01*
X68764280Y-152318413D01*
X68764274Y-152318412D01*
X68644903Y-152307800D01*
X66750829Y-152307800D01*
X66750816Y-152307801D01*
X66631450Y-152318413D01*
X66631447Y-152318413D01*
X66631445Y-152318414D01*
X66536563Y-152345563D01*
X66435809Y-152374392D01*
X66435806Y-152374394D01*
X66321799Y-152433946D01*
X66301309Y-152438962D01*
X66282679Y-152448712D01*
X66241032Y-152453719D01*
X65978682Y-152453407D01*
X65898329Y-152433634D01*
X65802350Y-152383500D01*
X65784912Y-152374391D01*
X65589281Y-152318414D01*
X65589280Y-152318413D01*
X65589274Y-152318412D01*
X65469903Y-152307800D01*
X63575829Y-152307800D01*
X63575816Y-152307801D01*
X63456450Y-152318413D01*
X63456447Y-152318413D01*
X63456445Y-152318414D01*
X63361563Y-152345563D01*
X63260809Y-152374392D01*
X63260806Y-152374394D01*
X63153999Y-152430185D01*
X63133509Y-152435201D01*
X63114879Y-152444951D01*
X63073232Y-152449958D01*
X62796449Y-152449629D01*
X62716096Y-152429856D01*
X62644390Y-152392401D01*
X62609912Y-152374391D01*
X62414281Y-152318414D01*
X62414280Y-152318413D01*
X62414274Y-152318412D01*
X62294903Y-152307800D01*
X59384829Y-152307800D01*
X59384816Y-152307801D01*
X59265450Y-152318413D01*
X59265447Y-152318413D01*
X59265445Y-152318414D01*
X59170563Y-152345563D01*
X59069809Y-152374392D01*
X59069806Y-152374394D01*
X58972502Y-152425221D01*
X58952013Y-152430236D01*
X58933382Y-152439987D01*
X58891735Y-152444994D01*
X58736848Y-152444810D01*
X58656010Y-152424783D01*
X58593738Y-152369483D01*
X58586367Y-152357810D01*
X58557493Y-152307800D01*
X58548363Y-152291986D01*
X58455177Y-152198800D01*
X58455174Y-152198798D01*
X58455170Y-152198795D01*
X58341052Y-152132909D01*
X58341049Y-152132908D01*
X58306942Y-152123769D01*
X58213757Y-152098800D01*
X58213755Y-152098800D01*
X20822374Y-152098800D01*
X20741512Y-152078869D01*
X20679175Y-152023643D01*
X20649643Y-151945773D01*
X20648374Y-151924797D01*
X20648629Y-135236116D01*
X20649775Y-60252500D01*
X42499500Y-60252500D01*
X42499500Y-60547499D01*
X42499501Y-60547518D01*
X42538005Y-60839983D01*
X42538006Y-60839990D01*
X42538007Y-60839993D01*
X42555110Y-60903824D01*
X42614359Y-61124948D01*
X42614360Y-61124951D01*
X42727259Y-61397511D01*
X42727262Y-61397518D01*
X42874763Y-61652995D01*
X43054348Y-61887035D01*
X43054350Y-61887037D01*
X43054354Y-61887042D01*
X43262958Y-62095646D01*
X43262962Y-62095649D01*
X43262964Y-62095651D01*
X43370566Y-62178217D01*
X43497006Y-62275238D01*
X43618773Y-62345540D01*
X43752481Y-62422737D01*
X43752487Y-62422739D01*
X43752493Y-62422743D01*
X44025048Y-62535639D01*
X44025051Y-62535640D01*
X44071780Y-62548160D01*
X44310007Y-62611993D01*
X44602494Y-62650500D01*
X44602501Y-62650500D01*
X44897499Y-62650500D01*
X44897506Y-62650500D01*
X45189993Y-62611993D01*
X45474952Y-62535639D01*
X45747507Y-62422743D01*
X45747515Y-62422738D01*
X45747518Y-62422737D01*
X45829788Y-62375238D01*
X46002994Y-62275238D01*
X46237042Y-62095646D01*
X46445646Y-61887042D01*
X46625238Y-61652994D01*
X46772743Y-61397507D01*
X46885639Y-61124952D01*
X46961993Y-60839993D01*
X47000500Y-60547506D01*
X47000500Y-60343600D01*
X47020431Y-60262739D01*
X47051463Y-60220564D01*
X47145594Y-60126433D01*
X47304517Y-59967510D01*
X47443343Y-59776434D01*
X47550568Y-59565992D01*
X47623553Y-59341369D01*
X47660500Y-59108092D01*
X47660500Y-58871908D01*
X47660500Y-53736814D01*
X47680431Y-53655952D01*
X47735657Y-53593615D01*
X47813527Y-53564083D01*
X47896201Y-53574121D01*
X47936775Y-53596046D01*
X48068650Y-53691859D01*
X48068652Y-53691861D01*
X48250964Y-53784752D01*
X48250969Y-53784755D01*
X48445586Y-53847991D01*
X48499999Y-53856608D01*
X48500000Y-53856607D01*
X48500000Y-52895686D01*
X48504394Y-52900080D01*
X48595606Y-52952741D01*
X48697339Y-52980000D01*
X48802661Y-52980000D01*
X48904394Y-52952741D01*
X48995606Y-52900080D01*
X49000000Y-52895686D01*
X49000000Y-53856608D01*
X49054413Y-53847991D01*
X49249030Y-53784755D01*
X49249035Y-53784752D01*
X49431344Y-53691862D01*
X49596891Y-53571585D01*
X49741585Y-53426891D01*
X49861862Y-53261344D01*
X49954752Y-53079035D01*
X49954756Y-53079027D01*
X50017989Y-52884416D01*
X50026608Y-52830000D01*
X49065686Y-52830000D01*
X49070080Y-52825606D01*
X49122741Y-52734394D01*
X49150000Y-52632661D01*
X49150000Y-52527339D01*
X49122741Y-52425606D01*
X49070080Y-52334394D01*
X49065686Y-52330000D01*
X50026608Y-52330000D01*
X50017989Y-52275583D01*
X49954756Y-52080972D01*
X49954752Y-52080964D01*
X49861862Y-51898655D01*
X49741585Y-51733108D01*
X49596891Y-51588414D01*
X49431344Y-51468137D01*
X49249035Y-51375247D01*
X49249027Y-51375243D01*
X49054416Y-51312010D01*
X49000000Y-51303391D01*
X49000000Y-52264314D01*
X48995606Y-52259920D01*
X48904394Y-52207259D01*
X48802661Y-52180000D01*
X48697339Y-52180000D01*
X48595606Y-52207259D01*
X48504394Y-52259920D01*
X48500000Y-52264314D01*
X48500000Y-51303391D01*
X48445583Y-51312010D01*
X48250972Y-51375243D01*
X48250964Y-51375247D01*
X48068655Y-51468137D01*
X47936775Y-51563954D01*
X47859641Y-51595359D01*
X47776748Y-51587321D01*
X47707085Y-51541682D01*
X47666612Y-51468896D01*
X47660500Y-51423185D01*
X47660500Y-44171391D01*
X47680431Y-44090529D01*
X47735657Y-44028192D01*
X47813527Y-43998660D01*
X47896201Y-44008698D01*
X47921498Y-44020702D01*
X47951951Y-44038284D01*
X48170007Y-44128606D01*
X48170008Y-44128606D01*
X48170010Y-44128607D01*
X48397978Y-44189691D01*
X48397979Y-44189691D01*
X48397986Y-44189693D01*
X48398000Y-44189694D01*
X48398001Y-44189695D01*
X48631973Y-44220498D01*
X48631975Y-44220498D01*
X48631989Y-44220500D01*
X48631996Y-44220500D01*
X48868004Y-44220500D01*
X48868011Y-44220500D01*
X49102014Y-44189693D01*
X49329993Y-44128606D01*
X49548049Y-44038284D01*
X49752450Y-43920273D01*
X49939699Y-43776592D01*
X50106592Y-43609699D01*
X50250273Y-43422450D01*
X50368284Y-43218049D01*
X50374745Y-43202450D01*
X50424101Y-43135372D01*
X50498978Y-43098913D01*
X50582222Y-43101427D01*
X50654763Y-43142339D01*
X50699981Y-43212276D01*
X50709500Y-43269037D01*
X50709500Y-57982818D01*
X50689569Y-58063680D01*
X50634343Y-58126017D01*
X50558212Y-58155329D01*
X50310016Y-58188005D01*
X50310007Y-58188007D01*
X50025051Y-58264359D01*
X50025048Y-58264360D01*
X49752488Y-58377259D01*
X49752481Y-58377262D01*
X49497004Y-58524763D01*
X49262964Y-58704348D01*
X49054348Y-58912964D01*
X48874763Y-59147004D01*
X48727262Y-59402481D01*
X48727259Y-59402488D01*
X48614360Y-59675048D01*
X48614359Y-59675051D01*
X48538007Y-59960007D01*
X48538005Y-59960016D01*
X48499501Y-60252481D01*
X48499500Y-60252500D01*
X48499500Y-60547499D01*
X48499501Y-60547518D01*
X48538005Y-60839983D01*
X48538006Y-60839990D01*
X48538007Y-60839993D01*
X48555110Y-60903824D01*
X48614359Y-61124948D01*
X48614360Y-61124951D01*
X48727259Y-61397511D01*
X48727262Y-61397518D01*
X48874763Y-61652995D01*
X49054348Y-61887035D01*
X49054350Y-61887037D01*
X49054354Y-61887042D01*
X49262958Y-62095646D01*
X49262962Y-62095649D01*
X49262964Y-62095651D01*
X49370566Y-62178217D01*
X49497006Y-62275238D01*
X49618773Y-62345540D01*
X49752481Y-62422737D01*
X49752487Y-62422739D01*
X49752493Y-62422743D01*
X50025048Y-62535639D01*
X50025051Y-62535640D01*
X50071780Y-62548160D01*
X50310007Y-62611993D01*
X50602494Y-62650500D01*
X50602501Y-62650500D01*
X50897499Y-62650500D01*
X50897506Y-62650500D01*
X51189993Y-62611993D01*
X51474952Y-62535639D01*
X51747507Y-62422743D01*
X51747515Y-62422738D01*
X51747518Y-62422737D01*
X51829788Y-62375238D01*
X52002994Y-62275238D01*
X52237042Y-62095646D01*
X52445646Y-61887042D01*
X52625238Y-61652994D01*
X52772743Y-61397507D01*
X52885639Y-61124952D01*
X52961993Y-60839993D01*
X53000500Y-60547506D01*
X53000500Y-60343600D01*
X53020431Y-60262738D01*
X53051464Y-60220563D01*
X53195594Y-60076434D01*
X53354518Y-59917510D01*
X53493343Y-59726433D01*
X53600568Y-59515992D01*
X53673553Y-59291368D01*
X53710500Y-59058092D01*
X53710500Y-58821908D01*
X53710500Y-53773141D01*
X53730431Y-53692279D01*
X53785657Y-53629942D01*
X53863527Y-53600410D01*
X53946201Y-53610448D01*
X53986776Y-53632373D01*
X54068654Y-53691862D01*
X54250964Y-53784752D01*
X54250969Y-53784755D01*
X54445586Y-53847991D01*
X54499999Y-53856608D01*
X54500000Y-53856607D01*
X54500000Y-52895686D01*
X54504394Y-52900080D01*
X54595606Y-52952741D01*
X54697339Y-52980000D01*
X54802661Y-52980000D01*
X54904394Y-52952741D01*
X54995606Y-52900080D01*
X55000000Y-52895686D01*
X55000000Y-53856608D01*
X55054413Y-53847991D01*
X55249030Y-53784755D01*
X55249035Y-53784752D01*
X55431344Y-53691862D01*
X55596891Y-53571585D01*
X55741585Y-53426891D01*
X55861862Y-53261344D01*
X55954752Y-53079035D01*
X55954756Y-53079027D01*
X56017989Y-52884416D01*
X56026608Y-52830000D01*
X55065686Y-52830000D01*
X55070080Y-52825606D01*
X55122741Y-52734394D01*
X55150000Y-52632661D01*
X55150000Y-52527339D01*
X55122741Y-52425606D01*
X55070080Y-52334394D01*
X55065686Y-52330000D01*
X56026608Y-52330000D01*
X56017989Y-52275583D01*
X55954756Y-52080972D01*
X55954752Y-52080964D01*
X55861862Y-51898655D01*
X55741585Y-51733108D01*
X55596891Y-51588414D01*
X55431344Y-51468137D01*
X55249035Y-51375247D01*
X55249027Y-51375243D01*
X55054416Y-51312010D01*
X55000000Y-51303391D01*
X55000000Y-52264314D01*
X54995606Y-52259920D01*
X54904394Y-52207259D01*
X54802661Y-52180000D01*
X54697339Y-52180000D01*
X54595606Y-52207259D01*
X54504394Y-52259920D01*
X54500000Y-52264314D01*
X54500000Y-51303391D01*
X54445583Y-51312010D01*
X54250972Y-51375243D01*
X54250964Y-51375247D01*
X54068655Y-51468137D01*
X53986775Y-51527627D01*
X53909641Y-51559032D01*
X53826748Y-51550994D01*
X53757085Y-51505355D01*
X53716612Y-51432569D01*
X53710500Y-51386858D01*
X53710500Y-44198681D01*
X53730431Y-44117819D01*
X53785657Y-44055482D01*
X53863527Y-44025950D01*
X53946201Y-44035988D01*
X53951087Y-44037926D01*
X53951950Y-44038283D01*
X53951951Y-44038284D01*
X54170007Y-44128606D01*
X54170008Y-44128606D01*
X54170010Y-44128607D01*
X54397978Y-44189691D01*
X54397979Y-44189691D01*
X54397986Y-44189693D01*
X54398000Y-44189694D01*
X54398001Y-44189695D01*
X54631973Y-44220498D01*
X54631975Y-44220498D01*
X54631989Y-44220500D01*
X54631996Y-44220500D01*
X54868004Y-44220500D01*
X54868011Y-44220500D01*
X55102014Y-44189693D01*
X55329993Y-44128606D01*
X55548049Y-44038284D01*
X55752450Y-43920273D01*
X55939699Y-43776592D01*
X56106592Y-43609699D01*
X56250273Y-43422450D01*
X56368284Y-43218049D01*
X56424745Y-43081739D01*
X56474103Y-43014661D01*
X56548981Y-42978203D01*
X56632225Y-42980718D01*
X56704764Y-43021630D01*
X56749982Y-43091568D01*
X56759500Y-43148327D01*
X56759500Y-58233827D01*
X56739569Y-58314689D01*
X56684343Y-58377026D01*
X56652087Y-58394582D01*
X56452489Y-58477258D01*
X56452481Y-58477262D01*
X56197004Y-58624763D01*
X55962964Y-58804348D01*
X55754348Y-59012964D01*
X55574763Y-59247004D01*
X55427262Y-59502481D01*
X55427259Y-59502488D01*
X55314361Y-59775047D01*
X55314359Y-59775051D01*
X55238007Y-60060007D01*
X55238005Y-60060016D01*
X55199501Y-60352481D01*
X55199500Y-60352500D01*
X55199500Y-60647499D01*
X55199501Y-60647518D01*
X55238005Y-60939983D01*
X55238007Y-60939992D01*
X55314359Y-61224948D01*
X55314360Y-61224951D01*
X55427259Y-61497511D01*
X55427262Y-61497518D01*
X55574763Y-61752995D01*
X55754348Y-61987035D01*
X55754350Y-61987037D01*
X55754354Y-61987042D01*
X55962958Y-62195646D01*
X55962962Y-62195649D01*
X55962964Y-62195651D01*
X56066681Y-62275236D01*
X56197006Y-62375238D01*
X56318773Y-62445540D01*
X56452481Y-62522737D01*
X56452487Y-62522739D01*
X56452493Y-62522743D01*
X56667962Y-62611993D01*
X56725048Y-62635639D01*
X56725051Y-62635640D01*
X56771780Y-62648160D01*
X57010007Y-62711993D01*
X57302494Y-62750500D01*
X57302501Y-62750500D01*
X57597499Y-62750500D01*
X57597506Y-62750500D01*
X57889993Y-62711993D01*
X58174952Y-62635639D01*
X58447507Y-62522743D01*
X58447515Y-62522738D01*
X58447518Y-62522737D01*
X58498056Y-62493558D01*
X58702994Y-62375238D01*
X58937042Y-62195646D01*
X59145646Y-61987042D01*
X59325238Y-61752994D01*
X59472743Y-61497507D01*
X59585639Y-61224952D01*
X59661993Y-60939993D01*
X59700500Y-60647506D01*
X59700500Y-60352494D01*
X59683136Y-60220607D01*
X59690164Y-60144127D01*
X59723550Y-60041377D01*
X59723549Y-60041377D01*
X59723553Y-60041368D01*
X59760500Y-59808092D01*
X59760500Y-59571908D01*
X59760500Y-53636814D01*
X59780431Y-53555952D01*
X59835657Y-53493615D01*
X59913527Y-53464083D01*
X59996201Y-53474121D01*
X60036775Y-53496046D01*
X60168650Y-53591859D01*
X60168652Y-53591861D01*
X60350964Y-53684752D01*
X60350969Y-53684755D01*
X60545586Y-53747991D01*
X60599999Y-53756608D01*
X60600000Y-53756607D01*
X60600000Y-52795686D01*
X60604394Y-52800080D01*
X60695606Y-52852741D01*
X60797339Y-52880000D01*
X60902661Y-52880000D01*
X61004394Y-52852741D01*
X61095606Y-52800080D01*
X61100000Y-52795686D01*
X61100000Y-53756608D01*
X61154413Y-53747991D01*
X61349030Y-53684755D01*
X61349035Y-53684752D01*
X61531344Y-53591862D01*
X61696891Y-53471585D01*
X61841585Y-53326891D01*
X61961862Y-53161344D01*
X62054752Y-52979035D01*
X62054756Y-52979027D01*
X62117989Y-52784416D01*
X62126608Y-52730000D01*
X61165686Y-52730000D01*
X61170080Y-52725606D01*
X61222741Y-52634394D01*
X61250000Y-52532661D01*
X61250000Y-52427339D01*
X61222741Y-52325606D01*
X61170080Y-52234394D01*
X61165686Y-52230000D01*
X62126608Y-52230000D01*
X62117989Y-52175583D01*
X62054755Y-51980968D01*
X61961862Y-51798655D01*
X61841585Y-51633108D01*
X61696891Y-51488414D01*
X61531344Y-51368137D01*
X61349035Y-51275247D01*
X61349027Y-51275243D01*
X61154416Y-51212010D01*
X61100000Y-51203391D01*
X61100000Y-52164314D01*
X61095606Y-52159920D01*
X61004394Y-52107259D01*
X60902661Y-52080000D01*
X60797339Y-52080000D01*
X60695606Y-52107259D01*
X60604394Y-52159920D01*
X60600000Y-52164314D01*
X60600000Y-51203391D01*
X60545583Y-51212010D01*
X60350972Y-51275243D01*
X60350964Y-51275247D01*
X60168655Y-51368137D01*
X60036775Y-51463954D01*
X59959641Y-51495359D01*
X59876748Y-51487321D01*
X59807085Y-51441682D01*
X59766612Y-51368896D01*
X59760500Y-51323185D01*
X59760500Y-44071391D01*
X59780431Y-43990529D01*
X59835657Y-43928192D01*
X59913527Y-43898660D01*
X59996201Y-43908698D01*
X60021498Y-43920702D01*
X60051951Y-43938284D01*
X60270007Y-44028606D01*
X60270008Y-44028606D01*
X60270010Y-44028607D01*
X60497978Y-44089691D01*
X60497979Y-44089691D01*
X60497986Y-44089693D01*
X60498000Y-44089694D01*
X60498001Y-44089695D01*
X60731973Y-44120498D01*
X60731975Y-44120498D01*
X60731989Y-44120500D01*
X60731996Y-44120500D01*
X60968004Y-44120500D01*
X60968011Y-44120500D01*
X61202014Y-44089693D01*
X61429993Y-44028606D01*
X61648049Y-43938284D01*
X61852450Y-43820273D01*
X62039699Y-43676592D01*
X62206592Y-43509699D01*
X62350273Y-43322450D01*
X62468284Y-43118049D01*
X62474745Y-43102450D01*
X62524101Y-43035372D01*
X62598978Y-42998913D01*
X62682222Y-43001427D01*
X62754763Y-43042339D01*
X62799981Y-43112276D01*
X62809500Y-43169037D01*
X62809500Y-58127833D01*
X62789569Y-58208695D01*
X62734343Y-58271032D01*
X62680534Y-58295904D01*
X62425051Y-58364359D01*
X62425048Y-58364360D01*
X62152488Y-58477259D01*
X62152481Y-58477262D01*
X61897004Y-58624763D01*
X61662964Y-58804348D01*
X61454348Y-59012964D01*
X61274763Y-59247004D01*
X61127262Y-59502481D01*
X61127259Y-59502488D01*
X61014361Y-59775047D01*
X61014359Y-59775051D01*
X60938007Y-60060007D01*
X60938005Y-60060016D01*
X60899501Y-60352481D01*
X60899500Y-60352500D01*
X60899500Y-60647499D01*
X60899501Y-60647518D01*
X60938005Y-60939983D01*
X60938007Y-60939992D01*
X61014359Y-61224948D01*
X61014360Y-61224951D01*
X61127259Y-61497511D01*
X61127262Y-61497518D01*
X61274763Y-61752995D01*
X61454348Y-61987035D01*
X61454350Y-61987037D01*
X61454354Y-61987042D01*
X61662958Y-62195646D01*
X61662962Y-62195649D01*
X61662964Y-62195651D01*
X61766681Y-62275236D01*
X61897006Y-62375238D01*
X62018773Y-62445540D01*
X62152481Y-62522737D01*
X62152487Y-62522739D01*
X62152493Y-62522743D01*
X62367962Y-62611993D01*
X62425048Y-62635639D01*
X62425051Y-62635640D01*
X62471780Y-62648160D01*
X62710007Y-62711993D01*
X63002494Y-62750500D01*
X63002501Y-62750500D01*
X63297499Y-62750500D01*
X63297506Y-62750500D01*
X63589993Y-62711993D01*
X63874952Y-62635639D01*
X64147507Y-62522743D01*
X64147515Y-62522738D01*
X64147518Y-62522737D01*
X64198056Y-62493558D01*
X64402994Y-62375238D01*
X64637042Y-62195646D01*
X64845646Y-61987042D01*
X65025238Y-61752994D01*
X65172743Y-61497507D01*
X65285639Y-61224952D01*
X65361993Y-60939993D01*
X65400500Y-60647506D01*
X65400500Y-60443600D01*
X65420431Y-60362738D01*
X65451468Y-60320559D01*
X65454518Y-60317510D01*
X65593343Y-60126433D01*
X65700568Y-59915992D01*
X65773553Y-59691368D01*
X65810500Y-59458092D01*
X65810500Y-59221908D01*
X65810500Y-53673141D01*
X65830431Y-53592279D01*
X65885657Y-53529942D01*
X65963527Y-53500410D01*
X66046201Y-53510448D01*
X66086776Y-53532373D01*
X66168654Y-53591862D01*
X66350964Y-53684752D01*
X66350969Y-53684755D01*
X66545586Y-53747991D01*
X66599999Y-53756608D01*
X66600000Y-53756607D01*
X66600000Y-52795686D01*
X66604394Y-52800080D01*
X66695606Y-52852741D01*
X66797339Y-52880000D01*
X66902661Y-52880000D01*
X67004394Y-52852741D01*
X67095606Y-52800080D01*
X67100000Y-52795686D01*
X67100000Y-53756608D01*
X67154413Y-53747991D01*
X67349030Y-53684755D01*
X67349035Y-53684752D01*
X67531344Y-53591862D01*
X67696891Y-53471585D01*
X67841585Y-53326891D01*
X67961862Y-53161344D01*
X68054752Y-52979035D01*
X68054756Y-52979027D01*
X68117989Y-52784416D01*
X68126608Y-52730000D01*
X67165686Y-52730000D01*
X67170080Y-52725606D01*
X67222741Y-52634394D01*
X67250000Y-52532661D01*
X67250000Y-52427339D01*
X67222741Y-52325606D01*
X67170080Y-52234394D01*
X67165686Y-52230000D01*
X68126608Y-52230000D01*
X68117989Y-52175583D01*
X68054755Y-51980968D01*
X67961862Y-51798655D01*
X67841585Y-51633108D01*
X67696891Y-51488414D01*
X67531344Y-51368137D01*
X67349035Y-51275247D01*
X67349027Y-51275243D01*
X67154416Y-51212010D01*
X67100000Y-51203391D01*
X67100000Y-52164314D01*
X67095606Y-52159920D01*
X67004394Y-52107259D01*
X66902661Y-52080000D01*
X66797339Y-52080000D01*
X66695606Y-52107259D01*
X66604394Y-52159920D01*
X66600000Y-52164314D01*
X66600000Y-51203391D01*
X66545583Y-51212010D01*
X66350972Y-51275243D01*
X66350964Y-51275247D01*
X66168655Y-51368137D01*
X66086775Y-51427627D01*
X66009641Y-51459032D01*
X65926748Y-51450994D01*
X65857085Y-51405355D01*
X65816612Y-51332569D01*
X65810500Y-51286858D01*
X65810500Y-44098681D01*
X65830431Y-44017819D01*
X65885657Y-43955482D01*
X65963527Y-43925950D01*
X66046201Y-43935988D01*
X66051087Y-43937926D01*
X66051950Y-43938283D01*
X66051951Y-43938284D01*
X66270007Y-44028606D01*
X66270008Y-44028606D01*
X66270010Y-44028607D01*
X66497978Y-44089691D01*
X66497979Y-44089691D01*
X66497986Y-44089693D01*
X66498000Y-44089694D01*
X66498001Y-44089695D01*
X66731973Y-44120498D01*
X66731975Y-44120498D01*
X66731989Y-44120500D01*
X66731996Y-44120500D01*
X66968004Y-44120500D01*
X66968011Y-44120500D01*
X67202014Y-44089693D01*
X67429993Y-44028606D01*
X67648049Y-43938284D01*
X67852450Y-43820273D01*
X68039699Y-43676592D01*
X68206592Y-43509699D01*
X68350273Y-43322450D01*
X68468284Y-43118049D01*
X68524745Y-42981739D01*
X68574103Y-42914661D01*
X68648981Y-42878203D01*
X68732225Y-42880718D01*
X68804764Y-42921630D01*
X68849982Y-42991568D01*
X68859500Y-43048327D01*
X68859500Y-58002566D01*
X68839569Y-58083428D01*
X68784343Y-58145765D01*
X68708213Y-58175077D01*
X68610014Y-58188005D01*
X68610007Y-58188007D01*
X68325051Y-58264359D01*
X68325048Y-58264360D01*
X68052488Y-58377259D01*
X68052481Y-58377262D01*
X67797004Y-58524763D01*
X67562964Y-58704348D01*
X67354348Y-58912964D01*
X67174763Y-59147004D01*
X67027262Y-59402481D01*
X67027259Y-59402488D01*
X66914360Y-59675048D01*
X66914359Y-59675051D01*
X66838007Y-59960007D01*
X66838005Y-59960016D01*
X66799501Y-60252481D01*
X66799500Y-60252500D01*
X66799500Y-60547499D01*
X66799501Y-60547518D01*
X66838005Y-60839983D01*
X66838006Y-60839990D01*
X66838007Y-60839993D01*
X66855110Y-60903824D01*
X66914359Y-61124948D01*
X66914360Y-61124951D01*
X67027259Y-61397511D01*
X67027262Y-61397518D01*
X67174763Y-61652995D01*
X67354348Y-61887035D01*
X67354350Y-61887037D01*
X67354354Y-61887042D01*
X67562958Y-62095646D01*
X67562962Y-62095649D01*
X67562964Y-62095651D01*
X67670566Y-62178217D01*
X67797006Y-62275238D01*
X67918773Y-62345540D01*
X68052481Y-62422737D01*
X68052487Y-62422739D01*
X68052493Y-62422743D01*
X68325048Y-62535639D01*
X68325051Y-62535640D01*
X68371780Y-62548160D01*
X68610007Y-62611993D01*
X68902494Y-62650500D01*
X68902501Y-62650500D01*
X69197499Y-62650500D01*
X69197506Y-62650500D01*
X69489993Y-62611993D01*
X69774952Y-62535639D01*
X70047507Y-62422743D01*
X70047515Y-62422738D01*
X70047518Y-62422737D01*
X70129788Y-62375238D01*
X70302994Y-62275238D01*
X70537042Y-62095646D01*
X70745646Y-61887042D01*
X70925238Y-61652994D01*
X71072743Y-61397507D01*
X71185639Y-61124952D01*
X71261993Y-60839993D01*
X71300500Y-60547506D01*
X71300500Y-60343600D01*
X71320431Y-60262738D01*
X71351464Y-60220563D01*
X71427901Y-60144127D01*
X71504518Y-60067510D01*
X71643343Y-59876433D01*
X71750568Y-59665992D01*
X71823553Y-59441368D01*
X71860500Y-59208092D01*
X71860500Y-58971908D01*
X71860500Y-53609469D01*
X71880431Y-53528607D01*
X71935657Y-53466270D01*
X72013527Y-53436738D01*
X72096201Y-53446776D01*
X72136775Y-53468700D01*
X72168655Y-53491862D01*
X72350964Y-53584752D01*
X72350969Y-53584755D01*
X72545586Y-53647991D01*
X72599999Y-53656608D01*
X72600000Y-53656607D01*
X72600000Y-52695686D01*
X72604394Y-52700080D01*
X72695606Y-52752741D01*
X72797339Y-52780000D01*
X72902661Y-52780000D01*
X73004394Y-52752741D01*
X73095606Y-52700080D01*
X73100000Y-52695686D01*
X73100000Y-53656608D01*
X73154413Y-53647991D01*
X73349030Y-53584755D01*
X73349035Y-53584752D01*
X73531344Y-53491862D01*
X73696891Y-53371585D01*
X73841585Y-53226891D01*
X73961862Y-53061344D01*
X74054752Y-52879035D01*
X74054756Y-52879027D01*
X74117989Y-52684416D01*
X74126608Y-52630000D01*
X73165686Y-52630000D01*
X73170080Y-52625606D01*
X73222741Y-52534394D01*
X73250000Y-52432661D01*
X73250000Y-52327339D01*
X73222741Y-52225606D01*
X73170080Y-52134394D01*
X73165686Y-52130000D01*
X74126608Y-52130000D01*
X74117989Y-52075583D01*
X74054756Y-51880972D01*
X74054752Y-51880964D01*
X73961862Y-51698655D01*
X73841585Y-51533108D01*
X73696891Y-51388414D01*
X73531344Y-51268137D01*
X73349035Y-51175247D01*
X73349027Y-51175243D01*
X73154416Y-51112010D01*
X73100000Y-51103391D01*
X73100000Y-52064314D01*
X73095606Y-52059920D01*
X73004394Y-52007259D01*
X72902661Y-51980000D01*
X72797339Y-51980000D01*
X72695606Y-52007259D01*
X72604394Y-52059920D01*
X72600000Y-52064314D01*
X72600000Y-51103391D01*
X72545583Y-51112010D01*
X72350972Y-51175243D01*
X72350964Y-51175247D01*
X72168653Y-51268138D01*
X72136773Y-51291300D01*
X72059639Y-51322704D01*
X71976746Y-51314665D01*
X71907084Y-51269025D01*
X71866611Y-51196239D01*
X71860500Y-51150530D01*
X71860500Y-44019391D01*
X71880431Y-43938529D01*
X71935657Y-43876192D01*
X72013527Y-43846660D01*
X72096201Y-43856698D01*
X72101016Y-43858607D01*
X72270007Y-43928606D01*
X72270010Y-43928606D01*
X72270013Y-43928608D01*
X72497978Y-43989691D01*
X72497979Y-43989691D01*
X72497986Y-43989693D01*
X72498000Y-43989694D01*
X72498001Y-43989695D01*
X72731973Y-44020498D01*
X72731975Y-44020498D01*
X72731989Y-44020500D01*
X72731996Y-44020500D01*
X72968004Y-44020500D01*
X72968011Y-44020500D01*
X73202014Y-43989693D01*
X73429993Y-43928606D01*
X73648049Y-43838284D01*
X73852450Y-43720273D01*
X74039699Y-43576592D01*
X74206592Y-43409699D01*
X74350273Y-43222450D01*
X74468284Y-43018049D01*
X74558606Y-42799993D01*
X74567429Y-42767067D01*
X74607608Y-42694118D01*
X74677086Y-42648198D01*
X74759946Y-42639826D01*
X74837206Y-42670920D01*
X74891166Y-42734356D01*
X74909500Y-42812100D01*
X74909500Y-57975500D01*
X74889569Y-58056362D01*
X74834343Y-58118699D01*
X74756473Y-58148231D01*
X74735500Y-58149500D01*
X74702494Y-58149500D01*
X74702489Y-58149500D01*
X74702481Y-58149501D01*
X74410016Y-58188005D01*
X74410007Y-58188007D01*
X74125051Y-58264359D01*
X74125048Y-58264360D01*
X73852488Y-58377259D01*
X73852481Y-58377262D01*
X73597004Y-58524763D01*
X73362964Y-58704348D01*
X73154348Y-58912964D01*
X72974763Y-59147004D01*
X72827262Y-59402481D01*
X72827259Y-59402488D01*
X72714360Y-59675048D01*
X72714359Y-59675051D01*
X72638007Y-59960007D01*
X72638005Y-59960016D01*
X72599501Y-60252481D01*
X72599500Y-60252500D01*
X72599500Y-60547499D01*
X72599501Y-60547518D01*
X72638005Y-60839983D01*
X72638006Y-60839990D01*
X72638007Y-60839993D01*
X72655110Y-60903824D01*
X72714359Y-61124948D01*
X72714360Y-61124951D01*
X72827259Y-61397511D01*
X72827262Y-61397518D01*
X72974763Y-61652995D01*
X73154348Y-61887035D01*
X73154350Y-61887037D01*
X73154354Y-61887042D01*
X73362958Y-62095646D01*
X73362962Y-62095649D01*
X73362964Y-62095651D01*
X73470566Y-62178217D01*
X73597006Y-62275238D01*
X73718773Y-62345540D01*
X73852481Y-62422737D01*
X73852487Y-62422739D01*
X73852493Y-62422743D01*
X74125048Y-62535639D01*
X74125051Y-62535640D01*
X74171780Y-62548160D01*
X74410007Y-62611993D01*
X74702494Y-62650500D01*
X74702501Y-62650500D01*
X74997499Y-62650500D01*
X74997506Y-62650500D01*
X75289993Y-62611993D01*
X75574952Y-62535639D01*
X75847507Y-62422743D01*
X75847515Y-62422738D01*
X75847518Y-62422737D01*
X75929788Y-62375238D01*
X76102994Y-62275238D01*
X76337042Y-62095646D01*
X76545646Y-61887042D01*
X76725238Y-61652994D01*
X76872743Y-61397507D01*
X76985639Y-61124952D01*
X77061993Y-60839993D01*
X77100500Y-60547506D01*
X77100500Y-60343600D01*
X77120431Y-60262739D01*
X77151463Y-60220564D01*
X77330661Y-60041366D01*
X77554517Y-59817510D01*
X77693343Y-59626434D01*
X77800568Y-59415992D01*
X77873553Y-59191369D01*
X77910500Y-58958092D01*
X77910500Y-58721908D01*
X77910500Y-53573141D01*
X77930431Y-53492279D01*
X77985657Y-53429942D01*
X78063527Y-53400410D01*
X78146201Y-53410448D01*
X78186776Y-53432373D01*
X78268654Y-53491862D01*
X78450964Y-53584752D01*
X78450969Y-53584755D01*
X78645586Y-53647991D01*
X78699999Y-53656608D01*
X78700000Y-53656607D01*
X78700000Y-52695686D01*
X78704394Y-52700080D01*
X78795606Y-52752741D01*
X78897339Y-52780000D01*
X79002661Y-52780000D01*
X79104394Y-52752741D01*
X79195606Y-52700080D01*
X79200000Y-52695686D01*
X79200000Y-53656608D01*
X79254413Y-53647991D01*
X79449030Y-53584755D01*
X79449035Y-53584752D01*
X79631344Y-53491862D01*
X79796891Y-53371585D01*
X79941585Y-53226891D01*
X80061862Y-53061344D01*
X80154752Y-52879035D01*
X80154756Y-52879027D01*
X80217989Y-52684416D01*
X80226608Y-52630000D01*
X79265686Y-52630000D01*
X79270080Y-52625606D01*
X79322741Y-52534394D01*
X79350000Y-52432661D01*
X79350000Y-52327339D01*
X79322741Y-52225606D01*
X79270080Y-52134394D01*
X79265686Y-52130000D01*
X80226608Y-52130000D01*
X80217989Y-52075583D01*
X80154756Y-51880972D01*
X80154752Y-51880964D01*
X80061862Y-51698655D01*
X79941585Y-51533108D01*
X79796891Y-51388414D01*
X79631344Y-51268137D01*
X79449035Y-51175247D01*
X79449027Y-51175243D01*
X79254416Y-51112010D01*
X79200000Y-51103391D01*
X79200000Y-52064314D01*
X79195606Y-52059920D01*
X79104394Y-52007259D01*
X79002661Y-51980000D01*
X78897339Y-51980000D01*
X78795606Y-52007259D01*
X78704394Y-52059920D01*
X78700000Y-52064314D01*
X78700000Y-51103391D01*
X78645583Y-51112010D01*
X78450972Y-51175243D01*
X78450964Y-51175247D01*
X78268655Y-51268137D01*
X78186775Y-51327627D01*
X78109641Y-51359032D01*
X78026748Y-51350994D01*
X77957085Y-51305355D01*
X77916612Y-51232569D01*
X77910500Y-51186858D01*
X77910500Y-43998681D01*
X77930431Y-43917819D01*
X77985657Y-43855482D01*
X78063527Y-43825950D01*
X78146201Y-43835988D01*
X78151087Y-43837926D01*
X78151950Y-43838283D01*
X78151951Y-43838284D01*
X78370007Y-43928606D01*
X78370008Y-43928606D01*
X78370010Y-43928607D01*
X78597978Y-43989691D01*
X78597979Y-43989691D01*
X78597986Y-43989693D01*
X78598000Y-43989694D01*
X78598001Y-43989695D01*
X78831973Y-44020498D01*
X78831975Y-44020498D01*
X78831989Y-44020500D01*
X78831996Y-44020500D01*
X79068004Y-44020500D01*
X79068011Y-44020500D01*
X79302014Y-43989693D01*
X79529993Y-43928606D01*
X79748049Y-43838284D01*
X79952450Y-43720273D01*
X80139699Y-43576592D01*
X80306592Y-43409699D01*
X80450273Y-43222450D01*
X80568284Y-43018049D01*
X80624745Y-42881739D01*
X80674103Y-42814661D01*
X80748981Y-42778203D01*
X80832225Y-42780718D01*
X80904764Y-42821630D01*
X80949982Y-42891568D01*
X80959500Y-42948327D01*
X80959500Y-58115731D01*
X80939569Y-58196593D01*
X80884343Y-58258930D01*
X80815328Y-58285509D01*
X80815604Y-58286893D01*
X80810014Y-58288005D01*
X80525051Y-58364359D01*
X80525048Y-58364360D01*
X80252488Y-58477259D01*
X80252481Y-58477262D01*
X79997004Y-58624763D01*
X79762964Y-58804348D01*
X79554348Y-59012964D01*
X79374763Y-59247004D01*
X79227262Y-59502481D01*
X79227259Y-59502488D01*
X79114361Y-59775047D01*
X79114359Y-59775051D01*
X79038007Y-60060007D01*
X79038005Y-60060016D01*
X78999501Y-60352481D01*
X78999500Y-60352500D01*
X78999500Y-60647499D01*
X78999501Y-60647518D01*
X79038005Y-60939983D01*
X79038007Y-60939992D01*
X79114359Y-61224948D01*
X79114360Y-61224951D01*
X79227259Y-61497511D01*
X79227262Y-61497518D01*
X79374763Y-61752995D01*
X79554348Y-61987035D01*
X79554350Y-61987037D01*
X79554354Y-61987042D01*
X79762958Y-62195646D01*
X79762962Y-62195649D01*
X79762964Y-62195651D01*
X79866681Y-62275236D01*
X79997006Y-62375238D01*
X80118773Y-62445540D01*
X80252481Y-62522737D01*
X80252487Y-62522739D01*
X80252493Y-62522743D01*
X80467962Y-62611993D01*
X80525048Y-62635639D01*
X80525051Y-62635640D01*
X80571780Y-62648160D01*
X80810007Y-62711993D01*
X81102494Y-62750500D01*
X81102501Y-62750500D01*
X81397499Y-62750500D01*
X81397506Y-62750500D01*
X81689993Y-62711993D01*
X81974952Y-62635639D01*
X82247507Y-62522743D01*
X82247515Y-62522738D01*
X82247518Y-62522737D01*
X82298056Y-62493558D01*
X82502994Y-62375238D01*
X82737042Y-62195646D01*
X82945646Y-61987042D01*
X83125238Y-61752994D01*
X83272743Y-61497507D01*
X83385639Y-61224952D01*
X83461993Y-60939993D01*
X83500500Y-60647506D01*
X83500500Y-60443600D01*
X83520431Y-60362739D01*
X83551463Y-60320564D01*
X83564383Y-60307644D01*
X83604517Y-60267510D01*
X83743343Y-60076434D01*
X83850568Y-59865993D01*
X83880118Y-59775048D01*
X83923553Y-59641368D01*
X83960500Y-59408092D01*
X83960500Y-53636814D01*
X83980431Y-53555952D01*
X84035657Y-53493615D01*
X84113527Y-53464083D01*
X84196201Y-53474121D01*
X84236775Y-53496046D01*
X84368650Y-53591859D01*
X84368652Y-53591861D01*
X84550964Y-53684752D01*
X84550969Y-53684755D01*
X84745586Y-53747991D01*
X84799999Y-53756608D01*
X84800000Y-53756607D01*
X84800000Y-52795686D01*
X84804394Y-52800080D01*
X84895606Y-52852741D01*
X84997339Y-52880000D01*
X85102661Y-52880000D01*
X85204394Y-52852741D01*
X85295606Y-52800080D01*
X85300000Y-52795686D01*
X85300000Y-53756608D01*
X85354413Y-53747991D01*
X85549030Y-53684755D01*
X85549035Y-53684752D01*
X85731344Y-53591862D01*
X85896891Y-53471585D01*
X86041585Y-53326891D01*
X86161862Y-53161344D01*
X86254752Y-52979035D01*
X86254756Y-52979027D01*
X86317989Y-52784416D01*
X86326608Y-52730000D01*
X85365686Y-52730000D01*
X85370080Y-52725606D01*
X85422741Y-52634394D01*
X85450000Y-52532661D01*
X85450000Y-52427339D01*
X85422741Y-52325606D01*
X85370080Y-52234394D01*
X85365686Y-52230000D01*
X86326608Y-52230000D01*
X86317989Y-52175583D01*
X86254755Y-51980968D01*
X86161862Y-51798655D01*
X86041585Y-51633108D01*
X85896891Y-51488414D01*
X85731344Y-51368137D01*
X85549035Y-51275247D01*
X85549027Y-51275243D01*
X85354416Y-51212010D01*
X85300000Y-51203391D01*
X85300000Y-52164314D01*
X85295606Y-52159920D01*
X85204394Y-52107259D01*
X85102661Y-52080000D01*
X84997339Y-52080000D01*
X84895606Y-52107259D01*
X84804394Y-52159920D01*
X84800000Y-52164314D01*
X84800000Y-51203391D01*
X84745583Y-51212010D01*
X84550972Y-51275243D01*
X84550964Y-51275247D01*
X84368655Y-51368137D01*
X84236775Y-51463954D01*
X84159641Y-51495359D01*
X84076748Y-51487321D01*
X84007085Y-51441682D01*
X83966612Y-51368896D01*
X83960500Y-51323185D01*
X83960500Y-44071391D01*
X83980431Y-43990529D01*
X84035657Y-43928192D01*
X84113527Y-43898660D01*
X84196201Y-43908698D01*
X84221498Y-43920702D01*
X84251951Y-43938284D01*
X84470007Y-44028606D01*
X84470008Y-44028606D01*
X84470010Y-44028607D01*
X84697978Y-44089691D01*
X84697979Y-44089691D01*
X84697986Y-44089693D01*
X84698000Y-44089694D01*
X84698001Y-44089695D01*
X84931973Y-44120498D01*
X84931975Y-44120498D01*
X84931989Y-44120500D01*
X84931996Y-44120500D01*
X85168004Y-44120500D01*
X85168011Y-44120500D01*
X85402014Y-44089693D01*
X85629993Y-44028606D01*
X85848049Y-43938284D01*
X86052450Y-43820273D01*
X86239699Y-43676592D01*
X86406592Y-43509699D01*
X86550273Y-43322450D01*
X86668284Y-43118049D01*
X86674745Y-43102450D01*
X86724101Y-43035372D01*
X86798978Y-42998913D01*
X86882222Y-43001427D01*
X86954763Y-43042339D01*
X86999981Y-43112276D01*
X87009500Y-43169037D01*
X87009500Y-58454538D01*
X86989569Y-58535400D01*
X86934343Y-58597737D01*
X86902087Y-58615293D01*
X86752490Y-58677258D01*
X86752484Y-58677261D01*
X86497004Y-58824763D01*
X86262964Y-59004348D01*
X86054348Y-59212964D01*
X85874763Y-59447004D01*
X85727262Y-59702481D01*
X85727259Y-59702488D01*
X85614360Y-59975048D01*
X85614359Y-59975051D01*
X85538007Y-60260007D01*
X85538005Y-60260016D01*
X85499501Y-60552481D01*
X85499500Y-60552500D01*
X85499500Y-60847499D01*
X85499501Y-60847518D01*
X85538005Y-61139983D01*
X85538007Y-61139992D01*
X85614359Y-61424948D01*
X85614360Y-61424951D01*
X85727259Y-61697511D01*
X85727262Y-61697518D01*
X85874763Y-61952995D01*
X86054348Y-62187035D01*
X86054350Y-62187037D01*
X86054354Y-62187042D01*
X86262958Y-62395646D01*
X86262962Y-62395649D01*
X86262964Y-62395651D01*
X86298267Y-62422740D01*
X86497006Y-62575238D01*
X86601624Y-62635639D01*
X86752481Y-62722737D01*
X86752487Y-62722739D01*
X86752493Y-62722743D01*
X87025048Y-62835639D01*
X87025051Y-62835640D01*
X87071780Y-62848160D01*
X87310007Y-62911993D01*
X87602494Y-62950500D01*
X87602501Y-62950500D01*
X87897499Y-62950500D01*
X87897506Y-62950500D01*
X88189993Y-62911993D01*
X88474952Y-62835639D01*
X88747507Y-62722743D01*
X88747515Y-62722738D01*
X88747518Y-62722737D01*
X88798056Y-62693558D01*
X89002994Y-62575238D01*
X89237042Y-62395646D01*
X89445646Y-62187042D01*
X89625238Y-61952994D01*
X89772743Y-61697507D01*
X89885639Y-61424952D01*
X89961993Y-61139993D01*
X90000500Y-60847506D01*
X90000500Y-60552494D01*
X89972787Y-60341999D01*
X89973440Y-60292072D01*
X89973550Y-60291376D01*
X89973553Y-60291368D01*
X90010500Y-60058092D01*
X90010500Y-53495220D01*
X90030431Y-53414358D01*
X90085657Y-53352021D01*
X90163527Y-53322489D01*
X90246201Y-53332527D01*
X90263494Y-53340185D01*
X90350964Y-53384752D01*
X90350969Y-53384755D01*
X90545586Y-53447991D01*
X90599999Y-53456608D01*
X90600000Y-53456607D01*
X90600000Y-52495686D01*
X90604394Y-52500080D01*
X90695606Y-52552741D01*
X90797339Y-52580000D01*
X90902661Y-52580000D01*
X91004394Y-52552741D01*
X91095606Y-52500080D01*
X91100000Y-52495686D01*
X91100000Y-53456608D01*
X91154413Y-53447991D01*
X91349030Y-53384755D01*
X91349035Y-53384752D01*
X91531344Y-53291862D01*
X91696891Y-53171585D01*
X91798355Y-53070122D01*
X91841585Y-53026891D01*
X91961862Y-52861344D01*
X92054752Y-52679035D01*
X92054756Y-52679027D01*
X92117989Y-52484416D01*
X92126608Y-52430000D01*
X91165686Y-52430000D01*
X91170080Y-52425606D01*
X91222741Y-52334394D01*
X91250000Y-52232661D01*
X91250000Y-52127339D01*
X91236697Y-52077690D01*
X96900000Y-52077690D01*
X96900000Y-52282309D01*
X96932010Y-52484415D01*
X96995243Y-52679027D01*
X96995246Y-52679035D01*
X97088139Y-52861348D01*
X97088142Y-52861352D01*
X97120523Y-52905920D01*
X97800000Y-52226443D01*
X97800000Y-52232661D01*
X97827259Y-52334394D01*
X97879920Y-52425606D01*
X97954394Y-52500080D01*
X98045606Y-52552741D01*
X98147339Y-52580000D01*
X98153553Y-52580000D01*
X97474078Y-53259475D01*
X97518652Y-53291860D01*
X97700964Y-53384753D01*
X97700972Y-53384756D01*
X97895584Y-53447989D01*
X98097691Y-53480000D01*
X98302309Y-53480000D01*
X98504415Y-53447989D01*
X98699027Y-53384756D01*
X98699035Y-53384753D01*
X98881346Y-53291861D01*
X98925920Y-53259475D01*
X98246445Y-52580000D01*
X98252661Y-52580000D01*
X98354394Y-52552741D01*
X98445606Y-52500080D01*
X98520080Y-52425606D01*
X98572741Y-52334394D01*
X98600000Y-52232661D01*
X98600000Y-52226445D01*
X99279475Y-52905920D01*
X99311861Y-52861346D01*
X99404753Y-52679035D01*
X99404756Y-52679027D01*
X99467989Y-52484415D01*
X99500000Y-52282309D01*
X99500000Y-52077690D01*
X99467989Y-51875584D01*
X99404756Y-51680972D01*
X99404753Y-51680964D01*
X99311860Y-51498652D01*
X99279475Y-51454078D01*
X98600000Y-52133553D01*
X98600000Y-52127339D01*
X98572741Y-52025606D01*
X98520080Y-51934394D01*
X98445606Y-51859920D01*
X98354394Y-51807259D01*
X98252661Y-51780000D01*
X98246443Y-51780000D01*
X98925920Y-51100523D01*
X98881352Y-51068142D01*
X98881348Y-51068139D01*
X98699035Y-50975246D01*
X98699027Y-50975243D01*
X98504415Y-50912010D01*
X98302309Y-50880000D01*
X98097691Y-50880000D01*
X97895584Y-50912010D01*
X97700972Y-50975243D01*
X97700964Y-50975247D01*
X97518655Y-51068137D01*
X97518646Y-51068142D01*
X97474078Y-51100523D01*
X98153555Y-51780000D01*
X98147339Y-51780000D01*
X98045606Y-51807259D01*
X97954394Y-51859920D01*
X97879920Y-51934394D01*
X97827259Y-52025606D01*
X97800000Y-52127339D01*
X97800000Y-52133555D01*
X97120523Y-51454078D01*
X97088142Y-51498646D01*
X97088137Y-51498655D01*
X96995247Y-51680964D01*
X96995243Y-51680972D01*
X96932010Y-51875584D01*
X96900000Y-52077690D01*
X91236697Y-52077690D01*
X91222741Y-52025606D01*
X91170080Y-51934394D01*
X91165686Y-51930000D01*
X92126608Y-51930000D01*
X92117989Y-51875583D01*
X92054756Y-51680972D01*
X92054752Y-51680964D01*
X91961862Y-51498655D01*
X91841585Y-51333108D01*
X91696891Y-51188414D01*
X91531344Y-51068137D01*
X91349035Y-50975247D01*
X91349027Y-50975243D01*
X91154416Y-50912010D01*
X91100000Y-50903391D01*
X91100000Y-51864314D01*
X91095606Y-51859920D01*
X91004394Y-51807259D01*
X90902661Y-51780000D01*
X90797339Y-51780000D01*
X90695606Y-51807259D01*
X90604394Y-51859920D01*
X90600000Y-51864314D01*
X90600000Y-50903391D01*
X90545583Y-50912010D01*
X90350972Y-50975243D01*
X90350968Y-50975245D01*
X90263493Y-51019815D01*
X90182396Y-51038766D01*
X90101781Y-51017859D01*
X90040116Y-50961883D01*
X90011528Y-50883662D01*
X90010500Y-50864779D01*
X90010500Y-43881524D01*
X90030431Y-43800662D01*
X90085657Y-43738325D01*
X90163527Y-43708793D01*
X90246201Y-43718831D01*
X90251083Y-43720767D01*
X90270007Y-43728606D01*
X90270008Y-43728606D01*
X90270010Y-43728607D01*
X90497978Y-43789691D01*
X90497979Y-43789691D01*
X90497986Y-43789693D01*
X90498000Y-43789694D01*
X90498001Y-43789695D01*
X90731973Y-43820498D01*
X90731975Y-43820498D01*
X90731989Y-43820500D01*
X90731996Y-43820500D01*
X90968004Y-43820500D01*
X90968011Y-43820500D01*
X91202014Y-43789693D01*
X91429993Y-43728606D01*
X91648049Y-43638284D01*
X91852450Y-43520273D01*
X92039699Y-43376592D01*
X92206592Y-43209699D01*
X92350273Y-43022450D01*
X92468284Y-42818049D01*
X92558606Y-42599993D01*
X92619693Y-42372014D01*
X92650500Y-42138011D01*
X92650500Y-41901995D01*
X96399500Y-41901995D01*
X96399500Y-42138004D01*
X96399501Y-42138026D01*
X96430304Y-42371998D01*
X96430308Y-42372021D01*
X96491392Y-42599989D01*
X96491394Y-42599993D01*
X96581716Y-42818049D01*
X96699727Y-43022450D01*
X96843408Y-43209699D01*
X97010301Y-43376592D01*
X97197550Y-43520273D01*
X97401951Y-43638284D01*
X97620007Y-43728606D01*
X97620008Y-43728606D01*
X97620010Y-43728607D01*
X97847978Y-43789691D01*
X97847979Y-43789691D01*
X97847986Y-43789693D01*
X97848000Y-43789694D01*
X97848001Y-43789695D01*
X98081973Y-43820498D01*
X98081975Y-43820498D01*
X98081989Y-43820500D01*
X98081996Y-43820500D01*
X98318004Y-43820500D01*
X98318011Y-43820500D01*
X98552014Y-43789693D01*
X98779993Y-43728606D01*
X98998049Y-43638284D01*
X99202450Y-43520273D01*
X99389699Y-43376592D01*
X99556592Y-43209699D01*
X99700273Y-43022450D01*
X99818284Y-42818049D01*
X99908606Y-42599993D01*
X99969693Y-42372014D01*
X100000500Y-42138011D01*
X100000500Y-41901989D01*
X99996023Y-41867986D01*
X99969695Y-41668001D01*
X99969694Y-41668000D01*
X99969693Y-41667986D01*
X99966043Y-41654365D01*
X99908607Y-41440010D01*
X99908606Y-41440007D01*
X99818284Y-41221951D01*
X99700273Y-41017550D01*
X99556592Y-40830301D01*
X99389699Y-40663408D01*
X99202450Y-40519727D01*
X98998049Y-40401716D01*
X98798916Y-40319232D01*
X98779989Y-40311392D01*
X98552021Y-40250308D01*
X98551998Y-40250304D01*
X98318026Y-40219501D01*
X98318014Y-40219500D01*
X98318011Y-40219500D01*
X98081989Y-40219500D01*
X98081985Y-40219500D01*
X98081973Y-40219501D01*
X97848001Y-40250304D01*
X97847978Y-40250308D01*
X97620010Y-40311392D01*
X97401960Y-40401712D01*
X97401943Y-40401720D01*
X97197556Y-40519723D01*
X97197550Y-40519727D01*
X97010303Y-40663406D01*
X96843406Y-40830303D01*
X96699727Y-41017550D01*
X96699723Y-41017556D01*
X96581720Y-41221943D01*
X96581712Y-41221960D01*
X96491392Y-41440010D01*
X96430308Y-41667978D01*
X96430304Y-41668001D01*
X96399501Y-41901973D01*
X96399500Y-41901995D01*
X92650500Y-41901995D01*
X92650500Y-41901989D01*
X92646023Y-41867986D01*
X92619695Y-41668001D01*
X92619694Y-41668000D01*
X92619693Y-41667986D01*
X92616043Y-41654365D01*
X92558607Y-41440010D01*
X92558606Y-41440007D01*
X92468284Y-41221951D01*
X92350273Y-41017550D01*
X92206592Y-40830301D01*
X92039699Y-40663408D01*
X91852450Y-40519727D01*
X91648049Y-40401716D01*
X91448916Y-40319232D01*
X91429989Y-40311392D01*
X91202021Y-40250308D01*
X91201998Y-40250304D01*
X90968026Y-40219501D01*
X90968014Y-40219500D01*
X90968011Y-40219500D01*
X90731989Y-40219500D01*
X90731985Y-40219500D01*
X90731973Y-40219501D01*
X90498001Y-40250304D01*
X90497978Y-40250308D01*
X90270008Y-40311393D01*
X90251082Y-40319232D01*
X90168748Y-40331760D01*
X90090022Y-40304591D01*
X90032940Y-40243948D01*
X90010579Y-40163725D01*
X90010500Y-40158475D01*
X90010500Y-37149499D01*
X90030431Y-37068637D01*
X90085657Y-37006300D01*
X90163527Y-36976768D01*
X90184484Y-36975499D01*
X92008036Y-36975499D01*
X92127418Y-36964886D01*
X92323049Y-36908909D01*
X92503407Y-36814698D01*
X92661109Y-36686109D01*
X92789698Y-36528407D01*
X92883909Y-36348049D01*
X92939886Y-36152418D01*
X92950500Y-36033037D01*
X92950499Y-34116964D01*
X92939886Y-33997582D01*
X92883909Y-33801951D01*
X92789698Y-33621593D01*
X92661109Y-33463891D01*
X92503407Y-33335302D01*
X92323049Y-33241091D01*
X92127418Y-33185114D01*
X92127417Y-33185113D01*
X92127411Y-33185112D01*
X92008040Y-33174500D01*
X90091966Y-33174500D01*
X90091953Y-33174501D01*
X89972587Y-33185113D01*
X89972584Y-33185113D01*
X89972582Y-33185114D01*
X89776951Y-33241091D01*
X89776949Y-33241091D01*
X89776949Y-33241092D01*
X89596591Y-33335302D01*
X89565727Y-33360469D01*
X89490463Y-33396122D01*
X89407251Y-33392713D01*
X89368775Y-33376306D01*
X89352373Y-33366836D01*
X89337002Y-33360469D01*
X89122203Y-33271496D01*
X88935469Y-33221461D01*
X88881565Y-33207018D01*
X88881563Y-33207017D01*
X88881553Y-33207015D01*
X88634580Y-33174501D01*
X88634568Y-33174500D01*
X88634565Y-33174500D01*
X88385435Y-33174500D01*
X88385431Y-33174500D01*
X88385419Y-33174501D01*
X88138446Y-33207015D01*
X88138435Y-33207018D01*
X87897796Y-33271496D01*
X87667624Y-33366837D01*
X87451877Y-33491398D01*
X87451874Y-33491400D01*
X87254221Y-33643064D01*
X87091163Y-33806122D01*
X87019892Y-33849207D01*
X86936762Y-33854235D01*
X86860818Y-33820055D01*
X86813900Y-33763646D01*
X86750911Y-33643060D01*
X86739698Y-33621593D01*
X86611109Y-33463891D01*
X86453407Y-33335302D01*
X86273049Y-33241091D01*
X86077418Y-33185114D01*
X86077417Y-33185113D01*
X86077411Y-33185112D01*
X85958040Y-33174500D01*
X84041966Y-33174500D01*
X84041953Y-33174501D01*
X83922587Y-33185113D01*
X83922584Y-33185113D01*
X83922582Y-33185114D01*
X83726951Y-33241091D01*
X83726949Y-33241091D01*
X83726949Y-33241092D01*
X83546591Y-33335302D01*
X83515727Y-33360469D01*
X83440463Y-33396122D01*
X83357251Y-33392713D01*
X83318775Y-33376306D01*
X83302373Y-33366836D01*
X83287002Y-33360469D01*
X83072203Y-33271496D01*
X82885469Y-33221461D01*
X82831565Y-33207018D01*
X82831563Y-33207017D01*
X82831553Y-33207015D01*
X82584580Y-33174501D01*
X82584568Y-33174500D01*
X82584565Y-33174500D01*
X82335435Y-33174500D01*
X82335431Y-33174500D01*
X82335419Y-33174501D01*
X82088446Y-33207015D01*
X82088435Y-33207018D01*
X81847796Y-33271496D01*
X81617624Y-33366837D01*
X81401877Y-33491398D01*
X81401874Y-33491400D01*
X81204221Y-33643064D01*
X81041163Y-33806122D01*
X80969892Y-33849207D01*
X80886762Y-33854235D01*
X80810818Y-33820055D01*
X80763900Y-33763646D01*
X80700911Y-33643060D01*
X80689698Y-33621593D01*
X80561109Y-33463891D01*
X80403407Y-33335302D01*
X80223049Y-33241091D01*
X80027418Y-33185114D01*
X80027417Y-33185113D01*
X80027411Y-33185112D01*
X79908040Y-33174500D01*
X77991966Y-33174500D01*
X77991953Y-33174501D01*
X77872587Y-33185113D01*
X77872584Y-33185113D01*
X77872582Y-33185114D01*
X77676951Y-33241091D01*
X77676949Y-33241091D01*
X77676949Y-33241092D01*
X77496591Y-33335302D01*
X77465727Y-33360469D01*
X77390463Y-33396122D01*
X77307251Y-33392713D01*
X77268775Y-33376306D01*
X77252373Y-33366836D01*
X77237002Y-33360469D01*
X77022203Y-33271496D01*
X76835469Y-33221461D01*
X76781565Y-33207018D01*
X76781563Y-33207017D01*
X76781553Y-33207015D01*
X76534580Y-33174501D01*
X76534568Y-33174500D01*
X76534565Y-33174500D01*
X76285435Y-33174500D01*
X76285431Y-33174500D01*
X76285419Y-33174501D01*
X76038446Y-33207015D01*
X76038435Y-33207018D01*
X75797796Y-33271496D01*
X75567624Y-33366837D01*
X75351877Y-33491398D01*
X75351874Y-33491400D01*
X75154221Y-33643064D01*
X74991163Y-33806122D01*
X74919892Y-33849207D01*
X74836762Y-33854235D01*
X74760818Y-33820055D01*
X74713900Y-33763646D01*
X74650911Y-33643060D01*
X74639698Y-33621593D01*
X74511109Y-33463891D01*
X74353407Y-33335302D01*
X74173049Y-33241091D01*
X73977418Y-33185114D01*
X73977417Y-33185113D01*
X73977411Y-33185112D01*
X73858040Y-33174500D01*
X71941966Y-33174500D01*
X71941953Y-33174501D01*
X71822587Y-33185113D01*
X71822584Y-33185113D01*
X71822582Y-33185114D01*
X71626951Y-33241091D01*
X71626949Y-33241091D01*
X71626949Y-33241092D01*
X71446591Y-33335302D01*
X71415727Y-33360469D01*
X71340463Y-33396122D01*
X71257251Y-33392713D01*
X71218775Y-33376306D01*
X71202373Y-33366836D01*
X71187002Y-33360469D01*
X70972203Y-33271496D01*
X70785469Y-33221461D01*
X70731565Y-33207018D01*
X70731563Y-33207017D01*
X70731553Y-33207015D01*
X70484580Y-33174501D01*
X70484568Y-33174500D01*
X70484565Y-33174500D01*
X70235435Y-33174500D01*
X70235431Y-33174500D01*
X70235419Y-33174501D01*
X69988446Y-33207015D01*
X69988435Y-33207018D01*
X69747796Y-33271496D01*
X69517624Y-33366837D01*
X69301877Y-33491398D01*
X69301874Y-33491400D01*
X69104221Y-33643064D01*
X68941163Y-33806122D01*
X68869892Y-33849207D01*
X68786762Y-33854235D01*
X68710818Y-33820055D01*
X68663900Y-33763646D01*
X68600911Y-33643060D01*
X68589698Y-33621593D01*
X68461109Y-33463891D01*
X68303407Y-33335302D01*
X68123049Y-33241091D01*
X67927418Y-33185114D01*
X67927417Y-33185113D01*
X67927411Y-33185112D01*
X67808040Y-33174500D01*
X65891966Y-33174500D01*
X65891953Y-33174501D01*
X65772587Y-33185113D01*
X65772584Y-33185113D01*
X65772582Y-33185114D01*
X65576951Y-33241091D01*
X65576949Y-33241091D01*
X65576949Y-33241092D01*
X65396591Y-33335302D01*
X65365727Y-33360469D01*
X65290463Y-33396122D01*
X65207251Y-33392713D01*
X65168775Y-33376306D01*
X65152373Y-33366836D01*
X65137002Y-33360469D01*
X64922203Y-33271496D01*
X64735469Y-33221461D01*
X64681565Y-33207018D01*
X64681563Y-33207017D01*
X64681553Y-33207015D01*
X64434580Y-33174501D01*
X64434568Y-33174500D01*
X64434565Y-33174500D01*
X64185435Y-33174500D01*
X64185431Y-33174500D01*
X64185419Y-33174501D01*
X63938446Y-33207015D01*
X63938435Y-33207018D01*
X63697796Y-33271496D01*
X63467624Y-33366837D01*
X63251877Y-33491398D01*
X63251874Y-33491400D01*
X63054221Y-33643064D01*
X62891163Y-33806122D01*
X62819892Y-33849207D01*
X62736762Y-33854235D01*
X62660818Y-33820055D01*
X62613900Y-33763646D01*
X62550911Y-33643060D01*
X62539698Y-33621593D01*
X62411109Y-33463891D01*
X62253407Y-33335302D01*
X62073049Y-33241091D01*
X61877418Y-33185114D01*
X61877417Y-33185113D01*
X61877411Y-33185112D01*
X61758040Y-33174500D01*
X59841966Y-33174500D01*
X59841953Y-33174501D01*
X59722587Y-33185113D01*
X59722584Y-33185113D01*
X59722582Y-33185114D01*
X59526951Y-33241091D01*
X59526949Y-33241091D01*
X59526949Y-33241092D01*
X59346591Y-33335302D01*
X59315727Y-33360469D01*
X59240463Y-33396122D01*
X59157251Y-33392713D01*
X59118775Y-33376306D01*
X59102373Y-33366836D01*
X59087002Y-33360469D01*
X58872203Y-33271496D01*
X58685469Y-33221461D01*
X58631565Y-33207018D01*
X58631563Y-33207017D01*
X58631553Y-33207015D01*
X58384580Y-33174501D01*
X58384568Y-33174500D01*
X58384565Y-33174500D01*
X58135435Y-33174500D01*
X58135431Y-33174500D01*
X58135419Y-33174501D01*
X57888446Y-33207015D01*
X57888435Y-33207018D01*
X57647796Y-33271496D01*
X57417624Y-33366837D01*
X57201877Y-33491398D01*
X57201874Y-33491400D01*
X57004221Y-33643064D01*
X56841163Y-33806122D01*
X56769892Y-33849207D01*
X56686762Y-33854235D01*
X56610818Y-33820055D01*
X56563900Y-33763646D01*
X56500911Y-33643060D01*
X56489698Y-33621593D01*
X56361109Y-33463891D01*
X56203407Y-33335302D01*
X56023049Y-33241091D01*
X55827418Y-33185114D01*
X55827417Y-33185113D01*
X55827411Y-33185112D01*
X55708040Y-33174500D01*
X53791966Y-33174500D01*
X53791953Y-33174501D01*
X53672587Y-33185113D01*
X53672584Y-33185113D01*
X53672582Y-33185114D01*
X53476951Y-33241091D01*
X53476949Y-33241091D01*
X53476949Y-33241092D01*
X53296591Y-33335302D01*
X53265727Y-33360469D01*
X53190463Y-33396122D01*
X53107251Y-33392713D01*
X53068775Y-33376306D01*
X53052373Y-33366836D01*
X53037002Y-33360469D01*
X52822203Y-33271496D01*
X52635469Y-33221461D01*
X52581565Y-33207018D01*
X52581563Y-33207017D01*
X52581553Y-33207015D01*
X52334580Y-33174501D01*
X52334568Y-33174500D01*
X52334565Y-33174500D01*
X52085435Y-33174500D01*
X52085431Y-33174500D01*
X52085419Y-33174501D01*
X51838446Y-33207015D01*
X51838435Y-33207018D01*
X51597796Y-33271496D01*
X51367624Y-33366837D01*
X51151877Y-33491398D01*
X51151874Y-33491400D01*
X50954221Y-33643064D01*
X50791163Y-33806122D01*
X50719892Y-33849207D01*
X50636762Y-33854235D01*
X50560818Y-33820055D01*
X50513900Y-33763646D01*
X50450911Y-33643060D01*
X50439698Y-33621593D01*
X50311109Y-33463891D01*
X50153407Y-33335302D01*
X49973049Y-33241091D01*
X49777418Y-33185114D01*
X49777417Y-33185113D01*
X49777411Y-33185112D01*
X49658040Y-33174500D01*
X47741966Y-33174500D01*
X47741953Y-33174501D01*
X47622587Y-33185113D01*
X47622584Y-33185113D01*
X47622582Y-33185114D01*
X47426951Y-33241091D01*
X47426949Y-33241091D01*
X47426949Y-33241092D01*
X47246591Y-33335302D01*
X47215727Y-33360469D01*
X47140463Y-33396122D01*
X47057251Y-33392713D01*
X47018775Y-33376306D01*
X47002373Y-33366836D01*
X46987002Y-33360469D01*
X46772203Y-33271496D01*
X46585469Y-33221461D01*
X46531565Y-33207018D01*
X46531563Y-33207017D01*
X46531553Y-33207015D01*
X46284580Y-33174501D01*
X46284568Y-33174500D01*
X46284565Y-33174500D01*
X46035435Y-33174500D01*
X46035431Y-33174500D01*
X46035419Y-33174501D01*
X45788446Y-33207015D01*
X45788435Y-33207018D01*
X45547796Y-33271496D01*
X45317624Y-33366837D01*
X45101877Y-33491398D01*
X45101874Y-33491400D01*
X44904226Y-33643060D01*
X44728060Y-33819226D01*
X44576400Y-34016874D01*
X44576398Y-34016877D01*
X44451837Y-34232624D01*
X44356496Y-34462796D01*
X44292018Y-34703435D01*
X44292015Y-34703446D01*
X44259501Y-34950419D01*
X44259500Y-34950441D01*
X44259500Y-35199558D01*
X44259501Y-35199580D01*
X44292015Y-35446553D01*
X44292018Y-35446564D01*
X44356496Y-35687203D01*
X44356498Y-35687207D01*
X44451836Y-35917373D01*
X44576401Y-36133127D01*
X44623543Y-36194564D01*
X44656957Y-36270848D01*
X44659500Y-36300488D01*
X44659500Y-57989401D01*
X44639569Y-58070263D01*
X44584343Y-58132600D01*
X44508212Y-58161912D01*
X44310016Y-58188005D01*
X44310007Y-58188007D01*
X44025051Y-58264359D01*
X44025048Y-58264360D01*
X43752488Y-58377259D01*
X43752481Y-58377262D01*
X43497004Y-58524763D01*
X43262964Y-58704348D01*
X43054348Y-58912964D01*
X42874763Y-59147004D01*
X42727262Y-59402481D01*
X42727259Y-59402488D01*
X42614360Y-59675048D01*
X42614359Y-59675051D01*
X42538007Y-59960007D01*
X42538005Y-59960016D01*
X42499501Y-60252481D01*
X42499500Y-60252500D01*
X20649775Y-60252500D01*
X20650229Y-30518885D01*
X96149500Y-30518885D01*
X96149500Y-30781114D01*
X96149501Y-30781133D01*
X96183728Y-31041106D01*
X96183730Y-31041115D01*
X96251600Y-31294415D01*
X96251601Y-31294418D01*
X96283836Y-31372239D01*
X96351957Y-31536697D01*
X96351959Y-31536700D01*
X96351962Y-31536708D01*
X96483077Y-31763804D01*
X96642712Y-31971844D01*
X96642714Y-31971846D01*
X96642718Y-31971851D01*
X96828149Y-32157282D01*
X96828153Y-32157285D01*
X96828155Y-32157287D01*
X96923802Y-32230679D01*
X97036197Y-32316924D01*
X97144437Y-32379416D01*
X97263291Y-32448037D01*
X97263295Y-32448038D01*
X97263303Y-32448043D01*
X97505581Y-32548398D01*
X97505584Y-32548399D01*
X97547122Y-32559528D01*
X97758884Y-32616270D01*
X98018880Y-32650500D01*
X98018885Y-32650500D01*
X98281115Y-32650500D01*
X98281120Y-32650500D01*
X98541116Y-32616270D01*
X98794419Y-32548398D01*
X99036697Y-32448043D01*
X99036706Y-32448037D01*
X99036708Y-32448037D01*
X99081630Y-32422100D01*
X99263803Y-32316924D01*
X99471851Y-32157282D01*
X99657282Y-31971851D01*
X99816924Y-31763803D01*
X99948043Y-31536697D01*
X100048398Y-31294419D01*
X100116270Y-31041116D01*
X100150500Y-30781120D01*
X100150500Y-30518880D01*
X100116270Y-30258884D01*
X100048398Y-30005581D01*
X99948043Y-29763303D01*
X99948038Y-29763295D01*
X99948037Y-29763291D01*
X99879416Y-29644437D01*
X99816924Y-29536197D01*
X99657282Y-29328149D01*
X99471851Y-29142718D01*
X99471846Y-29142714D01*
X99471844Y-29142712D01*
X99263804Y-28983077D01*
X99263805Y-28983077D01*
X99263803Y-28983076D01*
X99209682Y-28951829D01*
X99036708Y-28851962D01*
X99036700Y-28851959D01*
X99036701Y-28851959D01*
X99036697Y-28851957D01*
X98900084Y-28795370D01*
X98794418Y-28751601D01*
X98794415Y-28751600D01*
X98597856Y-28698933D01*
X98541116Y-28683730D01*
X98541113Y-28683729D01*
X98541106Y-28683728D01*
X98281133Y-28649501D01*
X98281123Y-28649500D01*
X98281120Y-28649500D01*
X98018880Y-28649500D01*
X98018876Y-28649500D01*
X98018866Y-28649501D01*
X97758893Y-28683728D01*
X97758884Y-28683730D01*
X97505584Y-28751600D01*
X97505581Y-28751601D01*
X97325196Y-28826319D01*
X97263303Y-28851957D01*
X97263300Y-28851958D01*
X97263299Y-28851959D01*
X97263291Y-28851962D01*
X97036195Y-28983077D01*
X96828155Y-29142712D01*
X96642712Y-29328155D01*
X96483077Y-29536195D01*
X96351962Y-29763291D01*
X96351959Y-29763299D01*
X96251601Y-30005581D01*
X96251600Y-30005584D01*
X96183730Y-30258884D01*
X96183728Y-30258893D01*
X96149501Y-30518866D01*
X96149500Y-30518885D01*
X20650229Y-30518885D01*
X20650315Y-24921952D01*
X20650343Y-24919079D01*
X20667344Y-24018885D01*
X96149500Y-24018885D01*
X96149500Y-24281114D01*
X96149501Y-24281133D01*
X96183728Y-24541106D01*
X96183729Y-24541113D01*
X96183730Y-24541116D01*
X96195453Y-24584868D01*
X96251600Y-24794415D01*
X96251601Y-24794418D01*
X96279226Y-24861109D01*
X96351957Y-25036697D01*
X96351959Y-25036700D01*
X96351962Y-25036708D01*
X96483077Y-25263804D01*
X96642712Y-25471844D01*
X96642714Y-25471846D01*
X96642718Y-25471851D01*
X96828149Y-25657282D01*
X96828153Y-25657285D01*
X96828155Y-25657287D01*
X96923802Y-25730679D01*
X97036197Y-25816924D01*
X97144437Y-25879416D01*
X97263291Y-25948037D01*
X97263295Y-25948038D01*
X97263303Y-25948043D01*
X97505581Y-26048398D01*
X97505584Y-26048399D01*
X97547122Y-26059528D01*
X97758884Y-26116270D01*
X98018880Y-26150500D01*
X98018885Y-26150500D01*
X98281115Y-26150500D01*
X98281120Y-26150500D01*
X98541116Y-26116270D01*
X98794419Y-26048398D01*
X99036697Y-25948043D01*
X99036706Y-25948037D01*
X99036708Y-25948037D01*
X99081630Y-25922100D01*
X99263803Y-25816924D01*
X99471851Y-25657282D01*
X99657282Y-25471851D01*
X99816924Y-25263803D01*
X99936867Y-25056054D01*
X99948037Y-25036708D01*
X99948037Y-25036706D01*
X99948043Y-25036697D01*
X100048398Y-24794419D01*
X100116270Y-24541116D01*
X100150500Y-24281120D01*
X100150500Y-24018880D01*
X100116270Y-23758884D01*
X100048398Y-23505581D01*
X99948043Y-23263303D01*
X99948038Y-23263295D01*
X99948037Y-23263291D01*
X99857806Y-23107007D01*
X99816924Y-23036197D01*
X99712340Y-22899901D01*
X99657287Y-22828155D01*
X99657285Y-22828153D01*
X99657282Y-22828149D01*
X99471851Y-22642718D01*
X99471846Y-22642714D01*
X99471844Y-22642712D01*
X99263804Y-22483077D01*
X99263805Y-22483077D01*
X99263803Y-22483076D01*
X99205647Y-22449500D01*
X99036708Y-22351962D01*
X99036700Y-22351959D01*
X99036701Y-22351959D01*
X99036697Y-22351957D01*
X98900084Y-22295370D01*
X98794418Y-22251601D01*
X98794415Y-22251600D01*
X98597856Y-22198933D01*
X98541116Y-22183730D01*
X98541113Y-22183729D01*
X98541106Y-22183728D01*
X98281133Y-22149501D01*
X98281123Y-22149500D01*
X98281120Y-22149500D01*
X98018880Y-22149500D01*
X98018876Y-22149500D01*
X98018866Y-22149501D01*
X97758893Y-22183728D01*
X97758884Y-22183730D01*
X97505584Y-22251600D01*
X97505581Y-22251601D01*
X97325196Y-22326319D01*
X97263303Y-22351957D01*
X97263300Y-22351958D01*
X97263299Y-22351959D01*
X97263291Y-22351962D01*
X97036195Y-22483077D01*
X96828155Y-22642712D01*
X96642712Y-22828155D01*
X96483077Y-23036195D01*
X96351962Y-23263291D01*
X96351959Y-23263299D01*
X96251601Y-23505581D01*
X96251600Y-23505584D01*
X96183730Y-23758884D01*
X96183728Y-23758893D01*
X96149501Y-24018866D01*
X96149500Y-24018885D01*
X20667344Y-24018885D01*
X20889212Y-12271214D01*
X20910666Y-12190743D01*
X20967059Y-12129460D01*
X21045473Y-12101403D01*
X21063181Y-12100500D01*
X271828923Y-12100500D01*
X271909785Y-12120431D01*
G37*
%TD.AperFunction*%
%TA.AperFunction,Conductor*%
G36*
X97486621Y-94856766D02*
G01*
X97547956Y-94896421D01*
X100159631Y-97508097D01*
X100159634Y-97508099D01*
X111621400Y-108969865D01*
X111664484Y-109041136D01*
X111672363Y-109092902D01*
X111672363Y-109166499D01*
X111652432Y-109247361D01*
X111597206Y-109309698D01*
X111519336Y-109339230D01*
X111436662Y-109329192D01*
X111431791Y-109327260D01*
X111228963Y-109243246D01*
X111228964Y-109243246D01*
X111228961Y-109243245D01*
X111064262Y-109199114D01*
X110994652Y-109180462D01*
X110994647Y-109180461D01*
X110994636Y-109180459D01*
X110754166Y-109148801D01*
X110754154Y-109148800D01*
X110754151Y-109148800D01*
X110511575Y-109148800D01*
X110511571Y-109148800D01*
X110511559Y-109148801D01*
X110271089Y-109180459D01*
X110271076Y-109180461D01*
X110271074Y-109180462D01*
X110271071Y-109180462D01*
X110271070Y-109180463D01*
X110036764Y-109243245D01*
X109812646Y-109336078D01*
X109812639Y-109336081D01*
X109602580Y-109457360D01*
X109602574Y-109457364D01*
X109468787Y-109560022D01*
X109392502Y-109593435D01*
X109309427Y-109587570D01*
X109256939Y-109560022D01*
X109233952Y-109542384D01*
X109123152Y-109457364D01*
X109089947Y-109438193D01*
X108913086Y-109336081D01*
X108913079Y-109336078D01*
X108913077Y-109336077D01*
X108913075Y-109336076D01*
X108688963Y-109243246D01*
X108688964Y-109243246D01*
X108688961Y-109243245D01*
X108524262Y-109199114D01*
X108454652Y-109180462D01*
X108454647Y-109180461D01*
X108454636Y-109180459D01*
X108214166Y-109148801D01*
X108214154Y-109148800D01*
X108214151Y-109148800D01*
X107971575Y-109148800D01*
X107971571Y-109148800D01*
X107971559Y-109148801D01*
X107731089Y-109180459D01*
X107731076Y-109180461D01*
X107731074Y-109180462D01*
X107731071Y-109180462D01*
X107731070Y-109180463D01*
X107496764Y-109243245D01*
X107272646Y-109336078D01*
X107272639Y-109336081D01*
X107062580Y-109457360D01*
X107062574Y-109457364D01*
X106928787Y-109560022D01*
X106852502Y-109593435D01*
X106769427Y-109587570D01*
X106716939Y-109560022D01*
X106693952Y-109542384D01*
X106583152Y-109457364D01*
X106549947Y-109438193D01*
X106373086Y-109336081D01*
X106373079Y-109336078D01*
X106373077Y-109336077D01*
X106373075Y-109336076D01*
X106148963Y-109243246D01*
X106148964Y-109243246D01*
X106148961Y-109243245D01*
X105984262Y-109199114D01*
X105914652Y-109180462D01*
X105914647Y-109180461D01*
X105914636Y-109180459D01*
X105674166Y-109148801D01*
X105674154Y-109148800D01*
X105674151Y-109148800D01*
X105431575Y-109148800D01*
X105431571Y-109148800D01*
X105431559Y-109148801D01*
X105191089Y-109180459D01*
X105191076Y-109180461D01*
X105191074Y-109180462D01*
X105191071Y-109180462D01*
X105191070Y-109180463D01*
X104956764Y-109243245D01*
X104732646Y-109336078D01*
X104732639Y-109336081D01*
X104522580Y-109457360D01*
X104522574Y-109457364D01*
X104388787Y-109560022D01*
X104312502Y-109593435D01*
X104229427Y-109587570D01*
X104176939Y-109560022D01*
X104153952Y-109542384D01*
X104043152Y-109457364D01*
X104009947Y-109438193D01*
X103833086Y-109336081D01*
X103833079Y-109336078D01*
X103833077Y-109336077D01*
X103833075Y-109336076D01*
X103608963Y-109243246D01*
X103608964Y-109243246D01*
X103608961Y-109243245D01*
X103444262Y-109199114D01*
X103374652Y-109180462D01*
X103374647Y-109180461D01*
X103374636Y-109180459D01*
X103134166Y-109148801D01*
X103134154Y-109148800D01*
X103134151Y-109148800D01*
X102891575Y-109148800D01*
X102891571Y-109148800D01*
X102891559Y-109148801D01*
X102651089Y-109180459D01*
X102651076Y-109180461D01*
X102651074Y-109180462D01*
X102651071Y-109180462D01*
X102651070Y-109180463D01*
X102416764Y-109243245D01*
X102192646Y-109336078D01*
X102192639Y-109336081D01*
X101982580Y-109457360D01*
X101982574Y-109457364D01*
X101790127Y-109605033D01*
X101618595Y-109776565D01*
X101531382Y-109890223D01*
X101466344Y-109942242D01*
X101384582Y-109958077D01*
X101304825Y-109934102D01*
X101291065Y-109925067D01*
X101180422Y-109844680D01*
X101180417Y-109844677D01*
X100991085Y-109748207D01*
X100991083Y-109748206D01*
X100788983Y-109682540D01*
X100722863Y-109672067D01*
X100722863Y-110566288D01*
X100665856Y-110533375D01*
X100538689Y-110499300D01*
X100407037Y-110499300D01*
X100279870Y-110533375D01*
X100222863Y-110566288D01*
X100222863Y-109672067D01*
X100156742Y-109682540D01*
X99954642Y-109748206D01*
X99954640Y-109748207D01*
X99765308Y-109844677D01*
X99765303Y-109844680D01*
X99593403Y-109969573D01*
X99593401Y-109969574D01*
X99443137Y-110119838D01*
X99443136Y-110119840D01*
X99318243Y-110291740D01*
X99318240Y-110291745D01*
X99221770Y-110481077D01*
X99221769Y-110481079D01*
X99156107Y-110683165D01*
X99156106Y-110683171D01*
X99145632Y-110749300D01*
X100039851Y-110749300D01*
X100006938Y-110806307D01*
X99972863Y-110933474D01*
X99972863Y-111065126D01*
X100006938Y-111192293D01*
X100039851Y-111249300D01*
X99145632Y-111249300D01*
X99156106Y-111315428D01*
X99156107Y-111315434D01*
X99221769Y-111517520D01*
X99221770Y-111517522D01*
X99318240Y-111706854D01*
X99318243Y-111706859D01*
X99443136Y-111878759D01*
X99443137Y-111878761D01*
X99593401Y-112029025D01*
X99593403Y-112029026D01*
X99765303Y-112153919D01*
X99765308Y-112153922D01*
X99954640Y-112250392D01*
X99954642Y-112250393D01*
X100156728Y-112316055D01*
X100156734Y-112316056D01*
X100222863Y-112326530D01*
X100222863Y-111432312D01*
X100279870Y-111465225D01*
X100407037Y-111499300D01*
X100538689Y-111499300D01*
X100665856Y-111465225D01*
X100722863Y-111432312D01*
X100722863Y-112326530D01*
X100788991Y-112316056D01*
X100788997Y-112316055D01*
X100991083Y-112250393D01*
X100991085Y-112250392D01*
X101180416Y-112153922D01*
X101291065Y-112073532D01*
X101368199Y-112042127D01*
X101451092Y-112050165D01*
X101520755Y-112095804D01*
X101531373Y-112108364D01*
X101618598Y-112222038D01*
X101790125Y-112393565D01*
X101982574Y-112541236D01*
X102052599Y-112581665D01*
X102192639Y-112662518D01*
X102192645Y-112662520D01*
X102192651Y-112662524D01*
X102416763Y-112755354D01*
X102651074Y-112818138D01*
X102651088Y-112818139D01*
X102651089Y-112818140D01*
X102891559Y-112849798D01*
X102891561Y-112849798D01*
X102891575Y-112849800D01*
X102891582Y-112849800D01*
X103134144Y-112849800D01*
X103134151Y-112849800D01*
X103374652Y-112818138D01*
X103608963Y-112755354D01*
X103833075Y-112662524D01*
X103833083Y-112662519D01*
X103833086Y-112662518D01*
X103886019Y-112631956D01*
X104043152Y-112541236D01*
X104176939Y-112438577D01*
X104253223Y-112405164D01*
X104336299Y-112411029D01*
X104388785Y-112438576D01*
X104522574Y-112541236D01*
X104592599Y-112581665D01*
X104732639Y-112662518D01*
X104732645Y-112662520D01*
X104732651Y-112662524D01*
X104956763Y-112755354D01*
X105191074Y-112818138D01*
X105191088Y-112818139D01*
X105191089Y-112818140D01*
X105431559Y-112849798D01*
X105431561Y-112849798D01*
X105431575Y-112849800D01*
X105431582Y-112849800D01*
X105674144Y-112849800D01*
X105674151Y-112849800D01*
X105914652Y-112818138D01*
X106148963Y-112755354D01*
X106373075Y-112662524D01*
X106373083Y-112662519D01*
X106373086Y-112662518D01*
X106426019Y-112631956D01*
X106583152Y-112541236D01*
X106716939Y-112438577D01*
X106793223Y-112405164D01*
X106876299Y-112411029D01*
X106928785Y-112438576D01*
X107062574Y-112541236D01*
X107132599Y-112581665D01*
X107272639Y-112662518D01*
X107272645Y-112662520D01*
X107272651Y-112662524D01*
X107496763Y-112755354D01*
X107731074Y-112818138D01*
X107731088Y-112818139D01*
X107731089Y-112818140D01*
X107971559Y-112849798D01*
X107971561Y-112849798D01*
X107971575Y-112849800D01*
X107971582Y-112849800D01*
X108214144Y-112849800D01*
X108214151Y-112849800D01*
X108454652Y-112818138D01*
X108688963Y-112755354D01*
X108913075Y-112662524D01*
X108913083Y-112662519D01*
X108913086Y-112662518D01*
X108966019Y-112631956D01*
X109123152Y-112541236D01*
X109256939Y-112438577D01*
X109333223Y-112405164D01*
X109416299Y-112411029D01*
X109468785Y-112438576D01*
X109602574Y-112541236D01*
X109672599Y-112581665D01*
X109812639Y-112662518D01*
X109812645Y-112662520D01*
X109812651Y-112662524D01*
X110036763Y-112755354D01*
X110271074Y-112818138D01*
X110271088Y-112818139D01*
X110271089Y-112818140D01*
X110511559Y-112849798D01*
X110511561Y-112849798D01*
X110511575Y-112849800D01*
X110511582Y-112849800D01*
X110754144Y-112849800D01*
X110754151Y-112849800D01*
X110994652Y-112818138D01*
X111228963Y-112755354D01*
X111453075Y-112662524D01*
X111453083Y-112662519D01*
X111453086Y-112662518D01*
X111506019Y-112631956D01*
X111663152Y-112541236D01*
X111796939Y-112438577D01*
X111873223Y-112405164D01*
X111956299Y-112411029D01*
X112008785Y-112438576D01*
X112142574Y-112541236D01*
X112212599Y-112581665D01*
X112352639Y-112662518D01*
X112352645Y-112662520D01*
X112352651Y-112662524D01*
X112576763Y-112755354D01*
X112811074Y-112818138D01*
X112811088Y-112818139D01*
X112811089Y-112818140D01*
X113051559Y-112849798D01*
X113051561Y-112849798D01*
X113051575Y-112849800D01*
X113051582Y-112849800D01*
X113294144Y-112849800D01*
X113294151Y-112849800D01*
X113534652Y-112818138D01*
X113768963Y-112755354D01*
X113993075Y-112662524D01*
X113993083Y-112662519D01*
X113993086Y-112662518D01*
X114046019Y-112631956D01*
X114203152Y-112541236D01*
X114336939Y-112438577D01*
X114413223Y-112405164D01*
X114496299Y-112411029D01*
X114548785Y-112438576D01*
X114682574Y-112541236D01*
X114752599Y-112581665D01*
X114892639Y-112662518D01*
X114892645Y-112662520D01*
X114892651Y-112662524D01*
X115116763Y-112755354D01*
X115351074Y-112818138D01*
X115351088Y-112818139D01*
X115351089Y-112818140D01*
X115591559Y-112849798D01*
X115591561Y-112849798D01*
X115591575Y-112849800D01*
X115591582Y-112849800D01*
X115834144Y-112849800D01*
X115834151Y-112849800D01*
X116074652Y-112818138D01*
X116308963Y-112755354D01*
X116533075Y-112662524D01*
X116533083Y-112662519D01*
X116533086Y-112662518D01*
X116586019Y-112631956D01*
X116743152Y-112541236D01*
X116876939Y-112438577D01*
X116953223Y-112405164D01*
X117036299Y-112411029D01*
X117088785Y-112438576D01*
X117222574Y-112541236D01*
X117292599Y-112581665D01*
X117432639Y-112662518D01*
X117432645Y-112662520D01*
X117432651Y-112662524D01*
X117656763Y-112755354D01*
X117891074Y-112818138D01*
X117891088Y-112818139D01*
X117891089Y-112818140D01*
X118131559Y-112849798D01*
X118131561Y-112849798D01*
X118131575Y-112849800D01*
X118131582Y-112849800D01*
X118374144Y-112849800D01*
X118374151Y-112849800D01*
X118614652Y-112818138D01*
X118848963Y-112755354D01*
X119073075Y-112662524D01*
X119073083Y-112662519D01*
X119073086Y-112662518D01*
X119126019Y-112631956D01*
X119283152Y-112541236D01*
X119416939Y-112438577D01*
X119493223Y-112405164D01*
X119576299Y-112411029D01*
X119628785Y-112438576D01*
X119762574Y-112541236D01*
X119832599Y-112581665D01*
X119972639Y-112662518D01*
X119972645Y-112662520D01*
X119972651Y-112662524D01*
X120196763Y-112755354D01*
X120431074Y-112818138D01*
X120431088Y-112818139D01*
X120431089Y-112818140D01*
X120671559Y-112849798D01*
X120671561Y-112849798D01*
X120671575Y-112849800D01*
X120671582Y-112849800D01*
X120914144Y-112849800D01*
X120914151Y-112849800D01*
X121154652Y-112818138D01*
X121388963Y-112755354D01*
X121613075Y-112662524D01*
X121613083Y-112662519D01*
X121613086Y-112662518D01*
X121666019Y-112631956D01*
X121823152Y-112541236D01*
X121956939Y-112438577D01*
X122033223Y-112405164D01*
X122116299Y-112411029D01*
X122168785Y-112438576D01*
X122302574Y-112541236D01*
X122372599Y-112581665D01*
X122512639Y-112662518D01*
X122512645Y-112662520D01*
X122512651Y-112662524D01*
X122736763Y-112755354D01*
X122971074Y-112818138D01*
X122971088Y-112818139D01*
X122971089Y-112818140D01*
X123211559Y-112849798D01*
X123211561Y-112849798D01*
X123211575Y-112849800D01*
X123211582Y-112849800D01*
X123454144Y-112849800D01*
X123454151Y-112849800D01*
X123694652Y-112818138D01*
X123928963Y-112755354D01*
X124153075Y-112662524D01*
X124153083Y-112662519D01*
X124153086Y-112662518D01*
X124206019Y-112631956D01*
X124363152Y-112541236D01*
X124496939Y-112438577D01*
X124573223Y-112405164D01*
X124656299Y-112411029D01*
X124708785Y-112438576D01*
X124842574Y-112541236D01*
X124912599Y-112581665D01*
X125052639Y-112662518D01*
X125052645Y-112662520D01*
X125052651Y-112662524D01*
X125276763Y-112755354D01*
X125511074Y-112818138D01*
X125511088Y-112818139D01*
X125511089Y-112818140D01*
X125751559Y-112849798D01*
X125751561Y-112849798D01*
X125751575Y-112849800D01*
X125751582Y-112849800D01*
X125994144Y-112849800D01*
X125994151Y-112849800D01*
X126234652Y-112818138D01*
X126468963Y-112755354D01*
X126693075Y-112662524D01*
X126693083Y-112662519D01*
X126693086Y-112662518D01*
X126746019Y-112631956D01*
X126903152Y-112541236D01*
X127036939Y-112438577D01*
X127113223Y-112405164D01*
X127196299Y-112411029D01*
X127248785Y-112438576D01*
X127382574Y-112541236D01*
X127452599Y-112581665D01*
X127592639Y-112662518D01*
X127592645Y-112662520D01*
X127592651Y-112662524D01*
X127816763Y-112755354D01*
X128051074Y-112818138D01*
X128051088Y-112818139D01*
X128051089Y-112818140D01*
X128291559Y-112849798D01*
X128291561Y-112849798D01*
X128291575Y-112849800D01*
X128291582Y-112849800D01*
X128534144Y-112849800D01*
X128534151Y-112849800D01*
X128774652Y-112818138D01*
X129008963Y-112755354D01*
X129233075Y-112662524D01*
X129233083Y-112662519D01*
X129233086Y-112662518D01*
X129286019Y-112631956D01*
X129443152Y-112541236D01*
X129635601Y-112393565D01*
X129807128Y-112222038D01*
X129894344Y-112108374D01*
X129959380Y-112056358D01*
X130041142Y-112040521D01*
X130120898Y-112064496D01*
X130134661Y-112073532D01*
X130245309Y-112153922D01*
X130434640Y-112250392D01*
X130434642Y-112250393D01*
X130636728Y-112316055D01*
X130636734Y-112316056D01*
X130702863Y-112326530D01*
X130702863Y-111432312D01*
X130759870Y-111465225D01*
X130887037Y-111499300D01*
X131018689Y-111499300D01*
X131145856Y-111465225D01*
X131202863Y-111432312D01*
X131202863Y-112326530D01*
X131268991Y-112316056D01*
X131268997Y-112316055D01*
X131471083Y-112250393D01*
X131471085Y-112250392D01*
X131660416Y-112153922D01*
X131771065Y-112073532D01*
X131848199Y-112042127D01*
X131931092Y-112050165D01*
X132000755Y-112095804D01*
X132011373Y-112108364D01*
X132098598Y-112222038D01*
X132270125Y-112393565D01*
X132462574Y-112541236D01*
X132532599Y-112581665D01*
X132672639Y-112662518D01*
X132672645Y-112662520D01*
X132672651Y-112662524D01*
X132896763Y-112755354D01*
X133131074Y-112818138D01*
X133131088Y-112818139D01*
X133131089Y-112818140D01*
X133371559Y-112849798D01*
X133371561Y-112849798D01*
X133371575Y-112849800D01*
X133371582Y-112849800D01*
X133614144Y-112849800D01*
X133614151Y-112849800D01*
X133854652Y-112818138D01*
X134088963Y-112755354D01*
X134313075Y-112662524D01*
X134313083Y-112662519D01*
X134313086Y-112662518D01*
X134366019Y-112631956D01*
X134523152Y-112541236D01*
X134656939Y-112438577D01*
X134733223Y-112405164D01*
X134816299Y-112411029D01*
X134868785Y-112438576D01*
X135002574Y-112541236D01*
X135072599Y-112581665D01*
X135212639Y-112662518D01*
X135212645Y-112662520D01*
X135212651Y-112662524D01*
X135436763Y-112755354D01*
X135671074Y-112818138D01*
X135671088Y-112818139D01*
X135671089Y-112818140D01*
X135911559Y-112849798D01*
X135911561Y-112849798D01*
X135911575Y-112849800D01*
X135911582Y-112849800D01*
X136154144Y-112849800D01*
X136154151Y-112849800D01*
X136394652Y-112818138D01*
X136628963Y-112755354D01*
X136853075Y-112662524D01*
X136853083Y-112662519D01*
X136853086Y-112662518D01*
X136906019Y-112631956D01*
X137063152Y-112541236D01*
X137196939Y-112438577D01*
X137273223Y-112405164D01*
X137356299Y-112411029D01*
X137408785Y-112438576D01*
X137542574Y-112541236D01*
X137612599Y-112581665D01*
X137752639Y-112662518D01*
X137752645Y-112662520D01*
X137752651Y-112662524D01*
X137976763Y-112755354D01*
X138211074Y-112818138D01*
X138211088Y-112818139D01*
X138211089Y-112818140D01*
X138451559Y-112849798D01*
X138451561Y-112849798D01*
X138451575Y-112849800D01*
X138451582Y-112849800D01*
X138694144Y-112849800D01*
X138694151Y-112849800D01*
X138934652Y-112818138D01*
X139168963Y-112755354D01*
X139393075Y-112662524D01*
X139393083Y-112662519D01*
X139393086Y-112662518D01*
X139446019Y-112631956D01*
X139603152Y-112541236D01*
X139736939Y-112438577D01*
X139813223Y-112405164D01*
X139896299Y-112411029D01*
X139948785Y-112438576D01*
X140082574Y-112541236D01*
X140152599Y-112581665D01*
X140292639Y-112662518D01*
X140292645Y-112662520D01*
X140292651Y-112662524D01*
X140516763Y-112755354D01*
X140751074Y-112818138D01*
X140751088Y-112818139D01*
X140751089Y-112818140D01*
X140991559Y-112849798D01*
X140991561Y-112849798D01*
X140991575Y-112849800D01*
X140991582Y-112849800D01*
X141234144Y-112849800D01*
X141234151Y-112849800D01*
X141474652Y-112818138D01*
X141708963Y-112755354D01*
X141933075Y-112662524D01*
X141933083Y-112662519D01*
X141933086Y-112662518D01*
X141986019Y-112631956D01*
X142143152Y-112541236D01*
X142276939Y-112438577D01*
X142353223Y-112405164D01*
X142436299Y-112411029D01*
X142488785Y-112438576D01*
X142622574Y-112541236D01*
X142692599Y-112581665D01*
X142832639Y-112662518D01*
X142832645Y-112662520D01*
X142832651Y-112662524D01*
X143056763Y-112755354D01*
X143291074Y-112818138D01*
X143291088Y-112818139D01*
X143291089Y-112818140D01*
X143531559Y-112849798D01*
X143531561Y-112849798D01*
X143531575Y-112849800D01*
X143531582Y-112849800D01*
X143774144Y-112849800D01*
X143774151Y-112849800D01*
X144014652Y-112818138D01*
X144248963Y-112755354D01*
X144473075Y-112662524D01*
X144473083Y-112662519D01*
X144473086Y-112662518D01*
X144526019Y-112631956D01*
X144683152Y-112541236D01*
X144816939Y-112438577D01*
X144893223Y-112405164D01*
X144976299Y-112411029D01*
X145028785Y-112438576D01*
X145162574Y-112541236D01*
X145232599Y-112581665D01*
X145372639Y-112662518D01*
X145372645Y-112662520D01*
X145372651Y-112662524D01*
X145596763Y-112755354D01*
X145831074Y-112818138D01*
X145831088Y-112818139D01*
X145831089Y-112818140D01*
X146071559Y-112849798D01*
X146071561Y-112849798D01*
X146071575Y-112849800D01*
X146071582Y-112849800D01*
X146314144Y-112849800D01*
X146314151Y-112849800D01*
X146554652Y-112818138D01*
X146788963Y-112755354D01*
X147013075Y-112662524D01*
X147013083Y-112662519D01*
X147013086Y-112662518D01*
X147066019Y-112631956D01*
X147223152Y-112541236D01*
X147356939Y-112438577D01*
X147433223Y-112405164D01*
X147516299Y-112411029D01*
X147568785Y-112438576D01*
X147702574Y-112541236D01*
X147772599Y-112581665D01*
X147912639Y-112662518D01*
X147912645Y-112662520D01*
X147912651Y-112662524D01*
X148136763Y-112755354D01*
X148371074Y-112818138D01*
X148371088Y-112818139D01*
X148371089Y-112818140D01*
X148611559Y-112849798D01*
X148611561Y-112849798D01*
X148611575Y-112849800D01*
X148611582Y-112849800D01*
X148854144Y-112849800D01*
X148854151Y-112849800D01*
X149094652Y-112818138D01*
X149328963Y-112755354D01*
X149553075Y-112662524D01*
X149553083Y-112662519D01*
X149553086Y-112662518D01*
X149606019Y-112631956D01*
X149763152Y-112541236D01*
X149896939Y-112438577D01*
X149973223Y-112405164D01*
X150056299Y-112411029D01*
X150108785Y-112438576D01*
X150242574Y-112541236D01*
X150312599Y-112581665D01*
X150452639Y-112662518D01*
X150452645Y-112662520D01*
X150452651Y-112662524D01*
X150676763Y-112755354D01*
X150911074Y-112818138D01*
X150911088Y-112818139D01*
X150911089Y-112818140D01*
X151151559Y-112849798D01*
X151151561Y-112849798D01*
X151151575Y-112849800D01*
X151151582Y-112849800D01*
X151394144Y-112849800D01*
X151394151Y-112849800D01*
X151634652Y-112818138D01*
X151868963Y-112755354D01*
X152093075Y-112662524D01*
X152093083Y-112662519D01*
X152093086Y-112662518D01*
X152146019Y-112631956D01*
X152303152Y-112541236D01*
X152436939Y-112438577D01*
X152513223Y-112405164D01*
X152596299Y-112411029D01*
X152648785Y-112438576D01*
X152782574Y-112541236D01*
X152852599Y-112581665D01*
X152992639Y-112662518D01*
X152992645Y-112662520D01*
X152992651Y-112662524D01*
X153216763Y-112755354D01*
X153451074Y-112818138D01*
X153451088Y-112818139D01*
X153451089Y-112818140D01*
X153691559Y-112849798D01*
X153691561Y-112849798D01*
X153691575Y-112849800D01*
X153691582Y-112849800D01*
X153934144Y-112849800D01*
X153934151Y-112849800D01*
X154174652Y-112818138D01*
X154408963Y-112755354D01*
X154633075Y-112662524D01*
X154633083Y-112662519D01*
X154633086Y-112662518D01*
X154686019Y-112631956D01*
X154843152Y-112541236D01*
X154976939Y-112438577D01*
X155053223Y-112405164D01*
X155136299Y-112411029D01*
X155188785Y-112438576D01*
X155322574Y-112541236D01*
X155392599Y-112581665D01*
X155532639Y-112662518D01*
X155532645Y-112662520D01*
X155532651Y-112662524D01*
X155756763Y-112755354D01*
X155756764Y-112755354D01*
X155756766Y-112755355D01*
X155828522Y-112774582D01*
X155901470Y-112814762D01*
X155947390Y-112884240D01*
X155955762Y-112967100D01*
X155924668Y-113044359D01*
X155906525Y-113065690D01*
X154024380Y-114947837D01*
X153953109Y-114990921D01*
X153901343Y-114998800D01*
X101695021Y-114998800D01*
X101614159Y-114978869D01*
X101571984Y-114947837D01*
X97301883Y-110677736D01*
X97258799Y-110606465D01*
X97250920Y-110554699D01*
X97250920Y-95019459D01*
X97270851Y-94938597D01*
X97326077Y-94876260D01*
X97403947Y-94846728D01*
X97486621Y-94856766D01*
G37*
%TD.AperFunction*%
%TA.AperFunction,Conductor*%
G36*
X167733282Y-107722731D02*
G01*
X167775457Y-107753763D01*
X168873457Y-108851763D01*
X168916541Y-108923034D01*
X168921570Y-109006164D01*
X168887390Y-109082109D01*
X168821832Y-109133471D01*
X168750420Y-109148800D01*
X168144829Y-109148800D01*
X168144816Y-109148801D01*
X168025450Y-109159413D01*
X168025447Y-109159413D01*
X168025445Y-109159414D01*
X167829814Y-109215391D01*
X167829812Y-109215391D01*
X167829812Y-109215392D01*
X167649457Y-109309601D01*
X167491756Y-109438189D01*
X167491752Y-109438193D01*
X167363165Y-109595892D01*
X167336790Y-109646385D01*
X167317905Y-109682540D01*
X167310271Y-109697154D01*
X167255166Y-109759598D01*
X167177354Y-109789282D01*
X167094660Y-109779405D01*
X167077049Y-109771627D01*
X167031086Y-109748207D01*
X167031083Y-109748206D01*
X166828983Y-109682540D01*
X166762863Y-109672067D01*
X166762863Y-110566288D01*
X166705856Y-110533375D01*
X166578689Y-110499300D01*
X166447037Y-110499300D01*
X166319870Y-110533375D01*
X166262863Y-110566288D01*
X166262863Y-109672067D01*
X166196742Y-109682540D01*
X165994642Y-109748206D01*
X165994640Y-109748207D01*
X165805310Y-109844676D01*
X165694660Y-109925068D01*
X165617526Y-109956472D01*
X165534633Y-109948434D01*
X165464971Y-109902794D01*
X165454343Y-109890223D01*
X165419394Y-109844677D01*
X165367128Y-109776562D01*
X165195601Y-109605035D01*
X165003152Y-109457364D01*
X164969947Y-109438193D01*
X164793086Y-109336081D01*
X164793079Y-109336078D01*
X164793077Y-109336077D01*
X164793075Y-109336076D01*
X164568963Y-109243246D01*
X164568964Y-109243246D01*
X164568961Y-109243245D01*
X164404262Y-109199114D01*
X164334652Y-109180462D01*
X164334647Y-109180461D01*
X164334636Y-109180459D01*
X164094166Y-109148801D01*
X164094154Y-109148800D01*
X164094151Y-109148800D01*
X163851575Y-109148800D01*
X163851571Y-109148800D01*
X163851559Y-109148801D01*
X163611089Y-109180459D01*
X163611076Y-109180461D01*
X163611074Y-109180462D01*
X163611071Y-109180462D01*
X163611070Y-109180463D01*
X163376764Y-109243245D01*
X163152646Y-109336078D01*
X163152639Y-109336081D01*
X162942580Y-109457360D01*
X162942574Y-109457364D01*
X162808787Y-109560022D01*
X162732502Y-109593435D01*
X162649427Y-109587570D01*
X162596939Y-109560022D01*
X162573952Y-109542384D01*
X162463152Y-109457364D01*
X162429947Y-109438193D01*
X162253086Y-109336081D01*
X162253079Y-109336078D01*
X162253077Y-109336077D01*
X162253075Y-109336076D01*
X162028963Y-109243246D01*
X162028964Y-109243246D01*
X162028961Y-109243245D01*
X161864262Y-109199114D01*
X161794652Y-109180462D01*
X161794647Y-109180461D01*
X161794636Y-109180459D01*
X161554166Y-109148801D01*
X161554154Y-109148800D01*
X161554151Y-109148800D01*
X161311575Y-109148800D01*
X161311571Y-109148800D01*
X161311559Y-109148801D01*
X161071089Y-109180459D01*
X161071076Y-109180461D01*
X161071074Y-109180462D01*
X161071071Y-109180462D01*
X161071070Y-109180463D01*
X160836764Y-109243245D01*
X160612646Y-109336078D01*
X160612639Y-109336081D01*
X160402580Y-109457360D01*
X160402574Y-109457364D01*
X160268787Y-109560022D01*
X160192502Y-109593435D01*
X160109427Y-109587570D01*
X160056939Y-109560022D01*
X160033952Y-109542384D01*
X159923152Y-109457364D01*
X159889947Y-109438193D01*
X159713086Y-109336081D01*
X159713079Y-109336078D01*
X159713077Y-109336077D01*
X159713075Y-109336076D01*
X159488963Y-109243246D01*
X159488964Y-109243246D01*
X159488961Y-109243245D01*
X159324262Y-109199114D01*
X159254652Y-109180462D01*
X159254647Y-109180461D01*
X159254636Y-109180459D01*
X159014166Y-109148801D01*
X159014154Y-109148800D01*
X159014151Y-109148800D01*
X158771575Y-109148800D01*
X158771571Y-109148800D01*
X158771559Y-109148801D01*
X158531089Y-109180459D01*
X158531076Y-109180461D01*
X158531074Y-109180462D01*
X158531071Y-109180462D01*
X158531070Y-109180463D01*
X158296764Y-109243245D01*
X158072646Y-109336078D01*
X158072639Y-109336081D01*
X157862580Y-109457360D01*
X157862574Y-109457364D01*
X157728787Y-109560022D01*
X157652502Y-109593435D01*
X157569427Y-109587570D01*
X157516939Y-109560022D01*
X157493952Y-109542384D01*
X157383152Y-109457364D01*
X157349947Y-109438193D01*
X157173086Y-109336081D01*
X157173079Y-109336078D01*
X157173077Y-109336077D01*
X157173075Y-109336076D01*
X156948963Y-109243246D01*
X156948964Y-109243246D01*
X156948961Y-109243245D01*
X156784262Y-109199114D01*
X156714652Y-109180462D01*
X156714647Y-109180461D01*
X156714636Y-109180459D01*
X156474166Y-109148801D01*
X156474154Y-109148800D01*
X156474151Y-109148800D01*
X156231575Y-109148800D01*
X156231571Y-109148800D01*
X156231559Y-109148801D01*
X155991089Y-109180459D01*
X155991076Y-109180461D01*
X155991074Y-109180462D01*
X155991071Y-109180462D01*
X155991070Y-109180463D01*
X155756764Y-109243245D01*
X155532646Y-109336078D01*
X155532639Y-109336081D01*
X155322580Y-109457360D01*
X155322574Y-109457364D01*
X155188787Y-109560022D01*
X155112502Y-109593435D01*
X155029427Y-109587570D01*
X154976939Y-109560022D01*
X154953952Y-109542384D01*
X154843152Y-109457364D01*
X154809947Y-109438193D01*
X154633086Y-109336081D01*
X154633079Y-109336078D01*
X154633077Y-109336077D01*
X154633075Y-109336076D01*
X154408963Y-109243246D01*
X154408964Y-109243246D01*
X154408961Y-109243245D01*
X154244262Y-109199114D01*
X154174652Y-109180462D01*
X154174647Y-109180461D01*
X154174636Y-109180459D01*
X153934166Y-109148801D01*
X153934154Y-109148800D01*
X153934151Y-109148800D01*
X153691575Y-109148800D01*
X153691571Y-109148800D01*
X153691559Y-109148801D01*
X153451089Y-109180459D01*
X153451076Y-109180461D01*
X153451074Y-109180462D01*
X153451071Y-109180462D01*
X153451070Y-109180463D01*
X153216764Y-109243245D01*
X152992646Y-109336078D01*
X152992639Y-109336081D01*
X152782580Y-109457360D01*
X152782574Y-109457364D01*
X152648787Y-109560022D01*
X152572502Y-109593435D01*
X152489427Y-109587570D01*
X152436939Y-109560022D01*
X152413952Y-109542384D01*
X152303152Y-109457364D01*
X152269947Y-109438193D01*
X152093086Y-109336081D01*
X152093079Y-109336078D01*
X152093077Y-109336077D01*
X152093075Y-109336076D01*
X151868963Y-109243246D01*
X151868964Y-109243246D01*
X151868961Y-109243245D01*
X151704262Y-109199114D01*
X151634652Y-109180462D01*
X151634647Y-109180461D01*
X151634636Y-109180459D01*
X151394166Y-109148801D01*
X151394154Y-109148800D01*
X151394151Y-109148800D01*
X151151575Y-109148800D01*
X151151571Y-109148800D01*
X151151559Y-109148801D01*
X150911089Y-109180459D01*
X150911076Y-109180461D01*
X150911074Y-109180462D01*
X150911071Y-109180462D01*
X150911070Y-109180463D01*
X150676764Y-109243245D01*
X150452646Y-109336078D01*
X150452639Y-109336081D01*
X150242580Y-109457360D01*
X150242574Y-109457364D01*
X150108787Y-109560022D01*
X150032502Y-109593435D01*
X149949427Y-109587570D01*
X149896939Y-109560022D01*
X149873952Y-109542384D01*
X149763152Y-109457364D01*
X149729947Y-109438193D01*
X149553086Y-109336081D01*
X149553079Y-109336078D01*
X149553077Y-109336077D01*
X149553075Y-109336076D01*
X149328963Y-109243246D01*
X149328964Y-109243246D01*
X149328961Y-109243245D01*
X149164262Y-109199114D01*
X149094652Y-109180462D01*
X149094647Y-109180461D01*
X149094636Y-109180459D01*
X148854166Y-109148801D01*
X148854154Y-109148800D01*
X148854151Y-109148800D01*
X148611575Y-109148800D01*
X148611571Y-109148800D01*
X148611559Y-109148801D01*
X148371089Y-109180459D01*
X148371076Y-109180461D01*
X148371074Y-109180462D01*
X148371071Y-109180462D01*
X148371070Y-109180463D01*
X148136764Y-109243245D01*
X147912646Y-109336078D01*
X147912639Y-109336081D01*
X147702580Y-109457360D01*
X147702574Y-109457364D01*
X147568787Y-109560022D01*
X147492502Y-109593435D01*
X147409427Y-109587570D01*
X147356939Y-109560022D01*
X147333952Y-109542384D01*
X147223152Y-109457364D01*
X147189947Y-109438193D01*
X147013086Y-109336081D01*
X147013079Y-109336078D01*
X147013077Y-109336077D01*
X147013075Y-109336076D01*
X146788963Y-109243246D01*
X146788964Y-109243246D01*
X146788961Y-109243245D01*
X146624262Y-109199114D01*
X146554652Y-109180462D01*
X146554647Y-109180461D01*
X146554636Y-109180459D01*
X146314166Y-109148801D01*
X146314154Y-109148800D01*
X146314151Y-109148800D01*
X146071575Y-109148800D01*
X146071571Y-109148800D01*
X146071559Y-109148801D01*
X145831089Y-109180459D01*
X145831076Y-109180461D01*
X145831074Y-109180462D01*
X145831071Y-109180462D01*
X145831070Y-109180463D01*
X145596764Y-109243245D01*
X145372646Y-109336078D01*
X145372639Y-109336081D01*
X145162580Y-109457360D01*
X145162574Y-109457364D01*
X145028787Y-109560022D01*
X144952502Y-109593435D01*
X144869427Y-109587570D01*
X144816939Y-109560022D01*
X144793952Y-109542384D01*
X144683152Y-109457364D01*
X144649947Y-109438193D01*
X144473086Y-109336081D01*
X144473079Y-109336078D01*
X144473077Y-109336077D01*
X144473075Y-109336076D01*
X144248963Y-109243246D01*
X144248964Y-109243246D01*
X144248961Y-109243245D01*
X144084262Y-109199114D01*
X144014652Y-109180462D01*
X144014647Y-109180461D01*
X144014636Y-109180459D01*
X143774166Y-109148801D01*
X143774154Y-109148800D01*
X143774151Y-109148800D01*
X143531575Y-109148800D01*
X143531571Y-109148800D01*
X143531559Y-109148801D01*
X143291089Y-109180459D01*
X143291076Y-109180461D01*
X143291074Y-109180462D01*
X143291071Y-109180462D01*
X143291070Y-109180463D01*
X143056764Y-109243245D01*
X142832646Y-109336078D01*
X142832639Y-109336081D01*
X142622580Y-109457360D01*
X142622574Y-109457364D01*
X142488787Y-109560022D01*
X142412502Y-109593435D01*
X142329427Y-109587570D01*
X142276939Y-109560022D01*
X142253952Y-109542384D01*
X142143152Y-109457364D01*
X142109947Y-109438193D01*
X141933086Y-109336081D01*
X141933079Y-109336078D01*
X141933077Y-109336077D01*
X141933075Y-109336076D01*
X141708963Y-109243246D01*
X141708964Y-109243246D01*
X141708961Y-109243245D01*
X141544262Y-109199114D01*
X141474652Y-109180462D01*
X141474647Y-109180461D01*
X141474636Y-109180459D01*
X141234166Y-109148801D01*
X141234154Y-109148800D01*
X141234151Y-109148800D01*
X140991575Y-109148800D01*
X140991571Y-109148800D01*
X140991559Y-109148801D01*
X140751089Y-109180459D01*
X140751076Y-109180461D01*
X140751074Y-109180462D01*
X140751071Y-109180462D01*
X140751070Y-109180463D01*
X140516764Y-109243245D01*
X140292646Y-109336078D01*
X140292639Y-109336081D01*
X140082580Y-109457360D01*
X140082574Y-109457364D01*
X139948787Y-109560022D01*
X139872502Y-109593435D01*
X139789427Y-109587570D01*
X139736939Y-109560022D01*
X139713952Y-109542384D01*
X139603152Y-109457364D01*
X139569947Y-109438193D01*
X139393086Y-109336081D01*
X139393079Y-109336078D01*
X139393077Y-109336077D01*
X139393075Y-109336076D01*
X139168963Y-109243246D01*
X139168964Y-109243246D01*
X139168961Y-109243245D01*
X139004262Y-109199114D01*
X138934652Y-109180462D01*
X138934647Y-109180461D01*
X138934636Y-109180459D01*
X138694166Y-109148801D01*
X138694154Y-109148800D01*
X138694151Y-109148800D01*
X138451575Y-109148800D01*
X138451571Y-109148800D01*
X138451559Y-109148801D01*
X138211089Y-109180459D01*
X138211076Y-109180461D01*
X138211074Y-109180462D01*
X138211071Y-109180462D01*
X138211070Y-109180463D01*
X137976764Y-109243245D01*
X137752646Y-109336078D01*
X137752639Y-109336081D01*
X137542580Y-109457360D01*
X137542574Y-109457364D01*
X137408787Y-109560022D01*
X137332502Y-109593435D01*
X137249427Y-109587570D01*
X137196939Y-109560022D01*
X137173952Y-109542384D01*
X137063152Y-109457364D01*
X137029947Y-109438193D01*
X136853086Y-109336081D01*
X136853079Y-109336078D01*
X136853077Y-109336077D01*
X136853075Y-109336076D01*
X136628963Y-109243246D01*
X136628964Y-109243246D01*
X136628961Y-109243245D01*
X136464262Y-109199114D01*
X136394652Y-109180462D01*
X136394647Y-109180461D01*
X136394636Y-109180459D01*
X136154166Y-109148801D01*
X136154154Y-109148800D01*
X136154151Y-109148800D01*
X135911575Y-109148800D01*
X135911571Y-109148800D01*
X135911559Y-109148801D01*
X135671089Y-109180459D01*
X135671076Y-109180461D01*
X135671074Y-109180462D01*
X135671071Y-109180462D01*
X135671070Y-109180463D01*
X135436764Y-109243245D01*
X135212646Y-109336078D01*
X135212639Y-109336081D01*
X135002580Y-109457360D01*
X135002574Y-109457364D01*
X134868787Y-109560022D01*
X134792502Y-109593435D01*
X134709427Y-109587570D01*
X134656939Y-109560022D01*
X134633952Y-109542384D01*
X134523152Y-109457364D01*
X134489947Y-109438193D01*
X134313086Y-109336081D01*
X134313079Y-109336078D01*
X134313077Y-109336077D01*
X134313075Y-109336076D01*
X134088963Y-109243246D01*
X134088964Y-109243246D01*
X134088961Y-109243245D01*
X133924262Y-109199114D01*
X133854652Y-109180462D01*
X133854647Y-109180461D01*
X133854636Y-109180459D01*
X133614166Y-109148801D01*
X133614154Y-109148800D01*
X133614151Y-109148800D01*
X133371575Y-109148800D01*
X133371571Y-109148800D01*
X133371559Y-109148801D01*
X133131089Y-109180459D01*
X133131076Y-109180461D01*
X133131074Y-109180462D01*
X133131071Y-109180462D01*
X133131070Y-109180463D01*
X132896764Y-109243245D01*
X132672646Y-109336078D01*
X132672639Y-109336081D01*
X132462580Y-109457360D01*
X132462574Y-109457364D01*
X132270127Y-109605033D01*
X132098595Y-109776565D01*
X132011382Y-109890223D01*
X131946344Y-109942242D01*
X131864582Y-109958077D01*
X131784825Y-109934102D01*
X131771065Y-109925067D01*
X131660422Y-109844680D01*
X131660417Y-109844677D01*
X131471085Y-109748207D01*
X131471083Y-109748206D01*
X131268983Y-109682540D01*
X131202863Y-109672067D01*
X131202863Y-110566288D01*
X131145856Y-110533375D01*
X131018689Y-110499300D01*
X130887037Y-110499300D01*
X130759870Y-110533375D01*
X130702863Y-110566288D01*
X130702863Y-109672067D01*
X130636742Y-109682540D01*
X130434642Y-109748206D01*
X130434640Y-109748207D01*
X130245310Y-109844676D01*
X130134660Y-109925068D01*
X130057526Y-109956472D01*
X129974633Y-109948434D01*
X129904971Y-109902794D01*
X129894343Y-109890223D01*
X129859394Y-109844677D01*
X129807128Y-109776562D01*
X129635601Y-109605035D01*
X129443152Y-109457364D01*
X129409947Y-109438193D01*
X129233086Y-109336081D01*
X129233079Y-109336078D01*
X129233077Y-109336077D01*
X129233075Y-109336076D01*
X129008963Y-109243246D01*
X129008964Y-109243246D01*
X129008961Y-109243245D01*
X128844262Y-109199114D01*
X128774652Y-109180462D01*
X128774647Y-109180461D01*
X128774636Y-109180459D01*
X128534166Y-109148801D01*
X128534154Y-109148800D01*
X128534151Y-109148800D01*
X128291575Y-109148800D01*
X128291571Y-109148800D01*
X128291559Y-109148801D01*
X128051089Y-109180459D01*
X128051076Y-109180461D01*
X128051074Y-109180462D01*
X128051071Y-109180462D01*
X128051070Y-109180463D01*
X127816764Y-109243245D01*
X127592646Y-109336078D01*
X127592639Y-109336081D01*
X127382580Y-109457360D01*
X127382574Y-109457364D01*
X127248787Y-109560022D01*
X127172502Y-109593435D01*
X127089427Y-109587570D01*
X127036939Y-109560022D01*
X127013952Y-109542384D01*
X126903152Y-109457364D01*
X126869947Y-109438193D01*
X126693086Y-109336081D01*
X126693079Y-109336078D01*
X126693077Y-109336077D01*
X126693075Y-109336076D01*
X126468963Y-109243246D01*
X126468964Y-109243246D01*
X126468961Y-109243245D01*
X126304262Y-109199114D01*
X126234652Y-109180462D01*
X126234647Y-109180461D01*
X126234636Y-109180459D01*
X125994166Y-109148801D01*
X125994154Y-109148800D01*
X125994151Y-109148800D01*
X125751575Y-109148800D01*
X125751571Y-109148800D01*
X125751559Y-109148801D01*
X125511089Y-109180459D01*
X125511076Y-109180461D01*
X125511074Y-109180462D01*
X125511071Y-109180462D01*
X125511070Y-109180463D01*
X125276764Y-109243245D01*
X125052646Y-109336078D01*
X125052639Y-109336081D01*
X124842580Y-109457360D01*
X124842574Y-109457364D01*
X124708787Y-109560022D01*
X124632502Y-109593435D01*
X124549427Y-109587570D01*
X124496939Y-109560022D01*
X124473952Y-109542384D01*
X124363152Y-109457364D01*
X124329947Y-109438193D01*
X124153086Y-109336081D01*
X124153079Y-109336078D01*
X124153077Y-109336077D01*
X124153075Y-109336076D01*
X123928963Y-109243246D01*
X123928964Y-109243246D01*
X123928961Y-109243245D01*
X123764262Y-109199114D01*
X123694652Y-109180462D01*
X123694647Y-109180461D01*
X123694636Y-109180459D01*
X123454166Y-109148801D01*
X123454154Y-109148800D01*
X123454151Y-109148800D01*
X123211575Y-109148800D01*
X123211571Y-109148800D01*
X123211559Y-109148801D01*
X122971089Y-109180459D01*
X122971076Y-109180461D01*
X122971074Y-109180462D01*
X122971071Y-109180462D01*
X122971070Y-109180463D01*
X122736764Y-109243245D01*
X122512646Y-109336078D01*
X122512639Y-109336081D01*
X122302580Y-109457360D01*
X122302574Y-109457364D01*
X122168787Y-109560022D01*
X122092502Y-109593435D01*
X122009427Y-109587570D01*
X121956939Y-109560022D01*
X121933952Y-109542384D01*
X121823152Y-109457364D01*
X121789947Y-109438193D01*
X121613086Y-109336081D01*
X121613079Y-109336078D01*
X121613077Y-109336077D01*
X121613075Y-109336076D01*
X121388963Y-109243246D01*
X121388964Y-109243246D01*
X121388961Y-109243245D01*
X121224262Y-109199114D01*
X121154652Y-109180462D01*
X121154647Y-109180461D01*
X121154636Y-109180459D01*
X120914166Y-109148801D01*
X120914154Y-109148800D01*
X120914151Y-109148800D01*
X120671575Y-109148800D01*
X120671571Y-109148800D01*
X120671559Y-109148801D01*
X120431089Y-109180459D01*
X120431076Y-109180461D01*
X120431074Y-109180462D01*
X120431071Y-109180462D01*
X120431070Y-109180463D01*
X120196764Y-109243245D01*
X119972646Y-109336078D01*
X119972639Y-109336081D01*
X119762580Y-109457360D01*
X119762574Y-109457364D01*
X119628787Y-109560022D01*
X119552502Y-109593435D01*
X119469427Y-109587570D01*
X119416939Y-109560022D01*
X119393952Y-109542384D01*
X119283152Y-109457364D01*
X119249947Y-109438193D01*
X119073086Y-109336081D01*
X119073079Y-109336078D01*
X119073077Y-109336077D01*
X119073075Y-109336076D01*
X118858898Y-109247361D01*
X118848959Y-109243244D01*
X118777201Y-109224017D01*
X118704253Y-109183837D01*
X118658333Y-109114359D01*
X118649961Y-109031499D01*
X118681055Y-108954239D01*
X118699199Y-108932909D01*
X119878347Y-107753763D01*
X119949618Y-107710679D01*
X120001383Y-107702800D01*
X167652420Y-107702800D01*
X167733282Y-107722731D01*
G37*
%TD.AperFunction*%
%TA.AperFunction,Conductor*%
G36*
X100772863Y-89326530D02*
G01*
X100838991Y-89316056D01*
X100838997Y-89316055D01*
X101041083Y-89250393D01*
X101041085Y-89250392D01*
X101230416Y-89153922D01*
X101341065Y-89073532D01*
X101418199Y-89042127D01*
X101501092Y-89050165D01*
X101570755Y-89095804D01*
X101581373Y-89108364D01*
X101668598Y-89222038D01*
X101840125Y-89393565D01*
X102032574Y-89541236D01*
X102102599Y-89581665D01*
X102242639Y-89662518D01*
X102242645Y-89662520D01*
X102242651Y-89662524D01*
X102466763Y-89755354D01*
X102701074Y-89818138D01*
X102701088Y-89818139D01*
X102701089Y-89818140D01*
X102941559Y-89849798D01*
X102941561Y-89849798D01*
X102941575Y-89849800D01*
X102941582Y-89849800D01*
X103184144Y-89849800D01*
X103184151Y-89849800D01*
X103424652Y-89818138D01*
X103658963Y-89755354D01*
X103883075Y-89662524D01*
X103883083Y-89662519D01*
X103883086Y-89662518D01*
X103936019Y-89631956D01*
X104093152Y-89541236D01*
X104226939Y-89438577D01*
X104303223Y-89405164D01*
X104386299Y-89411029D01*
X104438785Y-89438576D01*
X104572574Y-89541236D01*
X104642599Y-89581665D01*
X104782639Y-89662518D01*
X104782645Y-89662520D01*
X104782651Y-89662524D01*
X105006763Y-89755354D01*
X105241074Y-89818138D01*
X105241088Y-89818139D01*
X105241089Y-89818140D01*
X105481559Y-89849798D01*
X105481561Y-89849798D01*
X105481575Y-89849800D01*
X105481582Y-89849800D01*
X105724144Y-89849800D01*
X105724151Y-89849800D01*
X105964652Y-89818138D01*
X106198963Y-89755354D01*
X106423075Y-89662524D01*
X106423083Y-89662519D01*
X106423086Y-89662518D01*
X106476019Y-89631956D01*
X106633152Y-89541236D01*
X106766939Y-89438577D01*
X106843223Y-89405164D01*
X106926299Y-89411029D01*
X106978785Y-89438576D01*
X107112574Y-89541236D01*
X107182599Y-89581665D01*
X107322639Y-89662518D01*
X107322645Y-89662520D01*
X107322651Y-89662524D01*
X107546763Y-89755354D01*
X107781074Y-89818138D01*
X107781088Y-89818139D01*
X107781089Y-89818140D01*
X108021559Y-89849798D01*
X108021561Y-89849798D01*
X108021575Y-89849800D01*
X108021582Y-89849800D01*
X108264144Y-89849800D01*
X108264151Y-89849800D01*
X108504652Y-89818138D01*
X108738963Y-89755354D01*
X108963075Y-89662524D01*
X108963083Y-89662519D01*
X108963086Y-89662518D01*
X109016019Y-89631956D01*
X109173152Y-89541236D01*
X109306939Y-89438577D01*
X109383223Y-89405164D01*
X109466299Y-89411029D01*
X109518785Y-89438576D01*
X109652574Y-89541236D01*
X109722599Y-89581665D01*
X109862639Y-89662518D01*
X109862645Y-89662520D01*
X109862651Y-89662524D01*
X110086763Y-89755354D01*
X110321074Y-89818138D01*
X110321088Y-89818139D01*
X110321089Y-89818140D01*
X110561559Y-89849798D01*
X110561561Y-89849798D01*
X110561575Y-89849800D01*
X110561582Y-89849800D01*
X110804144Y-89849800D01*
X110804151Y-89849800D01*
X111044652Y-89818138D01*
X111278963Y-89755354D01*
X111503075Y-89662524D01*
X111503083Y-89662519D01*
X111503086Y-89662518D01*
X111556019Y-89631956D01*
X111713152Y-89541236D01*
X111846939Y-89438577D01*
X111923223Y-89405164D01*
X112006299Y-89411029D01*
X112058785Y-89438576D01*
X112192574Y-89541236D01*
X112262599Y-89581665D01*
X112402639Y-89662518D01*
X112402645Y-89662520D01*
X112402651Y-89662524D01*
X112626763Y-89755354D01*
X112861074Y-89818138D01*
X112861088Y-89818139D01*
X112861089Y-89818140D01*
X113101559Y-89849798D01*
X113101561Y-89849798D01*
X113101575Y-89849800D01*
X113101582Y-89849800D01*
X113344144Y-89849800D01*
X113344151Y-89849800D01*
X113584652Y-89818138D01*
X113818963Y-89755354D01*
X114043075Y-89662524D01*
X114043083Y-89662519D01*
X114043086Y-89662518D01*
X114096019Y-89631956D01*
X114253152Y-89541236D01*
X114386939Y-89438577D01*
X114463223Y-89405164D01*
X114546299Y-89411029D01*
X114598785Y-89438576D01*
X114732574Y-89541236D01*
X114802599Y-89581665D01*
X114942639Y-89662518D01*
X114942645Y-89662520D01*
X114942651Y-89662524D01*
X115166763Y-89755354D01*
X115401074Y-89818138D01*
X115401088Y-89818139D01*
X115401089Y-89818140D01*
X115641559Y-89849798D01*
X115641561Y-89849798D01*
X115641575Y-89849800D01*
X115641582Y-89849800D01*
X115884144Y-89849800D01*
X115884151Y-89849800D01*
X116124652Y-89818138D01*
X116358963Y-89755354D01*
X116583075Y-89662524D01*
X116583083Y-89662519D01*
X116583086Y-89662518D01*
X116636019Y-89631956D01*
X116793152Y-89541236D01*
X116926939Y-89438577D01*
X117003223Y-89405164D01*
X117086299Y-89411029D01*
X117138785Y-89438576D01*
X117272574Y-89541236D01*
X117342599Y-89581665D01*
X117482639Y-89662518D01*
X117482645Y-89662520D01*
X117482651Y-89662524D01*
X117706763Y-89755354D01*
X117941074Y-89818138D01*
X117941088Y-89818139D01*
X117941089Y-89818140D01*
X118181559Y-89849798D01*
X118181561Y-89849798D01*
X118181575Y-89849800D01*
X118181582Y-89849800D01*
X118424144Y-89849800D01*
X118424151Y-89849800D01*
X118664652Y-89818138D01*
X118898963Y-89755354D01*
X119123075Y-89662524D01*
X119123083Y-89662519D01*
X119123086Y-89662518D01*
X119176019Y-89631956D01*
X119333152Y-89541236D01*
X119466939Y-89438577D01*
X119543223Y-89405164D01*
X119626299Y-89411029D01*
X119678785Y-89438576D01*
X119812574Y-89541236D01*
X119882599Y-89581665D01*
X120022639Y-89662518D01*
X120022645Y-89662520D01*
X120022651Y-89662524D01*
X120246763Y-89755354D01*
X120481074Y-89818138D01*
X120481088Y-89818139D01*
X120481089Y-89818140D01*
X120721559Y-89849798D01*
X120721561Y-89849798D01*
X120721575Y-89849800D01*
X120721582Y-89849800D01*
X120964144Y-89849800D01*
X120964151Y-89849800D01*
X121204652Y-89818138D01*
X121438963Y-89755354D01*
X121641781Y-89671343D01*
X121724109Y-89658814D01*
X121802835Y-89685980D01*
X121859919Y-89746621D01*
X121882284Y-89826844D01*
X121882363Y-89832100D01*
X121882363Y-90822335D01*
X121882363Y-91058519D01*
X121919310Y-91291795D01*
X121992295Y-91516419D01*
X121992298Y-91516427D01*
X122099517Y-91726856D01*
X122099519Y-91726859D01*
X122238347Y-91917938D01*
X134725172Y-104404763D01*
X134768256Y-104476034D01*
X134773285Y-104559164D01*
X134739105Y-104635109D01*
X134673547Y-104686471D01*
X134602135Y-104701800D01*
X119189690Y-104701800D01*
X118956414Y-104738747D01*
X118918321Y-104751123D01*
X118801084Y-104789216D01*
X118801084Y-104789217D01*
X118765035Y-104800929D01*
X118731786Y-104811733D01*
X118731781Y-104811735D01*
X118521352Y-104918954D01*
X118521349Y-104918956D01*
X118330270Y-105057784D01*
X114970400Y-108417655D01*
X114899129Y-108460739D01*
X114815999Y-108465768D01*
X114740054Y-108431588D01*
X114688692Y-108366030D01*
X114673363Y-108294618D01*
X114673363Y-108281210D01*
X114673363Y-108281208D01*
X114636416Y-108047932D01*
X114563431Y-107823308D01*
X114456206Y-107612867D01*
X114456202Y-107612861D01*
X114385715Y-107515843D01*
X114385713Y-107515841D01*
X114317381Y-107421790D01*
X102281661Y-95386072D01*
X102281659Y-95386069D01*
X99302883Y-92407293D01*
X99259799Y-92336022D01*
X99251920Y-92284256D01*
X99251920Y-89057618D01*
X99271851Y-88976756D01*
X99327077Y-88914419D01*
X99404947Y-88884887D01*
X99487621Y-88894925D01*
X99548957Y-88934581D01*
X99643401Y-89029025D01*
X99643403Y-89029026D01*
X99815303Y-89153919D01*
X99815308Y-89153922D01*
X100004640Y-89250392D01*
X100004642Y-89250393D01*
X100206728Y-89316055D01*
X100206734Y-89316056D01*
X100272863Y-89326530D01*
X100272863Y-88432312D01*
X100329870Y-88465225D01*
X100457037Y-88499300D01*
X100588689Y-88499300D01*
X100715856Y-88465225D01*
X100772863Y-88432312D01*
X100772863Y-89326530D01*
G37*
%TD.AperFunction*%
%TA.AperFunction,Conductor*%
G36*
X173089963Y-85419731D02*
G01*
X173132138Y-85450763D01*
X174321400Y-86640025D01*
X174364484Y-86711296D01*
X174372363Y-86763062D01*
X174372363Y-90324800D01*
X174352432Y-90405662D01*
X174297206Y-90467999D01*
X174219336Y-90497531D01*
X174198363Y-90498800D01*
X142114387Y-90498800D01*
X142033525Y-90478869D01*
X141991350Y-90447837D01*
X141609202Y-90065689D01*
X141566118Y-89994418D01*
X141561089Y-89911288D01*
X141595269Y-89835343D01*
X141660827Y-89783981D01*
X141687194Y-89774584D01*
X141758963Y-89755354D01*
X141983075Y-89662524D01*
X141983083Y-89662519D01*
X141983086Y-89662518D01*
X142036019Y-89631956D01*
X142193152Y-89541236D01*
X142326939Y-89438577D01*
X142403223Y-89405164D01*
X142486299Y-89411029D01*
X142538785Y-89438576D01*
X142672574Y-89541236D01*
X142742599Y-89581665D01*
X142882639Y-89662518D01*
X142882645Y-89662520D01*
X142882651Y-89662524D01*
X143106763Y-89755354D01*
X143341074Y-89818138D01*
X143341088Y-89818139D01*
X143341089Y-89818140D01*
X143581559Y-89849798D01*
X143581561Y-89849798D01*
X143581575Y-89849800D01*
X143581582Y-89849800D01*
X143824144Y-89849800D01*
X143824151Y-89849800D01*
X144064652Y-89818138D01*
X144298963Y-89755354D01*
X144523075Y-89662524D01*
X144523083Y-89662519D01*
X144523086Y-89662518D01*
X144576019Y-89631956D01*
X144733152Y-89541236D01*
X144866939Y-89438577D01*
X144943223Y-89405164D01*
X145026299Y-89411029D01*
X145078785Y-89438576D01*
X145212574Y-89541236D01*
X145282599Y-89581665D01*
X145422639Y-89662518D01*
X145422645Y-89662520D01*
X145422651Y-89662524D01*
X145646763Y-89755354D01*
X145881074Y-89818138D01*
X145881088Y-89818139D01*
X145881089Y-89818140D01*
X146121559Y-89849798D01*
X146121561Y-89849798D01*
X146121575Y-89849800D01*
X146121582Y-89849800D01*
X146364144Y-89849800D01*
X146364151Y-89849800D01*
X146604652Y-89818138D01*
X146838963Y-89755354D01*
X147063075Y-89662524D01*
X147063083Y-89662519D01*
X147063086Y-89662518D01*
X147116019Y-89631956D01*
X147273152Y-89541236D01*
X147406939Y-89438577D01*
X147483223Y-89405164D01*
X147566299Y-89411029D01*
X147618785Y-89438576D01*
X147752574Y-89541236D01*
X147822599Y-89581665D01*
X147962639Y-89662518D01*
X147962645Y-89662520D01*
X147962651Y-89662524D01*
X148186763Y-89755354D01*
X148421074Y-89818138D01*
X148421088Y-89818139D01*
X148421089Y-89818140D01*
X148661559Y-89849798D01*
X148661561Y-89849798D01*
X148661575Y-89849800D01*
X148661582Y-89849800D01*
X148904144Y-89849800D01*
X148904151Y-89849800D01*
X149144652Y-89818138D01*
X149378963Y-89755354D01*
X149603075Y-89662524D01*
X149603083Y-89662519D01*
X149603086Y-89662518D01*
X149656019Y-89631956D01*
X149813152Y-89541236D01*
X149946939Y-89438577D01*
X150023223Y-89405164D01*
X150106299Y-89411029D01*
X150158785Y-89438576D01*
X150292574Y-89541236D01*
X150362599Y-89581665D01*
X150502639Y-89662518D01*
X150502645Y-89662520D01*
X150502651Y-89662524D01*
X150726763Y-89755354D01*
X150961074Y-89818138D01*
X150961088Y-89818139D01*
X150961089Y-89818140D01*
X151201559Y-89849798D01*
X151201561Y-89849798D01*
X151201575Y-89849800D01*
X151201582Y-89849800D01*
X151444144Y-89849800D01*
X151444151Y-89849800D01*
X151684652Y-89818138D01*
X151918963Y-89755354D01*
X152143075Y-89662524D01*
X152143083Y-89662519D01*
X152143086Y-89662518D01*
X152196019Y-89631956D01*
X152353152Y-89541236D01*
X152486939Y-89438577D01*
X152563223Y-89405164D01*
X152646299Y-89411029D01*
X152698785Y-89438576D01*
X152832574Y-89541236D01*
X152902599Y-89581665D01*
X153042639Y-89662518D01*
X153042645Y-89662520D01*
X153042651Y-89662524D01*
X153266763Y-89755354D01*
X153501074Y-89818138D01*
X153501088Y-89818139D01*
X153501089Y-89818140D01*
X153741559Y-89849798D01*
X153741561Y-89849798D01*
X153741575Y-89849800D01*
X153741582Y-89849800D01*
X153984144Y-89849800D01*
X153984151Y-89849800D01*
X154224652Y-89818138D01*
X154458963Y-89755354D01*
X154683075Y-89662524D01*
X154683083Y-89662519D01*
X154683086Y-89662518D01*
X154736019Y-89631956D01*
X154893152Y-89541236D01*
X155026939Y-89438577D01*
X155103223Y-89405164D01*
X155186299Y-89411029D01*
X155238785Y-89438576D01*
X155372574Y-89541236D01*
X155442599Y-89581665D01*
X155582639Y-89662518D01*
X155582645Y-89662520D01*
X155582651Y-89662524D01*
X155806763Y-89755354D01*
X156041074Y-89818138D01*
X156041088Y-89818139D01*
X156041089Y-89818140D01*
X156281559Y-89849798D01*
X156281561Y-89849798D01*
X156281575Y-89849800D01*
X156281582Y-89849800D01*
X156524144Y-89849800D01*
X156524151Y-89849800D01*
X156764652Y-89818138D01*
X156998963Y-89755354D01*
X157223075Y-89662524D01*
X157223083Y-89662519D01*
X157223086Y-89662518D01*
X157276019Y-89631956D01*
X157433152Y-89541236D01*
X157566939Y-89438577D01*
X157643223Y-89405164D01*
X157726299Y-89411029D01*
X157778785Y-89438576D01*
X157912574Y-89541236D01*
X157982599Y-89581665D01*
X158122639Y-89662518D01*
X158122645Y-89662520D01*
X158122651Y-89662524D01*
X158346763Y-89755354D01*
X158581074Y-89818138D01*
X158581088Y-89818139D01*
X158581089Y-89818140D01*
X158821559Y-89849798D01*
X158821561Y-89849798D01*
X158821575Y-89849800D01*
X158821582Y-89849800D01*
X159064144Y-89849800D01*
X159064151Y-89849800D01*
X159304652Y-89818138D01*
X159538963Y-89755354D01*
X159763075Y-89662524D01*
X159763083Y-89662519D01*
X159763086Y-89662518D01*
X159816019Y-89631956D01*
X159973152Y-89541236D01*
X160106939Y-89438577D01*
X160183223Y-89405164D01*
X160266299Y-89411029D01*
X160318785Y-89438576D01*
X160452574Y-89541236D01*
X160522599Y-89581665D01*
X160662639Y-89662518D01*
X160662645Y-89662520D01*
X160662651Y-89662524D01*
X160886763Y-89755354D01*
X161121074Y-89818138D01*
X161121088Y-89818139D01*
X161121089Y-89818140D01*
X161361559Y-89849798D01*
X161361561Y-89849798D01*
X161361575Y-89849800D01*
X161361582Y-89849800D01*
X161604144Y-89849800D01*
X161604151Y-89849800D01*
X161844652Y-89818138D01*
X162078963Y-89755354D01*
X162303075Y-89662524D01*
X162303083Y-89662519D01*
X162303086Y-89662518D01*
X162356019Y-89631956D01*
X162513152Y-89541236D01*
X162646939Y-89438577D01*
X162723223Y-89405164D01*
X162806299Y-89411029D01*
X162858785Y-89438576D01*
X162992574Y-89541236D01*
X163062599Y-89581665D01*
X163202639Y-89662518D01*
X163202645Y-89662520D01*
X163202651Y-89662524D01*
X163426763Y-89755354D01*
X163661074Y-89818138D01*
X163661088Y-89818139D01*
X163661089Y-89818140D01*
X163901559Y-89849798D01*
X163901561Y-89849798D01*
X163901575Y-89849800D01*
X163901582Y-89849800D01*
X164144144Y-89849800D01*
X164144151Y-89849800D01*
X164384652Y-89818138D01*
X164618963Y-89755354D01*
X164843075Y-89662524D01*
X164843083Y-89662519D01*
X164843086Y-89662518D01*
X164896019Y-89631956D01*
X165053152Y-89541236D01*
X165245601Y-89393565D01*
X165417128Y-89222038D01*
X165504344Y-89108374D01*
X165569380Y-89056358D01*
X165651142Y-89040521D01*
X165730898Y-89064496D01*
X165744661Y-89073532D01*
X165855309Y-89153922D01*
X166044640Y-89250392D01*
X166044642Y-89250393D01*
X166246728Y-89316055D01*
X166246734Y-89316056D01*
X166312863Y-89326530D01*
X166312863Y-88432312D01*
X166369870Y-88465225D01*
X166497037Y-88499300D01*
X166628689Y-88499300D01*
X166755856Y-88465225D01*
X166812863Y-88432312D01*
X166812863Y-89326530D01*
X166878991Y-89316056D01*
X166878997Y-89316055D01*
X167081083Y-89250393D01*
X167081084Y-89250392D01*
X167127047Y-89226973D01*
X167208143Y-89208020D01*
X167288759Y-89228925D01*
X167350425Y-89284899D01*
X167360269Y-89301442D01*
X167413165Y-89402707D01*
X167541754Y-89560409D01*
X167699456Y-89688998D01*
X167879814Y-89783209D01*
X168075445Y-89839186D01*
X168075448Y-89839186D01*
X168075451Y-89839187D01*
X168125583Y-89843643D01*
X168194826Y-89849800D01*
X170010899Y-89849799D01*
X170130281Y-89839186D01*
X170325912Y-89783209D01*
X170506270Y-89688998D01*
X170663972Y-89560409D01*
X170792561Y-89402707D01*
X170886772Y-89222349D01*
X170942749Y-89026718D01*
X170953363Y-88907337D01*
X170953362Y-87091264D01*
X170942749Y-86971882D01*
X170886772Y-86776251D01*
X170792561Y-86595893D01*
X170663972Y-86438191D01*
X170506270Y-86309602D01*
X170325912Y-86215391D01*
X170130281Y-86159414D01*
X170130280Y-86159413D01*
X170130274Y-86159412D01*
X170010903Y-86148800D01*
X168194829Y-86148800D01*
X168194816Y-86148801D01*
X168075450Y-86159413D01*
X168075447Y-86159413D01*
X168075445Y-86159414D01*
X167879814Y-86215391D01*
X167879812Y-86215391D01*
X167879812Y-86215392D01*
X167699457Y-86309601D01*
X167541756Y-86438189D01*
X167541752Y-86438193D01*
X167413165Y-86595892D01*
X167402706Y-86615915D01*
X167367905Y-86682540D01*
X167360271Y-86697154D01*
X167305166Y-86759598D01*
X167227354Y-86789282D01*
X167144660Y-86779405D01*
X167127049Y-86771627D01*
X167081086Y-86748207D01*
X167081083Y-86748206D01*
X166878983Y-86682540D01*
X166812863Y-86672067D01*
X166812863Y-87566288D01*
X166755856Y-87533375D01*
X166628689Y-87499300D01*
X166497037Y-87499300D01*
X166369870Y-87533375D01*
X166312863Y-87566288D01*
X166312863Y-86672067D01*
X166246742Y-86682540D01*
X166044642Y-86748206D01*
X166044640Y-86748207D01*
X165855310Y-86844676D01*
X165744660Y-86925068D01*
X165667526Y-86956472D01*
X165584633Y-86948434D01*
X165514971Y-86902794D01*
X165504343Y-86890223D01*
X165469394Y-86844677D01*
X165417128Y-86776562D01*
X165245601Y-86605035D01*
X165053152Y-86457364D01*
X165019947Y-86438193D01*
X164843086Y-86336081D01*
X164843079Y-86336078D01*
X164843077Y-86336077D01*
X164843075Y-86336076D01*
X164618963Y-86243246D01*
X164618964Y-86243246D01*
X164618961Y-86243245D01*
X164454262Y-86199114D01*
X164384652Y-86180462D01*
X164384647Y-86180461D01*
X164384636Y-86180459D01*
X164144166Y-86148801D01*
X164144154Y-86148800D01*
X164144151Y-86148800D01*
X163901575Y-86148800D01*
X163901571Y-86148800D01*
X163901559Y-86148801D01*
X163661089Y-86180459D01*
X163661076Y-86180461D01*
X163661074Y-86180462D01*
X163661071Y-86180462D01*
X163661070Y-86180463D01*
X163426764Y-86243245D01*
X163202646Y-86336078D01*
X163202639Y-86336081D01*
X162992580Y-86457360D01*
X162992574Y-86457364D01*
X162858787Y-86560022D01*
X162782502Y-86593435D01*
X162699427Y-86587570D01*
X162646939Y-86560022D01*
X162623952Y-86542384D01*
X162513152Y-86457364D01*
X162479947Y-86438193D01*
X162303086Y-86336081D01*
X162303079Y-86336078D01*
X162303077Y-86336077D01*
X162303075Y-86336076D01*
X162078963Y-86243246D01*
X162078964Y-86243246D01*
X162078961Y-86243245D01*
X161914262Y-86199114D01*
X161844652Y-86180462D01*
X161844647Y-86180461D01*
X161844636Y-86180459D01*
X161604166Y-86148801D01*
X161604154Y-86148800D01*
X161604151Y-86148800D01*
X161361575Y-86148800D01*
X161361571Y-86148800D01*
X161361559Y-86148801D01*
X161121089Y-86180459D01*
X161121076Y-86180461D01*
X161121074Y-86180462D01*
X161121071Y-86180462D01*
X161121070Y-86180463D01*
X160886764Y-86243245D01*
X160662646Y-86336078D01*
X160662639Y-86336081D01*
X160452580Y-86457360D01*
X160452574Y-86457364D01*
X160318787Y-86560022D01*
X160242502Y-86593435D01*
X160159427Y-86587570D01*
X160106939Y-86560022D01*
X160083952Y-86542384D01*
X159973152Y-86457364D01*
X159939947Y-86438193D01*
X159763086Y-86336081D01*
X159763079Y-86336078D01*
X159763077Y-86336077D01*
X159763075Y-86336076D01*
X159538963Y-86243246D01*
X159538964Y-86243246D01*
X159538961Y-86243245D01*
X159374262Y-86199114D01*
X159304652Y-86180462D01*
X159304647Y-86180461D01*
X159304636Y-86180459D01*
X159064166Y-86148801D01*
X159064154Y-86148800D01*
X159064151Y-86148800D01*
X158821575Y-86148800D01*
X158821571Y-86148800D01*
X158821559Y-86148801D01*
X158581089Y-86180459D01*
X158581076Y-86180461D01*
X158581074Y-86180462D01*
X158581071Y-86180462D01*
X158581070Y-86180463D01*
X158346764Y-86243245D01*
X158122646Y-86336078D01*
X158122639Y-86336081D01*
X157912580Y-86457360D01*
X157912574Y-86457364D01*
X157778787Y-86560022D01*
X157702502Y-86593435D01*
X157619427Y-86587570D01*
X157566939Y-86560022D01*
X157543952Y-86542384D01*
X157433152Y-86457364D01*
X157399947Y-86438193D01*
X157223086Y-86336081D01*
X157223079Y-86336078D01*
X157223077Y-86336077D01*
X157223075Y-86336076D01*
X156998963Y-86243246D01*
X156998964Y-86243246D01*
X156998961Y-86243245D01*
X156834262Y-86199114D01*
X156764652Y-86180462D01*
X156764647Y-86180461D01*
X156764636Y-86180459D01*
X156524166Y-86148801D01*
X156524154Y-86148800D01*
X156524151Y-86148800D01*
X156281575Y-86148800D01*
X156281571Y-86148800D01*
X156281559Y-86148801D01*
X156041089Y-86180459D01*
X156041076Y-86180461D01*
X156041074Y-86180462D01*
X156041071Y-86180462D01*
X156041070Y-86180463D01*
X155806764Y-86243245D01*
X155582646Y-86336078D01*
X155582639Y-86336081D01*
X155372580Y-86457360D01*
X155372574Y-86457364D01*
X155238787Y-86560022D01*
X155162502Y-86593435D01*
X155079427Y-86587570D01*
X155026939Y-86560022D01*
X155003952Y-86542384D01*
X154893152Y-86457364D01*
X154859947Y-86438193D01*
X154683086Y-86336081D01*
X154683079Y-86336078D01*
X154683077Y-86336077D01*
X154683075Y-86336076D01*
X154458963Y-86243246D01*
X154458964Y-86243246D01*
X154458961Y-86243245D01*
X154294262Y-86199114D01*
X154224652Y-86180462D01*
X154224647Y-86180461D01*
X154224636Y-86180459D01*
X153984166Y-86148801D01*
X153984154Y-86148800D01*
X153984151Y-86148800D01*
X153741575Y-86148800D01*
X153741571Y-86148800D01*
X153741559Y-86148801D01*
X153501089Y-86180459D01*
X153501076Y-86180461D01*
X153501074Y-86180462D01*
X153501071Y-86180462D01*
X153501070Y-86180463D01*
X153266764Y-86243245D01*
X153042646Y-86336078D01*
X153042639Y-86336081D01*
X152832580Y-86457360D01*
X152832574Y-86457364D01*
X152698787Y-86560022D01*
X152622502Y-86593435D01*
X152539427Y-86587570D01*
X152486939Y-86560022D01*
X152463952Y-86542384D01*
X152353152Y-86457364D01*
X152319947Y-86438193D01*
X152143086Y-86336081D01*
X152143079Y-86336078D01*
X152143077Y-86336077D01*
X152143075Y-86336076D01*
X151918963Y-86243246D01*
X151918964Y-86243246D01*
X151918961Y-86243245D01*
X151754262Y-86199114D01*
X151684652Y-86180462D01*
X151684647Y-86180461D01*
X151684636Y-86180459D01*
X151444166Y-86148801D01*
X151444154Y-86148800D01*
X151444151Y-86148800D01*
X151201575Y-86148800D01*
X151201571Y-86148800D01*
X151201559Y-86148801D01*
X150961089Y-86180459D01*
X150961076Y-86180461D01*
X150961074Y-86180462D01*
X150961071Y-86180462D01*
X150961070Y-86180463D01*
X150726764Y-86243245D01*
X150502646Y-86336078D01*
X150502639Y-86336081D01*
X150292580Y-86457360D01*
X150292574Y-86457364D01*
X150158787Y-86560022D01*
X150082502Y-86593435D01*
X149999427Y-86587570D01*
X149946939Y-86560022D01*
X149923952Y-86542384D01*
X149813152Y-86457364D01*
X149779947Y-86438193D01*
X149603086Y-86336081D01*
X149603079Y-86336078D01*
X149603077Y-86336077D01*
X149603075Y-86336076D01*
X149378963Y-86243246D01*
X149378964Y-86243246D01*
X149378961Y-86243245D01*
X149214262Y-86199114D01*
X149144652Y-86180462D01*
X149144647Y-86180461D01*
X149144636Y-86180459D01*
X148904166Y-86148801D01*
X148904154Y-86148800D01*
X148904151Y-86148800D01*
X148661575Y-86148800D01*
X148661571Y-86148800D01*
X148661559Y-86148801D01*
X148421089Y-86180459D01*
X148421076Y-86180461D01*
X148421074Y-86180462D01*
X148421071Y-86180462D01*
X148421070Y-86180463D01*
X148186764Y-86243245D01*
X147962646Y-86336078D01*
X147962639Y-86336081D01*
X147752580Y-86457360D01*
X147752574Y-86457364D01*
X147618787Y-86560022D01*
X147542502Y-86593435D01*
X147459427Y-86587570D01*
X147406939Y-86560022D01*
X147383952Y-86542384D01*
X147273152Y-86457364D01*
X147239947Y-86438193D01*
X147063086Y-86336081D01*
X147063079Y-86336078D01*
X147063077Y-86336077D01*
X147063075Y-86336076D01*
X146838963Y-86243246D01*
X146838964Y-86243246D01*
X146838961Y-86243245D01*
X146674262Y-86199114D01*
X146604652Y-86180462D01*
X146604647Y-86180461D01*
X146604636Y-86180459D01*
X146364166Y-86148801D01*
X146364154Y-86148800D01*
X146364151Y-86148800D01*
X146121575Y-86148800D01*
X146121571Y-86148800D01*
X146121559Y-86148801D01*
X145881089Y-86180459D01*
X145881076Y-86180461D01*
X145881074Y-86180462D01*
X145881071Y-86180462D01*
X145881070Y-86180463D01*
X145646764Y-86243245D01*
X145422646Y-86336078D01*
X145422639Y-86336081D01*
X145212580Y-86457360D01*
X145212574Y-86457364D01*
X145078787Y-86560022D01*
X145002502Y-86593435D01*
X144919427Y-86587570D01*
X144866939Y-86560022D01*
X144843952Y-86542384D01*
X144733152Y-86457364D01*
X144699947Y-86438193D01*
X144523086Y-86336081D01*
X144523079Y-86336078D01*
X144523077Y-86336077D01*
X144523075Y-86336076D01*
X144298963Y-86243246D01*
X144298964Y-86243246D01*
X144298961Y-86243245D01*
X144134262Y-86199114D01*
X144064652Y-86180462D01*
X144064647Y-86180461D01*
X144064636Y-86180459D01*
X143824166Y-86148801D01*
X143824154Y-86148800D01*
X143824151Y-86148800D01*
X143581575Y-86148800D01*
X143581571Y-86148800D01*
X143581559Y-86148801D01*
X143341089Y-86180459D01*
X143341076Y-86180461D01*
X143341074Y-86180462D01*
X143341071Y-86180462D01*
X143341070Y-86180463D01*
X143106764Y-86243245D01*
X142882646Y-86336078D01*
X142882639Y-86336081D01*
X142672580Y-86457360D01*
X142672574Y-86457364D01*
X142538787Y-86560022D01*
X142462502Y-86593435D01*
X142379427Y-86587570D01*
X142326939Y-86560022D01*
X142303952Y-86542384D01*
X142193152Y-86457364D01*
X142159947Y-86438193D01*
X141983086Y-86336081D01*
X141983079Y-86336078D01*
X141983077Y-86336077D01*
X141983075Y-86336076D01*
X141758963Y-86243246D01*
X141758964Y-86243246D01*
X141758961Y-86243245D01*
X141594262Y-86199114D01*
X141524652Y-86180462D01*
X141524647Y-86180461D01*
X141524636Y-86180459D01*
X141284166Y-86148801D01*
X141284154Y-86148800D01*
X141284151Y-86148800D01*
X141041575Y-86148800D01*
X141041571Y-86148800D01*
X141041559Y-86148801D01*
X140801089Y-86180459D01*
X140801076Y-86180461D01*
X140801074Y-86180462D01*
X140801071Y-86180462D01*
X140801070Y-86180463D01*
X140566764Y-86243245D01*
X140342646Y-86336078D01*
X140342639Y-86336081D01*
X140132580Y-86457360D01*
X140132574Y-86457364D01*
X139998787Y-86560022D01*
X139922502Y-86593435D01*
X139839427Y-86587570D01*
X139786939Y-86560022D01*
X139763952Y-86542384D01*
X139653152Y-86457364D01*
X139619947Y-86438193D01*
X139443086Y-86336081D01*
X139443079Y-86336078D01*
X139443077Y-86336077D01*
X139443075Y-86336076D01*
X139218963Y-86243246D01*
X139218964Y-86243246D01*
X139218961Y-86243245D01*
X139054262Y-86199114D01*
X138984652Y-86180462D01*
X138984647Y-86180461D01*
X138984636Y-86180459D01*
X138744166Y-86148801D01*
X138744154Y-86148800D01*
X138744151Y-86148800D01*
X138501575Y-86148800D01*
X138501571Y-86148800D01*
X138501559Y-86148801D01*
X138261089Y-86180459D01*
X138261076Y-86180461D01*
X138261074Y-86180462D01*
X138261071Y-86180462D01*
X138261070Y-86180463D01*
X138026764Y-86243245D01*
X137802646Y-86336078D01*
X137802639Y-86336081D01*
X137592580Y-86457360D01*
X137592574Y-86457364D01*
X137458787Y-86560022D01*
X137382502Y-86593435D01*
X137299427Y-86587570D01*
X137246939Y-86560022D01*
X137223952Y-86542384D01*
X137113152Y-86457364D01*
X137079947Y-86438193D01*
X136903086Y-86336081D01*
X136903079Y-86336078D01*
X136903077Y-86336077D01*
X136903075Y-86336076D01*
X136678963Y-86243246D01*
X136678964Y-86243246D01*
X136678961Y-86243245D01*
X136514262Y-86199114D01*
X136444652Y-86180462D01*
X136444647Y-86180461D01*
X136444636Y-86180459D01*
X136204166Y-86148801D01*
X136204154Y-86148800D01*
X136204151Y-86148800D01*
X135961575Y-86148800D01*
X135961571Y-86148800D01*
X135961559Y-86148801D01*
X135721089Y-86180459D01*
X135721076Y-86180461D01*
X135721074Y-86180462D01*
X135721071Y-86180462D01*
X135721070Y-86180463D01*
X135486764Y-86243245D01*
X135262646Y-86336078D01*
X135262639Y-86336081D01*
X135052580Y-86457360D01*
X135052574Y-86457364D01*
X134918787Y-86560022D01*
X134842502Y-86593435D01*
X134759427Y-86587570D01*
X134706939Y-86560022D01*
X134683952Y-86542384D01*
X134573152Y-86457364D01*
X134539947Y-86438193D01*
X134363086Y-86336081D01*
X134363079Y-86336078D01*
X134363077Y-86336077D01*
X134363075Y-86336076D01*
X134138963Y-86243246D01*
X134138964Y-86243246D01*
X134138961Y-86243245D01*
X133974262Y-86199114D01*
X133904652Y-86180462D01*
X133904647Y-86180461D01*
X133904636Y-86180459D01*
X133664166Y-86148801D01*
X133664154Y-86148800D01*
X133664151Y-86148800D01*
X133421575Y-86148800D01*
X133421571Y-86148800D01*
X133421559Y-86148801D01*
X133181089Y-86180459D01*
X133181076Y-86180461D01*
X133181074Y-86180462D01*
X133181071Y-86180462D01*
X133181070Y-86180463D01*
X132946764Y-86243245D01*
X132722646Y-86336078D01*
X132722639Y-86336081D01*
X132512580Y-86457360D01*
X132512574Y-86457364D01*
X132378787Y-86560022D01*
X132302502Y-86593435D01*
X132219427Y-86587570D01*
X132166939Y-86560022D01*
X132143952Y-86542384D01*
X132033152Y-86457364D01*
X131999947Y-86438193D01*
X131823086Y-86336081D01*
X131823079Y-86336078D01*
X131823077Y-86336077D01*
X131823075Y-86336076D01*
X131598963Y-86243246D01*
X131598964Y-86243246D01*
X131598961Y-86243245D01*
X131434262Y-86199114D01*
X131364652Y-86180462D01*
X131364647Y-86180461D01*
X131364636Y-86180459D01*
X131124166Y-86148801D01*
X131124154Y-86148800D01*
X131124151Y-86148800D01*
X130881575Y-86148800D01*
X130881571Y-86148800D01*
X130881559Y-86148801D01*
X130641089Y-86180459D01*
X130641076Y-86180461D01*
X130641074Y-86180462D01*
X130641071Y-86180462D01*
X130641070Y-86180463D01*
X130406764Y-86243245D01*
X130182646Y-86336078D01*
X130182639Y-86336081D01*
X129972580Y-86457360D01*
X129972574Y-86457364D01*
X129838787Y-86560022D01*
X129762502Y-86593435D01*
X129679427Y-86587570D01*
X129626939Y-86560022D01*
X129603952Y-86542384D01*
X129493152Y-86457364D01*
X129459947Y-86438193D01*
X129283086Y-86336081D01*
X129283079Y-86336078D01*
X129283077Y-86336077D01*
X129283075Y-86336076D01*
X129058963Y-86243246D01*
X129058964Y-86243246D01*
X129058961Y-86243245D01*
X128894262Y-86199114D01*
X128824652Y-86180462D01*
X128824647Y-86180461D01*
X128824636Y-86180459D01*
X128584166Y-86148801D01*
X128584154Y-86148800D01*
X128584151Y-86148800D01*
X128341575Y-86148800D01*
X128341571Y-86148800D01*
X128341559Y-86148801D01*
X128101089Y-86180459D01*
X128101076Y-86180461D01*
X128101074Y-86180462D01*
X128101071Y-86180462D01*
X128101070Y-86180463D01*
X127866764Y-86243245D01*
X127642646Y-86336078D01*
X127642639Y-86336081D01*
X127432580Y-86457360D01*
X127432574Y-86457364D01*
X127298787Y-86560022D01*
X127222502Y-86593435D01*
X127139427Y-86587570D01*
X127086939Y-86560022D01*
X127063952Y-86542384D01*
X126953152Y-86457364D01*
X126919947Y-86438193D01*
X126743086Y-86336081D01*
X126743079Y-86336078D01*
X126743077Y-86336077D01*
X126743075Y-86336076D01*
X126518963Y-86243246D01*
X126518964Y-86243246D01*
X126518961Y-86243245D01*
X126354262Y-86199114D01*
X126284652Y-86180462D01*
X126284647Y-86180461D01*
X126284636Y-86180459D01*
X126044166Y-86148801D01*
X126044154Y-86148800D01*
X126044151Y-86148800D01*
X125801575Y-86148800D01*
X125801571Y-86148800D01*
X125801559Y-86148801D01*
X125561089Y-86180459D01*
X125561076Y-86180461D01*
X125561074Y-86180462D01*
X125561071Y-86180462D01*
X125561070Y-86180463D01*
X125326764Y-86243245D01*
X125102646Y-86336078D01*
X125102639Y-86336081D01*
X124892580Y-86457360D01*
X124892574Y-86457364D01*
X124758787Y-86560022D01*
X124682502Y-86593435D01*
X124599427Y-86587570D01*
X124546939Y-86560022D01*
X124523952Y-86542384D01*
X124413152Y-86457364D01*
X124379947Y-86438193D01*
X124203086Y-86336081D01*
X124203079Y-86336078D01*
X124203077Y-86336077D01*
X124203075Y-86336076D01*
X123978963Y-86243246D01*
X123978964Y-86243246D01*
X123978961Y-86243245D01*
X123814262Y-86199114D01*
X123744652Y-86180462D01*
X123744647Y-86180461D01*
X123744636Y-86180459D01*
X123504166Y-86148801D01*
X123504154Y-86148800D01*
X123504151Y-86148800D01*
X123261575Y-86148800D01*
X123261571Y-86148800D01*
X123261559Y-86148801D01*
X123021089Y-86180459D01*
X123021076Y-86180461D01*
X123021074Y-86180462D01*
X123021071Y-86180462D01*
X123021070Y-86180463D01*
X122786764Y-86243245D01*
X122562646Y-86336078D01*
X122562639Y-86336081D01*
X122352580Y-86457360D01*
X122352574Y-86457364D01*
X122218787Y-86560022D01*
X122142502Y-86593435D01*
X122059427Y-86587570D01*
X122006939Y-86560022D01*
X121983952Y-86542384D01*
X121873152Y-86457364D01*
X121839947Y-86438193D01*
X121663086Y-86336081D01*
X121663079Y-86336078D01*
X121663077Y-86336077D01*
X121663075Y-86336076D01*
X121438963Y-86243246D01*
X121438964Y-86243246D01*
X121438961Y-86243245D01*
X121274262Y-86199114D01*
X121204652Y-86180462D01*
X121204647Y-86180461D01*
X121204636Y-86180459D01*
X120964166Y-86148801D01*
X120964154Y-86148800D01*
X120964151Y-86148800D01*
X120721575Y-86148800D01*
X120721571Y-86148800D01*
X120721559Y-86148801D01*
X120481089Y-86180459D01*
X120481076Y-86180461D01*
X120481074Y-86180462D01*
X120481071Y-86180462D01*
X120481070Y-86180463D01*
X120246764Y-86243245D01*
X120022646Y-86336078D01*
X120022639Y-86336081D01*
X119812580Y-86457360D01*
X119812574Y-86457364D01*
X119678787Y-86560022D01*
X119602502Y-86593435D01*
X119519427Y-86587570D01*
X119466939Y-86560022D01*
X119443952Y-86542384D01*
X119333152Y-86457364D01*
X119299947Y-86438193D01*
X119123086Y-86336081D01*
X119123079Y-86336078D01*
X119123077Y-86336077D01*
X119123075Y-86336076D01*
X118898963Y-86243246D01*
X118898964Y-86243246D01*
X118898961Y-86243245D01*
X118734262Y-86199114D01*
X118664652Y-86180462D01*
X118664647Y-86180461D01*
X118664636Y-86180459D01*
X118424166Y-86148801D01*
X118424154Y-86148800D01*
X118424151Y-86148800D01*
X118181575Y-86148800D01*
X118181571Y-86148800D01*
X118181559Y-86148801D01*
X117941089Y-86180459D01*
X117941076Y-86180461D01*
X117941074Y-86180462D01*
X117941071Y-86180462D01*
X117941070Y-86180463D01*
X117706764Y-86243245D01*
X117482646Y-86336078D01*
X117482639Y-86336081D01*
X117272580Y-86457360D01*
X117272574Y-86457364D01*
X117138787Y-86560022D01*
X117062502Y-86593435D01*
X116979427Y-86587570D01*
X116926939Y-86560022D01*
X116903952Y-86542384D01*
X116793152Y-86457364D01*
X116759947Y-86438193D01*
X116583086Y-86336081D01*
X116583079Y-86336078D01*
X116583077Y-86336077D01*
X116583075Y-86336076D01*
X116500290Y-86301785D01*
X116358962Y-86243245D01*
X116287199Y-86224016D01*
X116214251Y-86183835D01*
X116168332Y-86114356D01*
X116159961Y-86031496D01*
X116191056Y-85954237D01*
X116209191Y-85932916D01*
X116691346Y-85450763D01*
X116762617Y-85407678D01*
X116814382Y-85399800D01*
X173009101Y-85399800D01*
X173089963Y-85419731D01*
G37*
%TD.AperFunction*%
%TA.AperFunction,Conductor*%
G36*
X101519310Y-85219849D02*
G01*
X101570672Y-85285407D01*
X101585684Y-85367325D01*
X101583859Y-85384037D01*
X101562363Y-85519764D01*
X101562363Y-86744355D01*
X101542432Y-86825217D01*
X101487206Y-86887554D01*
X101409336Y-86917086D01*
X101326662Y-86907048D01*
X101286090Y-86885125D01*
X101230420Y-86844679D01*
X101230417Y-86844677D01*
X101041085Y-86748207D01*
X101041083Y-86748206D01*
X100838983Y-86682540D01*
X100772863Y-86672067D01*
X100772863Y-87566288D01*
X100715856Y-87533375D01*
X100588689Y-87499300D01*
X100457037Y-87499300D01*
X100329870Y-87533375D01*
X100272863Y-87566288D01*
X100272863Y-86672067D01*
X100264236Y-86664699D01*
X100217168Y-86660709D01*
X100146959Y-86615915D01*
X100105609Y-86543623D01*
X100102591Y-86460396D01*
X100138596Y-86385300D01*
X100149886Y-86372860D01*
X101288966Y-85233780D01*
X101360235Y-85190698D01*
X101443365Y-85185669D01*
X101519310Y-85219849D01*
G37*
%TD.AperFunction*%
%TA.AperFunction,Conductor*%
G36*
X108980000Y-24627230D02*
G01*
X109046128Y-24616756D01*
X109046134Y-24616755D01*
X109248220Y-24551093D01*
X109248222Y-24551092D01*
X109437553Y-24454622D01*
X109548202Y-24374232D01*
X109625336Y-24342827D01*
X109708229Y-24350865D01*
X109777892Y-24396504D01*
X109788510Y-24409064D01*
X109875735Y-24522738D01*
X110047262Y-24694265D01*
X110239711Y-24841936D01*
X110309736Y-24882365D01*
X110449776Y-24963218D01*
X110449782Y-24963220D01*
X110449788Y-24963224D01*
X110673900Y-25056054D01*
X110908211Y-25118838D01*
X110908225Y-25118839D01*
X110908226Y-25118840D01*
X111148696Y-25150498D01*
X111148698Y-25150498D01*
X111148712Y-25150500D01*
X111148719Y-25150500D01*
X111391281Y-25150500D01*
X111391288Y-25150500D01*
X111631789Y-25118838D01*
X111866100Y-25056054D01*
X112068918Y-24972043D01*
X112151246Y-24959514D01*
X112229972Y-24986680D01*
X112287056Y-25047321D01*
X112309421Y-25127544D01*
X112309500Y-25132800D01*
X112309500Y-67067276D01*
X112289569Y-67148138D01*
X112258537Y-67190313D01*
X109707929Y-69740922D01*
X108176537Y-71272314D01*
X108105266Y-71315398D01*
X108022136Y-71320427D01*
X107946191Y-71286247D01*
X107894829Y-71220689D01*
X107879500Y-71149277D01*
X107879500Y-24665730D01*
X107899431Y-24584868D01*
X107954657Y-24522531D01*
X108032527Y-24492999D01*
X108115201Y-24503037D01*
X108132496Y-24510696D01*
X108211772Y-24551090D01*
X108211779Y-24551093D01*
X108413865Y-24616755D01*
X108413871Y-24616756D01*
X108480000Y-24627230D01*
X108480000Y-23733012D01*
X108537007Y-23765925D01*
X108664174Y-23800000D01*
X108795826Y-23800000D01*
X108922993Y-23765925D01*
X108980000Y-23733012D01*
X108980000Y-24627230D01*
G37*
%TD.AperFunction*%
%TD*%
M02*
