M48
; DRILL file {KiCad 9.0.2-9.0.2-0~ubuntu22.04.1} date 2025-06-13T09:38:13-0300
; FORMAT={-:-/ absolute / metric / decimal}
; #@! TF.CreationDate,2025-06-13T09:38:13-03:00
; #@! TF.GenerationSoftware,Kicad,Pcbnew,9.0.2-9.0.2-0~ubuntu22.04.1
; #@! TF.FileFunction,Plated,1,2,PTH
FMAT,2
METRIC
; #@! TA.AperFunction,Plated,PTH,ComponentDrill
T1C0.800
; #@! TA.AperFunction,Plated,PTH,ComponentDrill
T2C0.900
; #@! TA.AperFunction,Plated,PTH,ViaDrill
T3C1.000
; #@! TA.AperFunction,Plated,PTH,ComponentDrill
T4C1.000
; #@! TA.AperFunction,Plated,PTH,ComponentDrill
T5C1.100
; #@! TA.AperFunction,Plated,PTH,ComponentDrill
T6C1.200
; #@! TA.AperFunction,Plated,PTH,ComponentDrill
T7C2.500
%
G90
G05
T1
X48.75Y-42.42
X48.75Y-52.58
X54.75Y-42.42
X54.75Y-52.58
X60.85Y-42.32
X60.85Y-52.48
X66.85Y-42.32
X66.85Y-52.48
X72.85Y-42.22
X72.85Y-52.38
X78.95Y-42.22
X78.95Y-52.38
X85.05Y-42.32
X85.05Y-52.48
X90.85Y-42.02
X90.85Y-52.18
X98.2Y-42.02
X98.2Y-52.18
T2
X46.16Y-35.075
X48.7Y-35.075
X52.21Y-35.075
X54.75Y-35.075
X58.26Y-35.075
X60.8Y-35.075
X64.31Y-35.075
X66.85Y-35.075
X70.36Y-35.075
X72.9Y-35.075
X76.41Y-35.075
X78.95Y-35.075
X82.46Y-35.075
X85.0Y-35.075
X88.51Y-35.075
X91.05Y-35.075
T3
X44.75Y-60.4
X50.75Y-60.4
X57.45Y-60.5
X63.15Y-60.5
X69.05Y-60.4
X74.85Y-60.4
X81.25Y-60.5
X87.75Y-60.7
X170.978Y-135.403
X171.873Y-148.299
X173.452Y-132.928
X176.922Y-132.289
X180.33Y-139.76
X182.423Y-131.538
X187.923Y-123.298
X187.923Y-126.798
X188.092Y-130.518
X192.145Y-136.056
T4
X100.473Y-110.999
X100.523Y-87.999
X103.013Y-110.999
X103.063Y-87.999
X105.553Y-110.999
X105.603Y-87.999
X108.093Y-110.999
X108.143Y-87.999
X108.73Y-23.3
X110.633Y-110.999
X110.683Y-87.999
X111.27Y-23.3
X113.173Y-110.999
X113.223Y-87.999
X113.81Y-23.3
X115.713Y-110.999
X115.763Y-87.999
X116.35Y-23.3
X118.253Y-110.999
X118.303Y-87.999
X120.793Y-110.999
X120.843Y-87.999
X123.333Y-110.999
X123.383Y-87.999
X125.873Y-110.999
X125.923Y-87.999
X128.413Y-110.999
X128.463Y-87.999
X130.953Y-110.999
X131.003Y-87.999
X133.493Y-110.999
X133.543Y-87.999
X136.033Y-110.999
X136.083Y-87.999
X138.573Y-110.999
X138.623Y-87.999
X141.113Y-110.999
X141.163Y-87.999
X143.653Y-110.999
X143.703Y-87.999
X146.193Y-110.999
X146.243Y-87.999
X148.733Y-110.999
X148.783Y-87.999
X151.273Y-110.999
X151.323Y-87.999
X153.813Y-110.999
X153.863Y-87.999
X156.353Y-110.999
X156.403Y-87.999
X158.893Y-110.999
X158.943Y-87.999
X161.433Y-110.999
X161.483Y-87.999
X163.973Y-110.999
X164.023Y-87.999
X166.513Y-110.999
X166.563Y-87.999
X169.053Y-110.999
X169.103Y-87.999
T5
X98.15Y-24.15
X98.15Y-30.65
X102.65Y-24.15
X102.65Y-30.65
T6
X133.9Y10.7
X136.44Y10.7
X138.98Y10.7
X141.52Y10.7
X144.06Y10.7
X146.6Y10.7
X149.14Y10.7
X151.68Y10.7
X154.22Y10.7
X156.76Y10.7
X159.3Y10.7
X161.84Y10.7
X164.38Y10.7
X166.92Y10.7
X169.46Y10.7
X172.0Y10.7
T7
X128.401Y10.7
X128.401Y-20.301
X203.399Y-20.301
X203.4Y10.7
M30
