M48
; DRILL file {KiCad 6.0.11-2627ca5db0~126~ubuntu22.04.1} date jue 26 feb 2026 10:10:47
; FORMAT={-:-/ absolute / metric / decimal}
; #@! TF.CreationDate,2026-02-26T10:10:47-03:00
; #@! TF.GenerationSoftware,Kicad,Pcbnew,6.0.11-2627ca5db0~126~ubuntu22.04.1
; #@! TF.FileFunction,MixedPlating,1,2
FMAT,2
METRIC
; #@! TA.AperFunction,Plated,PTH,ComponentDrill
T1C0.890
; #@! TA.AperFunction,Plated,PTH,ComponentDrill
T2C0.900
; #@! TA.AperFunction,Plated,PTH,ComponentDrill
T3C1.500
%
G90
G05
T1
X177.27Y-74.65
X177.27Y-77.19
T2
X98.32Y-57.19
X99.48Y-43.76
X99.48Y-51.38
X103.32Y-57.19
X104.82Y-64.81
X104.82Y-67.35
X104.82Y-69.89
X107.685Y-43.51
X107.685Y-56.21
X110.225Y-48.59
X116.45Y-42.49
X118.656Y-49.592
X118.656Y-54.672
X119.203Y-69.522
X119.203Y-74.602
X121.196Y-52.132
X121.743Y-72.062
X127.15Y-65.35
X127.15Y-72.97
X127.64Y-49.67
X127.64Y-57.29
X129.15Y-42.49
X133.82Y-61.49
X133.82Y-74.19
X135.5Y-40.16
X135.5Y-52.86
X139.739Y-57.208
X139.739Y-62.288
X140.82Y-40.19
X140.82Y-52.89
X142.279Y-59.748
X147.82Y-69.19
X148.01Y-57.19
X148.01Y-62.19
X149.82Y-40.19
X149.82Y-52.89
X150.36Y-69.19
X155.63Y-57.19
X155.63Y-62.19
X155.82Y-40.19
X155.82Y-52.89
X162.47Y-49.19
X162.82Y-43.19
X162.82Y-57.189
X162.82Y-62.269
X165.36Y-59.729
X171.82Y-57.19
X171.82Y-62.27
X174.36Y-59.73
X175.17Y-49.19
X175.52Y-43.19
X180.82Y-39.84
X180.82Y-52.54
X181.968Y-56.65
X181.968Y-61.73
X182.35Y-72.11
X182.35Y-82.27
X184.507Y-59.19
X185.445Y-64.915
X185.445Y-67.455
X185.82Y-39.84
X185.82Y-52.54
T3
X82.82Y-28.19
X82.82Y-92.19
X196.82Y-28.19
X196.82Y-92.19
T0
M30
