%TF.GenerationSoftware,KiCad,Pcbnew,9.0.0*%
%TF.CreationDate,2025-06-17T12:42:55-03:00*%
%TF.ProjectId,ram_tester,72616d5f-7465-4737-9465-722e6b696361,rev?*%
%TF.SameCoordinates,Original*%
%TF.FileFunction,Copper,L2,Bot*%
%TF.FilePolarity,Positive*%
%FSLAX46Y46*%
G04 Gerber Fmt 4.6, Leading zero omitted, Abs format (unit mm)*
G04 Created by KiCad (PCBNEW 9.0.0) date 2025-06-17 12:42:55*
%MOMM*%
%LPD*%
G01*
G04 APERTURE LIST*
%TA.AperFunction,ComponentPad*%
%ADD10C,3.000000*%
%TD*%
%TA.AperFunction,ComponentPad*%
%ADD11O,3.000000X3.000000*%
%TD*%
%TA.AperFunction,ComponentPad*%
%ADD12O,2.000000X3.500000*%
%TD*%
%TA.AperFunction,ComponentPad*%
%ADD13R,2.000000X3.500000*%
%TD*%
%TA.AperFunction,ConnectorPad*%
%ADD14R,2.794000X8.382000*%
%TD*%
%TA.AperFunction,ConnectorPad*%
%ADD15R,1.778000X8.382000*%
%TD*%
%TA.AperFunction,ViaPad*%
%ADD16C,3.001000*%
%TD*%
%TA.AperFunction,ViaPad*%
%ADD17C,2.500000*%
%TD*%
%TA.AperFunction,Conductor*%
%ADD18C,1.000000*%
%TD*%
%TA.AperFunction,Conductor*%
%ADD19C,3.000000*%
%TD*%
%TA.AperFunction,Conductor*%
%ADD20C,2.000000*%
%TD*%
%TA.AperFunction,Conductor*%
%ADD21C,1.500000*%
%TD*%
%TA.AperFunction,Profile*%
%ADD22C,0.050000*%
%TD*%
G04 APERTURE END LIST*
D10*
%TO.P,R9,1*%
%TO.N,GND*%
X98200000Y-52180000D03*
D11*
%TO.P,R9,2*%
%TO.N,Net-(U1A-36{slash}A8)*%
X98200000Y-42020000D03*
%TD*%
D12*
%TO.P,U1,3,3.3V*%
%TO.N,+3.3V*%
X164022863Y-87999300D03*
%TO.P,U1,4,0*%
%TO.N,Net-(U1A-0)*%
X161482863Y-87999300D03*
%TO.P,U1,14,10*%
%TO.N,Net-(U1A-10)*%
X136082863Y-87999300D03*
%TO.P,U1,18,14*%
%TO.N,Net-(U1A-14)*%
X125922863Y-87999300D03*
%TO.P,U1,19,15*%
%TO.N,Net-(U1A-15)*%
X123382863Y-87999300D03*
%TO.P,U1,11,7*%
%TO.N,Net-(U1A-7)*%
X143702863Y-87999300D03*
%TO.P,U1,16,12*%
%TO.N,Net-(U1A-12)*%
X131002863Y-87999300D03*
%TO.P,U1,6,2*%
%TO.N,Net-(U1A-2)*%
X156402863Y-87999300D03*
%TO.P,U1,10,6*%
%TO.N,Net-(U1A-6)*%
X146242863Y-87999300D03*
%TO.P,U1,5,1*%
%TO.N,Net-(U1A-1)*%
X158942863Y-87999300D03*
%TO.P,U1,17,13*%
%TO.N,Net-(U1A-13)*%
X128462863Y-87999300D03*
%TO.P,U1,28,GND*%
%TO.N,GND*%
X100522863Y-87999300D03*
%TO.P,U1,9,5*%
%TO.N,Net-(U1A-5)*%
X148782863Y-87999300D03*
%TO.P,U1,13,9*%
%TO.N,Net-(U1A-9)*%
X138622863Y-87999300D03*
%TO.P,U1,12,8*%
%TO.N,Net-(U1A-8)*%
X141162863Y-87999300D03*
%TO.P,U1,8,4*%
%TO.N,Net-(U1A-4)*%
X151322863Y-87999300D03*
%TO.P,U1,7,3*%
%TO.N,Net-(U1A-3)*%
X153862863Y-87999300D03*
%TO.P,U1,15,11*%
%TO.N,Net-(U1A-11)*%
X133542863Y-87999300D03*
%TO.P,U1,21,17*%
%TO.N,Net-(U1A-17)*%
X118302863Y-87999300D03*
%TO.P,U1,25,21*%
%TO.N,Net-(U1A-21)*%
X108142863Y-87999300D03*
%TO.P,U1,22,18*%
%TO.N,Net-(U1A-18)*%
X115762863Y-87999300D03*
%TO.P,U1,20,16*%
%TO.N,Net-(U1A-16)*%
X120842863Y-87999300D03*
%TO.P,U1,23,19*%
%TO.N,Net-(U1A-19)*%
X113222863Y-87999300D03*
%TO.P,U1,24,20*%
%TO.N,Net-(U1A-20)*%
X110682863Y-87999300D03*
%TO.P,U1,27,23*%
%TO.N,Net-(U1A-23)*%
X103062863Y-87999300D03*
%TO.P,U1,26,22*%
%TO.N,Net-(U1A-22)*%
X105602863Y-87999300D03*
%TO.P,U1,33,28/RX*%
%TO.N,Net-(J1-Pin_2)*%
X158892863Y-110999300D03*
%TO.P,U1,40,38/A6*%
%TO.N,Net-(D7-A)*%
X141112863Y-110999300D03*
%TO.P,U1,41,37/A7*%
%TO.N,Net-(D8-A)*%
X138572863Y-110999300D03*
%TO.P,U1,43,35/A9*%
%TO.N,unconnected-(U1A-35{slash}A9-Pad43)*%
X133492863Y-110999300D03*
%TO.P,U1,32,29/TX*%
%TO.N,Net-(J1-Pin_1)*%
X161432863Y-110999300D03*
%TO.P,U1,42,36/A8*%
%TO.N,Net-(U1A-36{slash}A8)*%
X136032863Y-110999300D03*
%TO.P,U1,47,34/A10*%
%TO.N,unconnected-(U1A-34{slash}A10-Pad47)*%
X123332863Y-110999300D03*
%TO.P,U1,31,3.3V*%
%TO.N,+3.3V*%
X163972863Y-110999300D03*
%TO.P,U1,35,43/A1*%
%TO.N,Net-(D2-A)*%
X153812863Y-110999300D03*
%TO.P,U1,36,42/A2*%
%TO.N,Net-(D3-A)*%
X151272863Y-110999300D03*
%TO.P,U1,37,41/A3*%
%TO.N,Net-(D4-A)*%
X148732863Y-110999300D03*
%TO.P,U1,39,39/A5*%
%TO.N,Net-(D6-A)*%
X143652863Y-110999300D03*
%TO.P,U1,34,44/A0*%
%TO.N,Net-(D1-A)*%
X156352863Y-110999300D03*
%TO.P,U1,44,GND*%
%TO.N,GND*%
X130952863Y-110999300D03*
%TO.P,U1,45,3.3V*%
%TO.N,+3.3V*%
X128412863Y-110999300D03*
%TO.P,U1,38,40/A4*%
%TO.N,Net-(D5-A)*%
X146192863Y-110999300D03*
%TO.P,U1,46,RESET*%
%TO.N,unconnected-(U1A-RESET-Pad46)*%
X125872863Y-110999300D03*
%TO.P,U1,48,33/A11*%
%TO.N,unconnected-(U1A-33{slash}A11-Pad48)*%
X120792863Y-110999300D03*
%TO.P,U1,49,32/A12*%
%TO.N,unconnected-(U1A-32{slash}A12-Pad49)*%
X118252863Y-110999300D03*
%TO.P,U1,50,31/A13*%
%TO.N,Net-(U1A-31{slash}A13)*%
X115712863Y-110999300D03*
%TO.P,U1,54,25*%
%TO.N,unconnected-(U1A-25-Pad54)*%
X105552863Y-110999300D03*
%TO.P,U1,53,26*%
%TO.N,unconnected-(U1A-26-Pad53)*%
X108092863Y-110999300D03*
%TO.P,U1,51,30/A14*%
%TO.N,Net-(U1A-30{slash}A14)*%
X113172863Y-110999300D03*
%TO.P,U1,52,27*%
%TO.N,unconnected-(U1A-27-Pad52)*%
X110632863Y-110999300D03*
%TO.P,U1,55,24*%
%TO.N,unconnected-(U1A-24-Pad55)*%
X103012863Y-110999300D03*
%TO.P,U1,56,GND*%
%TO.N,GND*%
X100472863Y-110999300D03*
D13*
%TO.P,U1,29,vin*%
%TO.N,+5V*%
X169052863Y-110999300D03*
%TO.P,U1,1,vout*%
%TO.N,unconnected-(U1A-vout-Pad1)*%
X169102863Y-87999300D03*
D12*
%TO.P,U1,2,GND*%
%TO.N,GND*%
X166562863Y-87999300D03*
%TO.P,U1,30,GND*%
X166512863Y-110999300D03*
%TD*%
D11*
%TO.P,R8,2*%
%TO.N,GND*%
X48750000Y-52580000D03*
%TO.P,R8,1*%
%TO.N,Net-(D8-K)*%
X48750000Y-42420000D03*
%TD*%
%TO.P,R6,1*%
%TO.N,Net-(D6-K)*%
X60850000Y-42320000D03*
%TO.P,R6,2*%
%TO.N,GND*%
X60850000Y-52480000D03*
%TD*%
%TO.P,R2,1*%
%TO.N,Net-(D2-K)*%
X85050000Y-42320000D03*
%TO.P,R2,2*%
%TO.N,GND*%
X85050000Y-52480000D03*
%TD*%
D13*
%TO.P,D6,1,K*%
%TO.N,Net-(D6-K)*%
X60800000Y-35075000D03*
D12*
%TO.P,D6,2,A*%
%TO.N,Net-(D6-A)*%
X58260000Y-35075000D03*
%TD*%
D11*
%TO.P,R5,1*%
%TO.N,Net-(D5-K)*%
X66850000Y-42320000D03*
%TO.P,R5,2*%
%TO.N,GND*%
X66850000Y-52480000D03*
%TD*%
D12*
%TO.P,J1,2,Pin_2*%
%TO.N,Net-(J1-Pin_2)*%
X113810000Y-23300000D03*
D13*
%TO.P,J1,1,Pin_1*%
%TO.N,Net-(J1-Pin_1)*%
X116350000Y-23300000D03*
D12*
%TO.P,J1,3,Pin_3*%
%TO.N,+5V*%
X111270000Y-23300000D03*
%TO.P,J1,4,Pin_4*%
%TO.N,GND*%
X108730000Y-23300000D03*
%TD*%
D14*
%TO.P,U2,51*%
%TO.N,+5V*%
X60839863Y-157499300D03*
D15*
%TO.P,U2,52*%
%TO.N,unconnected-(U2-Pad52)*%
X64522863Y-157499300D03*
%TO.P,U2,53*%
%TO.N,unconnected-(U2-Pad53)*%
X67697863Y-157499300D03*
%TO.P,U2,54*%
%TO.N,unconnected-(U2-Pad54)*%
X70872863Y-157499300D03*
%TO.P,U2,55*%
%TO.N,unconnected-(U2-Pad55)*%
X74047863Y-157499300D03*
%TO.P,U2,56*%
%TO.N,unconnected-(U2-Pad56)*%
X77222863Y-157499300D03*
%TO.P,U2,57*%
%TO.N,unconnected-(U2-Pad57)*%
X80397863Y-157499300D03*
%TO.P,U2,58*%
%TO.N,unconnected-(U2-Pad58)*%
X83572863Y-157499300D03*
%TO.P,U2,59*%
%TO.N,unconnected-(U2-Pad59)*%
X86747863Y-157499300D03*
%TO.P,U2,60*%
%TO.N,unconnected-(U2-Pad60)*%
X89922863Y-157499300D03*
%TO.P,U2,61*%
%TO.N,unconnected-(U2-Pad61)*%
X93097863Y-157499300D03*
%TO.P,U2,62*%
%TO.N,unconnected-(U2-Pad62)*%
X96272863Y-157499300D03*
%TO.P,U2,63*%
%TO.N,unconnected-(U2-Pad63)*%
X99447863Y-157499300D03*
%TO.P,U2,64*%
%TO.N,unconnected-(U2-Pad64)*%
X102622863Y-157499300D03*
%TO.P,U2,65*%
%TO.N,unconnected-(U2-Pad65)*%
X105797863Y-157499300D03*
%TO.P,U2,66*%
%TO.N,unconnected-(U2-Pad66)*%
X108972863Y-157499300D03*
%TO.P,U2,67*%
%TO.N,unconnected-(U2-Pad67)*%
X112147863Y-157499300D03*
%TO.P,U2,68*%
%TO.N,unconnected-(U2-Pad68)*%
X115322863Y-157499300D03*
%TO.P,U2,69*%
%TO.N,unconnected-(U2-Pad69)*%
X118497863Y-157499300D03*
%TO.P,U2,70*%
%TO.N,unconnected-(U2-Pad70)*%
X121672863Y-157499300D03*
%TO.P,U2,71*%
%TO.N,unconnected-(U2-Pad71)*%
X124847863Y-157499300D03*
%TO.P,U2,72*%
%TO.N,unconnected-(U2-Pad72)*%
X128022863Y-157499300D03*
%TO.P,U2,73*%
%TO.N,unconnected-(U2-Pad73)*%
X131197863Y-157499300D03*
%TO.P,U2,74*%
%TO.N,unconnected-(U2-Pad74)*%
X134372863Y-157499300D03*
%TO.P,U2,75*%
%TO.N,unconnected-(U2-Pad75)*%
X137547863Y-157499300D03*
%TO.P,U2,76*%
%TO.N,unconnected-(U2-Pad76)*%
X140722863Y-157499300D03*
%TO.P,U2,77*%
%TO.N,unconnected-(U2-Pad77)*%
X143897863Y-157499300D03*
%TO.P,U2,78*%
%TO.N,unconnected-(U2-Pad78)*%
X147072863Y-157499300D03*
%TO.P,U2,79*%
%TO.N,Net-(U1A-0)*%
X150247863Y-157499300D03*
%TO.P,U2,80*%
%TO.N,Net-(U1A-1)*%
X153422863Y-157499300D03*
%TO.P,U2,81*%
%TO.N,Net-(U1A-2)*%
X156597863Y-157499300D03*
%TO.P,U2,82*%
%TO.N,Net-(U1A-3)*%
X159772863Y-157499300D03*
%TO.P,U2,83*%
%TO.N,Net-(U1A-4)*%
X162947863Y-157499300D03*
%TO.P,U2,84*%
%TO.N,Net-(U1A-5)*%
X166122863Y-157499300D03*
%TO.P,U2,85*%
%TO.N,Net-(U1A-6)*%
X169297863Y-157499300D03*
%TO.P,U2,86*%
%TO.N,Net-(U1A-7)*%
X172472863Y-157499300D03*
%TO.P,U2,87*%
%TO.N,Net-(U1A-8)*%
X175647863Y-157499300D03*
%TO.P,U2,88*%
%TO.N,Net-(U1A-16)*%
X178822863Y-157499300D03*
%TO.P,U2,89*%
%TO.N,Net-(U1A-17)*%
X181997863Y-157499300D03*
%TO.P,U2,90*%
%TO.N,Net-(U1A-18)*%
X185172863Y-157499300D03*
%TO.P,U2,91*%
%TO.N,unconnected-(U2-Pad91)*%
X188347863Y-157499300D03*
%TO.P,U2,92*%
%TO.N,unconnected-(U2-Pad92)*%
X191522863Y-157499300D03*
%TO.P,U2,93*%
%TO.N,unconnected-(U2-Pad93)*%
X194697863Y-157499300D03*
%TO.P,U2,94*%
%TO.N,unconnected-(U2-Pad94)*%
X197872863Y-157499300D03*
%TO.P,U2,95*%
%TO.N,unconnected-(U2-Pad95)*%
X201047863Y-157499300D03*
%TO.P,U2,96*%
%TO.N,unconnected-(U2-Pad96)*%
X204222863Y-157499300D03*
%TO.P,U2,97*%
%TO.N,unconnected-(U2-Pad97)*%
X207397863Y-157499300D03*
%TO.P,U2,98*%
%TO.N,unconnected-(U2-Pad98)*%
X210572863Y-157499300D03*
%TO.P,U2,99*%
%TO.N,unconnected-(U2-Pad99)*%
X213747863Y-157499300D03*
D14*
%TO.P,U2,100*%
%TO.N,GND*%
X217430863Y-157499300D03*
%TD*%
D11*
%TO.P,R3,1*%
%TO.N,Net-(D3-K)*%
X78950000Y-42220000D03*
%TO.P,R3,2*%
%TO.N,GND*%
X78950000Y-52380000D03*
%TD*%
%TO.P,R4,1*%
%TO.N,Net-(D4-K)*%
X72850000Y-42220000D03*
%TO.P,R4,2*%
%TO.N,GND*%
X72850000Y-52380000D03*
%TD*%
D13*
%TO.P,D2,1,K*%
%TO.N,Net-(D2-K)*%
X85000000Y-35075000D03*
D12*
%TO.P,D2,2,A*%
%TO.N,Net-(D2-A)*%
X82460000Y-35075000D03*
%TD*%
D13*
%TO.P,D1,1,K*%
%TO.N,Net-(D1-K)*%
X91050000Y-35075000D03*
D12*
%TO.P,D1,2,A*%
%TO.N,Net-(D1-A)*%
X88510000Y-35075000D03*
%TD*%
D13*
%TO.P,D5,1,K*%
%TO.N,Net-(D5-K)*%
X66850000Y-35075000D03*
D12*
%TO.P,D5,2,A*%
%TO.N,Net-(D5-A)*%
X64310000Y-35075000D03*
%TD*%
D13*
%TO.P,D7,1,K*%
%TO.N,Net-(D7-K)*%
X54750000Y-35075000D03*
D12*
%TO.P,D7,2,A*%
%TO.N,Net-(D7-A)*%
X52210000Y-35075000D03*
%TD*%
D11*
%TO.P,R1,1*%
%TO.N,Net-(D1-K)*%
X90850000Y-42020000D03*
%TO.P,R1,2*%
%TO.N,GND*%
X90850000Y-52180000D03*
%TD*%
%TO.P,R7,1*%
%TO.N,Net-(D7-K)*%
X54750000Y-42420000D03*
%TO.P,R7,2*%
%TO.N,GND*%
X54750000Y-52580000D03*
%TD*%
D13*
%TO.P,D4,1,K*%
%TO.N,Net-(D4-K)*%
X72900000Y-35075000D03*
D12*
%TO.P,D4,2,A*%
%TO.N,Net-(D4-A)*%
X70360000Y-35075000D03*
%TD*%
D11*
%TO.P,SW1,1,1*%
%TO.N,Net-(U1A-36{slash}A8)*%
X98150000Y-30650000D03*
X98150000Y-24150000D03*
%TO.P,SW1,2,2*%
%TO.N,+3.3V*%
X102650000Y-30650000D03*
X102650000Y-24150000D03*
%TD*%
D13*
%TO.P,D3,1,K*%
%TO.N,Net-(D3-K)*%
X78950000Y-35075000D03*
D12*
%TO.P,D3,2,A*%
%TO.N,Net-(D3-A)*%
X76410000Y-35075000D03*
%TD*%
D13*
%TO.P,D8,1,K*%
%TO.N,Net-(D8-K)*%
X48700000Y-35075000D03*
D12*
%TO.P,D8,2,A*%
%TO.N,Net-(D8-A)*%
X46160000Y-35075000D03*
%TD*%
D16*
%TO.N,*%
X283100000Y-1600000D03*
X283100000Y-162599300D03*
X10147900Y-162599300D03*
X10200000Y-1600000D03*
D17*
%TO.N,Net-(U1A-22)*%
X188091903Y-130518340D03*
X176921863Y-132288594D03*
%TO.N,Net-(U1A-23)*%
X170977590Y-135403027D03*
X192145286Y-136056470D03*
%TO.N,Net-(D4-A)*%
X69050000Y-60400000D03*
%TO.N,Net-(U1A-21)*%
X187922863Y-126798292D03*
X180329974Y-139759528D03*
%TO.N,Net-(D6-A)*%
X57450000Y-60500000D03*
%TO.N,Net-(D5-A)*%
X63150000Y-60500000D03*
%TO.N,Net-(U1A-7)*%
X171872863Y-148299300D03*
X173452466Y-132928151D03*
%TO.N,Net-(D1-A)*%
X87750000Y-60700000D03*
%TO.N,Net-(D2-A)*%
X81250000Y-60500000D03*
%TO.N,Net-(D7-A)*%
X50750000Y-60400000D03*
%TO.N,Net-(D8-A)*%
X44750000Y-60400000D03*
%TO.N,Net-(U1A-20)*%
X187922863Y-123298289D03*
X182422863Y-131538386D03*
%TO.N,Net-(D3-A)*%
X74850000Y-60400000D03*
%TD*%
D18*
%TO.N,Net-(D1-K)*%
X91050000Y-41820000D02*
X90850000Y-42020000D01*
X91050000Y-35075000D02*
X91050000Y-41820000D01*
%TO.N,Net-(D3-K)*%
X78950000Y-35075000D02*
X78950000Y-42220000D01*
%TO.N,Net-(D4-K)*%
X72900000Y-35075000D02*
X72900000Y-42170000D01*
X72900000Y-42170000D02*
X72850000Y-42220000D01*
%TO.N,Net-(D5-K)*%
X66850000Y-35075000D02*
X66850000Y-42320000D01*
%TO.N,Net-(D6-K)*%
X60800000Y-42270000D02*
X60850000Y-42320000D01*
X60800000Y-35075000D02*
X60800000Y-42270000D01*
%TO.N,Net-(D7-K)*%
X54750000Y-35075000D02*
X54750000Y-42420000D01*
%TO.N,Net-(D8-K)*%
X48700000Y-42370000D02*
X48750000Y-42420000D01*
X48700000Y-35075000D02*
X48700000Y-42370000D01*
%TO.N,Net-(U1A-36{slash}A8)*%
X41370087Y-35429755D02*
X41370087Y-87070087D01*
X46149842Y-30650000D02*
X41370087Y-35429755D01*
X87742158Y-30650000D02*
X46149842Y-30650000D01*
X41370087Y-87070087D02*
X61607300Y-107307300D01*
X89399841Y-30650000D02*
X87742158Y-30650000D01*
X98150000Y-30650000D02*
X89399841Y-30650000D01*
%TO.N,+3.3V*%
X128412863Y-114287857D02*
X128412863Y-110999300D01*
X127101420Y-115599300D02*
X128412863Y-114287857D01*
X66537473Y-115599300D02*
X127101420Y-115599300D01*
X39369087Y-34600913D02*
X39369087Y-88430913D01*
X45321000Y-28649000D02*
X39369087Y-34600913D01*
X88571000Y-28649000D02*
X45321000Y-28649000D01*
X100710000Y-21020000D02*
X96200000Y-21020000D01*
X39369087Y-88430913D02*
X66537473Y-115599300D01*
X102650000Y-22960000D02*
X100710000Y-21020000D01*
X96200000Y-21020000D02*
X88571000Y-28649000D01*
X102650000Y-24150000D02*
X102650000Y-22960000D01*
%TO.N,Net-(U1A-17)*%
X184344022Y-150955346D02*
X191398070Y-143901300D01*
X183492068Y-151807301D02*
X184344022Y-150955346D01*
X181997863Y-157499300D02*
X181997863Y-153301506D01*
X181997863Y-153301506D02*
X183492068Y-151807301D01*
%TO.N,Net-(U1A-6)*%
X146242863Y-83536821D02*
X146242863Y-87999300D01*
X156786382Y-72993302D02*
X146242863Y-83536821D01*
X187077863Y-84484937D02*
X175586231Y-72993302D01*
X175586231Y-72993302D02*
X156786382Y-72993302D01*
X172312964Y-130177151D02*
X172314378Y-130177151D01*
X187077863Y-115413667D02*
X187077863Y-84484937D01*
X168226590Y-134263525D02*
X172312964Y-130177151D01*
X168123863Y-151550300D02*
X168123863Y-134367665D01*
X172314378Y-130177151D02*
X187077863Y-115413667D01*
X168123863Y-134367665D02*
X168226590Y-134264938D01*
X169297863Y-152724300D02*
X168123863Y-151550300D01*
X169297863Y-157499300D02*
X169297863Y-152724300D01*
X168226590Y-134264938D02*
X168226590Y-134263525D01*
D19*
%TO.N,+5V*%
X109031162Y-17900000D02*
X111270000Y-20138838D01*
X45000000Y-17900000D02*
X109031162Y-17900000D01*
X25001420Y-37898580D02*
X45000000Y-17900000D01*
X25001420Y-97499300D02*
X25001420Y-37898580D01*
D18*
%TO.N,Net-(U1A-36{slash}A8)*%
X134397300Y-107307300D02*
X136032863Y-108942863D01*
X61600000Y-107307300D02*
X134397300Y-107307300D01*
X136032863Y-108942863D02*
X136032863Y-110999300D01*
%TO.N,Net-(U1A-16)*%
X178822863Y-150449300D02*
X178822863Y-157499300D01*
X180758635Y-148513528D02*
X178822863Y-150449300D01*
X183955999Y-148513528D02*
X180758635Y-148513528D01*
X186456125Y-146013402D02*
X183955999Y-148513528D01*
X189397069Y-143072458D02*
X186456125Y-146013402D01*
X190569227Y-141900300D02*
X189397069Y-143072458D01*
X190569229Y-141900300D02*
X190569228Y-141900299D01*
X192226913Y-141900300D02*
X192226912Y-141900299D01*
X192226912Y-141900299D02*
X190569229Y-141900300D01*
X195637783Y-140564222D02*
X194301704Y-141900300D01*
X178072755Y-66990300D02*
X196973863Y-85891409D01*
X196973863Y-85891409D02*
X196973863Y-139228142D01*
X194301704Y-141900300D02*
X192226913Y-141900300D01*
X137819384Y-66990300D02*
X178072755Y-66990300D01*
X196973863Y-139228142D02*
X195637783Y-140564222D01*
X120842863Y-87999300D02*
X120842863Y-83966821D01*
X120842863Y-83966821D02*
X137819384Y-66990300D01*
X190569228Y-141900299D02*
X190569227Y-141900300D01*
%TO.N,Net-(U1A-17)*%
X136990542Y-64989300D02*
X118302863Y-83676979D01*
X118302863Y-83676979D02*
X118302863Y-87999300D01*
X198974863Y-85062567D02*
X178901596Y-64989300D01*
X198974863Y-140056983D02*
X198974863Y-85062567D01*
X178901596Y-64989300D02*
X136990542Y-64989300D01*
X195130545Y-143901300D02*
X198974863Y-140056983D01*
X191398070Y-143901300D02*
X191398069Y-143901300D01*
X191398070Y-143901300D02*
X195130545Y-143901300D01*
%TO.N,Net-(U1A-18)*%
X115762863Y-83387137D02*
X115762863Y-87999300D01*
X136161700Y-62988300D02*
X115762863Y-83387137D01*
X192226911Y-145902300D02*
X195959386Y-145902300D01*
X200975863Y-140885824D02*
X200975863Y-84233725D01*
X185172863Y-152956346D02*
X192226911Y-145902300D01*
X200975863Y-84233725D02*
X179730437Y-62988300D01*
X195959386Y-145902300D02*
X200975863Y-140885824D01*
X185172863Y-157499300D02*
X185172863Y-152956346D01*
X179730437Y-62988300D02*
X136161700Y-62988300D01*
%TO.N,Net-(U1A-0)*%
X150247863Y-134724300D02*
X150247863Y-157499300D01*
X174772863Y-89199300D02*
X174772863Y-110199300D01*
X162700700Y-84999300D02*
X170572863Y-84999300D01*
X174772863Y-110199300D02*
X150247863Y-134724300D01*
X161482863Y-87999300D02*
X161482863Y-86217137D01*
X161482863Y-86217137D02*
X162700700Y-84999300D01*
X170572863Y-84999300D02*
X174772863Y-89199300D01*
%TO.N,Net-(U1A-1)*%
X153422863Y-134749300D02*
X153422863Y-157499300D01*
X176773863Y-111398300D02*
X153422863Y-134749300D01*
X176773863Y-88370459D02*
X176773863Y-111398300D01*
X161841700Y-82998300D02*
X171401705Y-82998300D01*
X158942863Y-87999300D02*
X158942863Y-85897137D01*
X158942863Y-85897137D02*
X161841700Y-82998300D01*
X171401705Y-82998300D02*
X176773863Y-88370459D01*
%TO.N,Net-(U1A-2)*%
X156402863Y-85287137D02*
X156402863Y-87999300D01*
X172270863Y-80997300D02*
X160692700Y-80997300D01*
X160692700Y-80997300D02*
X156402863Y-85287137D01*
X156597863Y-134574300D02*
X179073863Y-112098300D01*
X179073863Y-87800300D02*
X172270863Y-80997300D01*
X156597863Y-157499300D02*
X156597863Y-134574300D01*
X179073863Y-112098300D02*
X179073863Y-87800300D01*
%TO.N,Net-(U1A-3)*%
X159772863Y-134229142D02*
X159772863Y-157499300D01*
X181074863Y-112927142D02*
X159772863Y-134229142D01*
X181074863Y-86971459D02*
X181074863Y-112927142D01*
X153862863Y-84737137D02*
X159603700Y-78996300D01*
X153862863Y-87999300D02*
X153862863Y-84737137D01*
X159603700Y-78996300D02*
X173099705Y-78996300D01*
X173099705Y-78996300D02*
X181074863Y-86971459D01*
%TO.N,Net-(U1A-4)*%
X164121863Y-132709982D02*
X164121863Y-132709984D01*
X162947863Y-133883984D02*
X162947863Y-157499300D01*
X164224590Y-132607254D02*
X164121863Y-132709981D01*
X164224590Y-132605843D02*
X164224590Y-132607254D01*
X164224590Y-132605842D02*
X164224590Y-132605843D01*
X164224591Y-132605841D02*
X164224590Y-132605842D01*
X167008246Y-129822185D02*
X165982652Y-130847781D01*
X168180401Y-128650029D02*
X167715039Y-129115392D01*
X164121863Y-132709984D02*
X162947863Y-133883984D01*
X169483121Y-127347312D02*
X168180403Y-128650029D01*
X165667080Y-131163353D02*
X165396749Y-131433683D01*
X169483121Y-127347309D02*
X169483121Y-127347312D01*
X170655280Y-126175151D02*
X169483121Y-127347309D01*
X170655280Y-126175150D02*
X170655280Y-126175151D01*
X165982652Y-130847781D02*
X165836088Y-130994345D01*
X170655282Y-126175151D02*
X170655280Y-126175150D01*
X168180403Y-128650029D02*
X168180401Y-128650029D01*
X170656693Y-126175151D02*
X170655282Y-126175151D01*
X167715039Y-129115392D02*
X167008246Y-129822185D01*
X170829545Y-126002302D02*
X170656693Y-126175151D01*
X170829545Y-126002300D02*
X170829545Y-126002302D01*
X182173832Y-114658014D02*
X170829545Y-126002300D01*
X183075863Y-113755984D02*
X182173832Y-114658014D01*
X173928549Y-76995302D02*
X183075863Y-86142618D01*
X164121863Y-132709981D02*
X164121863Y-132709982D01*
X158444066Y-76995302D02*
X173928549Y-76995302D01*
X183075863Y-86142618D02*
X183075863Y-113755984D01*
X165836088Y-130994345D02*
X165667080Y-131163353D01*
X151322863Y-84116505D02*
X158444066Y-76995302D01*
X165396749Y-131433683D02*
X164224591Y-132605841D01*
X182173832Y-114658014D02*
X182173832Y-114658015D01*
X151322863Y-87999300D02*
X151322863Y-84116505D01*
%TO.N,Net-(U1A-5)*%
X148782863Y-83826663D02*
X148782863Y-87999300D01*
X174757391Y-74994302D02*
X157615224Y-74994302D01*
X174757390Y-74994301D02*
X174757391Y-74994302D01*
X157615224Y-74994302D02*
X148782863Y-83826663D01*
X185076863Y-114584825D02*
X185076863Y-85313777D01*
X185076863Y-85313777D02*
X174757390Y-74994301D01*
X184174832Y-115486856D02*
X185076863Y-114584825D01*
X171484123Y-128176151D02*
X171485535Y-128176151D01*
X169009246Y-130651027D02*
X171484122Y-128176151D01*
X168700466Y-130959808D02*
X169009246Y-130651027D01*
X168700466Y-130959807D02*
X168700466Y-130959808D01*
X167837088Y-131823186D02*
X168700466Y-130959807D01*
X167397749Y-132262525D02*
X167837088Y-131823186D01*
X166225590Y-133434683D02*
X167397749Y-132262525D01*
X166225590Y-133434684D02*
X166225590Y-133434683D01*
X166225590Y-133436096D02*
X166225590Y-133434684D01*
X171484122Y-128176151D02*
X171484123Y-128176151D01*
X166122863Y-150721458D02*
X166122863Y-135196507D01*
X166122863Y-133538823D02*
X166225590Y-133436096D01*
X171485535Y-128176151D02*
X184174832Y-115486856D01*
X166122863Y-133538823D02*
X166122863Y-133538824D01*
X166122863Y-152379141D02*
X166122863Y-150721458D01*
X166122863Y-135196507D02*
X166122863Y-133538823D01*
X166122863Y-157499300D02*
X166122863Y-152379141D01*
%TO.N,Net-(U1A-7)*%
X173452466Y-131868904D02*
X173452466Y-132928151D01*
X176415073Y-70992302D02*
X189078863Y-83656095D01*
X189078863Y-116242509D02*
X173452466Y-131868904D01*
X155957540Y-70992302D02*
X176415073Y-70992302D01*
X143702863Y-83246979D02*
X155957540Y-70992302D01*
X189078863Y-83656095D02*
X189078863Y-116242509D01*
X143702863Y-87999300D02*
X143702863Y-83246979D01*
%TO.N,Net-(U1A-8)*%
X141162863Y-82957137D02*
X141162863Y-87999300D01*
X155128698Y-68991302D02*
X141162863Y-82957137D01*
X177243915Y-68991302D02*
X155128698Y-68991302D01*
X189740386Y-139899300D02*
X193472863Y-139899300D01*
X186128814Y-143510873D02*
X189740386Y-139899300D01*
X177859635Y-146512528D02*
X183127158Y-146512528D01*
X194972863Y-138399300D02*
X194972863Y-86720250D01*
X194972863Y-86720250D02*
X177243915Y-68991302D01*
X175647863Y-157499300D02*
X175647863Y-148724300D01*
X175647863Y-148724300D02*
X177859635Y-146512528D01*
X183127158Y-146512528D02*
X186128814Y-143510873D01*
X193472863Y-139899300D02*
X194972863Y-138399300D01*
D19*
%TO.N,GND*%
X179524600Y-58099300D02*
X134600000Y-58099300D01*
D20*
X75300000Y-56750000D02*
X68900000Y-56750000D01*
X124384863Y-60487300D02*
X124413420Y-60487300D01*
D18*
X75300000Y-56750000D02*
X72850000Y-54300000D01*
D19*
X108700000Y-52000000D02*
X108700000Y-26360000D01*
D18*
X90850000Y-52180000D02*
X90850000Y-54600000D01*
D20*
X88900000Y-56750000D02*
X87800000Y-56750000D01*
D19*
X217430863Y-96005563D02*
X179524600Y-58099300D01*
D18*
X85050000Y-54000000D02*
X85050000Y-52480000D01*
D20*
X93000000Y-56750000D02*
X100800000Y-56750000D01*
X81300000Y-56750000D02*
X75300000Y-56750000D01*
X113450000Y-56750000D02*
X114799300Y-58099300D01*
D18*
X72850000Y-54300000D02*
X72850000Y-52380000D01*
X68900000Y-56750000D02*
X66850000Y-54700000D01*
D19*
X134600000Y-58099300D02*
X114799300Y-58099300D01*
D18*
X63000000Y-56750000D02*
X60850000Y-54600000D01*
D20*
X63000000Y-56750000D02*
X56400000Y-56750000D01*
D18*
X90850000Y-54600000D02*
X93000000Y-56750000D01*
D20*
X124413420Y-60487300D02*
X126801420Y-58099300D01*
D18*
X81300000Y-56750000D02*
X78950000Y-54400000D01*
X56400000Y-56750000D02*
X54750000Y-55100000D01*
D20*
X124384863Y-60487300D02*
X112087142Y-72785022D01*
D19*
X134600000Y-58099300D02*
X126801420Y-58099300D01*
X217430863Y-157499300D02*
X217430863Y-96005563D01*
X114799300Y-58099300D02*
X108700000Y-52000000D01*
D18*
X60850000Y-54600000D02*
X60850000Y-52480000D01*
D20*
X112087142Y-72785022D02*
X103122863Y-81749300D01*
D18*
X48750000Y-55400000D02*
X48750000Y-52580000D01*
D20*
X88900000Y-56750000D02*
X93000000Y-56750000D01*
D18*
X87800000Y-56750000D02*
X85050000Y-54000000D01*
D20*
X100800000Y-56750000D02*
X113450000Y-56750000D01*
X87800000Y-56750000D02*
X81300000Y-56750000D01*
D18*
X102722863Y-82149300D02*
X103122863Y-81749300D01*
X54750000Y-55100000D02*
X54750000Y-52580000D01*
D20*
X100522863Y-84349300D02*
X100522863Y-87999300D01*
D18*
X50100000Y-56750000D02*
X48750000Y-55400000D01*
X98200000Y-52180000D02*
X98200000Y-54150000D01*
X108730000Y-26330000D02*
X108800000Y-26400000D01*
X50100000Y-56750000D02*
X56400000Y-56750000D01*
X66850000Y-54700000D02*
X66850000Y-52480000D01*
X98200000Y-54150000D02*
X100800000Y-56750000D01*
X78950000Y-54400000D02*
X78950000Y-52380000D01*
D19*
X108700000Y-26360000D02*
X108730000Y-26330000D01*
D21*
X108730000Y-23300000D02*
X108730000Y-26330000D01*
D20*
X103122863Y-81749300D02*
X100522863Y-84349300D01*
D18*
X102422863Y-82449300D02*
X103122863Y-81749300D01*
D20*
X68900000Y-56750000D02*
X63000000Y-56750000D01*
D18*
%TO.N,Net-(U1A-22)*%
X179190472Y-142510528D02*
X176771757Y-140091813D01*
X176771757Y-140091813D02*
X176771757Y-132438700D01*
X188091903Y-130518340D02*
X188091903Y-135888101D01*
X188091903Y-135888101D02*
X181469476Y-142510528D01*
X181469476Y-142510528D02*
X179190472Y-142510528D01*
X187922863Y-130687380D02*
X188091903Y-130518340D01*
X176771757Y-132438700D02*
X176921863Y-132288594D01*
%TO.N,Net-(U1A-23)*%
X176605249Y-144511528D02*
X170146863Y-138053142D01*
X190753376Y-136056470D02*
X182298317Y-144511528D01*
X182298317Y-144511528D02*
X176605249Y-144511528D01*
X170146863Y-138053142D02*
X170146863Y-136233754D01*
X192145286Y-136056470D02*
X190753376Y-136056470D01*
X170146863Y-136233754D02*
X170977590Y-135403027D01*
%TO.N,Net-(D4-A)*%
X80404420Y-97302300D02*
X70451060Y-87348940D01*
X148732863Y-99559300D02*
X146475863Y-97302300D01*
X146475863Y-97302300D02*
X80404420Y-97302300D01*
X148732863Y-110999300D02*
X148732863Y-99559300D01*
X69050000Y-60400000D02*
X69050000Y-85947880D01*
X69050000Y-85947880D02*
X70451060Y-87348940D01*
%TO.N,Net-(U1A-21)*%
X185173863Y-129547292D02*
X187922863Y-126798292D01*
X180329974Y-137521777D02*
X185173863Y-132677888D01*
X180329974Y-139759528D02*
X180329974Y-137521777D01*
X185173863Y-132677888D02*
X185173863Y-129547292D01*
%TO.N,Net-(D6-A)*%
X143652863Y-110999300D02*
X143652863Y-103809142D01*
X141148021Y-101304300D02*
X72706420Y-101304300D01*
X72706420Y-101304300D02*
X58851060Y-87448940D01*
X57450000Y-86047880D02*
X58851060Y-87448940D01*
X143652863Y-103809142D02*
X141148021Y-101304300D01*
X57450000Y-60500000D02*
X57450000Y-86047880D01*
%TO.N,Net-(D5-A)*%
X141976863Y-99303300D02*
X76405420Y-99303300D01*
X146192863Y-110999300D02*
X146192863Y-103519300D01*
X76405420Y-99303300D02*
X64951060Y-87848940D01*
X63150000Y-60500000D02*
X63150000Y-86047880D01*
X146192863Y-103519300D02*
X141976863Y-99303300D01*
X63150000Y-86047880D02*
X64951060Y-87848940D01*
%TO.N,Net-(U1A-7)*%
X172472863Y-148899300D02*
X172472863Y-157499300D01*
X171872863Y-148299300D02*
X172472863Y-148899300D01*
%TO.N,Net-(D1-A)*%
X92801420Y-91299300D02*
X88801060Y-87298940D01*
X156352863Y-96479300D02*
X151172863Y-91299300D01*
X156352863Y-110999300D02*
X156352863Y-96479300D01*
X87750000Y-86247880D02*
X88801060Y-87298940D01*
X151172863Y-91299300D02*
X92801420Y-91299300D01*
X87750000Y-60700000D02*
X87750000Y-86247880D01*
D20*
%TO.N,+5V*%
X146951420Y-144285571D02*
X146951420Y-134488952D01*
X64983861Y-148164302D02*
X143072689Y-148164302D01*
D19*
X57230863Y-148699300D02*
X60839863Y-152308300D01*
X60839863Y-152308300D02*
X60839863Y-157499300D01*
D20*
X146951420Y-134488952D02*
X169052863Y-112387509D01*
X169052863Y-112387509D02*
X169052863Y-110999300D01*
D19*
X29801420Y-148699300D02*
X57230863Y-148699300D01*
X25001420Y-143899300D02*
X29801420Y-148699300D01*
D21*
X111270000Y-23300000D02*
X111270000Y-21100970D01*
D20*
X143072689Y-148164302D02*
X146951420Y-144285571D01*
D19*
X25001420Y-97499300D02*
X25001420Y-143899300D01*
D20*
X60839863Y-152308300D02*
X64983861Y-148164302D01*
D19*
X25001420Y-108799300D02*
X25001420Y-97499300D01*
D18*
%TO.N,Net-(D2-A)*%
X81250000Y-86047880D02*
X82601060Y-87398940D01*
X153812863Y-110999300D02*
X153812863Y-96769142D01*
X81250000Y-60500000D02*
X81250000Y-86047880D01*
X153812863Y-96769142D02*
X150344021Y-93300300D01*
X88502420Y-93300300D02*
X82601060Y-87398940D01*
X150344021Y-93300300D02*
X88502420Y-93300300D01*
%TO.N,Net-(D7-A)*%
X138172863Y-103305300D02*
X68107420Y-103305300D01*
X68107420Y-103305300D02*
X51801060Y-86998940D01*
X141112863Y-110999300D02*
X141112863Y-106245300D01*
X141112863Y-106245300D02*
X138172863Y-103305300D01*
X50750000Y-85947880D02*
X51801060Y-86998940D01*
X50750000Y-60400000D02*
X50750000Y-85947880D01*
%TO.N,Net-(U1A-20)*%
X182422863Y-125728350D02*
X182422863Y-131538386D01*
X181972863Y-131988386D02*
X182422863Y-131538386D01*
X187922863Y-123298289D02*
X184852924Y-123298289D01*
X184852924Y-123298289D02*
X182422863Y-125728350D01*
%TO.N,Net-(D3-A)*%
X84203420Y-95301300D02*
X75801060Y-86898940D01*
X151272863Y-97058984D02*
X149515179Y-95301300D01*
X151272863Y-110999300D02*
X151272863Y-97058984D01*
X74850000Y-85947880D02*
X75801060Y-86898940D01*
X74850000Y-60400000D02*
X74850000Y-85947880D01*
X149515179Y-95301300D02*
X84203420Y-95301300D01*
%TO.N,Net-(D2-K)*%
X85000000Y-42270000D02*
X85050000Y-42320000D01*
X85000000Y-35075000D02*
X85000000Y-42270000D01*
%TO.N,Net-(U1A-36{slash}A8)*%
X98150000Y-30650000D02*
X98150000Y-24150000D01*
X98200000Y-42020000D02*
X98200000Y-30700000D01*
X98200000Y-30700000D02*
X98150000Y-30650000D01*
%TO.N,+3.3V*%
X102650000Y-30650000D02*
X102650000Y-24150000D01*
%TO.N,Net-(D8-A)*%
X44750000Y-60400000D02*
X44750000Y-85947880D01*
X64108420Y-105306300D02*
X46401060Y-87598940D01*
X135265863Y-105306300D02*
X64108420Y-105306300D01*
X138572863Y-108613300D02*
X135265863Y-105306300D01*
X44750000Y-85947880D02*
X46401060Y-87598940D01*
X138572863Y-110999300D02*
X138572863Y-108613300D01*
%TD*%
%TA.AperFunction,Conductor*%
%TO.N,GND*%
G36*
X271211450Y-12120950D02*
G01*
X271404314Y-12181461D01*
X271581050Y-12279557D01*
X271734421Y-12411222D01*
X271858149Y-12571065D01*
X271947167Y-12752542D01*
X271997833Y-12948224D01*
X272009322Y-13091685D01*
X272626771Y-92022901D01*
X272626802Y-92030377D01*
X272646854Y-151102283D01*
X272626473Y-151303387D01*
X272566027Y-151496272D01*
X272467990Y-151673041D01*
X272336378Y-151826456D01*
X272176577Y-151950238D01*
X271995130Y-152039319D01*
X271799466Y-152090050D01*
X271649735Y-152101620D01*
X220048561Y-152198797D01*
X220047404Y-152198800D01*
X219981971Y-152198800D01*
X219981507Y-152198924D01*
X219981029Y-152198925D01*
X219981006Y-152198930D01*
X219981001Y-152198931D01*
X219919029Y-152215661D01*
X219917252Y-152216139D01*
X219854674Y-152232908D01*
X219853814Y-152233263D01*
X219798068Y-152265588D01*
X219796461Y-152266518D01*
X219740551Y-152298798D01*
X219739795Y-152299377D01*
X219698192Y-152341137D01*
X219541774Y-152469167D01*
X219362785Y-152563089D01*
X219168554Y-152619059D01*
X218989287Y-152635058D01*
X215735383Y-152631195D01*
X215534310Y-152610507D01*
X215341518Y-152549767D01*
X215214531Y-152481275D01*
X215153490Y-152449390D01*
X215009912Y-152374391D01*
X215009907Y-152374389D01*
X215009906Y-152374389D01*
X214814282Y-152318414D01*
X214790404Y-152316291D01*
X214694900Y-152307800D01*
X214694896Y-152307800D01*
X212800835Y-152307800D01*
X212800826Y-152307801D01*
X212681441Y-152318414D01*
X212437107Y-152388328D01*
X212435754Y-152383601D01*
X212336279Y-152412029D01*
X212134723Y-152427311D01*
X211934217Y-152401707D01*
X211884276Y-152386038D01*
X211883621Y-152388328D01*
X211639282Y-152318414D01*
X211615404Y-152316291D01*
X211519900Y-152307800D01*
X211519896Y-152307800D01*
X209625835Y-152307800D01*
X209625826Y-152307801D01*
X209506441Y-152318414D01*
X209262107Y-152388328D01*
X209260754Y-152383601D01*
X209161279Y-152412029D01*
X208959723Y-152427311D01*
X208759217Y-152401707D01*
X208709276Y-152386038D01*
X208708621Y-152388328D01*
X208464282Y-152318414D01*
X208440404Y-152316291D01*
X208344900Y-152307800D01*
X208344896Y-152307800D01*
X206450835Y-152307800D01*
X206450826Y-152307801D01*
X206331441Y-152318414D01*
X206087107Y-152388328D01*
X206085754Y-152383601D01*
X205986279Y-152412029D01*
X205784723Y-152427311D01*
X205584217Y-152401707D01*
X205534276Y-152386038D01*
X205533621Y-152388328D01*
X205289282Y-152318414D01*
X205265404Y-152316291D01*
X205169900Y-152307800D01*
X205169896Y-152307800D01*
X203275835Y-152307800D01*
X203275826Y-152307801D01*
X203156441Y-152318414D01*
X202912107Y-152388328D01*
X202910754Y-152383601D01*
X202811279Y-152412029D01*
X202609723Y-152427311D01*
X202409217Y-152401707D01*
X202359276Y-152386038D01*
X202358621Y-152388328D01*
X202114282Y-152318414D01*
X202090404Y-152316291D01*
X201994900Y-152307800D01*
X201994896Y-152307800D01*
X200100835Y-152307800D01*
X200100826Y-152307801D01*
X199981441Y-152318414D01*
X199737107Y-152388328D01*
X199735754Y-152383601D01*
X199636279Y-152412029D01*
X199434723Y-152427311D01*
X199234217Y-152401707D01*
X199184276Y-152386038D01*
X199183621Y-152388328D01*
X198939282Y-152318414D01*
X198915404Y-152316291D01*
X198819900Y-152307800D01*
X198819896Y-152307800D01*
X196925835Y-152307800D01*
X196925826Y-152307801D01*
X196806441Y-152318414D01*
X196562107Y-152388328D01*
X196560754Y-152383601D01*
X196461279Y-152412029D01*
X196259723Y-152427311D01*
X196059217Y-152401707D01*
X196009276Y-152386038D01*
X196008621Y-152388328D01*
X195764282Y-152318414D01*
X195740404Y-152316291D01*
X195644900Y-152307800D01*
X195644896Y-152307800D01*
X193750835Y-152307800D01*
X193750826Y-152307801D01*
X193631441Y-152318414D01*
X193387107Y-152388328D01*
X193385754Y-152383601D01*
X193286279Y-152412029D01*
X193084723Y-152427311D01*
X192884217Y-152401707D01*
X192834276Y-152386038D01*
X192833621Y-152388328D01*
X192589282Y-152318414D01*
X192565404Y-152316291D01*
X192469900Y-152307800D01*
X192469896Y-152307800D01*
X190575835Y-152307800D01*
X190575816Y-152307801D01*
X190426495Y-152321076D01*
X190224377Y-152318513D01*
X190026912Y-152275317D01*
X189842185Y-152193256D01*
X189677757Y-152075689D01*
X189540362Y-151927429D01*
X189435624Y-151754548D01*
X189367830Y-151564121D01*
X189339757Y-151363946D01*
X189352553Y-151162217D01*
X189405696Y-150967193D01*
X189497008Y-150786859D01*
X189622752Y-150628598D01*
X189631637Y-150619600D01*
X192555839Y-147695400D01*
X192712496Y-147567663D01*
X192891660Y-147474076D01*
X193085995Y-147418469D01*
X193262238Y-147402800D01*
X196077473Y-147402800D01*
X196077478Y-147402800D01*
X196133200Y-147393974D01*
X196310755Y-147365853D01*
X196310759Y-147365852D01*
X196425380Y-147328608D01*
X196535378Y-147292868D01*
X196745819Y-147185643D01*
X196936896Y-147046817D01*
X202120380Y-141863334D01*
X202259206Y-141672258D01*
X202366431Y-141461816D01*
X202439416Y-141237193D01*
X202476363Y-141003916D01*
X202476363Y-140767732D01*
X202476363Y-84115633D01*
X202454858Y-83979855D01*
X202439416Y-83882355D01*
X202439415Y-83882351D01*
X202385038Y-83715000D01*
X202366431Y-83657733D01*
X202317687Y-83562067D01*
X202259206Y-83447291D01*
X202120380Y-83256215D01*
X180707947Y-61843783D01*
X180516871Y-61704957D01*
X180516869Y-61704956D01*
X180516870Y-61704956D01*
X180306432Y-61597732D01*
X180306430Y-61597731D01*
X180081810Y-61524747D01*
X180081806Y-61524746D01*
X179848535Y-61487800D01*
X179848529Y-61487800D01*
X136279792Y-61487800D01*
X136043608Y-61487800D01*
X136043601Y-61487800D01*
X135810330Y-61524746D01*
X135810326Y-61524747D01*
X135585706Y-61597731D01*
X135585704Y-61597732D01*
X135375267Y-61704956D01*
X135184191Y-61843782D01*
X114618345Y-82409628D01*
X114489041Y-82587597D01*
X114489040Y-82587598D01*
X114479520Y-82600703D01*
X114411997Y-82733225D01*
X114372295Y-82811145D01*
X114299310Y-83035769D01*
X114262363Y-83269045D01*
X114262363Y-84315066D01*
X114253872Y-84379775D01*
X114245568Y-84414949D01*
X114241913Y-84450897D01*
X114222405Y-84513073D01*
X114207432Y-84576502D01*
X114192220Y-84609279D01*
X114181402Y-84643761D01*
X114149772Y-84700746D01*
X114122342Y-84759854D01*
X114100845Y-84788896D01*
X114083306Y-84820497D01*
X114040855Y-84869946D01*
X114002086Y-84922325D01*
X113975178Y-84946449D01*
X113951641Y-84973868D01*
X113900107Y-85013757D01*
X113851586Y-85057262D01*
X113820376Y-85075474D01*
X113791798Y-85097596D01*
X113733284Y-85126298D01*
X113677004Y-85159141D01*
X113642766Y-85170699D01*
X113610321Y-85186614D01*
X113547237Y-85202947D01*
X113485488Y-85223793D01*
X113449620Y-85228222D01*
X113414639Y-85237280D01*
X113314582Y-85244899D01*
X113284878Y-85248568D01*
X113275869Y-85247847D01*
X113263363Y-85248800D01*
X113091743Y-85248800D01*
X113035169Y-85256248D01*
X112831751Y-85283029D01*
X112831745Y-85283030D01*
X112578442Y-85350902D01*
X112335163Y-85451672D01*
X112141547Y-85509735D01*
X111940207Y-85527636D01*
X111739385Y-85504640D01*
X111570563Y-85451672D01*
X111327283Y-85350902D01*
X111073980Y-85283030D01*
X111073974Y-85283029D01*
X110886291Y-85258319D01*
X110813983Y-85248800D01*
X110551743Y-85248800D01*
X110495169Y-85256248D01*
X110291751Y-85283029D01*
X110291745Y-85283030D01*
X110038442Y-85350902D01*
X109795163Y-85451672D01*
X109601547Y-85509735D01*
X109400207Y-85527636D01*
X109199385Y-85504640D01*
X109030563Y-85451672D01*
X108787283Y-85350902D01*
X108533980Y-85283030D01*
X108533974Y-85283029D01*
X108346291Y-85258319D01*
X108273983Y-85248800D01*
X108011743Y-85248800D01*
X107955169Y-85256248D01*
X107751751Y-85283029D01*
X107751745Y-85283030D01*
X107498442Y-85350902D01*
X107255163Y-85451672D01*
X107061547Y-85509735D01*
X106860207Y-85527636D01*
X106659385Y-85504640D01*
X106490563Y-85451672D01*
X106247283Y-85350902D01*
X105993980Y-85283030D01*
X105993974Y-85283029D01*
X105806291Y-85258319D01*
X105733983Y-85248800D01*
X105471743Y-85248800D01*
X105415169Y-85256248D01*
X105211751Y-85283029D01*
X105211745Y-85283030D01*
X104958442Y-85350902D01*
X104715163Y-85451672D01*
X104521547Y-85509735D01*
X104320207Y-85527636D01*
X104119385Y-85504640D01*
X104098927Y-85499940D01*
X103987319Y-85473057D01*
X103949560Y-85451257D01*
X103707282Y-85350902D01*
X103453979Y-85283030D01*
X103193983Y-85248800D01*
X103056277Y-85248800D01*
X102940960Y-85221024D01*
X102861375Y-85193077D01*
X102780935Y-85167839D01*
X102766175Y-85159646D01*
X102750243Y-85154052D01*
X102677921Y-85110662D01*
X102604199Y-85069743D01*
X102586788Y-85055985D01*
X102576911Y-85050060D01*
X102562303Y-85036639D01*
X102547848Y-85025217D01*
X102546966Y-85026324D01*
X102261616Y-84798764D01*
X102261604Y-84798756D01*
X101976309Y-84619495D01*
X101976304Y-84619492D01*
X101672726Y-84473295D01*
X101522863Y-84420856D01*
X101522863Y-85647977D01*
X101522005Y-85656414D01*
X101522720Y-85664862D01*
X101511786Y-85756895D01*
X101502413Y-85849074D01*
X101499875Y-85857160D01*
X101498875Y-85865585D01*
X101469635Y-85953544D01*
X101441902Y-86041938D01*
X101436998Y-86051725D01*
X101435112Y-86057399D01*
X101389016Y-86147488D01*
X101387016Y-86150952D01*
X101268755Y-86314881D01*
X101119917Y-86451649D01*
X100946594Y-86555656D01*
X100755883Y-86622644D01*
X100555591Y-86649871D01*
X100353918Y-86636223D01*
X100159120Y-86582257D01*
X99979174Y-86490184D01*
X99821445Y-86363772D01*
X99692391Y-86208198D01*
X99597296Y-86029829D01*
X99540053Y-85835970D01*
X99522863Y-85651441D01*
X99522863Y-84420856D01*
X99372999Y-84473295D01*
X99069421Y-84619492D01*
X99069416Y-84619495D01*
X98784121Y-84798756D01*
X98784109Y-84798764D01*
X98520678Y-85008844D01*
X98282407Y-85247115D01*
X98072327Y-85510546D01*
X98072319Y-85510558D01*
X97893058Y-85795853D01*
X97893051Y-85795865D01*
X97746858Y-86099436D01*
X97635568Y-86417486D01*
X97635568Y-86417487D01*
X97560591Y-86745985D01*
X97532050Y-86999300D01*
X99523863Y-86999300D01*
X99549111Y-87001867D01*
X99574462Y-87000582D01*
X99649476Y-87012073D01*
X99724960Y-87019750D01*
X99749174Y-87027347D01*
X99774265Y-87031191D01*
X99845428Y-87057546D01*
X99917824Y-87080261D01*
X99940013Y-87092577D01*
X99963817Y-87101393D01*
X100028215Y-87141532D01*
X100094560Y-87178357D01*
X100113818Y-87194889D01*
X100135357Y-87208315D01*
X100190352Y-87260592D01*
X100247931Y-87310022D01*
X100263468Y-87330094D01*
X100281862Y-87347579D01*
X100325206Y-87409852D01*
X100371659Y-87469865D01*
X100382837Y-87492653D01*
X100397335Y-87513483D01*
X100398033Y-87515110D01*
X100329870Y-87533375D01*
X100215856Y-87599201D01*
X100122764Y-87692293D01*
X100056938Y-87806307D01*
X100022863Y-87933474D01*
X100022863Y-88065126D01*
X100056938Y-88192293D01*
X100122764Y-88306307D01*
X100215856Y-88399399D01*
X100329870Y-88465225D01*
X100393108Y-88482170D01*
X100343806Y-88570997D01*
X100212141Y-88724368D01*
X100052298Y-88848096D01*
X99870821Y-88937114D01*
X99675139Y-88987780D01*
X99523863Y-88999300D01*
X97532049Y-88999300D01*
X97462926Y-89076647D01*
X97460626Y-89088495D01*
X97382935Y-89275103D01*
X97269271Y-89442252D01*
X97124286Y-89583098D01*
X96953917Y-89691876D01*
X96765139Y-89764133D01*
X96565680Y-89796910D01*
X96504250Y-89798800D01*
X93836747Y-89798800D01*
X93635650Y-89778350D01*
X93442786Y-89717839D01*
X93266050Y-89619743D01*
X93130347Y-89506200D01*
X89543100Y-85918953D01*
X89415363Y-85762295D01*
X89321776Y-85583132D01*
X89266169Y-85388796D01*
X89250500Y-85212553D01*
X89250500Y-62780475D01*
X89270950Y-62579378D01*
X89331461Y-62386514D01*
X89429557Y-62209778D01*
X89456913Y-62172357D01*
X89625238Y-61952994D01*
X89772743Y-61697507D01*
X89885639Y-61424952D01*
X89961993Y-61139993D01*
X90000500Y-60847506D01*
X90000500Y-60552494D01*
X89961993Y-60260007D01*
X89885639Y-59975048D01*
X89772743Y-59702493D01*
X89625238Y-59447006D01*
X89445646Y-59212958D01*
X89237042Y-59004354D01*
X89002994Y-58824762D01*
X88794441Y-58704354D01*
X88747506Y-58677256D01*
X88474952Y-58564361D01*
X88189993Y-58488007D01*
X88189988Y-58488006D01*
X88189983Y-58488005D01*
X87897511Y-58449500D01*
X87897506Y-58449500D01*
X87602494Y-58449500D01*
X87602488Y-58449500D01*
X87310016Y-58488005D01*
X87310010Y-58488006D01*
X87310007Y-58488007D01*
X87172835Y-58524762D01*
X87025047Y-58564361D01*
X86752493Y-58677256D01*
X86497007Y-58824761D01*
X86262960Y-59004352D01*
X86054352Y-59212960D01*
X85874761Y-59447007D01*
X85727256Y-59702493D01*
X85614361Y-59975047D01*
X85538005Y-60260016D01*
X85499500Y-60552488D01*
X85499500Y-60847511D01*
X85538005Y-61139983D01*
X85538006Y-61139988D01*
X85538007Y-61139993D01*
X85594362Y-61350314D01*
X85614361Y-61424952D01*
X85727256Y-61697506D01*
X85874758Y-61952988D01*
X85874760Y-61952990D01*
X85874762Y-61952994D01*
X86043063Y-62172328D01*
X86050146Y-62183799D01*
X86059131Y-62193860D01*
X86103179Y-62269687D01*
X86149255Y-62344309D01*
X86153886Y-62356978D01*
X86160663Y-62368644D01*
X86188550Y-62451801D01*
X86218657Y-62534156D01*
X86220642Y-62547495D01*
X86224933Y-62560288D01*
X86235510Y-62647359D01*
X86248422Y-62734086D01*
X86247682Y-62747554D01*
X86249309Y-62760947D01*
X86249500Y-62780475D01*
X86249500Y-86365967D01*
X86249501Y-86365981D01*
X86250178Y-86370255D01*
X86251007Y-86385120D01*
X86252580Y-86405103D01*
X86252124Y-86405138D01*
X86261438Y-86572075D01*
X86231842Y-86772031D01*
X86162600Y-86961936D01*
X86056548Y-87134016D01*
X85918028Y-87281224D01*
X85752711Y-87397536D01*
X85567364Y-87478188D01*
X85369576Y-87519880D01*
X85167444Y-87520904D01*
X84969244Y-87481217D01*
X84783090Y-87402446D01*
X84616603Y-87287815D01*
X84557077Y-87232930D01*
X83043100Y-85718953D01*
X82915363Y-85562295D01*
X82821776Y-85383132D01*
X82766169Y-85188796D01*
X82750500Y-85012553D01*
X82750500Y-62580475D01*
X82759742Y-62489588D01*
X82767206Y-62398544D01*
X82769958Y-62389132D01*
X82770950Y-62379378D01*
X82798298Y-62292212D01*
X82823936Y-62204534D01*
X82828525Y-62195870D01*
X82831461Y-62186514D01*
X82875808Y-62106614D01*
X82918559Y-62025915D01*
X82924796Y-62018355D01*
X82929557Y-62009778D01*
X82956913Y-61972357D01*
X83125238Y-61752994D01*
X83272743Y-61497507D01*
X83385639Y-61224952D01*
X83461993Y-60939993D01*
X83500500Y-60647506D01*
X83500500Y-60352494D01*
X83461993Y-60060007D01*
X83385639Y-59775048D01*
X83272743Y-59502493D01*
X83125238Y-59247006D01*
X82945646Y-59012958D01*
X82737042Y-58804354D01*
X82502994Y-58624762D01*
X82398376Y-58564361D01*
X82247506Y-58477256D01*
X81974952Y-58364361D01*
X81689993Y-58288007D01*
X81689988Y-58288006D01*
X81689983Y-58288005D01*
X81397511Y-58249500D01*
X81397506Y-58249500D01*
X81102494Y-58249500D01*
X81102488Y-58249500D01*
X80810016Y-58288005D01*
X80810010Y-58288006D01*
X80810007Y-58288007D01*
X80637423Y-58334250D01*
X80525047Y-58364361D01*
X80252493Y-58477256D01*
X79997007Y-58624761D01*
X79762960Y-58804352D01*
X79554352Y-59012960D01*
X79374761Y-59247007D01*
X79227256Y-59502493D01*
X79114361Y-59775047D01*
X79089836Y-59866577D01*
X79038007Y-60060007D01*
X78999500Y-60352494D01*
X78999500Y-60647506D01*
X79038007Y-60939993D01*
X79097928Y-61163623D01*
X79114361Y-61224952D01*
X79227256Y-61497506D01*
X79374758Y-61752988D01*
X79374760Y-61752990D01*
X79374762Y-61752994D01*
X79543063Y-61972328D01*
X79587207Y-62043820D01*
X79633767Y-62113741D01*
X79640220Y-62129678D01*
X79649255Y-62144309D01*
X79678102Y-62223221D01*
X79709639Y-62301095D01*
X79712752Y-62318005D01*
X79718657Y-62334156D01*
X79731029Y-62417262D01*
X79746244Y-62499888D01*
X79747329Y-62526745D01*
X79748422Y-62534086D01*
X79747963Y-62542437D01*
X79749500Y-62580475D01*
X79749500Y-86165967D01*
X79749501Y-86165981D01*
X79750178Y-86170255D01*
X79751007Y-86185120D01*
X79752580Y-86205103D01*
X79752124Y-86205138D01*
X79761438Y-86372075D01*
X79731842Y-86572031D01*
X79662600Y-86761936D01*
X79556548Y-86934016D01*
X79418028Y-87081224D01*
X79252711Y-87197536D01*
X79067364Y-87278188D01*
X78869576Y-87319880D01*
X78667444Y-87320904D01*
X78469244Y-87281217D01*
X78283090Y-87202446D01*
X78116603Y-87087815D01*
X78057077Y-87032930D01*
X76643100Y-85618953D01*
X76515363Y-85462295D01*
X76421776Y-85283132D01*
X76366169Y-85088796D01*
X76350500Y-84912553D01*
X76350500Y-62480475D01*
X76356663Y-62419869D01*
X76357917Y-62358971D01*
X76366862Y-62319572D01*
X76370950Y-62279378D01*
X76389185Y-62221257D01*
X76402673Y-62161854D01*
X76419366Y-62125061D01*
X76431461Y-62086514D01*
X76461021Y-62033255D01*
X76486192Y-61977781D01*
X76509950Y-61945102D01*
X76529557Y-61909778D01*
X76556913Y-61872357D01*
X76725238Y-61652994D01*
X76872743Y-61397507D01*
X76985639Y-61124952D01*
X77061993Y-60839993D01*
X77100500Y-60547506D01*
X77100500Y-60252494D01*
X77061993Y-59960007D01*
X76985639Y-59675048D01*
X76872743Y-59402493D01*
X76725238Y-59147006D01*
X76545646Y-58912958D01*
X76337042Y-58704354D01*
X76102994Y-58524762D01*
X75972636Y-58449500D01*
X75847506Y-58377256D01*
X75574952Y-58264361D01*
X75289993Y-58188007D01*
X75289988Y-58188006D01*
X75289983Y-58188005D01*
X74997511Y-58149500D01*
X74997506Y-58149500D01*
X74702494Y-58149500D01*
X74702488Y-58149500D01*
X74410016Y-58188005D01*
X74410010Y-58188006D01*
X74410007Y-58188007D01*
X74237423Y-58234250D01*
X74125047Y-58264361D01*
X73852493Y-58377256D01*
X73597007Y-58524761D01*
X73362960Y-58704352D01*
X73154352Y-58912960D01*
X72974761Y-59147007D01*
X72815160Y-59423445D01*
X72696902Y-59587376D01*
X72548065Y-59724145D01*
X72374744Y-59828155D01*
X72184033Y-59895146D01*
X71983741Y-59922376D01*
X71782068Y-59908730D01*
X71587270Y-59854767D01*
X71407322Y-59762696D01*
X71249592Y-59636287D01*
X71120536Y-59480714D01*
X71084840Y-59423445D01*
X70982973Y-59247006D01*
X70925238Y-59147006D01*
X70745646Y-58912958D01*
X70537042Y-58704354D01*
X70302994Y-58524762D01*
X70172636Y-58449500D01*
X70047506Y-58377256D01*
X69774952Y-58264361D01*
X69489993Y-58188007D01*
X69489988Y-58188006D01*
X69489983Y-58188005D01*
X69197511Y-58149500D01*
X69197506Y-58149500D01*
X68902494Y-58149500D01*
X68902488Y-58149500D01*
X68610016Y-58188005D01*
X68610010Y-58188006D01*
X68610007Y-58188007D01*
X68437423Y-58234250D01*
X68325047Y-58264361D01*
X68052493Y-58377256D01*
X67797007Y-58524761D01*
X67562960Y-58704352D01*
X67354352Y-58912960D01*
X67174761Y-59147007D01*
X67027255Y-59402495D01*
X67027252Y-59402501D01*
X67001903Y-59463699D01*
X66906053Y-59641663D01*
X66776340Y-59796689D01*
X66618077Y-59922430D01*
X66437741Y-60013739D01*
X66242717Y-60066878D01*
X66040988Y-60079671D01*
X65840813Y-60051595D01*
X65650387Y-59983798D01*
X65477507Y-59879057D01*
X65329250Y-59741659D01*
X65211686Y-59577230D01*
X65182972Y-59523236D01*
X65172745Y-59502499D01*
X65172743Y-59502493D01*
X65025238Y-59247006D01*
X64845646Y-59012958D01*
X64637042Y-58804354D01*
X64402994Y-58624762D01*
X64298376Y-58564361D01*
X64147506Y-58477256D01*
X63874952Y-58364361D01*
X63589993Y-58288007D01*
X63589988Y-58288006D01*
X63589983Y-58288005D01*
X63297511Y-58249500D01*
X63297506Y-58249500D01*
X63002494Y-58249500D01*
X63002488Y-58249500D01*
X62710016Y-58288005D01*
X62710010Y-58288006D01*
X62710007Y-58288007D01*
X62537423Y-58334250D01*
X62425047Y-58364361D01*
X62152493Y-58477256D01*
X61897007Y-58624761D01*
X61662960Y-58804352D01*
X61454352Y-59012960D01*
X61274763Y-59247004D01*
X61165160Y-59436843D01*
X61046901Y-59600773D01*
X60898065Y-59737543D01*
X60724743Y-59841552D01*
X60534033Y-59908543D01*
X60333741Y-59935773D01*
X60132068Y-59922127D01*
X59937270Y-59868164D01*
X59757322Y-59776093D01*
X59599591Y-59649683D01*
X59470536Y-59494111D01*
X59434840Y-59436843D01*
X59415007Y-59402491D01*
X59325238Y-59247006D01*
X59145646Y-59012958D01*
X58937042Y-58804354D01*
X58702994Y-58624762D01*
X58598376Y-58564361D01*
X58447506Y-58477256D01*
X58174952Y-58364361D01*
X57889993Y-58288007D01*
X57889988Y-58288006D01*
X57889983Y-58288005D01*
X57597511Y-58249500D01*
X57597506Y-58249500D01*
X57302494Y-58249500D01*
X57302488Y-58249500D01*
X57010016Y-58288005D01*
X57010010Y-58288006D01*
X57010007Y-58288007D01*
X56837423Y-58334250D01*
X56725047Y-58364361D01*
X56452493Y-58477256D01*
X56197007Y-58624761D01*
X55962960Y-58804352D01*
X55754352Y-59012960D01*
X55574761Y-59247007D01*
X55427256Y-59502493D01*
X55314361Y-59775047D01*
X55289836Y-59866577D01*
X55250405Y-60013739D01*
X55238005Y-60060016D01*
X55199500Y-60352488D01*
X55199500Y-60647511D01*
X55238005Y-60939983D01*
X55238006Y-60939988D01*
X55238007Y-60939993D01*
X55297928Y-61163623D01*
X55314361Y-61224952D01*
X55427256Y-61497506D01*
X55574758Y-61752988D01*
X55574760Y-61752990D01*
X55574762Y-61752994D01*
X55743063Y-61972328D01*
X55783930Y-62038513D01*
X55827847Y-62102706D01*
X55836926Y-62124342D01*
X55849255Y-62144309D01*
X55875961Y-62217364D01*
X55906062Y-62289094D01*
X55910600Y-62312118D01*
X55918657Y-62334156D01*
X55930110Y-62411087D01*
X55945156Y-62487412D01*
X55946838Y-62523446D01*
X55948422Y-62534086D01*
X55947834Y-62544786D01*
X55949500Y-62580475D01*
X55949500Y-86165978D01*
X55986446Y-86399249D01*
X55995610Y-86437417D01*
X55993427Y-86437941D01*
X56025019Y-86584138D01*
X56027068Y-86786262D01*
X55988387Y-86984661D01*
X55910561Y-87171212D01*
X55796776Y-87338278D01*
X55651689Y-87479020D01*
X55481241Y-87587675D01*
X55292411Y-87659795D01*
X55092928Y-87692427D01*
X54890960Y-87684235D01*
X54694775Y-87635556D01*
X54512405Y-87548381D01*
X54351316Y-87426280D01*
X54325820Y-87401673D01*
X52543100Y-85618953D01*
X52415363Y-85462295D01*
X52321776Y-85283132D01*
X52266169Y-85088796D01*
X52250500Y-84912553D01*
X52250500Y-62480475D01*
X52256030Y-62426086D01*
X52256471Y-62371410D01*
X52266230Y-62325783D01*
X52270950Y-62279378D01*
X52287314Y-62227219D01*
X52298753Y-62173747D01*
X52317496Y-62131021D01*
X52331461Y-62086514D01*
X52357993Y-62038711D01*
X52379959Y-61988642D01*
X52406916Y-61950569D01*
X52429557Y-61909778D01*
X52456913Y-61872357D01*
X52625238Y-61652994D01*
X52772743Y-61397507D01*
X52885639Y-61124952D01*
X52961993Y-60839993D01*
X53000500Y-60547506D01*
X53000500Y-60252494D01*
X52961993Y-59960007D01*
X52885639Y-59675048D01*
X52772743Y-59402493D01*
X52625238Y-59147006D01*
X52445646Y-58912958D01*
X52237042Y-58704354D01*
X52002994Y-58524762D01*
X51872636Y-58449500D01*
X51747506Y-58377256D01*
X51474952Y-58264361D01*
X51189993Y-58188007D01*
X51189988Y-58188006D01*
X51189983Y-58188005D01*
X50897511Y-58149500D01*
X50897506Y-58149500D01*
X50602494Y-58149500D01*
X50602488Y-58149500D01*
X50310016Y-58188005D01*
X50310010Y-58188006D01*
X50310007Y-58188007D01*
X50137423Y-58234250D01*
X50025047Y-58264361D01*
X49752493Y-58377256D01*
X49497007Y-58524761D01*
X49262960Y-58704352D01*
X49054352Y-58912960D01*
X48874761Y-59147007D01*
X48727257Y-59402491D01*
X48672956Y-59533587D01*
X48577106Y-59711551D01*
X48447395Y-59866577D01*
X48289132Y-59992320D01*
X48108797Y-60083630D01*
X47913773Y-60136770D01*
X47712044Y-60149565D01*
X47511869Y-60121489D01*
X47321443Y-60053694D01*
X47148562Y-59948953D01*
X47000304Y-59811557D01*
X46882739Y-59647128D01*
X46827044Y-59533587D01*
X46786971Y-59436843D01*
X46772743Y-59402493D01*
X46625238Y-59147006D01*
X46445646Y-58912958D01*
X46237042Y-58704354D01*
X46002994Y-58524762D01*
X45872636Y-58449500D01*
X45747506Y-58377256D01*
X45474952Y-58264361D01*
X45189993Y-58188007D01*
X45189988Y-58188006D01*
X45189983Y-58188005D01*
X44897511Y-58149500D01*
X44897506Y-58149500D01*
X44602494Y-58149500D01*
X44602488Y-58149500D01*
X44310015Y-58188005D01*
X44310014Y-58188005D01*
X44128140Y-58236737D01*
X43928602Y-58269030D01*
X43726648Y-58260496D01*
X43530546Y-58211483D01*
X43348324Y-58123999D01*
X43187443Y-58001624D01*
X43054489Y-57849370D01*
X42954905Y-57673468D01*
X42892768Y-57481121D01*
X42870623Y-57280204D01*
X42870587Y-57271775D01*
X42870587Y-53580000D01*
X45395857Y-53580000D01*
X45450622Y-53760538D01*
X45582224Y-54078255D01*
X45744327Y-54381528D01*
X45935377Y-54667454D01*
X46153545Y-54933292D01*
X46396707Y-55176454D01*
X46662545Y-55394622D01*
X46948471Y-55585672D01*
X47251744Y-55747775D01*
X47569461Y-55879377D01*
X47749999Y-55934142D01*
X47750000Y-55934142D01*
X47750000Y-53580001D01*
X49750000Y-53580001D01*
X49750000Y-55934142D01*
X49930538Y-55879377D01*
X50248255Y-55747775D01*
X50551528Y-55585672D01*
X50837455Y-55394621D01*
X51116239Y-55165829D01*
X51284662Y-55054062D01*
X51472136Y-54978486D01*
X51670986Y-54942195D01*
X51873071Y-54946675D01*
X52070117Y-54991743D01*
X52254057Y-55075553D01*
X52383761Y-55165829D01*
X52662544Y-55394621D01*
X52948471Y-55585672D01*
X53251744Y-55747775D01*
X53569461Y-55879377D01*
X53749999Y-55934142D01*
X53750000Y-55934142D01*
X53750000Y-53580001D01*
X55750000Y-53580001D01*
X55750000Y-55934142D01*
X55930538Y-55879377D01*
X56248255Y-55747775D01*
X56551528Y-55585672D01*
X56837454Y-55394622D01*
X57103291Y-55176455D01*
X57146055Y-55133691D01*
X57302712Y-55005953D01*
X57481875Y-54912364D01*
X57676209Y-54856756D01*
X57877760Y-54841405D01*
X58078275Y-54866941D01*
X58269545Y-54932317D01*
X58443739Y-55034858D01*
X58486221Y-55067849D01*
X58762538Y-55294617D01*
X58762540Y-55294618D01*
X59048471Y-55485672D01*
X59351744Y-55647775D01*
X59669461Y-55779377D01*
X59849999Y-55834142D01*
X59850000Y-55834142D01*
X59850000Y-53480001D01*
X61850000Y-53480001D01*
X61850000Y-55834142D01*
X62030538Y-55779377D01*
X62348255Y-55647775D01*
X62651528Y-55485672D01*
X62937455Y-55294621D01*
X63216239Y-55065829D01*
X63384662Y-54954062D01*
X63572136Y-54878486D01*
X63770986Y-54842195D01*
X63973071Y-54846675D01*
X64170117Y-54891743D01*
X64354057Y-54975553D01*
X64483761Y-55065829D01*
X64762544Y-55294621D01*
X65048471Y-55485672D01*
X65351744Y-55647775D01*
X65669461Y-55779377D01*
X65849999Y-55834142D01*
X65850000Y-55834142D01*
X65850000Y-53480001D01*
X67850000Y-53480001D01*
X67850000Y-55834142D01*
X68030538Y-55779377D01*
X68348255Y-55647775D01*
X68651528Y-55485672D01*
X68937454Y-55294622D01*
X69203300Y-55076448D01*
X69221468Y-55059982D01*
X69222552Y-55061178D01*
X69357615Y-54951042D01*
X69536775Y-54857449D01*
X69731109Y-54801836D01*
X69932659Y-54786481D01*
X70133175Y-54812011D01*
X70324446Y-54877383D01*
X70498643Y-54979919D01*
X70541144Y-55012923D01*
X70762546Y-55194623D01*
X71048471Y-55385672D01*
X71351744Y-55547775D01*
X71669461Y-55679377D01*
X71849999Y-55734142D01*
X71850000Y-55734142D01*
X71850000Y-53380001D01*
X73850000Y-53380001D01*
X73850000Y-55734142D01*
X74030538Y-55679377D01*
X74348255Y-55547775D01*
X74651528Y-55385672D01*
X74937454Y-55194622D01*
X75203300Y-54976448D01*
X75221468Y-54959982D01*
X75223261Y-54961961D01*
X75350258Y-54858410D01*
X75529421Y-54764823D01*
X75723757Y-54709216D01*
X75925307Y-54693868D01*
X76125822Y-54719405D01*
X76317091Y-54784783D01*
X76491285Y-54887325D01*
X76577389Y-54961242D01*
X76578532Y-54959982D01*
X76596699Y-54976448D01*
X76862545Y-55194622D01*
X77148471Y-55385672D01*
X77451744Y-55547775D01*
X77769461Y-55679377D01*
X77949999Y-55734142D01*
X77950000Y-55734142D01*
X77950000Y-53380001D01*
X79950000Y-53380001D01*
X79950000Y-55734142D01*
X80130538Y-55679377D01*
X80448255Y-55547775D01*
X80751528Y-55385672D01*
X81037456Y-55194621D01*
X81313776Y-54967850D01*
X81482199Y-54856082D01*
X81669673Y-54780506D01*
X81868523Y-54744215D01*
X82070608Y-54748695D01*
X82267654Y-54793762D01*
X82451595Y-54877572D01*
X82614899Y-54996694D01*
X82653938Y-55033685D01*
X82696707Y-55076454D01*
X82962545Y-55294622D01*
X83248471Y-55485672D01*
X83551744Y-55647775D01*
X83869461Y-55779377D01*
X84049999Y-55834142D01*
X84050000Y-55834142D01*
X84050000Y-53480001D01*
X86050000Y-53480001D01*
X86050000Y-55834142D01*
X86230538Y-55779377D01*
X86548255Y-55647775D01*
X86851528Y-55485672D01*
X87137454Y-55294622D01*
X87403290Y-55076456D01*
X87420673Y-55059073D01*
X87577329Y-54931334D01*
X87756491Y-54837744D01*
X87950825Y-54782135D01*
X88152376Y-54766783D01*
X88352891Y-54792318D01*
X88544161Y-54857693D01*
X88718357Y-54960232D01*
X88760827Y-54993213D01*
X88762540Y-54994619D01*
X89048471Y-55185672D01*
X89351744Y-55347775D01*
X89669461Y-55479377D01*
X89849999Y-55534142D01*
X89850000Y-55534142D01*
X91850000Y-55534142D01*
X92030538Y-55479377D01*
X92348255Y-55347775D01*
X92514635Y-55258843D01*
X96535369Y-55258843D01*
X96701758Y-55347780D01*
X97019449Y-55479372D01*
X97019464Y-55479377D01*
X97348541Y-55579202D01*
X97685826Y-55646293D01*
X98028063Y-55680000D01*
X98371937Y-55680000D01*
X98714173Y-55646293D01*
X99051458Y-55579202D01*
X99380535Y-55479377D01*
X99380558Y-55479369D01*
X99698243Y-55347780D01*
X99698248Y-55347778D01*
X99864629Y-55258844D01*
X98199999Y-53594214D01*
X96535369Y-55258843D01*
X92514635Y-55258843D01*
X92651528Y-55185672D01*
X92937454Y-54994622D01*
X93203292Y-54776454D01*
X93446458Y-54533288D01*
X93638304Y-54299523D01*
X93720171Y-54185284D01*
X93776268Y-54121727D01*
X93830274Y-54056343D01*
X93843066Y-54046045D01*
X93853931Y-54033737D01*
X93921677Y-53982770D01*
X93987736Y-53929599D01*
X94002339Y-53922088D01*
X94015459Y-53912218D01*
X94092091Y-53875925D01*
X94167488Y-53837147D01*
X94183299Y-53832730D01*
X94198143Y-53825701D01*
X94280516Y-53805576D01*
X94362171Y-53782770D01*
X94378551Y-53781626D01*
X94394502Y-53777730D01*
X94479236Y-53774599D01*
X94563814Y-53768697D01*
X94585753Y-53770664D01*
X94596499Y-53770268D01*
X94614036Y-53773201D01*
X94678776Y-53779009D01*
X95121155Y-53844629D01*
X96785785Y-52180000D01*
X96733124Y-52127339D01*
X97800000Y-52127339D01*
X97800000Y-52232661D01*
X97827259Y-52334394D01*
X97879920Y-52425606D01*
X97954394Y-52500080D01*
X98045606Y-52552741D01*
X98147339Y-52580000D01*
X98252661Y-52580000D01*
X98354394Y-52552741D01*
X98445606Y-52500080D01*
X98520080Y-52425606D01*
X98572741Y-52334394D01*
X98600000Y-52232661D01*
X98600000Y-52179999D01*
X99614214Y-52179999D01*
X101278844Y-53844629D01*
X101367778Y-53678248D01*
X101367780Y-53678243D01*
X101499369Y-53360558D01*
X101499377Y-53360535D01*
X101599202Y-53031458D01*
X101666293Y-52694173D01*
X101700000Y-52351937D01*
X101700000Y-52008062D01*
X101666293Y-51665826D01*
X101599202Y-51328541D01*
X101499377Y-50999464D01*
X101499372Y-50999449D01*
X101367780Y-50681758D01*
X101278843Y-50515369D01*
X99614214Y-52179999D01*
X98600000Y-52179999D01*
X98600000Y-52127339D01*
X98572741Y-52025606D01*
X98520080Y-51934394D01*
X98445606Y-51859920D01*
X98354394Y-51807259D01*
X98252661Y-51780000D01*
X98147339Y-51780000D01*
X98045606Y-51807259D01*
X97954394Y-51859920D01*
X97879920Y-51934394D01*
X97827259Y-52025606D01*
X97800000Y-52127339D01*
X96733124Y-52127339D01*
X95121153Y-50515368D01*
X94678777Y-50580990D01*
X94587007Y-50585207D01*
X94495314Y-50591122D01*
X94486123Y-50589843D01*
X94476856Y-50590269D01*
X94386115Y-50575926D01*
X94295108Y-50563263D01*
X94286363Y-50560160D01*
X94277200Y-50558712D01*
X94191213Y-50526400D01*
X94104609Y-50495673D01*
X94096666Y-50490872D01*
X94087984Y-50487610D01*
X94010244Y-50438640D01*
X93931616Y-50391119D01*
X93924806Y-50384822D01*
X93916953Y-50379875D01*
X93850650Y-50316247D01*
X93783210Y-50253883D01*
X93776268Y-50244866D01*
X93771111Y-50239917D01*
X93720172Y-50174718D01*
X93638299Y-50060471D01*
X93446454Y-49826707D01*
X93203292Y-49583545D01*
X92937454Y-49365377D01*
X92651528Y-49174327D01*
X92514631Y-49101154D01*
X96535369Y-49101154D01*
X98200000Y-50765785D01*
X99864630Y-49101155D01*
X99698246Y-49012221D01*
X99380550Y-48880627D01*
X99380535Y-48880622D01*
X99051458Y-48780797D01*
X98714173Y-48713706D01*
X98371937Y-48680000D01*
X98028063Y-48680000D01*
X97685826Y-48713706D01*
X97348541Y-48780797D01*
X97019464Y-48880622D01*
X97019457Y-48880625D01*
X96701742Y-49012226D01*
X96535369Y-49101154D01*
X92514631Y-49101154D01*
X92348258Y-49012226D01*
X92030542Y-48880624D01*
X91850000Y-48825856D01*
X91850000Y-55534142D01*
X89850000Y-55534142D01*
X89850000Y-53180001D01*
X89849999Y-53180000D01*
X89555001Y-53180000D01*
X89547601Y-53187400D01*
X89390943Y-53315137D01*
X89211780Y-53408724D01*
X89017444Y-53464331D01*
X88841201Y-53480000D01*
X86050001Y-53480000D01*
X86050000Y-53480001D01*
X84050000Y-53480001D01*
X84049999Y-53480000D01*
X81058799Y-53480000D01*
X80857702Y-53459550D01*
X80664838Y-53399039D01*
X80630536Y-53380000D01*
X79950001Y-53380000D01*
X79950000Y-53380001D01*
X77950000Y-53380001D01*
X77949999Y-53380000D01*
X73850001Y-53380000D01*
X73850000Y-53380001D01*
X71850000Y-53380001D01*
X71849999Y-53380000D01*
X71266769Y-53380000D01*
X71211780Y-53408724D01*
X71017444Y-53464331D01*
X70841201Y-53480000D01*
X67850001Y-53480000D01*
X67850000Y-53480001D01*
X65850000Y-53480001D01*
X65849999Y-53480000D01*
X61850001Y-53480000D01*
X61850000Y-53480001D01*
X59850000Y-53480001D01*
X59849999Y-53480000D01*
X59166769Y-53480000D01*
X59111780Y-53508724D01*
X58917444Y-53564331D01*
X58741201Y-53580000D01*
X55750001Y-53580000D01*
X55750000Y-53580001D01*
X53750000Y-53580001D01*
X53749999Y-53580000D01*
X49750001Y-53580000D01*
X49750000Y-53580001D01*
X47750000Y-53580001D01*
X47749999Y-53580000D01*
X45395857Y-53580000D01*
X42870587Y-53580000D01*
X42870587Y-52527339D01*
X48350000Y-52527339D01*
X48350000Y-52632661D01*
X48377259Y-52734394D01*
X48429920Y-52825606D01*
X48504394Y-52900080D01*
X48595606Y-52952741D01*
X48697339Y-52980000D01*
X48802661Y-52980000D01*
X48904394Y-52952741D01*
X48995606Y-52900080D01*
X49070080Y-52825606D01*
X49122741Y-52734394D01*
X49150000Y-52632661D01*
X49150000Y-52527339D01*
X54350000Y-52527339D01*
X54350000Y-52632661D01*
X54377259Y-52734394D01*
X54429920Y-52825606D01*
X54504394Y-52900080D01*
X54595606Y-52952741D01*
X54697339Y-52980000D01*
X54802661Y-52980000D01*
X54904394Y-52952741D01*
X54995606Y-52900080D01*
X55070080Y-52825606D01*
X55122741Y-52734394D01*
X55150000Y-52632661D01*
X55150000Y-52527339D01*
X55123205Y-52427339D01*
X60450000Y-52427339D01*
X60450000Y-52532661D01*
X60477259Y-52634394D01*
X60529920Y-52725606D01*
X60604394Y-52800080D01*
X60695606Y-52852741D01*
X60797339Y-52880000D01*
X60902661Y-52880000D01*
X61004394Y-52852741D01*
X61095606Y-52800080D01*
X61170080Y-52725606D01*
X61222741Y-52634394D01*
X61250000Y-52532661D01*
X61250000Y-52427339D01*
X66450000Y-52427339D01*
X66450000Y-52532661D01*
X66477259Y-52634394D01*
X66529920Y-52725606D01*
X66604394Y-52800080D01*
X66695606Y-52852741D01*
X66797339Y-52880000D01*
X66902661Y-52880000D01*
X67004394Y-52852741D01*
X67095606Y-52800080D01*
X67170080Y-52725606D01*
X67222741Y-52634394D01*
X67250000Y-52532661D01*
X67250000Y-52427339D01*
X67223205Y-52327339D01*
X72450000Y-52327339D01*
X72450000Y-52432661D01*
X72477259Y-52534394D01*
X72529920Y-52625606D01*
X72604394Y-52700080D01*
X72695606Y-52752741D01*
X72797339Y-52780000D01*
X72902661Y-52780000D01*
X73004394Y-52752741D01*
X73095606Y-52700080D01*
X73170080Y-52625606D01*
X73222741Y-52534394D01*
X73250000Y-52432661D01*
X73250000Y-52327339D01*
X78550000Y-52327339D01*
X78550000Y-52432661D01*
X78577259Y-52534394D01*
X78629920Y-52625606D01*
X78704394Y-52700080D01*
X78795606Y-52752741D01*
X78897339Y-52780000D01*
X79002661Y-52780000D01*
X79104394Y-52752741D01*
X79195606Y-52700080D01*
X79270080Y-52625606D01*
X79322741Y-52534394D01*
X79350000Y-52432661D01*
X79350000Y-52427339D01*
X84650000Y-52427339D01*
X84650000Y-52532661D01*
X84677259Y-52634394D01*
X84729920Y-52725606D01*
X84804394Y-52800080D01*
X84895606Y-52852741D01*
X84997339Y-52880000D01*
X85102661Y-52880000D01*
X85204394Y-52852741D01*
X85295606Y-52800080D01*
X85370080Y-52725606D01*
X85422741Y-52634394D01*
X85450000Y-52532661D01*
X85450000Y-52427339D01*
X85422741Y-52325606D01*
X85370080Y-52234394D01*
X85295606Y-52159920D01*
X85239174Y-52127339D01*
X90450000Y-52127339D01*
X90450000Y-52232661D01*
X90477259Y-52334394D01*
X90529920Y-52425606D01*
X90604394Y-52500080D01*
X90695606Y-52552741D01*
X90797339Y-52580000D01*
X90902661Y-52580000D01*
X91004394Y-52552741D01*
X91095606Y-52500080D01*
X91170080Y-52425606D01*
X91222741Y-52334394D01*
X91250000Y-52232661D01*
X91250000Y-52127339D01*
X91222741Y-52025606D01*
X91170080Y-51934394D01*
X91095606Y-51859920D01*
X91004394Y-51807259D01*
X90902661Y-51780000D01*
X90797339Y-51780000D01*
X90695606Y-51807259D01*
X90604394Y-51859920D01*
X90529920Y-51934394D01*
X90477259Y-52025606D01*
X90450000Y-52127339D01*
X85239174Y-52127339D01*
X85204394Y-52107259D01*
X85102661Y-52080000D01*
X84997339Y-52080000D01*
X84895606Y-52107259D01*
X84804394Y-52159920D01*
X84729920Y-52234394D01*
X84677259Y-52325606D01*
X84650000Y-52427339D01*
X79350000Y-52427339D01*
X79350000Y-52327339D01*
X79322741Y-52225606D01*
X79270080Y-52134394D01*
X79195606Y-52059920D01*
X79104394Y-52007259D01*
X79002661Y-51980000D01*
X78897339Y-51980000D01*
X78795606Y-52007259D01*
X78704394Y-52059920D01*
X78629920Y-52134394D01*
X78577259Y-52225606D01*
X78550000Y-52327339D01*
X73250000Y-52327339D01*
X73222741Y-52225606D01*
X73170080Y-52134394D01*
X73095606Y-52059920D01*
X73004394Y-52007259D01*
X72902661Y-51980000D01*
X72797339Y-51980000D01*
X72695606Y-52007259D01*
X72604394Y-52059920D01*
X72529920Y-52134394D01*
X72477259Y-52225606D01*
X72450000Y-52327339D01*
X67223205Y-52327339D01*
X67222741Y-52325606D01*
X67170080Y-52234394D01*
X67095606Y-52159920D01*
X67004394Y-52107259D01*
X66902661Y-52080000D01*
X66797339Y-52080000D01*
X66695606Y-52107259D01*
X66604394Y-52159920D01*
X66529920Y-52234394D01*
X66477259Y-52325606D01*
X66450000Y-52427339D01*
X61250000Y-52427339D01*
X61222741Y-52325606D01*
X61170080Y-52234394D01*
X61095606Y-52159920D01*
X61004394Y-52107259D01*
X60902661Y-52080000D01*
X60797339Y-52080000D01*
X60695606Y-52107259D01*
X60604394Y-52159920D01*
X60529920Y-52234394D01*
X60477259Y-52325606D01*
X60450000Y-52427339D01*
X55123205Y-52427339D01*
X55122741Y-52425606D01*
X55070080Y-52334394D01*
X54995606Y-52259920D01*
X54904394Y-52207259D01*
X54802661Y-52180000D01*
X54697339Y-52180000D01*
X54595606Y-52207259D01*
X54504394Y-52259920D01*
X54429920Y-52334394D01*
X54377259Y-52425606D01*
X54350000Y-52527339D01*
X49150000Y-52527339D01*
X49122741Y-52425606D01*
X49070080Y-52334394D01*
X48995606Y-52259920D01*
X48904394Y-52207259D01*
X48802661Y-52180000D01*
X48697339Y-52180000D01*
X48595606Y-52207259D01*
X48504394Y-52259920D01*
X48429920Y-52334394D01*
X48377259Y-52425606D01*
X48350000Y-52527339D01*
X42870587Y-52527339D01*
X42870587Y-51579999D01*
X45395857Y-51579999D01*
X45395857Y-51580000D01*
X47749999Y-51580000D01*
X47750000Y-51579999D01*
X47750000Y-49225856D01*
X49750000Y-49225856D01*
X49750000Y-51579999D01*
X49750001Y-51580000D01*
X53749999Y-51580000D01*
X53750000Y-51579999D01*
X53750000Y-49225856D01*
X55750000Y-49225856D01*
X55750000Y-51579999D01*
X55750001Y-51580000D01*
X56433231Y-51580000D01*
X56488220Y-51551276D01*
X56682556Y-51495669D01*
X56858799Y-51480000D01*
X59849999Y-51480000D01*
X59850000Y-51479999D01*
X59850000Y-49125856D01*
X61850000Y-49125856D01*
X61850000Y-51479999D01*
X61850001Y-51480000D01*
X65849999Y-51480000D01*
X65850000Y-51479999D01*
X65850000Y-49125856D01*
X67850000Y-49125856D01*
X67850000Y-51479999D01*
X67850001Y-51480000D01*
X68433231Y-51480000D01*
X68488220Y-51451276D01*
X68682556Y-51395669D01*
X68858799Y-51380000D01*
X71849999Y-51380000D01*
X71850000Y-51379999D01*
X71850000Y-49025856D01*
X73850000Y-49025856D01*
X73850000Y-51379999D01*
X73850001Y-51380000D01*
X77949999Y-51380000D01*
X77950000Y-51379999D01*
X79950000Y-51379999D01*
X79950001Y-51380000D01*
X82941201Y-51380000D01*
X83142298Y-51400450D01*
X83335162Y-51460961D01*
X83369464Y-51480000D01*
X84049999Y-51480000D01*
X84050000Y-51479999D01*
X84050000Y-49125856D01*
X86050000Y-49125856D01*
X86050000Y-51479999D01*
X86050001Y-51480000D01*
X86344999Y-51480000D01*
X86352399Y-51472600D01*
X86509057Y-51344863D01*
X86688220Y-51251276D01*
X86882556Y-51195669D01*
X87058799Y-51180000D01*
X89849999Y-51180000D01*
X89850000Y-51179999D01*
X89850000Y-48825856D01*
X89669457Y-48880624D01*
X89351741Y-49012226D01*
X89048471Y-49174327D01*
X88762545Y-49365377D01*
X88496704Y-49583548D01*
X88479306Y-49600946D01*
X88322646Y-49728681D01*
X88143481Y-49822266D01*
X87949145Y-49877869D01*
X87747594Y-49893215D01*
X87547080Y-49867675D01*
X87355811Y-49802294D01*
X87181619Y-49699750D01*
X87139176Y-49666789D01*
X87137464Y-49665384D01*
X87137459Y-49665381D01*
X86851528Y-49474327D01*
X86548258Y-49312226D01*
X86230542Y-49180624D01*
X86050000Y-49125856D01*
X84050000Y-49125856D01*
X83869457Y-49180624D01*
X83551741Y-49312226D01*
X83248471Y-49474327D01*
X82962546Y-49665376D01*
X82686220Y-49892152D01*
X82517796Y-50003919D01*
X82330322Y-50079494D01*
X82131472Y-50115785D01*
X81929388Y-50111304D01*
X81732342Y-50066236D01*
X81548401Y-49982425D01*
X81385097Y-49863303D01*
X81346061Y-49826314D01*
X81303292Y-49783545D01*
X81037454Y-49565377D01*
X80751528Y-49374327D01*
X80448258Y-49212226D01*
X80130542Y-49080624D01*
X79950000Y-49025856D01*
X79950000Y-51379999D01*
X77950000Y-51379999D01*
X77950000Y-49025856D01*
X77769457Y-49080624D01*
X77451741Y-49212226D01*
X77148471Y-49374327D01*
X76862545Y-49565377D01*
X76596699Y-49783551D01*
X76578532Y-49800018D01*
X76576738Y-49798038D01*
X76449742Y-49901590D01*
X76270579Y-49995177D01*
X76076243Y-50050784D01*
X75874693Y-50066132D01*
X75674178Y-50040595D01*
X75482909Y-49975217D01*
X75308715Y-49872675D01*
X75222610Y-49798757D01*
X75221468Y-49800018D01*
X75203300Y-49783551D01*
X74937454Y-49565377D01*
X74651528Y-49374327D01*
X74348258Y-49212226D01*
X74030542Y-49080624D01*
X73850000Y-49025856D01*
X71850000Y-49025856D01*
X71669457Y-49080624D01*
X71351741Y-49212226D01*
X71048471Y-49374327D01*
X70762545Y-49565377D01*
X70496699Y-49783551D01*
X70478532Y-49800018D01*
X70477449Y-49798823D01*
X70342329Y-49908993D01*
X70163162Y-50002575D01*
X69968825Y-50058175D01*
X69767273Y-50073517D01*
X69566760Y-50047973D01*
X69375492Y-49982588D01*
X69201302Y-49880041D01*
X69158856Y-49847076D01*
X68937459Y-49665380D01*
X68651528Y-49474327D01*
X68348258Y-49312226D01*
X68030542Y-49180624D01*
X67850000Y-49125856D01*
X65850000Y-49125856D01*
X65669457Y-49180624D01*
X65351741Y-49312226D01*
X65048471Y-49474327D01*
X64762540Y-49665381D01*
X64762539Y-49665381D01*
X64483759Y-49894171D01*
X64315336Y-50005938D01*
X64127862Y-50081514D01*
X63929012Y-50117805D01*
X63726927Y-50113324D01*
X63529881Y-50068256D01*
X63345941Y-49984445D01*
X63216241Y-49894171D01*
X62937460Y-49665381D01*
X62651528Y-49474327D01*
X62348258Y-49312226D01*
X62030542Y-49180624D01*
X61850000Y-49125856D01*
X59850000Y-49125856D01*
X59669457Y-49180624D01*
X59351741Y-49312226D01*
X59048471Y-49474327D01*
X58762545Y-49665377D01*
X58496705Y-49883547D01*
X58453932Y-49926320D01*
X58297273Y-50054055D01*
X58118109Y-50147641D01*
X57923773Y-50203246D01*
X57722222Y-50218593D01*
X57521708Y-50193054D01*
X57330439Y-50127675D01*
X57156246Y-50025131D01*
X57113778Y-49992151D01*
X56837454Y-49765377D01*
X56551528Y-49574327D01*
X56248258Y-49412226D01*
X55930542Y-49280624D01*
X55750000Y-49225856D01*
X53750000Y-49225856D01*
X53569457Y-49280624D01*
X53251741Y-49412226D01*
X52948471Y-49574327D01*
X52662540Y-49765381D01*
X52662539Y-49765381D01*
X52383759Y-49994171D01*
X52215336Y-50105938D01*
X52027862Y-50181514D01*
X51829012Y-50217805D01*
X51626927Y-50213324D01*
X51429881Y-50168256D01*
X51245941Y-50084445D01*
X51116241Y-49994171D01*
X50837460Y-49765381D01*
X50551528Y-49574327D01*
X50248258Y-49412226D01*
X49930542Y-49280624D01*
X49750000Y-49225856D01*
X47750000Y-49225856D01*
X47569457Y-49280624D01*
X47251741Y-49412226D01*
X46948471Y-49574327D01*
X46662545Y-49765377D01*
X46396707Y-49983545D01*
X46153545Y-50226707D01*
X45935377Y-50492545D01*
X45744327Y-50778471D01*
X45582224Y-51081744D01*
X45450622Y-51399461D01*
X45395857Y-51579999D01*
X42870587Y-51579999D01*
X42870587Y-37767290D01*
X42891037Y-37566193D01*
X42951548Y-37373329D01*
X43049644Y-37196593D01*
X43181309Y-37043222D01*
X43341152Y-36919494D01*
X43522629Y-36830476D01*
X43718311Y-36779810D01*
X43920186Y-36769572D01*
X44119989Y-36800181D01*
X44309541Y-36870383D01*
X44481081Y-36977305D01*
X44627586Y-37116569D01*
X44645348Y-37138446D01*
X44652714Y-37146846D01*
X44652718Y-37146851D01*
X44838149Y-37332282D01*
X44921564Y-37396289D01*
X45046196Y-37491924D01*
X45122728Y-37536109D01*
X45273303Y-37623043D01*
X45474009Y-37706178D01*
X45515578Y-37723397D01*
X45515579Y-37723397D01*
X45515581Y-37723398D01*
X45768884Y-37791270D01*
X46028880Y-37825500D01*
X46028881Y-37825500D01*
X46200500Y-37825500D01*
X46225748Y-37828067D01*
X46251099Y-37826782D01*
X46326113Y-37838273D01*
X46401597Y-37845950D01*
X46425811Y-37853547D01*
X46450902Y-37857391D01*
X46522065Y-37883746D01*
X46594461Y-37906461D01*
X46616650Y-37918777D01*
X46640454Y-37927593D01*
X46704852Y-37967732D01*
X46771197Y-38004557D01*
X46790455Y-38021089D01*
X46811994Y-38034515D01*
X46866989Y-38086792D01*
X46924568Y-38136222D01*
X46940105Y-38156294D01*
X46958499Y-38173779D01*
X47001843Y-38236052D01*
X47048296Y-38296065D01*
X47059474Y-38318853D01*
X47073972Y-38339683D01*
X47103896Y-38409415D01*
X47137314Y-38477542D01*
X47143675Y-38502110D01*
X47153685Y-38525436D01*
X47168959Y-38599762D01*
X47187980Y-38673224D01*
X47190290Y-38703560D01*
X47194374Y-38723433D01*
X47199500Y-38824500D01*
X47199500Y-40020460D01*
X47179050Y-40221557D01*
X47118539Y-40414421D01*
X47020443Y-40591157D01*
X46906905Y-40726853D01*
X46882584Y-40751175D01*
X46882580Y-40751179D01*
X46707479Y-40970748D01*
X46558053Y-41208558D01*
X46558051Y-41208561D01*
X46436202Y-41461584D01*
X46343439Y-41726685D01*
X46343436Y-41726697D01*
X46280944Y-42000492D01*
X46249501Y-42279558D01*
X46249500Y-42279580D01*
X46249500Y-42560419D01*
X46249501Y-42560441D01*
X46280944Y-42839507D01*
X46341059Y-43102887D01*
X46343440Y-43113318D01*
X46436199Y-43378408D01*
X46436201Y-43378412D01*
X46436202Y-43378415D01*
X46558051Y-43631438D01*
X46558053Y-43631441D01*
X46558055Y-43631445D01*
X46644643Y-43769248D01*
X46707479Y-43869251D01*
X46861606Y-44062520D01*
X46882584Y-44088825D01*
X47081175Y-44287416D01*
X47081179Y-44287419D01*
X47255659Y-44426563D01*
X47300752Y-44462523D01*
X47538555Y-44611945D01*
X47538560Y-44611947D01*
X47538561Y-44611948D01*
X47646999Y-44664169D01*
X47791592Y-44733801D01*
X48056682Y-44826560D01*
X48330491Y-44889055D01*
X48609575Y-44920500D01*
X48609581Y-44920500D01*
X48890419Y-44920500D01*
X48890425Y-44920500D01*
X49169509Y-44889055D01*
X49443318Y-44826560D01*
X49708408Y-44733801D01*
X49961445Y-44611945D01*
X50199248Y-44462523D01*
X50418825Y-44287416D01*
X50617416Y-44088825D01*
X50792523Y-43869248D01*
X50904126Y-43691632D01*
X51028428Y-43532243D01*
X51182275Y-43401135D01*
X51359364Y-43303679D01*
X51552446Y-43243866D01*
X51753616Y-43224145D01*
X51954638Y-43245322D01*
X52147282Y-43306531D01*
X52323661Y-43405267D01*
X52476555Y-43537486D01*
X52595873Y-43691631D01*
X52707477Y-43869248D01*
X52882584Y-44088825D01*
X53081175Y-44287416D01*
X53081179Y-44287419D01*
X53255659Y-44426563D01*
X53300752Y-44462523D01*
X53538555Y-44611945D01*
X53538560Y-44611947D01*
X53538561Y-44611948D01*
X53646999Y-44664169D01*
X53791592Y-44733801D01*
X54056682Y-44826560D01*
X54330491Y-44889055D01*
X54609575Y-44920500D01*
X54609581Y-44920500D01*
X54890419Y-44920500D01*
X54890425Y-44920500D01*
X55169509Y-44889055D01*
X55443318Y-44826560D01*
X55708408Y-44733801D01*
X55961445Y-44611945D01*
X56199248Y-44462523D01*
X56418825Y-44287416D01*
X56617416Y-44088825D01*
X56792523Y-43869248D01*
X56941945Y-43631445D01*
X56941951Y-43631430D01*
X56955228Y-43607410D01*
X57070400Y-43441296D01*
X57216652Y-43301766D01*
X57387998Y-43194533D01*
X57577422Y-43123987D01*
X57777170Y-43093016D01*
X57979063Y-43102887D01*
X58174836Y-43153197D01*
X58356474Y-43241887D01*
X58516542Y-43365324D01*
X58648484Y-43518456D01*
X58675454Y-43559136D01*
X58807478Y-43769250D01*
X58982580Y-43988820D01*
X58982584Y-43988825D01*
X59181175Y-44187416D01*
X59400752Y-44362523D01*
X59638555Y-44511945D01*
X59638560Y-44511947D01*
X59638561Y-44511948D01*
X59746999Y-44564169D01*
X59891592Y-44633801D01*
X60156682Y-44726560D01*
X60430491Y-44789055D01*
X60709575Y-44820500D01*
X60709581Y-44820500D01*
X60990419Y-44820500D01*
X60990425Y-44820500D01*
X61269509Y-44789055D01*
X61543318Y-44726560D01*
X61808408Y-44633801D01*
X62061445Y-44511945D01*
X62299248Y-44362523D01*
X62518825Y-44187416D01*
X62717416Y-43988825D01*
X62892523Y-43769248D01*
X63004126Y-43591632D01*
X63128428Y-43432243D01*
X63282275Y-43301135D01*
X63459364Y-43203679D01*
X63652446Y-43143866D01*
X63853616Y-43124145D01*
X64054638Y-43145322D01*
X64247282Y-43206531D01*
X64423661Y-43305267D01*
X64576555Y-43437486D01*
X64695873Y-43591631D01*
X64807477Y-43769248D01*
X64982584Y-43988825D01*
X65181175Y-44187416D01*
X65400752Y-44362523D01*
X65638555Y-44511945D01*
X65638560Y-44511947D01*
X65638561Y-44511948D01*
X65746999Y-44564169D01*
X65891592Y-44633801D01*
X66156682Y-44726560D01*
X66430491Y-44789055D01*
X66709575Y-44820500D01*
X66709581Y-44820500D01*
X66990419Y-44820500D01*
X66990425Y-44820500D01*
X67269509Y-44789055D01*
X67543318Y-44726560D01*
X67808408Y-44633801D01*
X68061445Y-44511945D01*
X68299248Y-44362523D01*
X68518825Y-44187416D01*
X68717416Y-43988825D01*
X68892523Y-43769248D01*
X69035541Y-43541636D01*
X69159845Y-43382244D01*
X69313692Y-43251135D01*
X69490781Y-43153679D01*
X69683863Y-43093866D01*
X69885033Y-43074145D01*
X70086055Y-43095322D01*
X70278699Y-43156531D01*
X70455078Y-43255266D01*
X70607972Y-43387485D01*
X70727291Y-43541633D01*
X70783721Y-43631441D01*
X70807479Y-43669251D01*
X70887224Y-43769248D01*
X70982584Y-43888825D01*
X71181175Y-44087416D01*
X71181179Y-44087419D01*
X71337330Y-44211946D01*
X71400752Y-44262523D01*
X71638555Y-44411945D01*
X71638560Y-44411947D01*
X71638561Y-44411948D01*
X71743575Y-44462520D01*
X71891592Y-44533801D01*
X72156682Y-44626560D01*
X72430491Y-44689055D01*
X72709575Y-44720500D01*
X72709581Y-44720500D01*
X72990419Y-44720500D01*
X72990425Y-44720500D01*
X73269509Y-44689055D01*
X73543318Y-44626560D01*
X73808408Y-44533801D01*
X74061445Y-44411945D01*
X74299248Y-44262523D01*
X74518825Y-44087416D01*
X74717416Y-43888825D01*
X74892523Y-43669248D01*
X75041945Y-43431445D01*
X75041946Y-43431440D01*
X75054123Y-43412063D01*
X75178429Y-43252669D01*
X75332276Y-43121560D01*
X75509365Y-43024105D01*
X75702447Y-42964292D01*
X75903617Y-42944571D01*
X76104639Y-42965748D01*
X76297283Y-43026958D01*
X76473662Y-43125693D01*
X76626555Y-43257912D01*
X76745877Y-43412063D01*
X76758053Y-43431441D01*
X76758055Y-43431445D01*
X76883721Y-43631441D01*
X76907479Y-43669251D01*
X76987224Y-43769248D01*
X77082584Y-43888825D01*
X77281175Y-44087416D01*
X77281179Y-44087419D01*
X77437330Y-44211946D01*
X77500752Y-44262523D01*
X77738555Y-44411945D01*
X77738560Y-44411947D01*
X77738561Y-44411948D01*
X77843575Y-44462520D01*
X77991592Y-44533801D01*
X78256682Y-44626560D01*
X78530491Y-44689055D01*
X78809575Y-44720500D01*
X78809581Y-44720500D01*
X79090419Y-44720500D01*
X79090425Y-44720500D01*
X79369509Y-44689055D01*
X79643318Y-44626560D01*
X79908408Y-44533801D01*
X80161445Y-44411945D01*
X80399248Y-44262523D01*
X80618825Y-44087416D01*
X80817416Y-43888825D01*
X80992523Y-43669248D01*
X81124546Y-43459134D01*
X81248849Y-43299745D01*
X81402695Y-43168637D01*
X81579785Y-43071181D01*
X81772867Y-43011368D01*
X81974037Y-42991647D01*
X82175059Y-43012824D01*
X82367703Y-43074033D01*
X82544082Y-43172769D01*
X82696975Y-43304988D01*
X82820123Y-43465278D01*
X82844763Y-43507396D01*
X82858049Y-43531435D01*
X82858054Y-43531443D01*
X82858055Y-43531445D01*
X82944643Y-43669248D01*
X83007479Y-43769251D01*
X83182580Y-43988820D01*
X83182584Y-43988825D01*
X83381175Y-44187416D01*
X83600752Y-44362523D01*
X83838555Y-44511945D01*
X83838560Y-44511947D01*
X83838561Y-44511948D01*
X83946999Y-44564169D01*
X84091592Y-44633801D01*
X84356682Y-44726560D01*
X84630491Y-44789055D01*
X84909575Y-44820500D01*
X84909581Y-44820500D01*
X85190419Y-44820500D01*
X85190425Y-44820500D01*
X85469509Y-44789055D01*
X85743318Y-44726560D01*
X86008408Y-44633801D01*
X86261445Y-44511945D01*
X86499248Y-44362523D01*
X86718825Y-44187416D01*
X86917416Y-43988825D01*
X87092523Y-43769248D01*
X87204641Y-43590812D01*
X87328941Y-43431426D01*
X87482787Y-43300317D01*
X87659876Y-43202861D01*
X87852958Y-43143047D01*
X88054128Y-43123326D01*
X88255150Y-43144503D01*
X88447794Y-43205711D01*
X88624174Y-43304446D01*
X88777067Y-43436665D01*
X88831561Y-43499450D01*
X88982577Y-43688817D01*
X88982580Y-43688820D01*
X88982584Y-43688825D01*
X89181175Y-43887416D01*
X89400752Y-44062523D01*
X89638555Y-44211945D01*
X89891592Y-44333801D01*
X90156682Y-44426560D01*
X90430491Y-44489055D01*
X90709575Y-44520500D01*
X90709581Y-44520500D01*
X90990419Y-44520500D01*
X90990425Y-44520500D01*
X91269509Y-44489055D01*
X91543318Y-44426560D01*
X91808408Y-44333801D01*
X92061445Y-44211945D01*
X92299248Y-44062523D01*
X92518825Y-43887416D01*
X92717416Y-43688825D01*
X92892523Y-43469248D01*
X93041945Y-43231445D01*
X93163801Y-42978408D01*
X93256560Y-42713318D01*
X93319055Y-42439509D01*
X93350500Y-42160425D01*
X93350500Y-41879575D01*
X93319055Y-41600491D01*
X93256560Y-41326682D01*
X93163801Y-41061592D01*
X93041945Y-40808555D01*
X92892523Y-40570752D01*
X92892517Y-40570744D01*
X92768450Y-40415168D01*
X92723491Y-40345311D01*
X92676028Y-40277120D01*
X92668873Y-40260448D01*
X92659056Y-40245194D01*
X92629077Y-40167713D01*
X92596315Y-40091367D01*
X92592663Y-40073597D01*
X92586117Y-40056678D01*
X92572347Y-39974737D01*
X92555626Y-39893370D01*
X92554308Y-39867392D01*
X92552619Y-39857339D01*
X92550500Y-39792303D01*
X92550500Y-38150064D01*
X92570950Y-37948967D01*
X92631461Y-37756103D01*
X92729557Y-37579367D01*
X92775251Y-37518764D01*
X92889698Y-37378407D01*
X92983909Y-37198049D01*
X93039886Y-37002418D01*
X93050500Y-36883037D01*
X93050499Y-33266964D01*
X93047921Y-33237965D01*
X93048802Y-33168393D01*
X93045278Y-33098901D01*
X93050079Y-33067559D01*
X93050481Y-33035854D01*
X93065350Y-32967877D01*
X93075887Y-32899098D01*
X93086899Y-32869363D01*
X93093675Y-32838388D01*
X93121921Y-32774800D01*
X93146089Y-32709546D01*
X93162863Y-32682634D01*
X93175734Y-32653660D01*
X93216201Y-32597061D01*
X93253011Y-32538006D01*
X93274857Y-32515023D01*
X93293299Y-32489231D01*
X93344336Y-32441932D01*
X93392275Y-32391501D01*
X93418297Y-32373388D01*
X93441556Y-32351834D01*
X93501071Y-32315776D01*
X93558179Y-32276028D01*
X93587316Y-32263524D01*
X93614437Y-32247093D01*
X93679992Y-32223753D01*
X93743932Y-32196315D01*
X93774987Y-32189932D01*
X93804862Y-32179297D01*
X93873781Y-32169630D01*
X93941929Y-32155626D01*
X93991587Y-32153107D01*
X94005037Y-32151221D01*
X94042996Y-32150500D01*
X95700459Y-32150500D01*
X95901556Y-32170950D01*
X96094420Y-32231461D01*
X96271156Y-32329557D01*
X96398085Y-32434434D01*
X96398126Y-32434474D01*
X96410225Y-32448944D01*
X96424527Y-32461222D01*
X96474831Y-32526209D01*
X96527787Y-32589542D01*
X96536759Y-32606213D01*
X96548255Y-32621065D01*
X96584315Y-32694579D01*
X96623579Y-32767537D01*
X96629031Y-32785741D01*
X96637273Y-32802542D01*
X96657725Y-32881534D01*
X96681580Y-32961171D01*
X96683458Y-32980920D01*
X96687939Y-32998224D01*
X96691174Y-33062028D01*
X96699500Y-33149540D01*
X96699500Y-39570460D01*
X96679050Y-39771557D01*
X96618539Y-39964421D01*
X96520443Y-40141157D01*
X96406905Y-40276853D01*
X96365410Y-40318349D01*
X96332580Y-40351179D01*
X96157479Y-40570748D01*
X96008053Y-40808558D01*
X96008051Y-40808561D01*
X95886202Y-41061584D01*
X95886199Y-41061590D01*
X95886199Y-41061592D01*
X95834773Y-41208558D01*
X95793439Y-41326685D01*
X95793436Y-41326697D01*
X95730944Y-41600492D01*
X95699501Y-41879558D01*
X95699500Y-41879580D01*
X95699500Y-42160419D01*
X95699501Y-42160441D01*
X95730944Y-42439507D01*
X95793436Y-42713302D01*
X95793440Y-42713318D01*
X95886199Y-42978408D01*
X95886201Y-42978412D01*
X95886202Y-42978415D01*
X96008051Y-43231438D01*
X96008053Y-43231441D01*
X96008055Y-43231445D01*
X96157477Y-43469248D01*
X96157479Y-43469251D01*
X96286819Y-43631438D01*
X96332584Y-43688825D01*
X96531175Y-43887416D01*
X96750752Y-44062523D01*
X96988555Y-44211945D01*
X97241592Y-44333801D01*
X97506682Y-44426560D01*
X97780491Y-44489055D01*
X98059575Y-44520500D01*
X98059581Y-44520500D01*
X98340419Y-44520500D01*
X98340425Y-44520500D01*
X98619509Y-44489055D01*
X98893318Y-44426560D01*
X99158408Y-44333801D01*
X99411445Y-44211945D01*
X99649248Y-44062523D01*
X99868825Y-43887416D01*
X100067416Y-43688825D01*
X100242523Y-43469248D01*
X100391945Y-43231445D01*
X100513801Y-42978408D01*
X100606560Y-42713318D01*
X100669055Y-42439509D01*
X100700500Y-42160425D01*
X100700500Y-41879575D01*
X100669055Y-41600491D01*
X100606560Y-41326682D01*
X100513801Y-41061592D01*
X100391945Y-40808555D01*
X100242523Y-40570752D01*
X100228034Y-40552584D01*
X100148287Y-40452584D01*
X100067416Y-40351175D01*
X99993095Y-40276854D01*
X99865363Y-40120202D01*
X99771776Y-39941039D01*
X99716169Y-39746703D01*
X99700500Y-39570460D01*
X99700500Y-33557406D01*
X99720950Y-33356309D01*
X99781461Y-33163445D01*
X99879557Y-32986709D01*
X100011222Y-32833338D01*
X100171065Y-32709610D01*
X100352542Y-32620592D01*
X100548224Y-32569926D01*
X100750099Y-32559688D01*
X100949902Y-32590297D01*
X101139454Y-32660499D01*
X101230996Y-32711526D01*
X101438555Y-32841945D01*
X101438560Y-32841947D01*
X101438561Y-32841948D01*
X101546999Y-32894169D01*
X101691592Y-32963801D01*
X101956682Y-33056560D01*
X102230491Y-33119055D01*
X102509575Y-33150500D01*
X102509581Y-33150500D01*
X102790419Y-33150500D01*
X102790425Y-33150500D01*
X103069509Y-33119055D01*
X103343318Y-33056560D01*
X103608408Y-32963801D01*
X103861445Y-32841945D01*
X104099248Y-32692523D01*
X104318825Y-32517416D01*
X104517416Y-32318825D01*
X104692523Y-32099248D01*
X104841945Y-31861445D01*
X104963801Y-31608408D01*
X105056560Y-31343318D01*
X105119055Y-31069509D01*
X105150500Y-30790425D01*
X105150500Y-30509575D01*
X105119055Y-30230491D01*
X105056560Y-29956682D01*
X104963801Y-29691592D01*
X104841945Y-29438555D01*
X104692523Y-29200752D01*
X104517416Y-28981175D01*
X104443095Y-28906854D01*
X104419062Y-28877380D01*
X104391501Y-28851181D01*
X104355354Y-28799247D01*
X104315363Y-28750202D01*
X104297754Y-28716491D01*
X104276028Y-28685277D01*
X104251073Y-28627125D01*
X104221776Y-28571039D01*
X104211313Y-28534474D01*
X104196315Y-28499524D01*
X104183577Y-28437543D01*
X104166169Y-28376703D01*
X104162428Y-28334627D01*
X104155626Y-28301527D01*
X104150500Y-28200460D01*
X104150500Y-26599540D01*
X104170950Y-26398443D01*
X104231461Y-26205579D01*
X104329557Y-26028843D01*
X104443094Y-25893146D01*
X104517416Y-25818825D01*
X104635671Y-25670537D01*
X104777038Y-25526067D01*
X104944597Y-25413008D01*
X105131484Y-25335992D01*
X105330049Y-25298174D01*
X105532162Y-25301100D01*
X105729549Y-25344651D01*
X105914128Y-25427045D01*
X106078344Y-25544907D01*
X106215472Y-25693413D01*
X106262594Y-25761904D01*
X106279461Y-25788748D01*
X106279464Y-25788753D01*
X106489544Y-26052184D01*
X106727815Y-26290455D01*
X106991246Y-26500535D01*
X106991258Y-26500543D01*
X107276553Y-26679804D01*
X107276557Y-26679806D01*
X107580145Y-26826007D01*
X107729999Y-26878443D01*
X107730000Y-26878443D01*
X107730000Y-25647859D01*
X107734273Y-25605839D01*
X107733559Y-25563605D01*
X107744473Y-25505533D01*
X107750450Y-25446762D01*
X107763093Y-25406465D01*
X107770896Y-25364949D01*
X107793275Y-25310266D01*
X107810961Y-25253898D01*
X107831458Y-25216967D01*
X107847458Y-25177875D01*
X107880384Y-25128820D01*
X107909057Y-25077162D01*
X107936570Y-25045112D01*
X107960110Y-25010043D01*
X108002237Y-24968619D01*
X108040722Y-24923791D01*
X108074121Y-24897937D01*
X108104241Y-24868322D01*
X108153844Y-24836227D01*
X108200565Y-24800063D01*
X108238488Y-24781460D01*
X108273949Y-24758517D01*
X108328998Y-24737063D01*
X108382042Y-24711045D01*
X108422928Y-24700458D01*
X108462288Y-24685120D01*
X108520532Y-24675187D01*
X108577724Y-24660379D01*
X108619908Y-24658239D01*
X108661545Y-24651139D01*
X108720591Y-24653133D01*
X108779599Y-24650141D01*
X108821349Y-24656537D01*
X108863564Y-24657963D01*
X108921003Y-24671803D01*
X108979402Y-24680750D01*
X109019010Y-24695419D01*
X109060074Y-24705314D01*
X109113547Y-24730431D01*
X109168954Y-24750952D01*
X109204802Y-24773296D01*
X109243030Y-24791253D01*
X109290351Y-24826619D01*
X109340494Y-24857874D01*
X109371109Y-24886975D01*
X109404941Y-24912261D01*
X109444178Y-24956433D01*
X109486999Y-24997138D01*
X109513290Y-25034238D01*
X109539180Y-25063385D01*
X109594153Y-25148348D01*
X109596153Y-25151812D01*
X109678994Y-25336191D01*
X109723024Y-25533472D01*
X109730000Y-25651323D01*
X109730000Y-26878443D01*
X109879854Y-26826007D01*
X110183442Y-26679806D01*
X110183446Y-26679804D01*
X110468741Y-26500543D01*
X110468753Y-26500535D01*
X110754103Y-26272976D01*
X110756236Y-26275651D01*
X110879885Y-26185875D01*
X111064011Y-26102472D01*
X111148097Y-26078277D01*
X111263418Y-26050500D01*
X111401120Y-26050500D01*
X111661116Y-26016270D01*
X111914419Y-25948398D01*
X112156697Y-25848043D01*
X112194456Y-25826242D01*
X112306064Y-25799360D01*
X112329069Y-25796234D01*
X112351313Y-25789564D01*
X112429046Y-25782652D01*
X112506358Y-25772150D01*
X112529521Y-25773719D01*
X112552653Y-25771663D01*
X112630189Y-25780541D01*
X112708030Y-25785816D01*
X112730403Y-25792016D01*
X112753475Y-25794658D01*
X112855913Y-25826798D01*
X112902823Y-25839798D01*
X112911499Y-25844238D01*
X112922303Y-25847628D01*
X112923298Y-25848040D01*
X112923303Y-25848043D01*
X113165581Y-25948398D01*
X113418884Y-26016270D01*
X113678880Y-26050500D01*
X113678881Y-26050500D01*
X113941119Y-26050500D01*
X113941120Y-26050500D01*
X114201116Y-26016270D01*
X114393198Y-25964801D01*
X114592735Y-25932507D01*
X114794689Y-25941040D01*
X114927054Y-25974121D01*
X114928242Y-25969972D01*
X115043278Y-26002887D01*
X115172582Y-26039886D01*
X115291963Y-26050500D01*
X117408036Y-26050499D01*
X117527418Y-26039886D01*
X117723049Y-25983909D01*
X117903407Y-25889698D01*
X118061109Y-25761109D01*
X118189698Y-25603407D01*
X118283909Y-25423049D01*
X118339886Y-25227418D01*
X118350500Y-25108037D01*
X118350499Y-21491964D01*
X118339886Y-21372582D01*
X118283909Y-21176951D01*
X118189698Y-20996593D01*
X118189696Y-20996591D01*
X118189695Y-20996588D01*
X118061115Y-20838898D01*
X118061113Y-20838896D01*
X118061109Y-20838891D01*
X118061103Y-20838886D01*
X118061101Y-20838884D01*
X117903411Y-20710304D01*
X117870475Y-20693100D01*
X117723049Y-20616091D01*
X117723044Y-20616089D01*
X117723043Y-20616089D01*
X117527419Y-20560114D01*
X117503541Y-20557991D01*
X117408037Y-20549500D01*
X117408033Y-20549500D01*
X115291972Y-20549500D01*
X115291963Y-20549501D01*
X115172579Y-20560114D01*
X115010923Y-20606370D01*
X114811959Y-20642030D01*
X114609890Y-20636909D01*
X114412987Y-20591216D01*
X114229314Y-20506823D01*
X114066388Y-20387184D01*
X113930881Y-20237197D01*
X113828339Y-20063004D01*
X113762961Y-19871734D01*
X113743386Y-19757776D01*
X113739055Y-19719329D01*
X113676560Y-19445520D01*
X113583801Y-19180430D01*
X113461945Y-18927393D01*
X113312523Y-18689590D01*
X113137416Y-18470013D01*
X110699987Y-16032584D01*
X110480410Y-15857477D01*
X110242607Y-15708055D01*
X110242603Y-15708053D01*
X110242600Y-15708051D01*
X109989577Y-15586202D01*
X109989574Y-15586201D01*
X109989570Y-15586199D01*
X109724480Y-15493440D01*
X109724476Y-15493439D01*
X109724464Y-15493436D01*
X109450669Y-15430944D01*
X109450670Y-15430944D01*
X109171603Y-15399501D01*
X109171591Y-15399500D01*
X109171587Y-15399500D01*
X45140425Y-15399500D01*
X44859575Y-15399500D01*
X44859571Y-15399500D01*
X44859558Y-15399501D01*
X44580492Y-15430944D01*
X44306697Y-15493436D01*
X44306685Y-15493439D01*
X44306682Y-15493439D01*
X44306682Y-15493440D01*
X44041592Y-15586199D01*
X44041590Y-15586199D01*
X44041584Y-15586202D01*
X43788561Y-15708051D01*
X43788558Y-15708053D01*
X43550748Y-15857479D01*
X43331179Y-16032580D01*
X23332595Y-36031164D01*
X23332594Y-36031163D01*
X23134007Y-36229750D01*
X23134002Y-36229757D01*
X22958899Y-36449328D01*
X22809473Y-36687138D01*
X22809471Y-36687141D01*
X22687620Y-36940168D01*
X22687617Y-36940176D01*
X22592071Y-37213231D01*
X22506351Y-37396289D01*
X22385536Y-37558345D01*
X22234573Y-37692764D01*
X22059641Y-37794042D01*
X21867903Y-37858033D01*
X21667209Y-37882118D01*
X21465775Y-37865311D01*
X21271847Y-37808299D01*
X21093366Y-37713417D01*
X20937637Y-37584549D01*
X20811037Y-37426972D01*
X20718749Y-37247135D01*
X20664551Y-37052402D01*
X20650132Y-36883278D01*
X20650315Y-24929754D01*
X20650490Y-24911289D01*
X20873925Y-13080634D01*
X20898168Y-12879961D01*
X20962311Y-12688274D01*
X21063727Y-12513422D01*
X21198264Y-12362564D01*
X21360415Y-12241877D01*
X21543541Y-12156301D01*
X21740144Y-12109340D01*
X21872747Y-12100500D01*
X271010353Y-12100500D01*
X271211450Y-12120950D01*
G37*
%TD.AperFunction*%
%TA.AperFunction,Conductor*%
G36*
X92486770Y-20420950D02*
G01*
X92679634Y-20481461D01*
X92856370Y-20579557D01*
X93009741Y-20711222D01*
X93133469Y-20871065D01*
X93222487Y-21052542D01*
X93273153Y-21248224D01*
X93283391Y-21450099D01*
X93252782Y-21649902D01*
X93182580Y-21839454D01*
X93075658Y-22010994D01*
X92992073Y-22105900D01*
X88242073Y-26855900D01*
X88085415Y-26983637D01*
X87906252Y-27077224D01*
X87711916Y-27132831D01*
X87535673Y-27148500D01*
X45202901Y-27148500D01*
X44969630Y-27185446D01*
X44969626Y-27185447D01*
X44745006Y-27258431D01*
X44745004Y-27258432D01*
X44534567Y-27365656D01*
X44343491Y-27504482D01*
X38224569Y-33623404D01*
X38085744Y-33814478D01*
X38085740Y-33814484D01*
X38008442Y-33966194D01*
X38008437Y-33966204D01*
X37978519Y-34024920D01*
X37905533Y-34249544D01*
X37868587Y-34482814D01*
X37868587Y-88549011D01*
X37905533Y-88782282D01*
X37905534Y-88782286D01*
X37978518Y-89006906D01*
X37978519Y-89006908D01*
X38054021Y-89155087D01*
X38085744Y-89217347D01*
X38224570Y-89408423D01*
X38224572Y-89408425D01*
X65559963Y-116743818D01*
X65559964Y-116743819D01*
X65751034Y-116882639D01*
X65751043Y-116882645D01*
X65961474Y-116989865D01*
X65961477Y-116989866D01*
X65961481Y-116989868D01*
X66011851Y-117006234D01*
X66186099Y-117062852D01*
X66186103Y-117062853D01*
X66419374Y-117099799D01*
X66419375Y-117099799D01*
X66419381Y-117099800D01*
X66419386Y-117099800D01*
X127219507Y-117099800D01*
X127219512Y-117099800D01*
X127275234Y-117090974D01*
X127452789Y-117062853D01*
X127452793Y-117062852D01*
X127677413Y-116989868D01*
X127677415Y-116989867D01*
X127749287Y-116953245D01*
X127887854Y-116882643D01*
X128078930Y-116743817D01*
X129557380Y-115265367D01*
X129696206Y-115074291D01*
X129803431Y-114863850D01*
X129831940Y-114776107D01*
X129876416Y-114639225D01*
X129913363Y-114405949D01*
X129913363Y-113618019D01*
X129960054Y-113230976D01*
X129969131Y-113190648D01*
X129973313Y-113149526D01*
X129991269Y-113092295D01*
X130004441Y-113033776D01*
X130021449Y-112996101D01*
X130033824Y-112956662D01*
X130086710Y-112851112D01*
X130087710Y-112849380D01*
X130205971Y-112685451D01*
X130354809Y-112548683D01*
X130528132Y-112444676D01*
X130718843Y-112377688D01*
X130919135Y-112350461D01*
X131120808Y-112364109D01*
X131315606Y-112418075D01*
X131495552Y-112510148D01*
X131653281Y-112636560D01*
X131782335Y-112792134D01*
X131818016Y-112849380D01*
X131819016Y-112851112D01*
X131858069Y-112938032D01*
X131877113Y-112973909D01*
X131882612Y-112992658D01*
X131901857Y-113035491D01*
X131923118Y-113130756D01*
X131934005Y-113167871D01*
X131935540Y-113186414D01*
X131945887Y-113232772D01*
X131952863Y-113350623D01*
X131952863Y-114577743D01*
X132102717Y-114525307D01*
X132406305Y-114379106D01*
X132406309Y-114379104D01*
X132691604Y-114199843D01*
X132691616Y-114199835D01*
X132976966Y-113972276D01*
X132979099Y-113974951D01*
X133102748Y-113885175D01*
X133286874Y-113801772D01*
X133370960Y-113777577D01*
X133486281Y-113749800D01*
X133623983Y-113749800D01*
X133883979Y-113715570D01*
X134137282Y-113647698D01*
X134379560Y-113547343D01*
X134417319Y-113525542D01*
X134528927Y-113498660D01*
X134551932Y-113495534D01*
X134574176Y-113488864D01*
X134651909Y-113481952D01*
X134729221Y-113471450D01*
X134752384Y-113473019D01*
X134775516Y-113470963D01*
X134853052Y-113479841D01*
X134930893Y-113485116D01*
X134953266Y-113491316D01*
X134976338Y-113493958D01*
X135078776Y-113526098D01*
X135125686Y-113539098D01*
X135134362Y-113543538D01*
X135145166Y-113546928D01*
X135146161Y-113547340D01*
X135146166Y-113547343D01*
X135388444Y-113647698D01*
X135641747Y-113715570D01*
X135901743Y-113749800D01*
X135901744Y-113749800D01*
X136163982Y-113749800D01*
X136163983Y-113749800D01*
X136423979Y-113715570D01*
X136677282Y-113647698D01*
X136919560Y-113547343D01*
X136919564Y-113547340D01*
X136920560Y-113546928D01*
X137114176Y-113488864D01*
X137315516Y-113470963D01*
X137516338Y-113493958D01*
X137685166Y-113546928D01*
X137686161Y-113547340D01*
X137686166Y-113547343D01*
X137928444Y-113647698D01*
X138181747Y-113715570D01*
X138441743Y-113749800D01*
X138441744Y-113749800D01*
X138703982Y-113749800D01*
X138703983Y-113749800D01*
X138963979Y-113715570D01*
X139217282Y-113647698D01*
X139459560Y-113547343D01*
X139459564Y-113547340D01*
X139460560Y-113546928D01*
X139654176Y-113488864D01*
X139855516Y-113470963D01*
X140056338Y-113493958D01*
X140225166Y-113546928D01*
X140226161Y-113547340D01*
X140226166Y-113547343D01*
X140468444Y-113647698D01*
X140721747Y-113715570D01*
X140981743Y-113749800D01*
X140981744Y-113749800D01*
X141243982Y-113749800D01*
X141243983Y-113749800D01*
X141503979Y-113715570D01*
X141757282Y-113647698D01*
X141999560Y-113547343D01*
X141999564Y-113547340D01*
X142000560Y-113546928D01*
X142194176Y-113488864D01*
X142395516Y-113470963D01*
X142596338Y-113493958D01*
X142765166Y-113546928D01*
X142766161Y-113547340D01*
X142766166Y-113547343D01*
X143008444Y-113647698D01*
X143261747Y-113715570D01*
X143521743Y-113749800D01*
X143521744Y-113749800D01*
X143783982Y-113749800D01*
X143783983Y-113749800D01*
X144043979Y-113715570D01*
X144297282Y-113647698D01*
X144539560Y-113547343D01*
X144539564Y-113547340D01*
X144540560Y-113546928D01*
X144734176Y-113488864D01*
X144935516Y-113470963D01*
X145136338Y-113493958D01*
X145305166Y-113546928D01*
X145306161Y-113547340D01*
X145306166Y-113547343D01*
X145548444Y-113647698D01*
X145801747Y-113715570D01*
X146061743Y-113749800D01*
X146061744Y-113749800D01*
X146323982Y-113749800D01*
X146323983Y-113749800D01*
X146583979Y-113715570D01*
X146837282Y-113647698D01*
X147079560Y-113547343D01*
X147079564Y-113547340D01*
X147080560Y-113546928D01*
X147274176Y-113488864D01*
X147475516Y-113470963D01*
X147676338Y-113493958D01*
X147845166Y-113546928D01*
X147846161Y-113547340D01*
X147846166Y-113547343D01*
X148088444Y-113647698D01*
X148341747Y-113715570D01*
X148601743Y-113749800D01*
X148601744Y-113749800D01*
X148863982Y-113749800D01*
X148863983Y-113749800D01*
X149123979Y-113715570D01*
X149377282Y-113647698D01*
X149619560Y-113547343D01*
X149619564Y-113547340D01*
X149620560Y-113546928D01*
X149814176Y-113488864D01*
X150015516Y-113470963D01*
X150216338Y-113493958D01*
X150385166Y-113546928D01*
X150386161Y-113547340D01*
X150386166Y-113547343D01*
X150628444Y-113647698D01*
X150881747Y-113715570D01*
X151141743Y-113749800D01*
X151141744Y-113749800D01*
X151403982Y-113749800D01*
X151403983Y-113749800D01*
X151663979Y-113715570D01*
X151917282Y-113647698D01*
X152159560Y-113547343D01*
X152159564Y-113547340D01*
X152160560Y-113546928D01*
X152354176Y-113488864D01*
X152555516Y-113470963D01*
X152756338Y-113493958D01*
X152925166Y-113546928D01*
X152926161Y-113547340D01*
X152926166Y-113547343D01*
X153168444Y-113647698D01*
X153421747Y-113715570D01*
X153681743Y-113749800D01*
X153681744Y-113749800D01*
X153943982Y-113749800D01*
X153943983Y-113749800D01*
X154203979Y-113715570D01*
X154457282Y-113647698D01*
X154699560Y-113547343D01*
X154699564Y-113547340D01*
X154700560Y-113546928D01*
X154894176Y-113488864D01*
X155095516Y-113470963D01*
X155296338Y-113493958D01*
X155465166Y-113546928D01*
X155466161Y-113547340D01*
X155466166Y-113547343D01*
X155708444Y-113647698D01*
X155961747Y-113715570D01*
X156221743Y-113749800D01*
X156221744Y-113749800D01*
X156483982Y-113749800D01*
X156483983Y-113749800D01*
X156743979Y-113715570D01*
X156997282Y-113647698D01*
X157239560Y-113547343D01*
X157239564Y-113547340D01*
X157240560Y-113546928D01*
X157434176Y-113488864D01*
X157635516Y-113470963D01*
X157836338Y-113493958D01*
X158005166Y-113546928D01*
X158006161Y-113547340D01*
X158006166Y-113547343D01*
X158248444Y-113647698D01*
X158501747Y-113715570D01*
X158761743Y-113749800D01*
X158761744Y-113749800D01*
X159023982Y-113749800D01*
X159023983Y-113749800D01*
X159283979Y-113715570D01*
X159537282Y-113647698D01*
X159779560Y-113547343D01*
X159779564Y-113547340D01*
X159780560Y-113546928D01*
X159974176Y-113488864D01*
X160175516Y-113470963D01*
X160376338Y-113493958D01*
X160545166Y-113546928D01*
X160546161Y-113547340D01*
X160546166Y-113547343D01*
X160788444Y-113647698D01*
X161041747Y-113715570D01*
X161301743Y-113749800D01*
X161301744Y-113749800D01*
X161563982Y-113749800D01*
X161563983Y-113749800D01*
X161823979Y-113715570D01*
X162077282Y-113647698D01*
X162319560Y-113547343D01*
X162319564Y-113547340D01*
X162320560Y-113546928D01*
X162356984Y-113536004D01*
X162391740Y-113520565D01*
X162453563Y-113507041D01*
X162514176Y-113488864D01*
X162552057Y-113485496D01*
X162589205Y-113477370D01*
X162652478Y-113476567D01*
X162715516Y-113470963D01*
X162753297Y-113475289D01*
X162791323Y-113474807D01*
X162853468Y-113486759D01*
X162916338Y-113493958D01*
X162956632Y-113506600D01*
X162989820Y-113512983D01*
X163085156Y-113546924D01*
X163086161Y-113547340D01*
X163086166Y-113547343D01*
X163103327Y-113554451D01*
X163281285Y-113650296D01*
X163436313Y-113780006D01*
X163562057Y-113938268D01*
X163653369Y-114118602D01*
X163706511Y-114313625D01*
X163719307Y-114515354D01*
X163691233Y-114715529D01*
X163623440Y-114905956D01*
X163518701Y-115078838D01*
X163427428Y-115183807D01*
X145444137Y-133167101D01*
X145444130Y-133167109D01*
X145379203Y-133251723D01*
X145379193Y-133251737D01*
X145357876Y-133279519D01*
X145284496Y-133375149D01*
X145210022Y-133504143D01*
X145155981Y-133597746D01*
X145153375Y-133602259D01*
X145053019Y-133844540D01*
X145053019Y-133844541D01*
X144985148Y-134097837D01*
X144985147Y-134097839D01*
X144970318Y-134210479D01*
X144970319Y-134210480D01*
X144950920Y-134357833D01*
X144950920Y-143043137D01*
X144930470Y-143244234D01*
X144869959Y-143437098D01*
X144771863Y-143613834D01*
X144658320Y-143749537D01*
X142536655Y-145871202D01*
X142379997Y-145998939D01*
X142200834Y-146092526D01*
X142006498Y-146148133D01*
X141830255Y-146163802D01*
X64852741Y-146163802D01*
X64722743Y-146180917D01*
X64676284Y-146187033D01*
X64592749Y-146198030D01*
X64592745Y-146198030D01*
X64592745Y-146198031D01*
X64538381Y-146212598D01*
X64339447Y-146265902D01*
X64339442Y-146265903D01*
X64339442Y-146265904D01*
X64097164Y-146366259D01*
X64097159Y-146366261D01*
X64097156Y-146366263D01*
X63870062Y-146497375D01*
X63870057Y-146497378D01*
X63779729Y-146566690D01*
X63779728Y-146566689D01*
X63662010Y-146657018D01*
X63662008Y-146657020D01*
X61899815Y-148419212D01*
X61743158Y-148546949D01*
X61563994Y-148640537D01*
X61369659Y-148696143D01*
X61168108Y-148711491D01*
X60967593Y-148685954D01*
X60776324Y-148620576D01*
X60602130Y-148518034D01*
X60487017Y-148419212D01*
X58899691Y-146831887D01*
X58899688Y-146831884D01*
X58680416Y-146657020D01*
X58680114Y-146656779D01*
X58595563Y-146603652D01*
X58442308Y-146507355D01*
X58442304Y-146507353D01*
X58442301Y-146507351D01*
X58189278Y-146385502D01*
X58189275Y-146385501D01*
X58189271Y-146385499D01*
X57924181Y-146292740D01*
X57924177Y-146292739D01*
X57924165Y-146292736D01*
X57650370Y-146230244D01*
X57650371Y-146230244D01*
X57371304Y-146198801D01*
X57371292Y-146198800D01*
X57371288Y-146198800D01*
X57371282Y-146198800D01*
X31250961Y-146198800D01*
X31049864Y-146178350D01*
X30857000Y-146117839D01*
X30680264Y-146019743D01*
X30544561Y-145906200D01*
X27794520Y-143156159D01*
X27666783Y-142999501D01*
X27573196Y-142820338D01*
X27517589Y-142626002D01*
X27501920Y-142449759D01*
X27501920Y-39348121D01*
X27522370Y-39147024D01*
X27582881Y-38954160D01*
X27680977Y-38777424D01*
X27794520Y-38641721D01*
X45743141Y-20693100D01*
X45899799Y-20565363D01*
X46078962Y-20471776D01*
X46273298Y-20416169D01*
X46449541Y-20400500D01*
X92285673Y-20400500D01*
X92486770Y-20420950D01*
G37*
%TD.AperFunction*%
%TA.AperFunction,Conductor*%
G36*
X96699514Y-108828250D02*
G01*
X96892378Y-108888761D01*
X97069114Y-108986857D01*
X97222485Y-109118522D01*
X97346213Y-109278365D01*
X97435231Y-109459842D01*
X97485897Y-109655524D01*
X97496135Y-109857399D01*
X97491136Y-109918651D01*
X97482049Y-109999300D01*
X99473863Y-109999300D01*
X99499111Y-110001867D01*
X99524462Y-110000582D01*
X99599476Y-110012073D01*
X99674960Y-110019750D01*
X99699174Y-110027347D01*
X99724265Y-110031191D01*
X99795428Y-110057546D01*
X99867824Y-110080261D01*
X99890013Y-110092577D01*
X99913817Y-110101393D01*
X99978215Y-110141532D01*
X100044560Y-110178357D01*
X100063818Y-110194889D01*
X100085357Y-110208315D01*
X100140352Y-110260592D01*
X100197931Y-110310022D01*
X100213468Y-110330094D01*
X100231862Y-110347579D01*
X100275206Y-110409852D01*
X100321659Y-110469865D01*
X100332837Y-110492653D01*
X100347335Y-110513483D01*
X100348033Y-110515110D01*
X100279870Y-110533375D01*
X100165856Y-110599201D01*
X100072764Y-110692293D01*
X100006938Y-110806307D01*
X99972863Y-110933474D01*
X99972863Y-111065126D01*
X100006938Y-111192293D01*
X100072764Y-111306307D01*
X100165856Y-111399399D01*
X100279870Y-111465225D01*
X100343108Y-111482170D01*
X100293806Y-111570997D01*
X100162141Y-111724368D01*
X100002298Y-111848096D01*
X99820821Y-111937114D01*
X99625139Y-111987780D01*
X99473863Y-111999300D01*
X97482050Y-111999300D01*
X97510591Y-112252614D01*
X97585568Y-112581112D01*
X97585568Y-112581113D01*
X97651611Y-112769852D01*
X97698727Y-112966419D01*
X97705310Y-113168446D01*
X97671090Y-113367663D01*
X97597469Y-113555913D01*
X97487460Y-113725490D01*
X97345568Y-113869451D01*
X97177601Y-113981903D01*
X96990436Y-114058241D01*
X96791736Y-114095341D01*
X96708671Y-114098800D01*
X67572801Y-114098800D01*
X67371704Y-114078350D01*
X67178840Y-114017839D01*
X67002104Y-113919743D01*
X66866401Y-113806200D01*
X63573401Y-110513200D01*
X63445664Y-110356542D01*
X63352077Y-110177379D01*
X63296470Y-109983043D01*
X63281122Y-109781493D01*
X63306659Y-109580978D01*
X63372037Y-109389709D01*
X63474579Y-109215515D01*
X63610087Y-109065528D01*
X63773013Y-108945890D01*
X63956686Y-108861497D01*
X64153589Y-108815805D01*
X64279801Y-108807800D01*
X96498417Y-108807800D01*
X96699514Y-108828250D01*
G37*
%TD.AperFunction*%
%TD*%
D22*
X220047863Y-152699300D02*
X220047863Y-162199300D01*
X20147863Y-152599300D02*
X20150020Y-11600000D01*
X58147863Y-152599300D02*
X58147863Y-162199300D01*
X58147863Y-162199300D02*
X220047863Y-162199300D01*
X220047863Y-162199300D02*
X220047863Y-152699300D01*
X58147863Y-152599300D02*
X20147863Y-152599300D01*
X220047863Y-152699300D02*
X273147863Y-152599300D01*
X273147863Y-152599300D02*
X273100000Y-11600000D01*
X20200000Y-11600000D02*
X273100000Y-11600000D01*
X58147863Y-152599300D02*
X58147863Y-162199300D01*
M02*
