%TF.GenerationSoftware,KiCad,Pcbnew,9.0.0*%
%TF.CreationDate,2025-06-17T12:42:55-03:00*%
%TF.ProjectId,ram_tester,72616d5f-7465-4737-9465-722e6b696361,rev?*%
%TF.SameCoordinates,Original*%
%TF.FileFunction,Copper,L1,Top*%
%TF.FilePolarity,Positive*%
%FSLAX46Y46*%
G04 Gerber Fmt 4.6, Leading zero omitted, Abs format (unit mm)*
G04 Created by KiCad (PCBNEW 9.0.0) date 2025-06-17 12:42:55*
%MOMM*%
%LPD*%
G01*
G04 APERTURE LIST*
%TA.AperFunction,ComponentPad*%
%ADD10C,3.000000*%
%TD*%
%TA.AperFunction,ComponentPad*%
%ADD11O,3.000000X3.000000*%
%TD*%
%TA.AperFunction,ComponentPad*%
%ADD12O,2.000000X3.500000*%
%TD*%
%TA.AperFunction,ComponentPad*%
%ADD13R,2.000000X3.500000*%
%TD*%
%TA.AperFunction,ConnectorPad*%
%ADD14R,2.794000X8.382000*%
%TD*%
%TA.AperFunction,ConnectorPad*%
%ADD15R,1.778000X8.382000*%
%TD*%
%TA.AperFunction,ViaPad*%
%ADD16C,3.001000*%
%TD*%
%TA.AperFunction,ViaPad*%
%ADD17C,2.500000*%
%TD*%
%TA.AperFunction,Conductor*%
%ADD18C,1.000000*%
%TD*%
%TA.AperFunction,Profile*%
%ADD19C,0.050000*%
%TD*%
G04 APERTURE END LIST*
D10*
%TO.P,R9,1*%
%TO.N,GND*%
X98200000Y-52180000D03*
D11*
%TO.P,R9,2*%
%TO.N,Net-(U1A-36{slash}A8)*%
X98200000Y-42020000D03*
%TD*%
D12*
%TO.P,U1,3,3.3V*%
%TO.N,+3.3V*%
X164022863Y-87999300D03*
%TO.P,U1,4,0*%
%TO.N,Net-(U1A-0)*%
X161482863Y-87999300D03*
%TO.P,U1,14,10*%
%TO.N,Net-(U1A-10)*%
X136082863Y-87999300D03*
%TO.P,U1,18,14*%
%TO.N,Net-(U1A-14)*%
X125922863Y-87999300D03*
%TO.P,U1,19,15*%
%TO.N,Net-(U1A-15)*%
X123382863Y-87999300D03*
%TO.P,U1,11,7*%
%TO.N,Net-(U1A-7)*%
X143702863Y-87999300D03*
%TO.P,U1,16,12*%
%TO.N,Net-(U1A-12)*%
X131002863Y-87999300D03*
%TO.P,U1,6,2*%
%TO.N,Net-(U1A-2)*%
X156402863Y-87999300D03*
%TO.P,U1,10,6*%
%TO.N,Net-(U1A-6)*%
X146242863Y-87999300D03*
%TO.P,U1,5,1*%
%TO.N,Net-(U1A-1)*%
X158942863Y-87999300D03*
%TO.P,U1,17,13*%
%TO.N,Net-(U1A-13)*%
X128462863Y-87999300D03*
%TO.P,U1,28,GND*%
%TO.N,GND*%
X100522863Y-87999300D03*
%TO.P,U1,9,5*%
%TO.N,Net-(U1A-5)*%
X148782863Y-87999300D03*
%TO.P,U1,13,9*%
%TO.N,Net-(U1A-9)*%
X138622863Y-87999300D03*
%TO.P,U1,12,8*%
%TO.N,Net-(U1A-8)*%
X141162863Y-87999300D03*
%TO.P,U1,8,4*%
%TO.N,Net-(U1A-4)*%
X151322863Y-87999300D03*
%TO.P,U1,7,3*%
%TO.N,Net-(U1A-3)*%
X153862863Y-87999300D03*
%TO.P,U1,15,11*%
%TO.N,Net-(U1A-11)*%
X133542863Y-87999300D03*
%TO.P,U1,21,17*%
%TO.N,Net-(U1A-17)*%
X118302863Y-87999300D03*
%TO.P,U1,25,21*%
%TO.N,Net-(U1A-21)*%
X108142863Y-87999300D03*
%TO.P,U1,22,18*%
%TO.N,Net-(U1A-18)*%
X115762863Y-87999300D03*
%TO.P,U1,20,16*%
%TO.N,Net-(U1A-16)*%
X120842863Y-87999300D03*
%TO.P,U1,23,19*%
%TO.N,Net-(U1A-19)*%
X113222863Y-87999300D03*
%TO.P,U1,24,20*%
%TO.N,Net-(U1A-20)*%
X110682863Y-87999300D03*
%TO.P,U1,27,23*%
%TO.N,Net-(U1A-23)*%
X103062863Y-87999300D03*
%TO.P,U1,26,22*%
%TO.N,Net-(U1A-22)*%
X105602863Y-87999300D03*
%TO.P,U1,33,28/RX*%
%TO.N,Net-(J1-Pin_2)*%
X158892863Y-110999300D03*
%TO.P,U1,40,38/A6*%
%TO.N,Net-(D7-A)*%
X141112863Y-110999300D03*
%TO.P,U1,41,37/A7*%
%TO.N,Net-(D8-A)*%
X138572863Y-110999300D03*
%TO.P,U1,43,35/A9*%
%TO.N,unconnected-(U1A-35{slash}A9-Pad43)*%
X133492863Y-110999300D03*
%TO.P,U1,32,29/TX*%
%TO.N,Net-(J1-Pin_1)*%
X161432863Y-110999300D03*
%TO.P,U1,42,36/A8*%
%TO.N,Net-(U1A-36{slash}A8)*%
X136032863Y-110999300D03*
%TO.P,U1,47,34/A10*%
%TO.N,unconnected-(U1A-34{slash}A10-Pad47)*%
X123332863Y-110999300D03*
%TO.P,U1,31,3.3V*%
%TO.N,+3.3V*%
X163972863Y-110999300D03*
%TO.P,U1,35,43/A1*%
%TO.N,Net-(D2-A)*%
X153812863Y-110999300D03*
%TO.P,U1,36,42/A2*%
%TO.N,Net-(D3-A)*%
X151272863Y-110999300D03*
%TO.P,U1,37,41/A3*%
%TO.N,Net-(D4-A)*%
X148732863Y-110999300D03*
%TO.P,U1,39,39/A5*%
%TO.N,Net-(D6-A)*%
X143652863Y-110999300D03*
%TO.P,U1,34,44/A0*%
%TO.N,Net-(D1-A)*%
X156352863Y-110999300D03*
%TO.P,U1,44,GND*%
%TO.N,GND*%
X130952863Y-110999300D03*
%TO.P,U1,45,3.3V*%
%TO.N,+3.3V*%
X128412863Y-110999300D03*
%TO.P,U1,38,40/A4*%
%TO.N,Net-(D5-A)*%
X146192863Y-110999300D03*
%TO.P,U1,46,RESET*%
%TO.N,unconnected-(U1A-RESET-Pad46)*%
X125872863Y-110999300D03*
%TO.P,U1,48,33/A11*%
%TO.N,unconnected-(U1A-33{slash}A11-Pad48)*%
X120792863Y-110999300D03*
%TO.P,U1,49,32/A12*%
%TO.N,unconnected-(U1A-32{slash}A12-Pad49)*%
X118252863Y-110999300D03*
%TO.P,U1,50,31/A13*%
%TO.N,Net-(U1A-31{slash}A13)*%
X115712863Y-110999300D03*
%TO.P,U1,54,25*%
%TO.N,unconnected-(U1A-25-Pad54)*%
X105552863Y-110999300D03*
%TO.P,U1,53,26*%
%TO.N,unconnected-(U1A-26-Pad53)*%
X108092863Y-110999300D03*
%TO.P,U1,51,30/A14*%
%TO.N,Net-(U1A-30{slash}A14)*%
X113172863Y-110999300D03*
%TO.P,U1,52,27*%
%TO.N,unconnected-(U1A-27-Pad52)*%
X110632863Y-110999300D03*
%TO.P,U1,55,24*%
%TO.N,unconnected-(U1A-24-Pad55)*%
X103012863Y-110999300D03*
%TO.P,U1,56,GND*%
%TO.N,GND*%
X100472863Y-110999300D03*
D13*
%TO.P,U1,29,vin*%
%TO.N,+5V*%
X169052863Y-110999300D03*
%TO.P,U1,1,vout*%
%TO.N,unconnected-(U1A-vout-Pad1)*%
X169102863Y-87999300D03*
D12*
%TO.P,U1,2,GND*%
%TO.N,GND*%
X166562863Y-87999300D03*
%TO.P,U1,30,GND*%
X166512863Y-110999300D03*
%TD*%
D11*
%TO.P,R8,2*%
%TO.N,GND*%
X48750000Y-52580000D03*
%TO.P,R8,1*%
%TO.N,Net-(D8-K)*%
X48750000Y-42420000D03*
%TD*%
%TO.P,R6,1*%
%TO.N,Net-(D6-K)*%
X60850000Y-42320000D03*
%TO.P,R6,2*%
%TO.N,GND*%
X60850000Y-52480000D03*
%TD*%
%TO.P,R2,1*%
%TO.N,Net-(D2-K)*%
X85050000Y-42320000D03*
%TO.P,R2,2*%
%TO.N,GND*%
X85050000Y-52480000D03*
%TD*%
D13*
%TO.P,D6,1,K*%
%TO.N,Net-(D6-K)*%
X60800000Y-35075000D03*
D12*
%TO.P,D6,2,A*%
%TO.N,Net-(D6-A)*%
X58260000Y-35075000D03*
%TD*%
D11*
%TO.P,R5,1*%
%TO.N,Net-(D5-K)*%
X66850000Y-42320000D03*
%TO.P,R5,2*%
%TO.N,GND*%
X66850000Y-52480000D03*
%TD*%
D12*
%TO.P,J1,2,Pin_2*%
%TO.N,Net-(J1-Pin_2)*%
X113810000Y-23300000D03*
D13*
%TO.P,J1,1,Pin_1*%
%TO.N,Net-(J1-Pin_1)*%
X116350000Y-23300000D03*
D12*
%TO.P,J1,3,Pin_3*%
%TO.N,+5V*%
X111270000Y-23300000D03*
%TO.P,J1,4,Pin_4*%
%TO.N,GND*%
X108730000Y-23300000D03*
%TD*%
D14*
%TO.P,U2,1*%
%TO.N,+5V*%
X60839863Y-157499300D03*
D15*
%TO.P,U2,2*%
%TO.N,unconnected-(U2-Pad2)*%
X64522863Y-157499300D03*
%TO.P,U2,3*%
%TO.N,unconnected-(U2-Pad3)*%
X67697863Y-157499300D03*
%TO.P,U2,4*%
%TO.N,unconnected-(U2-Pad4)*%
X70872863Y-157499300D03*
%TO.P,U2,5*%
%TO.N,unconnected-(U2-Pad5)*%
X74047863Y-157499300D03*
%TO.P,U2,6*%
%TO.N,unconnected-(U2-Pad6)*%
X77222863Y-157499300D03*
%TO.P,U2,7*%
%TO.N,unconnected-(U2-Pad7)*%
X80397863Y-157499300D03*
%TO.P,U2,8*%
%TO.N,unconnected-(U2-Pad8)*%
X83572863Y-157499300D03*
%TO.P,U2,9*%
%TO.N,unconnected-(U2-Pad9)*%
X86747863Y-157499300D03*
%TO.P,U2,10*%
%TO.N,unconnected-(U2-Pad10)*%
X89922863Y-157499300D03*
%TO.P,U2,11*%
%TO.N,unconnected-(U2-Pad11)*%
X93097863Y-157499300D03*
%TO.P,U2,12*%
%TO.N,unconnected-(U2-Pad12)*%
X96272863Y-157499300D03*
%TO.P,U2,13*%
%TO.N,unconnected-(U2-Pad13)*%
X99447863Y-157499300D03*
%TO.P,U2,14*%
%TO.N,unconnected-(U2-Pad14)*%
X102622863Y-157499300D03*
%TO.P,U2,15*%
%TO.N,unconnected-(U2-Pad15)*%
X105797863Y-157499300D03*
%TO.P,U2,16*%
%TO.N,unconnected-(U2-Pad16)*%
X108972863Y-157499300D03*
%TO.P,U2,17*%
%TO.N,unconnected-(U2-Pad17)*%
X112147863Y-157499300D03*
%TO.P,U2,18*%
%TO.N,unconnected-(U2-Pad18)*%
X115322863Y-157499300D03*
%TO.P,U2,19*%
%TO.N,unconnected-(U2-Pad19)*%
X118497863Y-157499300D03*
%TO.P,U2,20*%
%TO.N,unconnected-(U2-Pad20)*%
X121672863Y-157499300D03*
%TO.P,U2,21*%
%TO.N,unconnected-(U2-Pad21)*%
X124847863Y-157499300D03*
%TO.P,U2,22*%
%TO.N,unconnected-(U2-Pad22)*%
X128022863Y-157499300D03*
%TO.P,U2,23*%
%TO.N,unconnected-(U2-Pad23)*%
X131197863Y-157499300D03*
%TO.P,U2,24*%
%TO.N,Net-(U1A-31{slash}A13)*%
X134372863Y-157499300D03*
%TO.P,U2,25*%
%TO.N,unconnected-(U2-Pad25)*%
X137547863Y-157499300D03*
%TO.P,U2,26*%
%TO.N,unconnected-(U2-Pad26)*%
X140722863Y-157499300D03*
%TO.P,U2,27*%
%TO.N,unconnected-(U2-Pad27)*%
X143897863Y-157499300D03*
%TO.P,U2,28*%
%TO.N,unconnected-(U2-Pad28)*%
X147072863Y-157499300D03*
%TO.P,U2,29*%
%TO.N,Net-(U1A-15)*%
X150247863Y-157499300D03*
%TO.P,U2,30*%
%TO.N,Net-(U1A-14)*%
X153422863Y-157499300D03*
%TO.P,U2,31*%
%TO.N,Net-(U1A-13)*%
X156597863Y-157499300D03*
%TO.P,U2,32*%
%TO.N,Net-(U1A-12)*%
X159772863Y-157499300D03*
%TO.P,U2,33*%
%TO.N,Net-(U1A-11)*%
X162947863Y-157499300D03*
%TO.P,U2,34*%
%TO.N,Net-(U1A-10)*%
X166122863Y-157499300D03*
%TO.P,U2,35*%
%TO.N,Net-(U1A-23)*%
X169297863Y-157499300D03*
%TO.P,U2,36*%
%TO.N,Net-(U1A-22)*%
X172472863Y-157499300D03*
%TO.P,U2,37*%
%TO.N,Net-(U1A-9)*%
X175647863Y-157499300D03*
%TO.P,U2,38*%
%TO.N,Net-(U1A-21)*%
X178822863Y-157499300D03*
%TO.P,U2,39*%
%TO.N,Net-(U1A-20)*%
X181997863Y-157499300D03*
%TO.P,U2,40*%
%TO.N,Net-(U1A-19)*%
X185172863Y-157499300D03*
%TO.P,U2,41*%
%TO.N,unconnected-(U2-Pad41)*%
X188347863Y-157499300D03*
%TO.P,U2,42*%
%TO.N,unconnected-(U2-Pad42)*%
X191522863Y-157499300D03*
%TO.P,U2,43*%
%TO.N,unconnected-(U2-Pad43)*%
X194697863Y-157499300D03*
%TO.P,U2,44*%
%TO.N,unconnected-(U2-Pad44)*%
X197872863Y-157499300D03*
%TO.P,U2,45*%
%TO.N,unconnected-(U2-Pad45)*%
X201047863Y-157499300D03*
%TO.P,U2,46*%
%TO.N,unconnected-(U2-Pad46)*%
X204222863Y-157499300D03*
%TO.P,U2,47*%
%TO.N,Net-(U1A-30{slash}A14)*%
X207397863Y-157499300D03*
%TO.P,U2,48*%
%TO.N,unconnected-(U2-Pad48)*%
X210572863Y-157499300D03*
%TO.P,U2,49*%
%TO.N,unconnected-(U2-Pad49)*%
X213747863Y-157499300D03*
D14*
%TO.P,U2,50*%
%TO.N,GND*%
X217430863Y-157499300D03*
%TD*%
D11*
%TO.P,R3,1*%
%TO.N,Net-(D3-K)*%
X78950000Y-42220000D03*
%TO.P,R3,2*%
%TO.N,GND*%
X78950000Y-52380000D03*
%TD*%
%TO.P,R4,1*%
%TO.N,Net-(D4-K)*%
X72850000Y-42220000D03*
%TO.P,R4,2*%
%TO.N,GND*%
X72850000Y-52380000D03*
%TD*%
D13*
%TO.P,D2,1,K*%
%TO.N,Net-(D2-K)*%
X85000000Y-35075000D03*
D12*
%TO.P,D2,2,A*%
%TO.N,Net-(D2-A)*%
X82460000Y-35075000D03*
%TD*%
D13*
%TO.P,D1,1,K*%
%TO.N,Net-(D1-K)*%
X91050000Y-35075000D03*
D12*
%TO.P,D1,2,A*%
%TO.N,Net-(D1-A)*%
X88510000Y-35075000D03*
%TD*%
D13*
%TO.P,D5,1,K*%
%TO.N,Net-(D5-K)*%
X66850000Y-35075000D03*
D12*
%TO.P,D5,2,A*%
%TO.N,Net-(D5-A)*%
X64310000Y-35075000D03*
%TD*%
D13*
%TO.P,D7,1,K*%
%TO.N,Net-(D7-K)*%
X54750000Y-35075000D03*
D12*
%TO.P,D7,2,A*%
%TO.N,Net-(D7-A)*%
X52210000Y-35075000D03*
%TD*%
D11*
%TO.P,R1,1*%
%TO.N,Net-(D1-K)*%
X90850000Y-42020000D03*
%TO.P,R1,2*%
%TO.N,GND*%
X90850000Y-52180000D03*
%TD*%
%TO.P,R7,1*%
%TO.N,Net-(D7-K)*%
X54750000Y-42420000D03*
%TO.P,R7,2*%
%TO.N,GND*%
X54750000Y-52580000D03*
%TD*%
D13*
%TO.P,D4,1,K*%
%TO.N,Net-(D4-K)*%
X72900000Y-35075000D03*
D12*
%TO.P,D4,2,A*%
%TO.N,Net-(D4-A)*%
X70360000Y-35075000D03*
%TD*%
D11*
%TO.P,SW1,1,1*%
%TO.N,Net-(U1A-36{slash}A8)*%
X98150000Y-30650000D03*
X98150000Y-24150000D03*
%TO.P,SW1,2,2*%
%TO.N,+3.3V*%
X102650000Y-30650000D03*
X102650000Y-24150000D03*
%TD*%
D13*
%TO.P,D3,1,K*%
%TO.N,Net-(D3-K)*%
X78950000Y-35075000D03*
D12*
%TO.P,D3,2,A*%
%TO.N,Net-(D3-A)*%
X76410000Y-35075000D03*
%TD*%
D13*
%TO.P,D8,1,K*%
%TO.N,Net-(D8-K)*%
X48700000Y-35075000D03*
D12*
%TO.P,D8,2,A*%
%TO.N,Net-(D8-A)*%
X46160000Y-35075000D03*
%TD*%
D16*
%TO.N,*%
X283100000Y-1600000D03*
X283100000Y-162599300D03*
X10147900Y-162599300D03*
X10200000Y-1600000D03*
D17*
%TO.N,Net-(U1A-22)*%
X188091903Y-130518340D03*
X176921863Y-132288594D03*
%TO.N,Net-(U1A-23)*%
X170977590Y-135403027D03*
X192145286Y-136056470D03*
%TO.N,Net-(D4-A)*%
X69050000Y-60400000D03*
%TO.N,Net-(U1A-21)*%
X187922863Y-126798292D03*
X180329974Y-139759528D03*
%TO.N,Net-(D6-A)*%
X57450000Y-60500000D03*
%TO.N,Net-(D5-A)*%
X63150000Y-60500000D03*
%TO.N,Net-(U1A-7)*%
X171872863Y-148299300D03*
X173452466Y-132928151D03*
%TO.N,Net-(D1-A)*%
X87750000Y-60700000D03*
%TO.N,Net-(D2-A)*%
X81250000Y-60500000D03*
%TO.N,Net-(D7-A)*%
X50750000Y-60400000D03*
%TO.N,Net-(D8-A)*%
X44750000Y-60400000D03*
%TO.N,Net-(U1A-20)*%
X187922863Y-123298289D03*
X182422863Y-131538386D03*
%TO.N,Net-(D3-A)*%
X74850000Y-60400000D03*
%TD*%
D18*
%TO.N,Net-(J1-Pin_1)*%
X106080000Y-21210000D02*
X106080000Y-72661037D01*
X106080000Y-72661037D02*
X101620519Y-77120518D01*
X108077037Y-19212963D02*
X106080000Y-21210000D01*
X114922963Y-19212963D02*
X108077037Y-19212963D01*
X116350000Y-20640000D02*
X114922963Y-19212963D01*
X101620519Y-77120518D02*
X101620519Y-77120519D01*
X116350000Y-23300000D02*
X116350000Y-20640000D01*
%TO.N,Net-(U1A-9)*%
X138622863Y-90972863D02*
X138622863Y-87999300D01*
X139649300Y-91999300D02*
X138622863Y-90972863D01*
X174262387Y-91999300D02*
X139649300Y-91999300D01*
X188801420Y-106538333D02*
X174262387Y-91999300D01*
X179671863Y-124579349D02*
X188801420Y-115449792D01*
X188801420Y-115449792D02*
X188801420Y-106538333D01*
X179672863Y-131149092D02*
X179671863Y-131148092D01*
X179671863Y-131148092D02*
X179671863Y-124579349D01*
X179672863Y-133428096D02*
X179672863Y-131149092D01*
X177730590Y-135370370D02*
X179672863Y-133428096D01*
X176672863Y-139919644D02*
X177730590Y-138861916D01*
X176672863Y-150648300D02*
X176672863Y-139919644D01*
X175647863Y-151673300D02*
X176672863Y-150648300D01*
X177730590Y-138861916D02*
X177730590Y-135370370D01*
X175647863Y-157499300D02*
X175647863Y-151673300D01*
%TO.N,Net-(U1A-10)*%
X186800420Y-114620949D02*
X166122863Y-135298507D01*
X166122863Y-135298507D02*
X166122863Y-157499300D01*
X186800420Y-107367175D02*
X186800420Y-114620949D01*
X173532547Y-94099300D02*
X186800420Y-107367175D01*
X136082863Y-91342863D02*
X138839300Y-94099300D01*
X138839300Y-94099300D02*
X173532547Y-94099300D01*
X136082863Y-87999300D02*
X136082863Y-91342863D01*
%TO.N,Net-(U1A-11)*%
X165480548Y-131453302D02*
X165480544Y-131453301D01*
X167138229Y-131453300D02*
X167138228Y-131453301D01*
X169482549Y-129108984D02*
X168310390Y-130281143D01*
X170654705Y-127936825D02*
X169482549Y-129108981D01*
X167138228Y-131453301D02*
X167138227Y-131453300D01*
X180161104Y-118430426D02*
X170654705Y-127936825D01*
X180510106Y-118081425D02*
X180161106Y-118430426D01*
X169482549Y-129108982D02*
X169482549Y-129108984D01*
X181333259Y-117258269D02*
X180771483Y-117820047D01*
X180161106Y-118430426D02*
X180161104Y-118430426D01*
X181333261Y-117258269D02*
X181333259Y-117258269D01*
X168310390Y-130281143D02*
X168310386Y-130281143D01*
X182505415Y-116086124D02*
X181968993Y-116622537D01*
X182505415Y-116086114D02*
X182505415Y-116086124D01*
X165480549Y-131453301D02*
X165480548Y-131453302D01*
X182505420Y-116086109D02*
X182505415Y-116086114D01*
X162947863Y-133724300D02*
X162947863Y-157499300D01*
X182505420Y-116086108D02*
X182505420Y-116086109D01*
X182505420Y-116086107D02*
X182505420Y-116086108D01*
X183203420Y-115388110D02*
X182505420Y-116086107D01*
X165480544Y-131453301D02*
X165218861Y-131453302D01*
X184799420Y-113792107D02*
X183203420Y-115388108D01*
X181801324Y-116790205D02*
X181333261Y-117258267D01*
X184799421Y-113792106D02*
X184799420Y-113792107D01*
X181333261Y-117258267D02*
X181333261Y-117258269D01*
X184799420Y-112963264D02*
X184799421Y-113792106D01*
X168310384Y-130281143D02*
X167138229Y-131453300D01*
X184799420Y-108196018D02*
X184799420Y-109853701D01*
X169482549Y-129108981D02*
X169482549Y-129108982D01*
X184799420Y-108196018D02*
X184799420Y-108196017D01*
X167138227Y-131453300D02*
X165480549Y-131453301D01*
X171046021Y-96100300D02*
X172703705Y-96100300D01*
X181968993Y-116622537D02*
X181801324Y-116790205D01*
X184799420Y-109853701D02*
X184799420Y-112963264D01*
X180771483Y-117820047D02*
X180510106Y-118081425D01*
X137709668Y-96100300D02*
X171046021Y-96100300D01*
X165218861Y-131453302D02*
X162947863Y-133724300D01*
X133542863Y-91933495D02*
X137709668Y-96100300D01*
X168310386Y-130281143D02*
X168310384Y-130281143D01*
X133542863Y-87999300D02*
X133542863Y-91933495D01*
X172703705Y-96100300D02*
X184799420Y-108196018D01*
X183203420Y-115388108D02*
X183203420Y-115388110D01*
%TO.N,Net-(U1A-12)*%
X162994021Y-129452300D02*
X162419863Y-129452300D01*
X159772863Y-132099300D02*
X159772863Y-157499300D01*
X164651706Y-129452301D02*
X164651705Y-129452301D01*
X162419863Y-129452300D02*
X159772863Y-132099300D01*
X166309385Y-129452300D02*
X164651706Y-129452301D01*
X164651705Y-129452301D02*
X162994021Y-129452300D01*
X167481548Y-128280142D02*
X167481547Y-128280142D01*
X168653705Y-127107984D02*
X167481548Y-128280142D01*
X179681261Y-116080426D02*
X179332261Y-116429427D01*
X166309388Y-129452300D02*
X166309386Y-129452300D01*
X180030261Y-115731425D02*
X179681261Y-116080426D01*
X180030260Y-115731425D02*
X180030261Y-115731425D01*
X180346367Y-115415320D02*
X180030260Y-115731425D01*
X180504420Y-115257269D02*
X180346367Y-115415320D01*
X180504420Y-115257268D02*
X180504420Y-115257269D01*
X180504420Y-115257266D02*
X180504420Y-115257267D01*
X180504420Y-115257267D02*
X180504420Y-115257268D01*
X181202420Y-114559267D02*
X181202420Y-114559266D01*
X182798420Y-112963265D02*
X181202420Y-114559267D01*
X166309386Y-129452300D02*
X166309385Y-129452300D01*
X182798420Y-109024859D02*
X182798420Y-112963265D01*
X167481547Y-128280142D02*
X166309388Y-129452300D01*
X136880826Y-98101300D02*
X171874863Y-98101300D01*
X131002863Y-92223337D02*
X136880826Y-98101300D01*
X171874863Y-98101300D02*
X182798420Y-109024859D01*
X131002863Y-87999300D02*
X131002863Y-92223337D01*
X181202420Y-114559267D02*
X180504420Y-115257266D01*
X179332261Y-116429427D02*
X168653705Y-127107984D01*
%TO.N,Net-(U1A-13)*%
X161020863Y-127451300D02*
X156597863Y-131874300D01*
X156597863Y-131874300D02*
X156597863Y-157499300D01*
X163822862Y-127451300D02*
X162165180Y-127451300D01*
X162165180Y-127451300D02*
X161020863Y-127451300D01*
X165480547Y-127451301D02*
X165480545Y-127451300D01*
X166652706Y-126279142D02*
X165480547Y-127451300D01*
X178503420Y-114428425D02*
X178503420Y-114428427D01*
X166652706Y-126279142D02*
X166652706Y-126279141D01*
X179201420Y-113730425D02*
X178503420Y-114428425D01*
X179201420Y-108568173D02*
X179201420Y-113730425D01*
X172004706Y-101371459D02*
X178503420Y-107870173D01*
X165480547Y-127451300D02*
X165480547Y-127451301D01*
X172004706Y-101371458D02*
X172004706Y-101371459D01*
X170832547Y-100199299D02*
X172004706Y-101371458D01*
X165480545Y-127451300D02*
X163822863Y-127451300D01*
X170832547Y-100199300D02*
X170832547Y-100199299D01*
X163822863Y-127451300D02*
X163822862Y-127451300D01*
X169174864Y-100199300D02*
X169174863Y-100199299D01*
X169174863Y-100199299D02*
X170832547Y-100199300D01*
X178503420Y-107870173D02*
X179201420Y-108568173D01*
X169174862Y-100199300D02*
X169174863Y-100199299D01*
X178503420Y-114428427D02*
X166652706Y-126279142D01*
X167517180Y-100199300D02*
X169174862Y-100199300D01*
X128462863Y-92513179D02*
X136148984Y-100199300D01*
X169174862Y-100199300D02*
X169174864Y-100199300D01*
X136148984Y-100199300D02*
X167517180Y-100199300D01*
X128462863Y-87999300D02*
X128462863Y-92513179D01*
%TO.N,Net-(U1A-14)*%
X153422863Y-130779142D02*
X153422863Y-157499300D01*
X158751705Y-125450300D02*
X153422863Y-130779142D01*
X162994021Y-125450300D02*
X158751705Y-125450300D01*
X164651704Y-125450300D02*
X162994021Y-125450300D01*
X164651705Y-125450300D02*
X164651704Y-125450300D01*
X176502420Y-111941901D02*
X176502420Y-113599585D01*
X171175863Y-103372459D02*
X176502420Y-108699015D01*
X135320142Y-102200300D02*
X168346021Y-102200300D01*
X176502420Y-113599585D02*
X164651705Y-125450300D01*
X176502420Y-108699015D02*
X176502420Y-108699016D01*
X125922863Y-92803021D02*
X135320142Y-102200300D01*
X176502420Y-108699016D02*
X176502420Y-110356699D01*
X176502420Y-110356699D02*
X176502420Y-111941901D01*
X168346021Y-102200300D02*
X170003705Y-102200300D01*
X170003705Y-102200300D02*
X170003704Y-102200300D01*
X125922863Y-87999300D02*
X125922863Y-92803021D01*
X170003705Y-102200300D02*
X171175863Y-103372459D01*
%TO.N,Net-(U1A-15)*%
X150247863Y-131124300D02*
X150247863Y-157499300D01*
X157922863Y-123449300D02*
X150247863Y-131124300D01*
X163822863Y-123449300D02*
X157922863Y-123449300D01*
X174501420Y-109527857D02*
X174501420Y-112770743D01*
X169174863Y-104201300D02*
X174501420Y-109527857D01*
X134491300Y-104201300D02*
X169174863Y-104201300D01*
X123382863Y-93092863D02*
X134491300Y-104201300D01*
X174501420Y-112770743D02*
X163822863Y-123449300D01*
X123382863Y-87999300D02*
X123382863Y-93092863D01*
%TO.N,Net-(U1A-19)*%
X191201420Y-106108491D02*
X191201420Y-115879633D01*
X175872863Y-90779934D02*
X191201420Y-106108491D01*
X175872863Y-86069461D02*
X175872863Y-90779934D01*
X115160700Y-83899300D02*
X173702702Y-83899300D01*
X113222863Y-85837137D02*
X115160700Y-83899300D01*
X185172863Y-121908190D02*
X185172863Y-157499300D01*
X173702702Y-83899300D02*
X175872863Y-86069461D01*
X113222863Y-87999300D02*
X113222863Y-85837137D01*
X191201420Y-115879633D02*
X185172863Y-121908190D01*
%TO.N,Net-(U1A-20)*%
X174531543Y-81898300D02*
X177873863Y-85240620D01*
X177873863Y-89951093D02*
X193498420Y-105575650D01*
X114161700Y-81898300D02*
X174531543Y-81898300D01*
X110682863Y-87999300D02*
X110682863Y-85377137D01*
X110682863Y-85377137D02*
X114161700Y-81898300D01*
X177873863Y-85240620D02*
X177873863Y-89951093D01*
X193498420Y-105575650D02*
X193498420Y-117722732D01*
X193498420Y-117722732D02*
X187922863Y-123298289D01*
%TO.N,Net-(U1A-21)*%
X108142863Y-84747383D02*
X108142863Y-87999300D01*
X112992946Y-79897300D02*
X108142863Y-84747383D01*
X175360384Y-79897300D02*
X112992946Y-79897300D01*
X179874863Y-84411778D02*
X175360384Y-79897300D01*
X179874863Y-89122251D02*
X179874863Y-84411778D01*
X195499420Y-104746808D02*
X180371863Y-89619251D01*
X180371863Y-89619251D02*
X179874863Y-89122251D01*
X195499420Y-119612234D02*
X195499420Y-104746808D01*
X188313362Y-126798292D02*
X195499420Y-119612234D01*
X187922863Y-126798292D02*
X188313362Y-126798292D01*
%TO.N,Net-(U1A-22)*%
X197500420Y-121109823D02*
X188091903Y-130518340D01*
X197500420Y-103917966D02*
X197500420Y-121109823D01*
X182372863Y-88790409D02*
X197500420Y-103917966D01*
X182372863Y-87132725D02*
X182372863Y-88790409D01*
X182372863Y-83739617D02*
X182372863Y-87132725D01*
X112164104Y-77896300D02*
X176529546Y-77896300D01*
X105602863Y-84457541D02*
X112164104Y-77896300D01*
X176529546Y-77896300D02*
X182372863Y-83739617D01*
X105602863Y-87999300D02*
X105602863Y-84457541D01*
X182372863Y-88790409D02*
X182372863Y-88790408D01*
%TO.N,Net-(U1A-23)*%
X199501420Y-103089124D02*
X199501420Y-128700336D01*
X184373863Y-87961567D02*
X199501420Y-103089124D01*
X184373863Y-82910776D02*
X184373863Y-87961567D01*
X177358388Y-75895300D02*
X184373863Y-82910776D01*
X103062863Y-84167699D02*
X111335262Y-75895300D01*
X111335262Y-75895300D02*
X177358388Y-75895300D01*
X103062863Y-87999300D02*
X103062863Y-84167699D01*
X199501420Y-128700336D02*
X192145286Y-136056470D01*
%TO.N,Net-(J1-Pin_2)*%
X95750420Y-85820459D02*
X110685439Y-70885439D01*
X155400700Y-116499300D02*
X101001420Y-116499300D01*
X101001420Y-116499300D02*
X95750420Y-111248300D01*
X158892863Y-113007137D02*
X155400700Y-116499300D01*
X95750420Y-111248300D02*
X95750420Y-85820459D01*
X158892863Y-110999300D02*
X158892863Y-113007137D01*
%TO.N,Net-(J1-Pin_1)*%
X93749420Y-112077142D02*
X100172579Y-118500300D01*
X100172579Y-118500300D02*
X156429700Y-118500300D01*
X93749420Y-84991618D02*
X93749420Y-112077142D01*
X161432863Y-113497137D02*
X161432863Y-110999300D01*
X101620519Y-77120519D02*
X93749420Y-84991618D01*
X156429700Y-118500300D02*
X161432863Y-113497137D01*
%TO.N,Net-(U1A-22)*%
X172472863Y-151589802D02*
X174623863Y-149438802D01*
X176921863Y-133349256D02*
X176921863Y-132288594D01*
X176771757Y-132438700D02*
X176921863Y-132288594D01*
X172472863Y-157499300D02*
X172472863Y-151589802D01*
X175729590Y-134541529D02*
X176921863Y-133349256D01*
X175729590Y-138033075D02*
X175729590Y-134541529D01*
X188091903Y-130518340D02*
X188313362Y-130739799D01*
X174623863Y-149438802D02*
X174623863Y-139138802D01*
X174623863Y-139138802D02*
X175729590Y-138033075D01*
%TO.N,Net-(U1A-23)*%
X169297863Y-157499300D02*
X169297863Y-137082754D01*
X169297863Y-137082754D02*
X170977590Y-135403027D01*
%TO.N,Net-(D4-A)*%
X70360000Y-59090000D02*
X70360000Y-35075000D01*
X69050000Y-60400000D02*
X70360000Y-59090000D01*
%TO.N,Net-(U1A-21)*%
X178822863Y-152819458D02*
X178822863Y-157499300D01*
X180072863Y-140016639D02*
X180329974Y-139759528D01*
X180072863Y-151569458D02*
X180072863Y-140016639D01*
X180072863Y-151569458D02*
X178822863Y-152819458D01*
X187922863Y-126798292D02*
X188313362Y-127188791D01*
%TO.N,Net-(U1A-30{slash}A14)*%
X97751420Y-86649300D02*
X110702420Y-73698300D01*
X207397863Y-103104933D02*
X207397863Y-157499300D01*
X177991230Y-73698300D02*
X207397863Y-103104933D01*
X97751420Y-92977858D02*
X101137141Y-96363579D01*
X113172863Y-110999300D02*
X113172863Y-108399300D01*
X97751420Y-86649300D02*
X97751420Y-92977858D01*
X113172863Y-108399300D02*
X101137141Y-96363579D01*
X110702420Y-73698300D02*
X177991230Y-73698300D01*
%TO.N,Net-(U1A-31{slash}A13)*%
X171872221Y-112570100D02*
X162994021Y-121448300D01*
X115712863Y-110999300D02*
X115712863Y-109797219D01*
X162994021Y-121448300D02*
X157094021Y-121448300D01*
X115712863Y-109797219D02*
X119307782Y-106202300D01*
X134372863Y-144169458D02*
X134372863Y-157499300D01*
X119307782Y-106202300D02*
X168346021Y-106202300D01*
X157094021Y-121448300D02*
X134372863Y-144169458D01*
X168346021Y-106202300D02*
X171872221Y-109728500D01*
X171872221Y-109728500D02*
X171872221Y-112570100D01*
%TO.N,Net-(D6-A)*%
X57450000Y-60500000D02*
X58260000Y-59690000D01*
X58260000Y-59690000D02*
X58260000Y-35075000D01*
%TO.N,Net-(D5-A)*%
X63150000Y-60500000D02*
X64310000Y-59340000D01*
X64310000Y-59340000D02*
X64310000Y-35075000D01*
%TO.N,Net-(U1A-7)*%
X172072863Y-138198256D02*
X173728590Y-136542529D01*
X172072863Y-148099300D02*
X172072863Y-138198256D01*
X173728590Y-133204275D02*
X173452466Y-132928151D01*
X171872863Y-148299300D02*
X172072863Y-148099300D01*
X173728590Y-136542529D02*
X173728590Y-133204275D01*
%TO.N,Net-(D1-A)*%
X87750000Y-60700000D02*
X88510000Y-59940000D01*
X88510000Y-59940000D02*
X88510000Y-35075000D01*
%TO.N,Net-(D2-A)*%
X81250000Y-60500000D02*
X82460000Y-59290000D01*
X82460000Y-59290000D02*
X82460000Y-35075000D01*
%TO.N,Net-(D7-A)*%
X52210000Y-58940000D02*
X52210000Y-35075000D01*
X50750000Y-60400000D02*
X52210000Y-58940000D01*
%TO.N,Net-(D8-A)*%
X46160000Y-58990000D02*
X46160000Y-35075000D01*
X44750000Y-60400000D02*
X46160000Y-58990000D01*
%TO.N,Net-(U1A-20)*%
X183171863Y-151300300D02*
X183171863Y-132287386D01*
X181997863Y-157499300D02*
X181997863Y-152474300D01*
X183171863Y-132287386D02*
X182422863Y-131538386D01*
X181997863Y-152474300D02*
X183171863Y-151300300D01*
%TO.N,Net-(D3-A)*%
X74850000Y-60400000D02*
X76410000Y-58840000D01*
X76410000Y-58840000D02*
X76410000Y-35075000D01*
%TO.N,Net-(J1-Pin_1)*%
X102450420Y-76290618D02*
X101620519Y-77120519D01*
%TO.N,Net-(J1-Pin_2)*%
X110685439Y-70885439D02*
X113710000Y-67860879D01*
X113810000Y-23300000D02*
X113810000Y-67760878D01*
X113810000Y-67760878D02*
X110685439Y-70885439D01*
%TD*%
%TA.AperFunction,Conductor*%
%TO.N,GND*%
G36*
X61934871Y-44697989D02*
G01*
X62131858Y-44743315D01*
X62315688Y-44827367D01*
X62478836Y-44946703D01*
X62614622Y-45096437D01*
X62717488Y-45270440D01*
X62783221Y-45461587D01*
X62809131Y-45662054D01*
X62809500Y-45689217D01*
X62809500Y-48069919D01*
X62789050Y-48271016D01*
X62728539Y-48463880D01*
X62630443Y-48640616D01*
X62498778Y-48793987D01*
X62338935Y-48917715D01*
X62230295Y-48976436D01*
X61850000Y-49152545D01*
X61850000Y-51479999D01*
X61851756Y-51481755D01*
X61861099Y-51481282D01*
X61936113Y-51492773D01*
X62011597Y-51500450D01*
X62035811Y-51508047D01*
X62060902Y-51511891D01*
X62132065Y-51538246D01*
X62204461Y-51560961D01*
X62226650Y-51573277D01*
X62250454Y-51582093D01*
X62314852Y-51622232D01*
X62381197Y-51659057D01*
X62400455Y-51675589D01*
X62421994Y-51689015D01*
X62476989Y-51741292D01*
X62534568Y-51790722D01*
X62550105Y-51810794D01*
X62568499Y-51828279D01*
X62611843Y-51890552D01*
X62658296Y-51950565D01*
X62669474Y-51973353D01*
X62683972Y-51994183D01*
X62713896Y-52063915D01*
X62747314Y-52132042D01*
X62753675Y-52156610D01*
X62763685Y-52179936D01*
X62778959Y-52254262D01*
X62797980Y-52327724D01*
X62800290Y-52358060D01*
X62804374Y-52377933D01*
X62809500Y-52479000D01*
X62809500Y-52481000D01*
X62789050Y-52682097D01*
X62728539Y-52874961D01*
X62630443Y-53051697D01*
X62498778Y-53205068D01*
X62338935Y-53328796D01*
X62157458Y-53417814D01*
X61961776Y-53468480D01*
X61853257Y-53476743D01*
X61850000Y-53480001D01*
X61850000Y-55834142D01*
X61940775Y-55901466D01*
X61990568Y-55912193D01*
X62060902Y-55922968D01*
X62089154Y-55933431D01*
X62118605Y-55939776D01*
X62183718Y-55968454D01*
X62250454Y-55993170D01*
X62276025Y-56009108D01*
X62303592Y-56021250D01*
X62361600Y-56062448D01*
X62421994Y-56100092D01*
X62443830Y-56120848D01*
X62468392Y-56138293D01*
X62516926Y-56190332D01*
X62568499Y-56239356D01*
X62585708Y-56264081D01*
X62606258Y-56286115D01*
X62643324Y-56346860D01*
X62683972Y-56405260D01*
X62695851Y-56432942D01*
X62711546Y-56458663D01*
X62735626Y-56525628D01*
X62763685Y-56591013D01*
X62769749Y-56620521D01*
X62779944Y-56648873D01*
X62790050Y-56719311D01*
X62804374Y-56789010D01*
X62806737Y-56835608D01*
X62808653Y-56848959D01*
X62809500Y-56890077D01*
X62809500Y-57537604D01*
X62789050Y-57738701D01*
X62728539Y-57931565D01*
X62630443Y-58108301D01*
X62498778Y-58261672D01*
X62338935Y-58385400D01*
X62192810Y-58460556D01*
X62152495Y-58477255D01*
X61897007Y-58624761D01*
X61662960Y-58804352D01*
X61662958Y-58804353D01*
X61662958Y-58804354D01*
X61465894Y-59001417D01*
X61309242Y-59129150D01*
X61130079Y-59222737D01*
X60935743Y-59278344D01*
X60734193Y-59293692D01*
X60533678Y-59268155D01*
X60342409Y-59202777D01*
X60168215Y-59100235D01*
X60018228Y-58964727D01*
X59898590Y-58801801D01*
X59814197Y-58618128D01*
X59768505Y-58421225D01*
X59760500Y-58295013D01*
X59760500Y-56403376D01*
X59780950Y-56202279D01*
X59841461Y-56009415D01*
X59850000Y-55994030D01*
X59850000Y-53382168D01*
X59831776Y-53347280D01*
X59821313Y-53310715D01*
X59806315Y-53275765D01*
X59793577Y-53213784D01*
X59776169Y-53152944D01*
X59772428Y-53110868D01*
X59765626Y-53077768D01*
X59760500Y-52976701D01*
X59760500Y-52427339D01*
X60450000Y-52427339D01*
X60450000Y-52532661D01*
X60477259Y-52634394D01*
X60529920Y-52725606D01*
X60604394Y-52800080D01*
X60695606Y-52852741D01*
X60797339Y-52880000D01*
X60902661Y-52880000D01*
X61004394Y-52852741D01*
X61095606Y-52800080D01*
X61170080Y-52725606D01*
X61222741Y-52634394D01*
X61250000Y-52532661D01*
X61250000Y-52427339D01*
X61222741Y-52325606D01*
X61170080Y-52234394D01*
X61095606Y-52159920D01*
X61004394Y-52107259D01*
X60902661Y-52080000D01*
X60797339Y-52080000D01*
X60695606Y-52107259D01*
X60604394Y-52159920D01*
X60529920Y-52234394D01*
X60477259Y-52325606D01*
X60450000Y-52427339D01*
X59760500Y-52427339D01*
X59760500Y-51983299D01*
X59780950Y-51782202D01*
X59841461Y-51589338D01*
X59850000Y-51573953D01*
X59850000Y-48962494D01*
X59832884Y-48929964D01*
X59824754Y-48901869D01*
X59812672Y-48875240D01*
X59796722Y-48804992D01*
X59776699Y-48735795D01*
X59774391Y-48706643D01*
X59767916Y-48678123D01*
X59760500Y-48556622D01*
X59760500Y-45819500D01*
X59780950Y-45618403D01*
X59841461Y-45425539D01*
X59939557Y-45248803D01*
X60071222Y-45095432D01*
X60231065Y-44971704D01*
X60412542Y-44882686D01*
X60608224Y-44832020D01*
X60759500Y-44820500D01*
X60990419Y-44820500D01*
X60990425Y-44820500D01*
X61269509Y-44789055D01*
X61425288Y-44753499D01*
X61570646Y-44720323D01*
X61571148Y-44722525D01*
X61732792Y-44693244D01*
X61934871Y-44697989D01*
G37*
%TD.AperFunction*%
%TA.AperFunction,Conductor*%
G36*
X80228320Y-44611535D02*
G01*
X80416574Y-44685148D01*
X80586156Y-44795149D01*
X80730123Y-44937035D01*
X80842582Y-45104997D01*
X80918929Y-45292159D01*
X80956037Y-45490857D01*
X80959500Y-45573966D01*
X80959500Y-47985087D01*
X80959229Y-47987743D01*
X80959486Y-47990403D01*
X80948997Y-48088365D01*
X80939050Y-48186184D01*
X80938251Y-48188728D01*
X80937967Y-48191388D01*
X80907966Y-48285254D01*
X80878539Y-48379048D01*
X80877243Y-48381381D01*
X80876430Y-48383928D01*
X80828206Y-48469730D01*
X80780443Y-48555784D01*
X80778701Y-48557812D01*
X80777394Y-48560139D01*
X80712939Y-48634415D01*
X80648778Y-48709155D01*
X80646664Y-48710791D01*
X80644915Y-48712807D01*
X80566857Y-48772566D01*
X80488935Y-48832883D01*
X80486533Y-48834061D01*
X80484416Y-48835682D01*
X80395675Y-48884322D01*
X79950000Y-49100001D01*
X79950000Y-51379999D01*
X79950001Y-51380000D01*
X79960500Y-51380000D01*
X79985748Y-51382567D01*
X80011099Y-51381282D01*
X80086113Y-51392773D01*
X80161597Y-51400450D01*
X80185811Y-51408047D01*
X80210902Y-51411891D01*
X80282065Y-51438246D01*
X80354461Y-51460961D01*
X80376650Y-51473277D01*
X80400454Y-51482093D01*
X80464852Y-51522232D01*
X80531197Y-51559057D01*
X80550455Y-51575589D01*
X80571994Y-51589015D01*
X80626989Y-51641292D01*
X80684568Y-51690722D01*
X80700105Y-51710794D01*
X80718499Y-51728279D01*
X80761843Y-51790552D01*
X80808296Y-51850565D01*
X80819474Y-51873353D01*
X80833972Y-51894183D01*
X80863896Y-51963915D01*
X80897314Y-52032042D01*
X80903675Y-52056610D01*
X80913685Y-52079936D01*
X80928959Y-52154262D01*
X80947980Y-52227724D01*
X80950290Y-52258060D01*
X80954374Y-52277933D01*
X80959500Y-52379000D01*
X80959500Y-52381000D01*
X80939050Y-52582097D01*
X80878539Y-52774961D01*
X80780443Y-52951697D01*
X80648778Y-53105068D01*
X80488935Y-53228796D01*
X80307458Y-53317814D01*
X80111776Y-53368480D01*
X79960500Y-53380000D01*
X79950001Y-53380000D01*
X79950000Y-53380001D01*
X79950000Y-55734142D01*
X80008240Y-55777336D01*
X80011099Y-55777192D01*
X80040882Y-55781754D01*
X80071006Y-55782041D01*
X80140564Y-55797025D01*
X80210902Y-55807801D01*
X80239152Y-55818263D01*
X80268607Y-55824609D01*
X80333726Y-55853289D01*
X80400454Y-55878003D01*
X80426025Y-55893941D01*
X80453594Y-55906084D01*
X80511601Y-55947281D01*
X80571994Y-55984925D01*
X80593831Y-56005683D01*
X80618394Y-56023128D01*
X80666924Y-56075164D01*
X80718499Y-56124189D01*
X80735710Y-56148917D01*
X80756259Y-56170950D01*
X80793320Y-56231687D01*
X80833972Y-56290093D01*
X80845854Y-56317781D01*
X80861546Y-56343498D01*
X80885623Y-56410456D01*
X80913685Y-56475846D01*
X80919748Y-56505354D01*
X80929945Y-56533708D01*
X80940053Y-56604156D01*
X80954374Y-56673843D01*
X80956736Y-56720432D01*
X80958654Y-56733793D01*
X80959500Y-56774910D01*
X80959500Y-57516894D01*
X80939050Y-57717991D01*
X80878539Y-57910855D01*
X80780443Y-58087591D01*
X80648778Y-58240962D01*
X80488935Y-58364690D01*
X80342802Y-58439849D01*
X80252495Y-58477255D01*
X79997007Y-58624761D01*
X79762960Y-58804352D01*
X79762958Y-58804353D01*
X79762958Y-58804354D01*
X79615894Y-58951417D01*
X79459242Y-59079150D01*
X79280079Y-59172737D01*
X79085743Y-59228344D01*
X78884193Y-59243692D01*
X78683678Y-59218155D01*
X78492409Y-59152777D01*
X78318215Y-59050235D01*
X78168228Y-58914727D01*
X78048590Y-58751801D01*
X77964197Y-58568128D01*
X77918505Y-58371225D01*
X77910500Y-58245013D01*
X77910500Y-56266291D01*
X77930950Y-56065194D01*
X77950000Y-56004476D01*
X77950000Y-53195035D01*
X77943577Y-53163784D01*
X77926169Y-53102944D01*
X77922428Y-53060868D01*
X77915626Y-53027768D01*
X77910500Y-52926701D01*
X77910500Y-52327339D01*
X78550000Y-52327339D01*
X78550000Y-52432661D01*
X78577259Y-52534394D01*
X78629920Y-52625606D01*
X78704394Y-52700080D01*
X78795606Y-52752741D01*
X78897339Y-52780000D01*
X79002661Y-52780000D01*
X79104394Y-52752741D01*
X79195606Y-52700080D01*
X79270080Y-52625606D01*
X79322741Y-52534394D01*
X79350000Y-52432661D01*
X79350000Y-52327339D01*
X79322741Y-52225606D01*
X79270080Y-52134394D01*
X79195606Y-52059920D01*
X79104394Y-52007259D01*
X79002661Y-51980000D01*
X78897339Y-51980000D01*
X78795606Y-52007259D01*
X78704394Y-52059920D01*
X78629920Y-52134394D01*
X78577259Y-52225606D01*
X78550000Y-52327339D01*
X77910500Y-52327339D01*
X77910500Y-51833299D01*
X77930950Y-51632202D01*
X77950000Y-51571484D01*
X77950000Y-48756517D01*
X77948596Y-48750334D01*
X77929893Y-48689594D01*
X77926094Y-48651223D01*
X77917915Y-48615197D01*
X77916704Y-48556382D01*
X77910500Y-48493707D01*
X77910500Y-45719500D01*
X77930950Y-45518403D01*
X77991461Y-45325539D01*
X78089557Y-45148803D01*
X78221222Y-44995432D01*
X78381065Y-44871704D01*
X78562542Y-44782686D01*
X78758224Y-44732020D01*
X78909500Y-44720500D01*
X79090419Y-44720500D01*
X79090425Y-44720500D01*
X79369509Y-44689055D01*
X79643318Y-44626560D01*
X79643344Y-44626550D01*
X79670248Y-44618801D01*
X79670979Y-44621339D01*
X79827075Y-44583916D01*
X80029102Y-44577324D01*
X80228320Y-44611535D01*
G37*
%TD.AperFunction*%
%TA.AperFunction,Conductor*%
G36*
X68128320Y-44711535D02*
G01*
X68316574Y-44785148D01*
X68486156Y-44895149D01*
X68630123Y-45037035D01*
X68742582Y-45204997D01*
X68818929Y-45392159D01*
X68856037Y-45590857D01*
X68859500Y-45673966D01*
X68859500Y-48085087D01*
X68839050Y-48286184D01*
X68778539Y-48479048D01*
X68680443Y-48655784D01*
X68548778Y-48809155D01*
X68388935Y-48932883D01*
X68295675Y-48984322D01*
X67850000Y-49200001D01*
X67850000Y-51479999D01*
X67850001Y-51480000D01*
X67860500Y-51480000D01*
X67885748Y-51482567D01*
X67911099Y-51481282D01*
X67986113Y-51492773D01*
X68061597Y-51500450D01*
X68085811Y-51508047D01*
X68110902Y-51511891D01*
X68182065Y-51538246D01*
X68254461Y-51560961D01*
X68276650Y-51573277D01*
X68300454Y-51582093D01*
X68364852Y-51622232D01*
X68431197Y-51659057D01*
X68450455Y-51675589D01*
X68471994Y-51689015D01*
X68526989Y-51741292D01*
X68584568Y-51790722D01*
X68600105Y-51810794D01*
X68618499Y-51828279D01*
X68661843Y-51890552D01*
X68708296Y-51950565D01*
X68719474Y-51973353D01*
X68733972Y-51994183D01*
X68763896Y-52063915D01*
X68797314Y-52132042D01*
X68803675Y-52156610D01*
X68813685Y-52179936D01*
X68828959Y-52254262D01*
X68847980Y-52327724D01*
X68850290Y-52358060D01*
X68854374Y-52377933D01*
X68859500Y-52479000D01*
X68859500Y-52481000D01*
X68839050Y-52682097D01*
X68778539Y-52874961D01*
X68680443Y-53051697D01*
X68548778Y-53205068D01*
X68388935Y-53328796D01*
X68207458Y-53417814D01*
X68011776Y-53468480D01*
X67860500Y-53480000D01*
X67850001Y-53480000D01*
X67850000Y-53480001D01*
X67850000Y-55834142D01*
X67908240Y-55877336D01*
X67911099Y-55877192D01*
X67940882Y-55881754D01*
X67971006Y-55882041D01*
X68040564Y-55897025D01*
X68110902Y-55907801D01*
X68139152Y-55918263D01*
X68168607Y-55924609D01*
X68233726Y-55953289D01*
X68300454Y-55978003D01*
X68326025Y-55993941D01*
X68353594Y-56006084D01*
X68411601Y-56047281D01*
X68471994Y-56084925D01*
X68493831Y-56105683D01*
X68518394Y-56123128D01*
X68566924Y-56175164D01*
X68618499Y-56224189D01*
X68635710Y-56248917D01*
X68656259Y-56270950D01*
X68693320Y-56331687D01*
X68733972Y-56390093D01*
X68745854Y-56417781D01*
X68761546Y-56443498D01*
X68785623Y-56510456D01*
X68813685Y-56575846D01*
X68819748Y-56605354D01*
X68829945Y-56633708D01*
X68840053Y-56704156D01*
X68854374Y-56773843D01*
X68856736Y-56820432D01*
X68858654Y-56833793D01*
X68859500Y-56874910D01*
X68859500Y-57375473D01*
X68839050Y-57576570D01*
X68778539Y-57769434D01*
X68680443Y-57946170D01*
X68548778Y-58099541D01*
X68388935Y-58223269D01*
X68242800Y-58298429D01*
X68052493Y-58377256D01*
X67797007Y-58524761D01*
X67562960Y-58704352D01*
X67562958Y-58704353D01*
X67562958Y-58704354D01*
X67515894Y-58751417D01*
X67359242Y-58879150D01*
X67180079Y-58972737D01*
X66985743Y-59028344D01*
X66784193Y-59043692D01*
X66583678Y-59018155D01*
X66392409Y-58952777D01*
X66218215Y-58850235D01*
X66068228Y-58714727D01*
X65948590Y-58551801D01*
X65864197Y-58368128D01*
X65818505Y-58171225D01*
X65810500Y-58045013D01*
X65810500Y-56366291D01*
X65830950Y-56165194D01*
X65850000Y-56104476D01*
X65850000Y-53295035D01*
X65843577Y-53263784D01*
X65826169Y-53202944D01*
X65822428Y-53160868D01*
X65815626Y-53127768D01*
X65810500Y-53026701D01*
X65810500Y-52427339D01*
X66450000Y-52427339D01*
X66450000Y-52532661D01*
X66477259Y-52634394D01*
X66529920Y-52725606D01*
X66604394Y-52800080D01*
X66695606Y-52852741D01*
X66797339Y-52880000D01*
X66902661Y-52880000D01*
X67004394Y-52852741D01*
X67095606Y-52800080D01*
X67170080Y-52725606D01*
X67222741Y-52634394D01*
X67250000Y-52532661D01*
X67250000Y-52427339D01*
X67222741Y-52325606D01*
X67170080Y-52234394D01*
X67095606Y-52159920D01*
X67004394Y-52107259D01*
X66902661Y-52080000D01*
X66797339Y-52080000D01*
X66695606Y-52107259D01*
X66604394Y-52159920D01*
X66529920Y-52234394D01*
X66477259Y-52325606D01*
X66450000Y-52427339D01*
X65810500Y-52427339D01*
X65810500Y-51933299D01*
X65830950Y-51732202D01*
X65850000Y-51671484D01*
X65850000Y-48856517D01*
X65848596Y-48850334D01*
X65829893Y-48789594D01*
X65826273Y-48752011D01*
X65817915Y-48715197D01*
X65810500Y-48593707D01*
X65810500Y-45819500D01*
X65830950Y-45618403D01*
X65891461Y-45425539D01*
X65989557Y-45248803D01*
X66121222Y-45095432D01*
X66281065Y-44971704D01*
X66462542Y-44882686D01*
X66658224Y-44832020D01*
X66809500Y-44820500D01*
X66990419Y-44820500D01*
X66990425Y-44820500D01*
X67269509Y-44789055D01*
X67543318Y-44726560D01*
X67543344Y-44726550D01*
X67570248Y-44718801D01*
X67570979Y-44721339D01*
X67727075Y-44683916D01*
X67929102Y-44677324D01*
X68128320Y-44711535D01*
G37*
%TD.AperFunction*%
%TA.AperFunction,Conductor*%
G36*
X49834871Y-44797989D02*
G01*
X50031858Y-44843315D01*
X50215688Y-44927367D01*
X50378836Y-45046703D01*
X50514622Y-45196437D01*
X50617488Y-45370440D01*
X50683221Y-45561587D01*
X50709131Y-45762054D01*
X50709500Y-45789217D01*
X50709500Y-48169919D01*
X50689050Y-48371016D01*
X50628539Y-48563880D01*
X50530443Y-48740616D01*
X50398778Y-48893987D01*
X50238935Y-49017715D01*
X50130295Y-49076436D01*
X49750000Y-49252545D01*
X49750000Y-51579999D01*
X49751756Y-51581755D01*
X49761099Y-51581282D01*
X49836113Y-51592773D01*
X49911597Y-51600450D01*
X49935811Y-51608047D01*
X49960902Y-51611891D01*
X50032065Y-51638246D01*
X50104461Y-51660961D01*
X50126650Y-51673277D01*
X50150454Y-51682093D01*
X50214852Y-51722232D01*
X50281197Y-51759057D01*
X50300455Y-51775589D01*
X50321994Y-51789015D01*
X50376989Y-51841292D01*
X50434568Y-51890722D01*
X50450105Y-51910794D01*
X50468499Y-51928279D01*
X50511843Y-51990552D01*
X50558296Y-52050565D01*
X50569474Y-52073353D01*
X50583972Y-52094183D01*
X50613896Y-52163915D01*
X50647314Y-52232042D01*
X50653675Y-52256610D01*
X50663685Y-52279936D01*
X50678959Y-52354262D01*
X50697980Y-52427724D01*
X50700290Y-52458060D01*
X50704374Y-52477933D01*
X50709500Y-52579000D01*
X50709500Y-52581000D01*
X50689050Y-52782097D01*
X50628539Y-52974961D01*
X50530443Y-53151697D01*
X50398778Y-53305068D01*
X50238935Y-53428796D01*
X50057458Y-53517814D01*
X49861776Y-53568480D01*
X49753257Y-53576743D01*
X49750000Y-53580001D01*
X49750000Y-55934142D01*
X49840775Y-56001466D01*
X49890568Y-56012193D01*
X49960902Y-56022968D01*
X49989154Y-56033431D01*
X50018605Y-56039776D01*
X50083718Y-56068454D01*
X50150454Y-56093170D01*
X50176025Y-56109108D01*
X50203592Y-56121250D01*
X50261600Y-56162448D01*
X50321994Y-56200092D01*
X50343830Y-56220848D01*
X50368392Y-56238293D01*
X50416926Y-56290332D01*
X50468499Y-56339356D01*
X50485708Y-56364081D01*
X50506258Y-56386115D01*
X50543324Y-56446860D01*
X50583972Y-56505260D01*
X50595851Y-56532942D01*
X50611546Y-56558663D01*
X50635626Y-56625628D01*
X50663685Y-56691013D01*
X50669749Y-56720521D01*
X50679944Y-56748873D01*
X50690050Y-56819311D01*
X50704374Y-56889010D01*
X50706737Y-56935608D01*
X50708653Y-56948959D01*
X50709500Y-56990077D01*
X50709500Y-57316147D01*
X50689050Y-57517244D01*
X50628539Y-57710108D01*
X50530443Y-57886844D01*
X50398778Y-58040215D01*
X50238935Y-58163943D01*
X50057458Y-58252961D01*
X50031631Y-58262126D01*
X50025051Y-58264359D01*
X49752493Y-58377256D01*
X49497012Y-58524758D01*
X49497009Y-58524760D01*
X49497006Y-58524762D01*
X49267647Y-58700755D01*
X49095665Y-58806947D01*
X48905818Y-58876349D01*
X48705887Y-58906114D01*
X48504058Y-58895025D01*
X48308592Y-58843534D01*
X48127492Y-58753750D01*
X47968172Y-58629349D01*
X47837156Y-58475424D01*
X47739807Y-58298276D01*
X47680110Y-58105158D01*
X47660500Y-57908192D01*
X47660500Y-56503376D01*
X47680950Y-56302279D01*
X47741461Y-56109415D01*
X47750000Y-56094030D01*
X47750000Y-53482168D01*
X47731776Y-53447280D01*
X47721313Y-53410715D01*
X47706315Y-53375765D01*
X47693577Y-53313784D01*
X47676169Y-53252944D01*
X47672428Y-53210868D01*
X47665626Y-53177768D01*
X47660500Y-53076701D01*
X47660500Y-52527339D01*
X48350000Y-52527339D01*
X48350000Y-52632661D01*
X48377259Y-52734394D01*
X48429920Y-52825606D01*
X48504394Y-52900080D01*
X48595606Y-52952741D01*
X48697339Y-52980000D01*
X48802661Y-52980000D01*
X48904394Y-52952741D01*
X48995606Y-52900080D01*
X49070080Y-52825606D01*
X49122741Y-52734394D01*
X49150000Y-52632661D01*
X49150000Y-52527339D01*
X49122741Y-52425606D01*
X49070080Y-52334394D01*
X48995606Y-52259920D01*
X48904394Y-52207259D01*
X48802661Y-52180000D01*
X48697339Y-52180000D01*
X48595606Y-52207259D01*
X48504394Y-52259920D01*
X48429920Y-52334394D01*
X48377259Y-52425606D01*
X48350000Y-52527339D01*
X47660500Y-52527339D01*
X47660500Y-52083299D01*
X47680950Y-51882202D01*
X47741461Y-51689338D01*
X47750000Y-51673953D01*
X47750000Y-49062494D01*
X47732884Y-49029964D01*
X47724754Y-49001869D01*
X47712672Y-48975240D01*
X47696722Y-48904992D01*
X47676699Y-48835795D01*
X47674391Y-48806643D01*
X47667916Y-48778123D01*
X47660500Y-48656622D01*
X47660500Y-45919500D01*
X47680950Y-45718403D01*
X47741461Y-45525539D01*
X47839557Y-45348803D01*
X47971222Y-45195432D01*
X48131065Y-45071704D01*
X48312542Y-44982686D01*
X48508224Y-44932020D01*
X48659500Y-44920500D01*
X48890419Y-44920500D01*
X48890425Y-44920500D01*
X49169509Y-44889055D01*
X49325288Y-44853499D01*
X49470646Y-44820323D01*
X49471148Y-44822525D01*
X49632792Y-44793244D01*
X49834871Y-44797989D01*
G37*
%TD.AperFunction*%
%TA.AperFunction,Conductor*%
G36*
X271211450Y-12120950D02*
G01*
X271404314Y-12181461D01*
X271581050Y-12279557D01*
X271734421Y-12411222D01*
X271858149Y-12571065D01*
X271947167Y-12752542D01*
X271997833Y-12948224D01*
X272009322Y-13091685D01*
X272626771Y-92022901D01*
X272626802Y-92030377D01*
X272646854Y-151102283D01*
X272626473Y-151303387D01*
X272566027Y-151496272D01*
X272467990Y-151673041D01*
X272336378Y-151826456D01*
X272176577Y-151950238D01*
X271995130Y-152039319D01*
X271799466Y-152090050D01*
X271649735Y-152101620D01*
X220048561Y-152198797D01*
X220047404Y-152198800D01*
X219981971Y-152198800D01*
X219981507Y-152198924D01*
X219981029Y-152198925D01*
X219981006Y-152198930D01*
X219981001Y-152198931D01*
X219919029Y-152215661D01*
X219917252Y-152216139D01*
X219854674Y-152232908D01*
X219853814Y-152233263D01*
X219798068Y-152265588D01*
X219796461Y-152266518D01*
X219740551Y-152298798D01*
X219739795Y-152299377D01*
X219698192Y-152341137D01*
X219541774Y-152469167D01*
X219362785Y-152563089D01*
X219168554Y-152619059D01*
X218989287Y-152635058D01*
X215735383Y-152631195D01*
X215534310Y-152610507D01*
X215341518Y-152549767D01*
X215214531Y-152481275D01*
X215190270Y-152468602D01*
X215009912Y-152374391D01*
X215009907Y-152374389D01*
X215009906Y-152374389D01*
X214814282Y-152318414D01*
X214790404Y-152316291D01*
X214694900Y-152307800D01*
X214694896Y-152307800D01*
X212800835Y-152307800D01*
X212800826Y-152307801D01*
X212681441Y-152318414D01*
X212437107Y-152388328D01*
X212435754Y-152383601D01*
X212336279Y-152412029D01*
X212134723Y-152427311D01*
X211934217Y-152401707D01*
X211884276Y-152386038D01*
X211883621Y-152388328D01*
X211639282Y-152318414D01*
X211519902Y-152307800D01*
X209897363Y-152307800D01*
X209696266Y-152287350D01*
X209503402Y-152226839D01*
X209326666Y-152128743D01*
X209173295Y-151997078D01*
X209049567Y-151837235D01*
X208960549Y-151655758D01*
X208909883Y-151460076D01*
X208898363Y-151308800D01*
X208898363Y-102986845D01*
X208898362Y-102986834D01*
X208861416Y-102753563D01*
X208861415Y-102753559D01*
X208788433Y-102528948D01*
X208788431Y-102528941D01*
X208781825Y-102515976D01*
X208781823Y-102515970D01*
X208696725Y-102348957D01*
X208681206Y-102318499D01*
X208542380Y-102127423D01*
X178968740Y-72553783D01*
X178777664Y-72414957D01*
X178777662Y-72414956D01*
X178777663Y-72414956D01*
X178567225Y-72307732D01*
X178567223Y-72307731D01*
X178342603Y-72234747D01*
X178342599Y-72234746D01*
X178109328Y-72197800D01*
X178109322Y-72197800D01*
X113906906Y-72197800D01*
X113705809Y-72177350D01*
X113512945Y-72116839D01*
X113336209Y-72018743D01*
X113182838Y-71887078D01*
X113059110Y-71727235D01*
X112970092Y-71545758D01*
X112919426Y-71350076D01*
X112909188Y-71148201D01*
X112939797Y-70948398D01*
X113009999Y-70758846D01*
X113116921Y-70587306D01*
X113200507Y-70492400D01*
X114911312Y-68781595D01*
X114911390Y-68781515D01*
X114954518Y-68738388D01*
X115093343Y-68547311D01*
X115200568Y-68336870D01*
X115236308Y-68226872D01*
X115273552Y-68112251D01*
X115273553Y-68112247D01*
X115310499Y-67878976D01*
X115310500Y-67878965D01*
X115310500Y-27049499D01*
X115330950Y-26848402D01*
X115391461Y-26655538D01*
X115489557Y-26478802D01*
X115621222Y-26325431D01*
X115781065Y-26201703D01*
X115962542Y-26112685D01*
X116158224Y-26062019D01*
X116309500Y-26050499D01*
X117408028Y-26050499D01*
X117408036Y-26050499D01*
X117527418Y-26039886D01*
X117723049Y-25983909D01*
X117903407Y-25889698D01*
X118061109Y-25761109D01*
X118189698Y-25603407D01*
X118283909Y-25423049D01*
X118339886Y-25227418D01*
X118350500Y-25108037D01*
X118350499Y-21491964D01*
X118339886Y-21372582D01*
X118283909Y-21176951D01*
X118189698Y-20996593D01*
X118061109Y-20838891D01*
X118061107Y-20838889D01*
X118032339Y-20803608D01*
X117921106Y-20634832D01*
X117846125Y-20447119D01*
X117819878Y-20328569D01*
X117813552Y-20288627D01*
X117740567Y-20064006D01*
X117707646Y-19999394D01*
X117707646Y-19999393D01*
X117633348Y-19853574D01*
X117633344Y-19853569D01*
X117633343Y-19853566D01*
X117494517Y-19662490D01*
X115900473Y-18068446D01*
X115709397Y-17929620D01*
X115709395Y-17929619D01*
X115709396Y-17929619D01*
X115498958Y-17822395D01*
X115498956Y-17822394D01*
X115274336Y-17749410D01*
X115274332Y-17749409D01*
X115041061Y-17712463D01*
X115041055Y-17712463D01*
X108195129Y-17712463D01*
X107958945Y-17712463D01*
X107958938Y-17712463D01*
X107725667Y-17749409D01*
X107725663Y-17749410D01*
X107501052Y-17822392D01*
X107501038Y-17822397D01*
X107290607Y-17929617D01*
X107290598Y-17929623D01*
X107099531Y-18068441D01*
X104935483Y-20232489D01*
X104796658Y-20423564D01*
X104796655Y-20423569D01*
X104780138Y-20455985D01*
X104780136Y-20455990D01*
X104746550Y-20521908D01*
X104689432Y-20634008D01*
X104616447Y-20858632D01*
X104590701Y-21021182D01*
X104564238Y-21100139D01*
X104556725Y-21116749D01*
X104552069Y-21134365D01*
X104515144Y-21208684D01*
X104480940Y-21284312D01*
X104470240Y-21299066D01*
X104462131Y-21315389D01*
X104411000Y-21380756D01*
X104362275Y-21447948D01*
X104348822Y-21460248D01*
X104337595Y-21474602D01*
X104274350Y-21528340D01*
X104213098Y-21584347D01*
X104197447Y-21593685D01*
X104183558Y-21605488D01*
X104110792Y-21645394D01*
X104039519Y-21687925D01*
X104022305Y-21693923D01*
X104006328Y-21702686D01*
X103927023Y-21727126D01*
X103848642Y-21754441D01*
X103830575Y-21756851D01*
X103813159Y-21762219D01*
X103730555Y-21770196D01*
X103648283Y-21781173D01*
X103630100Y-21779897D01*
X103611961Y-21781649D01*
X103529436Y-21772834D01*
X103446645Y-21767025D01*
X103429093Y-21762115D01*
X103410970Y-21760180D01*
X103348650Y-21744656D01*
X103069507Y-21680944D01*
X103069508Y-21680944D01*
X102790441Y-21649501D01*
X102790429Y-21649500D01*
X102790425Y-21649500D01*
X102509575Y-21649500D01*
X102509571Y-21649500D01*
X102509558Y-21649501D01*
X102230492Y-21680944D01*
X101956697Y-21743436D01*
X101956685Y-21743439D01*
X101956682Y-21743439D01*
X101956682Y-21743440D01*
X101691592Y-21836199D01*
X101691590Y-21836199D01*
X101691584Y-21836202D01*
X101438561Y-21958051D01*
X101438558Y-21958053D01*
X101200744Y-22107482D01*
X101022865Y-22249336D01*
X100852891Y-22358730D01*
X100664375Y-22431669D01*
X100465036Y-22465167D01*
X100263034Y-22457852D01*
X100066639Y-22410025D01*
X99883893Y-22323642D01*
X99777135Y-22249336D01*
X99599255Y-22107482D01*
X99599251Y-22107479D01*
X99599248Y-22107477D01*
X99361445Y-21958055D01*
X99361441Y-21958053D01*
X99361438Y-21958051D01*
X99108415Y-21836202D01*
X99108412Y-21836201D01*
X99108408Y-21836199D01*
X98843318Y-21743440D01*
X98843314Y-21743439D01*
X98843302Y-21743436D01*
X98569507Y-21680944D01*
X98569508Y-21680944D01*
X98290441Y-21649501D01*
X98290429Y-21649500D01*
X98290425Y-21649500D01*
X98009575Y-21649500D01*
X98009571Y-21649500D01*
X98009558Y-21649501D01*
X97730492Y-21680944D01*
X97456697Y-21743436D01*
X97456685Y-21743439D01*
X97456682Y-21743439D01*
X97456682Y-21743440D01*
X97191592Y-21836199D01*
X97191590Y-21836199D01*
X97191584Y-21836202D01*
X96938561Y-21958051D01*
X96938558Y-21958053D01*
X96700748Y-22107479D01*
X96481179Y-22282580D01*
X96282580Y-22481179D01*
X96107479Y-22700748D01*
X95958053Y-22938558D01*
X95958051Y-22938561D01*
X95836202Y-23191584D01*
X95743439Y-23456685D01*
X95743436Y-23456697D01*
X95680944Y-23730492D01*
X95649501Y-24009558D01*
X95649500Y-24009580D01*
X95649500Y-24290419D01*
X95649501Y-24290441D01*
X95680944Y-24569507D01*
X95722358Y-24750952D01*
X95743440Y-24843318D01*
X95836199Y-25108408D01*
X95836201Y-25108412D01*
X95836202Y-25108415D01*
X95958051Y-25361438D01*
X95958053Y-25361441D01*
X95958055Y-25361445D01*
X96066147Y-25533472D01*
X96107479Y-25599251D01*
X96236557Y-25761109D01*
X96282584Y-25818825D01*
X96481175Y-26017416D01*
X96700752Y-26192523D01*
X96938555Y-26341945D01*
X97191592Y-26463801D01*
X97191597Y-26463802D01*
X97217480Y-26474524D01*
X97216203Y-26477605D01*
X97355393Y-26542785D01*
X97517448Y-26663601D01*
X97651866Y-26814565D01*
X97753143Y-26989497D01*
X97817133Y-27181235D01*
X97841217Y-27381930D01*
X97824408Y-27583364D01*
X97767395Y-27777291D01*
X97672511Y-27955772D01*
X97543642Y-28111500D01*
X97386064Y-28238098D01*
X97217184Y-28324762D01*
X97217480Y-28325476D01*
X97208732Y-28329099D01*
X97206227Y-28330385D01*
X97200570Y-28332479D01*
X97191588Y-28336200D01*
X96938561Y-28458051D01*
X96938558Y-28458053D01*
X96700748Y-28607479D01*
X96481179Y-28782580D01*
X96282580Y-28981179D01*
X96107479Y-29200748D01*
X95958053Y-29438558D01*
X95958051Y-29438561D01*
X95836202Y-29691584D01*
X95743439Y-29956685D01*
X95743436Y-29956697D01*
X95680944Y-30230492D01*
X95649501Y-30509558D01*
X95649500Y-30509580D01*
X95649500Y-30790419D01*
X95649501Y-30790441D01*
X95680944Y-31069507D01*
X95743436Y-31343302D01*
X95743440Y-31343318D01*
X95836199Y-31608408D01*
X95836201Y-31608412D01*
X95836202Y-31608415D01*
X95958051Y-31861438D01*
X95958053Y-31861441D01*
X95958055Y-31861445D01*
X96107477Y-32099248D01*
X96282584Y-32318825D01*
X96481175Y-32517416D01*
X96510276Y-32540623D01*
X96657555Y-32658075D01*
X96700752Y-32692523D01*
X96938555Y-32841945D01*
X97191592Y-32963801D01*
X97456682Y-33056560D01*
X97730491Y-33119055D01*
X98009575Y-33150500D01*
X98009581Y-33150500D01*
X98290419Y-33150500D01*
X98290425Y-33150500D01*
X98569509Y-33119055D01*
X98843318Y-33056560D01*
X99108408Y-32963801D01*
X99361445Y-32841945D01*
X99599248Y-32692523D01*
X99777132Y-32550664D01*
X99947106Y-32441270D01*
X100135622Y-32368331D01*
X100334961Y-32334832D01*
X100536963Y-32342146D01*
X100733358Y-32389973D01*
X100916105Y-32476355D01*
X101022867Y-32550664D01*
X101200752Y-32692523D01*
X101438555Y-32841945D01*
X101691592Y-32963801D01*
X101956682Y-33056560D01*
X102230491Y-33119055D01*
X102509575Y-33150500D01*
X102509581Y-33150500D01*
X102790419Y-33150500D01*
X102790425Y-33150500D01*
X103069509Y-33119055D01*
X103223783Y-33083842D01*
X103358203Y-33053163D01*
X103558809Y-33028352D01*
X103760303Y-33044430D01*
X103954435Y-33100740D01*
X104133259Y-33194975D01*
X104289453Y-33323279D01*
X104416622Y-33480397D01*
X104509560Y-33659899D01*
X104564462Y-33854434D01*
X104579500Y-34027116D01*
X104579500Y-71625709D01*
X104559050Y-71826806D01*
X104498539Y-72019670D01*
X104400443Y-72196406D01*
X104286900Y-72332109D01*
X100476002Y-76143008D01*
X92604905Y-84014105D01*
X92466073Y-84205188D01*
X92409816Y-84315603D01*
X92409813Y-84315609D01*
X92358854Y-84415620D01*
X92358848Y-84415636D01*
X92285867Y-84640244D01*
X92285866Y-84640248D01*
X92248920Y-84873519D01*
X92248920Y-112195228D01*
X92248921Y-112195242D01*
X92285865Y-112428506D01*
X92285866Y-112428510D01*
X92358849Y-112653127D01*
X92358849Y-112653128D01*
X92358851Y-112653133D01*
X92358852Y-112653134D01*
X92466077Y-112863576D01*
X92604903Y-113054652D01*
X97792651Y-118242400D01*
X99195069Y-119644818D01*
X99195070Y-119644819D01*
X99386140Y-119783639D01*
X99386149Y-119783645D01*
X99596580Y-119890865D01*
X99596583Y-119890866D01*
X99596587Y-119890868D01*
X99646957Y-119907234D01*
X99821205Y-119963852D01*
X99821209Y-119963853D01*
X100054480Y-120000799D01*
X100054481Y-120000799D01*
X100054487Y-120000800D01*
X100054492Y-120000800D01*
X154007693Y-120000800D01*
X154208790Y-120021250D01*
X154401654Y-120081761D01*
X154578390Y-120179857D01*
X154731761Y-120311522D01*
X154855489Y-120471365D01*
X154944507Y-120652842D01*
X154995173Y-120848524D01*
X155005411Y-121050399D01*
X154974802Y-121250202D01*
X154904600Y-121439754D01*
X154797678Y-121611294D01*
X154714093Y-121706200D01*
X133228348Y-143191945D01*
X133089519Y-143383025D01*
X132982295Y-143593462D01*
X132982294Y-143593464D01*
X132909310Y-143818084D01*
X132909309Y-143818088D01*
X132872363Y-144051359D01*
X132872363Y-151308800D01*
X132851913Y-151509897D01*
X132791402Y-151702761D01*
X132693306Y-151879497D01*
X132561641Y-152032868D01*
X132401798Y-152156596D01*
X132220321Y-152245614D01*
X132024639Y-152296280D01*
X131873364Y-152307800D01*
X130250835Y-152307800D01*
X130250826Y-152307801D01*
X130131441Y-152318414D01*
X129887107Y-152388328D01*
X129885754Y-152383601D01*
X129786279Y-152412029D01*
X129584723Y-152427311D01*
X129384217Y-152401707D01*
X129334276Y-152386038D01*
X129333621Y-152388328D01*
X129089282Y-152318414D01*
X129065404Y-152316291D01*
X128969900Y-152307800D01*
X128969896Y-152307800D01*
X127075835Y-152307800D01*
X127075826Y-152307801D01*
X126956441Y-152318414D01*
X126712107Y-152388328D01*
X126710754Y-152383601D01*
X126611279Y-152412029D01*
X126409723Y-152427311D01*
X126209217Y-152401707D01*
X126159276Y-152386038D01*
X126158621Y-152388328D01*
X125914282Y-152318414D01*
X125890404Y-152316291D01*
X125794900Y-152307800D01*
X125794896Y-152307800D01*
X123900835Y-152307800D01*
X123900826Y-152307801D01*
X123781441Y-152318414D01*
X123537107Y-152388328D01*
X123535754Y-152383601D01*
X123436279Y-152412029D01*
X123234723Y-152427311D01*
X123034217Y-152401707D01*
X122984276Y-152386038D01*
X122983621Y-152388328D01*
X122739282Y-152318414D01*
X122715404Y-152316291D01*
X122619900Y-152307800D01*
X122619896Y-152307800D01*
X120725835Y-152307800D01*
X120725826Y-152307801D01*
X120606441Y-152318414D01*
X120362107Y-152388328D01*
X120360754Y-152383601D01*
X120261279Y-152412029D01*
X120059723Y-152427311D01*
X119859217Y-152401707D01*
X119809276Y-152386038D01*
X119808621Y-152388328D01*
X119564282Y-152318414D01*
X119540404Y-152316291D01*
X119444900Y-152307800D01*
X119444896Y-152307800D01*
X117550835Y-152307800D01*
X117550826Y-152307801D01*
X117431441Y-152318414D01*
X117187107Y-152388328D01*
X117185754Y-152383601D01*
X117086279Y-152412029D01*
X116884723Y-152427311D01*
X116684217Y-152401707D01*
X116634276Y-152386038D01*
X116633621Y-152388328D01*
X116389282Y-152318414D01*
X116365404Y-152316291D01*
X116269900Y-152307800D01*
X116269896Y-152307800D01*
X114375835Y-152307800D01*
X114375826Y-152307801D01*
X114256441Y-152318414D01*
X114012107Y-152388328D01*
X114010754Y-152383601D01*
X113911279Y-152412029D01*
X113709723Y-152427311D01*
X113509217Y-152401707D01*
X113459276Y-152386038D01*
X113458621Y-152388328D01*
X113214282Y-152318414D01*
X113190404Y-152316291D01*
X113094900Y-152307800D01*
X113094896Y-152307800D01*
X111200835Y-152307800D01*
X111200826Y-152307801D01*
X111081441Y-152318414D01*
X110837107Y-152388328D01*
X110835754Y-152383601D01*
X110736279Y-152412029D01*
X110534723Y-152427311D01*
X110334217Y-152401707D01*
X110284276Y-152386038D01*
X110283621Y-152388328D01*
X110039282Y-152318414D01*
X110015404Y-152316291D01*
X109919900Y-152307800D01*
X109919896Y-152307800D01*
X108025835Y-152307800D01*
X108025826Y-152307801D01*
X107906441Y-152318414D01*
X107662107Y-152388328D01*
X107660754Y-152383601D01*
X107561279Y-152412029D01*
X107359723Y-152427311D01*
X107159217Y-152401707D01*
X107109276Y-152386038D01*
X107108621Y-152388328D01*
X106864282Y-152318414D01*
X106840404Y-152316291D01*
X106744900Y-152307800D01*
X106744896Y-152307800D01*
X104850835Y-152307800D01*
X104850826Y-152307801D01*
X104731441Y-152318414D01*
X104487107Y-152388328D01*
X104485754Y-152383601D01*
X104386279Y-152412029D01*
X104184723Y-152427311D01*
X103984217Y-152401707D01*
X103934276Y-152386038D01*
X103933621Y-152388328D01*
X103689282Y-152318414D01*
X103665404Y-152316291D01*
X103569900Y-152307800D01*
X103569896Y-152307800D01*
X101675835Y-152307800D01*
X101675826Y-152307801D01*
X101556441Y-152318414D01*
X101312107Y-152388328D01*
X101310754Y-152383601D01*
X101211279Y-152412029D01*
X101009723Y-152427311D01*
X100809217Y-152401707D01*
X100759276Y-152386038D01*
X100758621Y-152388328D01*
X100514282Y-152318414D01*
X100490404Y-152316291D01*
X100394900Y-152307800D01*
X100394896Y-152307800D01*
X98500835Y-152307800D01*
X98500826Y-152307801D01*
X98381441Y-152318414D01*
X98137107Y-152388328D01*
X98135754Y-152383601D01*
X98036279Y-152412029D01*
X97834723Y-152427311D01*
X97634217Y-152401707D01*
X97584276Y-152386038D01*
X97583621Y-152388328D01*
X97339282Y-152318414D01*
X97315404Y-152316291D01*
X97219900Y-152307800D01*
X97219896Y-152307800D01*
X95325835Y-152307800D01*
X95325826Y-152307801D01*
X95206441Y-152318414D01*
X94962107Y-152388328D01*
X94960754Y-152383601D01*
X94861279Y-152412029D01*
X94659723Y-152427311D01*
X94459217Y-152401707D01*
X94409276Y-152386038D01*
X94408621Y-152388328D01*
X94164282Y-152318414D01*
X94140404Y-152316291D01*
X94044900Y-152307800D01*
X94044896Y-152307800D01*
X92150835Y-152307800D01*
X92150826Y-152307801D01*
X92031441Y-152318414D01*
X91787107Y-152388328D01*
X91785754Y-152383601D01*
X91686279Y-152412029D01*
X91484723Y-152427311D01*
X91284217Y-152401707D01*
X91234276Y-152386038D01*
X91233621Y-152388328D01*
X90989282Y-152318414D01*
X90965404Y-152316291D01*
X90869900Y-152307800D01*
X90869896Y-152307800D01*
X88975835Y-152307800D01*
X88975826Y-152307801D01*
X88856441Y-152318414D01*
X88612107Y-152388328D01*
X88610754Y-152383601D01*
X88511279Y-152412029D01*
X88309723Y-152427311D01*
X88109217Y-152401707D01*
X88059276Y-152386038D01*
X88058621Y-152388328D01*
X87814282Y-152318414D01*
X87790404Y-152316291D01*
X87694900Y-152307800D01*
X87694896Y-152307800D01*
X85800835Y-152307800D01*
X85800826Y-152307801D01*
X85681441Y-152318414D01*
X85437107Y-152388328D01*
X85435754Y-152383601D01*
X85336279Y-152412029D01*
X85134723Y-152427311D01*
X84934217Y-152401707D01*
X84884276Y-152386038D01*
X84883621Y-152388328D01*
X84639282Y-152318414D01*
X84615404Y-152316291D01*
X84519900Y-152307800D01*
X84519896Y-152307800D01*
X82625835Y-152307800D01*
X82625826Y-152307801D01*
X82506441Y-152318414D01*
X82262107Y-152388328D01*
X82260754Y-152383601D01*
X82161279Y-152412029D01*
X81959723Y-152427311D01*
X81759217Y-152401707D01*
X81709276Y-152386038D01*
X81708621Y-152388328D01*
X81464282Y-152318414D01*
X81440404Y-152316291D01*
X81344900Y-152307800D01*
X81344896Y-152307800D01*
X79450835Y-152307800D01*
X79450826Y-152307801D01*
X79331441Y-152318414D01*
X79087107Y-152388328D01*
X79085754Y-152383601D01*
X78986279Y-152412029D01*
X78784723Y-152427311D01*
X78584217Y-152401707D01*
X78534276Y-152386038D01*
X78533621Y-152388328D01*
X78289282Y-152318414D01*
X78265404Y-152316291D01*
X78169900Y-152307800D01*
X78169896Y-152307800D01*
X76275835Y-152307800D01*
X76275826Y-152307801D01*
X76156443Y-152318414D01*
X75912106Y-152388328D01*
X75910753Y-152383601D01*
X75811367Y-152412013D01*
X75609813Y-152427313D01*
X75409304Y-152401727D01*
X75359278Y-152386029D01*
X75358621Y-152388328D01*
X75114282Y-152318414D01*
X75090404Y-152316291D01*
X74994900Y-152307800D01*
X74994896Y-152307800D01*
X73100835Y-152307800D01*
X73100826Y-152307801D01*
X72981441Y-152318414D01*
X72737107Y-152388328D01*
X72735754Y-152383601D01*
X72636279Y-152412029D01*
X72434723Y-152427311D01*
X72234217Y-152401707D01*
X72184276Y-152386038D01*
X72183621Y-152388328D01*
X71939282Y-152318414D01*
X71915404Y-152316291D01*
X71819900Y-152307800D01*
X71819896Y-152307800D01*
X69925835Y-152307800D01*
X69925826Y-152307801D01*
X69806443Y-152318414D01*
X69710756Y-152345794D01*
X69610814Y-152374391D01*
X69610811Y-152374392D01*
X69562109Y-152388328D01*
X69560756Y-152383601D01*
X69461103Y-152412061D01*
X69259545Y-152427306D01*
X69059043Y-152401666D01*
X69009273Y-152386046D01*
X69008621Y-152388328D01*
X68764282Y-152318414D01*
X68740404Y-152316291D01*
X68644900Y-152307800D01*
X68644896Y-152307800D01*
X66750835Y-152307800D01*
X66750826Y-152307801D01*
X66631443Y-152318414D01*
X66535756Y-152345794D01*
X66435814Y-152374391D01*
X66435811Y-152374392D01*
X66387109Y-152388328D01*
X66385756Y-152383601D01*
X66286544Y-152411983D01*
X66084993Y-152427319D01*
X65884480Y-152401769D01*
X65834279Y-152386018D01*
X65833619Y-152388328D01*
X65784912Y-152374391D01*
X65589281Y-152318414D01*
X65469900Y-152307800D01*
X65469896Y-152307800D01*
X63575835Y-152307800D01*
X63575826Y-152307801D01*
X63456441Y-152318414D01*
X63456436Y-152318415D01*
X63212107Y-152388327D01*
X63210754Y-152383601D01*
X63111191Y-152412045D01*
X62909634Y-152427309D01*
X62709130Y-152401687D01*
X62659276Y-152386037D01*
X62658621Y-152388328D01*
X62414282Y-152318414D01*
X62390404Y-152316291D01*
X62294900Y-152307800D01*
X62294896Y-152307800D01*
X59384834Y-152307800D01*
X59384826Y-152307801D01*
X59265441Y-152318414D01*
X59218748Y-152327089D01*
X59218613Y-152326366D01*
X59070593Y-152352894D01*
X58868524Y-152347770D01*
X58671622Y-152302075D01*
X58495252Y-152221937D01*
X58341048Y-152132907D01*
X58341046Y-152132906D01*
X58213760Y-152098801D01*
X58213757Y-152098800D01*
X58213755Y-152098800D01*
X58213751Y-152098800D01*
X21647386Y-152098800D01*
X21446289Y-152078350D01*
X21253425Y-152017839D01*
X21076689Y-151919743D01*
X20923318Y-151788078D01*
X20799590Y-151628235D01*
X20710572Y-151446758D01*
X20659906Y-151251076D01*
X20648386Y-151099785D01*
X20649775Y-60252488D01*
X42499500Y-60252488D01*
X42499500Y-60547511D01*
X42538005Y-60839983D01*
X42538006Y-60839988D01*
X42538007Y-60839993D01*
X42598090Y-61064226D01*
X42614361Y-61124952D01*
X42727256Y-61397506D01*
X42727257Y-61397507D01*
X42874762Y-61652994D01*
X43054354Y-61887042D01*
X43262958Y-62095646D01*
X43497006Y-62275238D01*
X43752493Y-62422743D01*
X44025048Y-62535639D01*
X44310007Y-62611993D01*
X44602494Y-62650500D01*
X44602495Y-62650500D01*
X44897505Y-62650500D01*
X44897506Y-62650500D01*
X45189993Y-62611993D01*
X45474952Y-62535639D01*
X45747507Y-62422743D01*
X46002994Y-62275238D01*
X46237042Y-62095646D01*
X46445646Y-61887042D01*
X46625238Y-61652994D01*
X46772743Y-61397507D01*
X46772745Y-61397503D01*
X46827044Y-61266414D01*
X46922893Y-61088450D01*
X47052604Y-60933423D01*
X47210866Y-60807680D01*
X47391201Y-60716370D01*
X47586225Y-60663229D01*
X47787954Y-60650434D01*
X47988129Y-60678509D01*
X48178555Y-60746304D01*
X48351436Y-60851044D01*
X48499694Y-60988441D01*
X48617260Y-61152869D01*
X48672956Y-61266414D01*
X48727254Y-61397503D01*
X48727255Y-61397504D01*
X48727257Y-61397507D01*
X48874762Y-61652994D01*
X49054354Y-61887042D01*
X49262958Y-62095646D01*
X49497006Y-62275238D01*
X49752493Y-62422743D01*
X50025048Y-62535639D01*
X50310007Y-62611993D01*
X50602494Y-62650500D01*
X50602495Y-62650500D01*
X50897505Y-62650500D01*
X50897506Y-62650500D01*
X51189993Y-62611993D01*
X51474952Y-62535639D01*
X51747507Y-62422743D01*
X52002994Y-62275238D01*
X52237042Y-62095646D01*
X52445646Y-61887042D01*
X52625238Y-61652994D01*
X52772743Y-61397507D01*
X52885639Y-61124952D01*
X52961993Y-60839993D01*
X52998079Y-60565893D01*
X53007118Y-60527675D01*
X53011355Y-60488621D01*
X53030323Y-60429557D01*
X53044600Y-60369195D01*
X53061150Y-60333570D01*
X53073163Y-60296168D01*
X53103630Y-60242136D01*
X53129767Y-60185879D01*
X53155110Y-60150840D01*
X53172446Y-60120097D01*
X53207101Y-60078960D01*
X53234926Y-60040491D01*
X53257652Y-60014374D01*
X53354518Y-59917510D01*
X53418083Y-59830018D01*
X53446895Y-59796911D01*
X53488764Y-59757643D01*
X53527036Y-59714849D01*
X53562304Y-59688674D01*
X53594334Y-59658636D01*
X53643254Y-59628598D01*
X53689354Y-59594386D01*
X53729163Y-59575849D01*
X53766589Y-59552870D01*
X53820555Y-59533295D01*
X53872597Y-59509063D01*
X53915329Y-59498918D01*
X53956609Y-59483945D01*
X54013405Y-59475634D01*
X54025105Y-59472856D01*
X54009089Y-59460021D01*
X53880034Y-59304448D01*
X53784937Y-59126081D01*
X53727692Y-58932222D01*
X53710500Y-58747683D01*
X53710500Y-56466291D01*
X53730950Y-56265194D01*
X53750000Y-56204476D01*
X53750000Y-53395035D01*
X53743577Y-53363784D01*
X53726169Y-53302944D01*
X53722428Y-53260868D01*
X53715626Y-53227768D01*
X53710500Y-53126701D01*
X53710500Y-52527339D01*
X54350000Y-52527339D01*
X54350000Y-52632661D01*
X54377259Y-52734394D01*
X54429920Y-52825606D01*
X54504394Y-52900080D01*
X54595606Y-52952741D01*
X54697339Y-52980000D01*
X54802661Y-52980000D01*
X54904394Y-52952741D01*
X54995606Y-52900080D01*
X55070080Y-52825606D01*
X55122741Y-52734394D01*
X55150000Y-52632661D01*
X55150000Y-52527339D01*
X55122741Y-52425606D01*
X55070080Y-52334394D01*
X54995606Y-52259920D01*
X54904394Y-52207259D01*
X54802661Y-52180000D01*
X54697339Y-52180000D01*
X54595606Y-52207259D01*
X54504394Y-52259920D01*
X54429920Y-52334394D01*
X54377259Y-52425606D01*
X54350000Y-52527339D01*
X53710500Y-52527339D01*
X53710500Y-52033299D01*
X53730950Y-51832202D01*
X53750000Y-51771484D01*
X53750000Y-48956517D01*
X53748596Y-48950334D01*
X53729893Y-48889594D01*
X53726273Y-48852011D01*
X53717915Y-48815197D01*
X53710500Y-48693707D01*
X53710500Y-45919500D01*
X53730950Y-45718403D01*
X53791461Y-45525539D01*
X53889557Y-45348803D01*
X54021222Y-45195432D01*
X54181065Y-45071704D01*
X54362542Y-44982686D01*
X54558224Y-44932020D01*
X54709500Y-44920500D01*
X54890419Y-44920500D01*
X54890425Y-44920500D01*
X55169509Y-44889055D01*
X55443318Y-44826560D01*
X55443344Y-44826550D01*
X55470248Y-44818801D01*
X55470979Y-44821339D01*
X55627075Y-44783916D01*
X55829102Y-44777324D01*
X56028320Y-44811535D01*
X56216574Y-44885148D01*
X56386156Y-44995149D01*
X56530123Y-45137035D01*
X56642582Y-45304997D01*
X56718929Y-45492159D01*
X56756037Y-45690857D01*
X56759500Y-45773966D01*
X56759500Y-48185087D01*
X56739050Y-48386184D01*
X56678539Y-48579048D01*
X56580443Y-48755784D01*
X56448778Y-48909155D01*
X56288935Y-49032883D01*
X56195675Y-49084322D01*
X55750000Y-49300001D01*
X55750000Y-51579999D01*
X55750001Y-51580000D01*
X55760500Y-51580000D01*
X55785748Y-51582567D01*
X55811099Y-51581282D01*
X55886113Y-51592773D01*
X55961597Y-51600450D01*
X55985811Y-51608047D01*
X56010902Y-51611891D01*
X56082065Y-51638246D01*
X56154461Y-51660961D01*
X56176650Y-51673277D01*
X56200454Y-51682093D01*
X56264852Y-51722232D01*
X56331197Y-51759057D01*
X56350455Y-51775589D01*
X56371994Y-51789015D01*
X56426989Y-51841292D01*
X56484568Y-51890722D01*
X56500105Y-51910794D01*
X56518499Y-51928279D01*
X56561843Y-51990552D01*
X56608296Y-52050565D01*
X56619474Y-52073353D01*
X56633972Y-52094183D01*
X56663896Y-52163915D01*
X56697314Y-52232042D01*
X56703675Y-52256610D01*
X56713685Y-52279936D01*
X56728959Y-52354262D01*
X56747980Y-52427724D01*
X56750290Y-52458060D01*
X56754374Y-52477933D01*
X56759500Y-52579000D01*
X56759500Y-52581000D01*
X56739050Y-52782097D01*
X56678539Y-52974961D01*
X56580443Y-53151697D01*
X56448778Y-53305068D01*
X56288935Y-53428796D01*
X56107458Y-53517814D01*
X55911776Y-53568480D01*
X55760500Y-53580000D01*
X55750001Y-53580000D01*
X55750000Y-53580001D01*
X55750000Y-55934142D01*
X55808240Y-55977336D01*
X55811099Y-55977192D01*
X55840882Y-55981754D01*
X55871006Y-55982041D01*
X55940564Y-55997025D01*
X56010902Y-56007801D01*
X56039152Y-56018263D01*
X56068607Y-56024609D01*
X56133726Y-56053289D01*
X56200454Y-56078003D01*
X56226025Y-56093941D01*
X56253594Y-56106084D01*
X56311601Y-56147281D01*
X56371994Y-56184925D01*
X56393831Y-56205683D01*
X56418394Y-56223128D01*
X56466924Y-56275164D01*
X56518499Y-56324189D01*
X56535710Y-56348917D01*
X56556259Y-56370950D01*
X56593320Y-56431687D01*
X56633972Y-56490093D01*
X56645854Y-56517781D01*
X56661546Y-56543498D01*
X56685623Y-56610456D01*
X56713685Y-56675846D01*
X56719748Y-56705354D01*
X56729945Y-56733708D01*
X56740053Y-56804156D01*
X56754374Y-56873843D01*
X56756736Y-56920432D01*
X56758654Y-56933793D01*
X56759500Y-56974910D01*
X56759500Y-57723232D01*
X56739050Y-57924329D01*
X56678539Y-58117193D01*
X56580443Y-58293929D01*
X56448778Y-58447300D01*
X56288935Y-58571028D01*
X56260005Y-58588389D01*
X56197005Y-58624761D01*
X55962960Y-58804352D01*
X55754352Y-59012960D01*
X55574759Y-59247008D01*
X55574759Y-59247009D01*
X55574658Y-59247185D01*
X55574442Y-59247484D01*
X55556589Y-59274203D01*
X55555629Y-59273561D01*
X55456399Y-59411115D01*
X55307562Y-59547885D01*
X55134240Y-59651893D01*
X54943530Y-59718884D01*
X54885350Y-59726793D01*
X54893633Y-59733294D01*
X54930735Y-59777105D01*
X54971530Y-59817489D01*
X54995880Y-59854032D01*
X55024263Y-59887547D01*
X55051783Y-59937925D01*
X55083618Y-59985699D01*
X55100115Y-60026400D01*
X55121168Y-60064938D01*
X55137984Y-60119826D01*
X55159550Y-60173030D01*
X55167516Y-60216214D01*
X55180381Y-60258205D01*
X55185804Y-60315358D01*
X55196218Y-60371810D01*
X55199500Y-60452716D01*
X55199500Y-60647511D01*
X55238005Y-60939983D01*
X55238006Y-60939987D01*
X55238007Y-60939993D01*
X55297952Y-61163711D01*
X55314361Y-61224952D01*
X55427256Y-61497506D01*
X55427257Y-61497507D01*
X55574762Y-61752994D01*
X55754354Y-61987042D01*
X55962958Y-62195646D01*
X56197006Y-62375238D01*
X56452493Y-62522743D01*
X56725048Y-62635639D01*
X57010007Y-62711993D01*
X57302494Y-62750500D01*
X57302495Y-62750500D01*
X57597505Y-62750500D01*
X57597506Y-62750500D01*
X57889993Y-62711993D01*
X58174952Y-62635639D01*
X58447507Y-62522743D01*
X58702994Y-62375238D01*
X58937042Y-62195646D01*
X59145646Y-61987042D01*
X59325238Y-61752994D01*
X59434841Y-61563154D01*
X59553097Y-61399227D01*
X59701934Y-61262457D01*
X59875255Y-61158448D01*
X60065965Y-61091456D01*
X60266257Y-61064226D01*
X60467930Y-61077872D01*
X60662728Y-61131834D01*
X60842676Y-61223905D01*
X61000407Y-61350314D01*
X61129463Y-61505887D01*
X61165154Y-61563147D01*
X61274762Y-61752994D01*
X61454354Y-61987042D01*
X61662958Y-62195646D01*
X61897006Y-62375238D01*
X62152493Y-62522743D01*
X62425048Y-62635639D01*
X62710007Y-62711993D01*
X63002494Y-62750500D01*
X63002495Y-62750500D01*
X63297505Y-62750500D01*
X63297506Y-62750500D01*
X63589993Y-62711993D01*
X63874952Y-62635639D01*
X64147507Y-62522743D01*
X64402994Y-62375238D01*
X64637042Y-62195646D01*
X64845646Y-61987042D01*
X65025238Y-61752994D01*
X65172743Y-61497507D01*
X65198091Y-61436312D01*
X65293939Y-61258347D01*
X65423649Y-61103320D01*
X65581911Y-60977576D01*
X65762245Y-60886264D01*
X65957269Y-60833123D01*
X66158998Y-60820327D01*
X66359173Y-60848401D01*
X66549600Y-60916195D01*
X66722481Y-61020934D01*
X66870740Y-61158330D01*
X66988306Y-61322758D01*
X67017023Y-61376756D01*
X67027254Y-61397503D01*
X67089830Y-61505887D01*
X67174762Y-61652994D01*
X67354354Y-61887042D01*
X67562958Y-62095646D01*
X67797006Y-62275238D01*
X68052493Y-62422743D01*
X68325048Y-62535639D01*
X68610007Y-62611993D01*
X68902494Y-62650500D01*
X68902495Y-62650500D01*
X69197505Y-62650500D01*
X69197506Y-62650500D01*
X69489993Y-62611993D01*
X69774952Y-62535639D01*
X70047507Y-62422743D01*
X70302994Y-62275238D01*
X70537042Y-62095646D01*
X70745646Y-61887042D01*
X70925238Y-61652994D01*
X71072743Y-61397507D01*
X71072744Y-61397502D01*
X71084839Y-61376555D01*
X71203097Y-61212624D01*
X71351934Y-61075854D01*
X71525255Y-60971845D01*
X71715965Y-60904853D01*
X71916257Y-60877623D01*
X72117930Y-60891269D01*
X72312728Y-60945231D01*
X72492676Y-61037302D01*
X72650407Y-61163711D01*
X72779463Y-61319284D01*
X72815161Y-61376555D01*
X72827255Y-61397503D01*
X72827257Y-61397507D01*
X72974762Y-61652994D01*
X73154354Y-61887042D01*
X73362958Y-62095646D01*
X73597006Y-62275238D01*
X73852493Y-62422743D01*
X74125048Y-62535639D01*
X74410007Y-62611993D01*
X74702494Y-62650500D01*
X74702495Y-62650500D01*
X74997505Y-62650500D01*
X74997506Y-62650500D01*
X75289993Y-62611993D01*
X75574952Y-62535639D01*
X75847507Y-62422743D01*
X76102994Y-62275238D01*
X76337042Y-62095646D01*
X76545646Y-61887042D01*
X76725238Y-61652994D01*
X76872743Y-61397507D01*
X76985639Y-61124952D01*
X77061993Y-60839993D01*
X77061994Y-60839983D01*
X77062642Y-60836728D01*
X77064420Y-60830930D01*
X77070456Y-60808406D01*
X77071264Y-60808622D01*
X77121929Y-60643484D01*
X77218902Y-60466130D01*
X77349591Y-60311927D01*
X77508646Y-60187188D01*
X77689554Y-60097019D01*
X77884911Y-60045114D01*
X78086717Y-60033595D01*
X78286710Y-60062936D01*
X78476703Y-60131934D01*
X78648918Y-60237766D01*
X78796304Y-60376098D01*
X78912827Y-60541266D01*
X78993717Y-60726510D01*
X79032901Y-60901212D01*
X79038006Y-60939987D01*
X79038007Y-60939993D01*
X79097952Y-61163711D01*
X79114361Y-61224952D01*
X79227256Y-61497506D01*
X79227257Y-61497507D01*
X79374762Y-61752994D01*
X79554354Y-61987042D01*
X79762958Y-62195646D01*
X79997006Y-62375238D01*
X80252493Y-62522743D01*
X80525048Y-62635639D01*
X80810007Y-62711993D01*
X81102494Y-62750500D01*
X81102495Y-62750500D01*
X81397505Y-62750500D01*
X81397506Y-62750500D01*
X81689993Y-62711993D01*
X81974952Y-62635639D01*
X82247507Y-62522743D01*
X82502994Y-62375238D01*
X82737042Y-62195646D01*
X82945646Y-61987042D01*
X83125238Y-61752994D01*
X83272743Y-61497507D01*
X83385639Y-61224952D01*
X83461993Y-60939993D01*
X83500500Y-60647506D01*
X83500500Y-60647500D01*
X83503857Y-60622002D01*
X83503907Y-60619578D01*
X83504551Y-60616735D01*
X83504769Y-60615082D01*
X83504921Y-60615102D01*
X83520080Y-60548229D01*
X83532226Y-60476079D01*
X83542377Y-60449863D01*
X83548593Y-60422445D01*
X83578798Y-60355811D01*
X83605219Y-60287584D01*
X83622564Y-60259264D01*
X83632048Y-60238343D01*
X83687294Y-60153576D01*
X83692278Y-60146717D01*
X83827012Y-59996050D01*
X83989325Y-59875582D01*
X84172566Y-59790253D01*
X84281310Y-59764433D01*
X84259092Y-59746627D01*
X84130036Y-59591054D01*
X84034939Y-59412687D01*
X83977693Y-59218828D01*
X83960500Y-59034286D01*
X83960500Y-56403376D01*
X83980950Y-56202279D01*
X84041461Y-56009415D01*
X84050000Y-55994030D01*
X84050000Y-53382168D01*
X84031776Y-53347280D01*
X84021313Y-53310715D01*
X84006315Y-53275765D01*
X83993577Y-53213784D01*
X83976169Y-53152944D01*
X83972428Y-53110868D01*
X83965626Y-53077768D01*
X83960500Y-52976701D01*
X83960500Y-52427339D01*
X84650000Y-52427339D01*
X84650000Y-52532661D01*
X84677259Y-52634394D01*
X84729920Y-52725606D01*
X84804394Y-52800080D01*
X84895606Y-52852741D01*
X84997339Y-52880000D01*
X85102661Y-52880000D01*
X85204394Y-52852741D01*
X85295606Y-52800080D01*
X85370080Y-52725606D01*
X85422741Y-52634394D01*
X85450000Y-52532661D01*
X85450000Y-52427339D01*
X85422741Y-52325606D01*
X85370080Y-52234394D01*
X85295606Y-52159920D01*
X85204394Y-52107259D01*
X85102661Y-52080000D01*
X84997339Y-52080000D01*
X84895606Y-52107259D01*
X84804394Y-52159920D01*
X84729920Y-52234394D01*
X84677259Y-52325606D01*
X84650000Y-52427339D01*
X83960500Y-52427339D01*
X83960500Y-51983299D01*
X83980950Y-51782202D01*
X84041461Y-51589338D01*
X84050000Y-51573953D01*
X84050000Y-48962494D01*
X84032884Y-48929964D01*
X84024754Y-48901869D01*
X84012672Y-48875240D01*
X83996722Y-48804992D01*
X83976699Y-48735795D01*
X83973846Y-48704241D01*
X83967916Y-48678123D01*
X83966863Y-48627011D01*
X83960500Y-48556622D01*
X83960500Y-45819500D01*
X83980950Y-45618403D01*
X84041461Y-45425539D01*
X84139557Y-45248803D01*
X84271222Y-45095432D01*
X84431065Y-44971704D01*
X84612542Y-44882686D01*
X84808224Y-44832020D01*
X84959500Y-44820500D01*
X85190419Y-44820500D01*
X85190425Y-44820500D01*
X85469509Y-44789055D01*
X85625288Y-44753499D01*
X85770646Y-44720323D01*
X85771148Y-44722525D01*
X85932792Y-44693244D01*
X86134871Y-44697989D01*
X86331858Y-44743315D01*
X86515688Y-44827367D01*
X86678836Y-44946703D01*
X86814622Y-45096437D01*
X86917488Y-45270440D01*
X86983221Y-45461587D01*
X87009131Y-45662054D01*
X87009500Y-45689217D01*
X87009500Y-48069919D01*
X87008365Y-48081075D01*
X87009250Y-48092250D01*
X86998150Y-48181527D01*
X86989050Y-48271016D01*
X86985694Y-48281709D01*
X86984311Y-48292840D01*
X86955464Y-48378061D01*
X86928539Y-48463880D01*
X86923097Y-48473683D01*
X86919503Y-48484303D01*
X86874102Y-48561956D01*
X86830443Y-48640616D01*
X86823139Y-48649123D01*
X86817481Y-48658802D01*
X86757373Y-48725731D01*
X86698778Y-48793987D01*
X86689911Y-48800849D01*
X86682421Y-48809191D01*
X86610079Y-48862644D01*
X86538935Y-48917715D01*
X86528867Y-48922653D01*
X86519852Y-48929315D01*
X86430295Y-48976436D01*
X86050000Y-49152545D01*
X86050000Y-51479999D01*
X86051756Y-51481755D01*
X86061099Y-51481282D01*
X86136113Y-51492773D01*
X86211597Y-51500450D01*
X86235811Y-51508047D01*
X86260902Y-51511891D01*
X86332065Y-51538246D01*
X86404461Y-51560961D01*
X86426650Y-51573277D01*
X86450454Y-51582093D01*
X86514852Y-51622232D01*
X86581197Y-51659057D01*
X86600455Y-51675589D01*
X86621994Y-51689015D01*
X86676989Y-51741292D01*
X86734568Y-51790722D01*
X86750105Y-51810794D01*
X86768499Y-51828279D01*
X86811843Y-51890552D01*
X86858296Y-51950565D01*
X86869474Y-51973353D01*
X86883972Y-51994183D01*
X86913896Y-52063915D01*
X86947314Y-52132042D01*
X86953675Y-52156610D01*
X86963685Y-52179936D01*
X86978959Y-52254262D01*
X86997980Y-52327724D01*
X87000290Y-52358060D01*
X87004374Y-52377933D01*
X87009500Y-52479000D01*
X87009500Y-52481000D01*
X86989050Y-52682097D01*
X86928539Y-52874961D01*
X86830443Y-53051697D01*
X86698778Y-53205068D01*
X86538935Y-53328796D01*
X86357458Y-53417814D01*
X86161776Y-53468480D01*
X86053257Y-53476743D01*
X86050000Y-53480001D01*
X86050000Y-55834142D01*
X86140775Y-55901466D01*
X86190568Y-55912193D01*
X86260902Y-55922968D01*
X86289154Y-55933431D01*
X86318605Y-55939776D01*
X86383718Y-55968454D01*
X86450454Y-55993170D01*
X86476025Y-56009108D01*
X86503592Y-56021250D01*
X86561600Y-56062448D01*
X86621994Y-56100092D01*
X86643830Y-56120848D01*
X86668392Y-56138293D01*
X86716926Y-56190332D01*
X86768499Y-56239356D01*
X86785708Y-56264081D01*
X86806258Y-56286115D01*
X86843324Y-56346860D01*
X86883972Y-56405260D01*
X86895851Y-56432942D01*
X86911546Y-56458663D01*
X86935626Y-56525628D01*
X86963685Y-56591013D01*
X86969749Y-56620521D01*
X86979944Y-56648873D01*
X86990050Y-56719311D01*
X87004374Y-56789010D01*
X87006737Y-56835608D01*
X87008653Y-56848959D01*
X87009500Y-56890077D01*
X87009500Y-57952100D01*
X86989050Y-58153197D01*
X86928539Y-58346061D01*
X86830443Y-58522797D01*
X86698778Y-58676168D01*
X86538935Y-58799896D01*
X86510003Y-58817258D01*
X86497006Y-58824761D01*
X86262960Y-59004352D01*
X86054352Y-59212960D01*
X85874761Y-59447007D01*
X85824660Y-59533785D01*
X85706402Y-59697716D01*
X85557565Y-59834485D01*
X85384244Y-59938495D01*
X85193533Y-60005486D01*
X85179345Y-60007414D01*
X85271509Y-60098642D01*
X85383602Y-60266849D01*
X85459541Y-60454177D01*
X85496216Y-60652956D01*
X85499500Y-60733895D01*
X85499500Y-60847511D01*
X85538005Y-61139983D01*
X85538006Y-61139988D01*
X85538007Y-61139993D01*
X85594362Y-61350314D01*
X85614361Y-61424952D01*
X85727256Y-61697506D01*
X85727257Y-61697507D01*
X85874762Y-61952994D01*
X86054354Y-62187042D01*
X86262958Y-62395646D01*
X86497006Y-62575238D01*
X86752493Y-62722743D01*
X87025048Y-62835639D01*
X87310007Y-62911993D01*
X87602494Y-62950500D01*
X87602495Y-62950500D01*
X87897505Y-62950500D01*
X87897506Y-62950500D01*
X88189993Y-62911993D01*
X88474952Y-62835639D01*
X88747507Y-62722743D01*
X89002994Y-62575238D01*
X89237042Y-62395646D01*
X89445646Y-62187042D01*
X89625238Y-61952994D01*
X89772743Y-61697507D01*
X89885639Y-61424952D01*
X89961993Y-61139993D01*
X90000500Y-60847506D01*
X90000500Y-60552494D01*
X89999938Y-60548229D01*
X89990439Y-60476079D01*
X89988401Y-60460602D01*
X89982426Y-60258559D01*
X89992150Y-60173946D01*
X90010500Y-60058092D01*
X90010500Y-56154548D01*
X90030950Y-55953451D01*
X90091461Y-55760587D01*
X90189557Y-55583851D01*
X90321222Y-55430480D01*
X90481065Y-55306752D01*
X90662542Y-55217734D01*
X90858224Y-55167068D01*
X91060099Y-55156830D01*
X91259902Y-55187439D01*
X91449454Y-55257641D01*
X91604604Y-55352144D01*
X91850000Y-55534142D01*
X92030538Y-55479377D01*
X92348255Y-55347775D01*
X92514635Y-55258843D01*
X96535369Y-55258843D01*
X96701758Y-55347780D01*
X97019449Y-55479372D01*
X97019464Y-55479377D01*
X97348541Y-55579202D01*
X97685826Y-55646293D01*
X98028063Y-55680000D01*
X98371937Y-55680000D01*
X98714173Y-55646293D01*
X99051458Y-55579202D01*
X99380535Y-55479377D01*
X99380558Y-55479369D01*
X99698243Y-55347780D01*
X99698248Y-55347778D01*
X99864629Y-55258844D01*
X98199999Y-53594214D01*
X96535369Y-55258843D01*
X92514635Y-55258843D01*
X92651528Y-55185672D01*
X92937454Y-54994622D01*
X93203292Y-54776454D01*
X93446458Y-54533288D01*
X93638304Y-54299523D01*
X93720171Y-54185284D01*
X93776268Y-54121727D01*
X93830274Y-54056343D01*
X93843066Y-54046045D01*
X93853931Y-54033737D01*
X93921677Y-53982770D01*
X93987736Y-53929599D01*
X94002339Y-53922088D01*
X94015459Y-53912218D01*
X94092091Y-53875925D01*
X94167488Y-53837147D01*
X94183299Y-53832730D01*
X94198143Y-53825701D01*
X94280516Y-53805576D01*
X94362171Y-53782770D01*
X94378551Y-53781626D01*
X94394502Y-53777730D01*
X94479236Y-53774599D01*
X94563814Y-53768697D01*
X94585753Y-53770664D01*
X94596499Y-53770268D01*
X94614036Y-53773201D01*
X94678776Y-53779009D01*
X95121155Y-53844629D01*
X96785785Y-52180000D01*
X96733124Y-52127339D01*
X97800000Y-52127339D01*
X97800000Y-52232661D01*
X97827259Y-52334394D01*
X97879920Y-52425606D01*
X97954394Y-52500080D01*
X98045606Y-52552741D01*
X98147339Y-52580000D01*
X98252661Y-52580000D01*
X98354394Y-52552741D01*
X98445606Y-52500080D01*
X98520080Y-52425606D01*
X98572741Y-52334394D01*
X98600000Y-52232661D01*
X98600000Y-52179999D01*
X99614214Y-52179999D01*
X101278844Y-53844629D01*
X101367778Y-53678248D01*
X101367780Y-53678243D01*
X101499369Y-53360558D01*
X101499377Y-53360535D01*
X101599202Y-53031458D01*
X101666293Y-52694173D01*
X101700000Y-52351937D01*
X101700000Y-52008062D01*
X101666293Y-51665826D01*
X101599202Y-51328541D01*
X101499377Y-50999464D01*
X101499372Y-50999449D01*
X101367780Y-50681758D01*
X101278843Y-50515369D01*
X99614214Y-52179999D01*
X98600000Y-52179999D01*
X98600000Y-52127339D01*
X98572741Y-52025606D01*
X98520080Y-51934394D01*
X98445606Y-51859920D01*
X98354394Y-51807259D01*
X98252661Y-51780000D01*
X98147339Y-51780000D01*
X98045606Y-51807259D01*
X97954394Y-51859920D01*
X97879920Y-51934394D01*
X97827259Y-52025606D01*
X97800000Y-52127339D01*
X96733124Y-52127339D01*
X95121153Y-50515368D01*
X94678777Y-50580990D01*
X94587007Y-50585207D01*
X94495314Y-50591122D01*
X94486123Y-50589843D01*
X94476856Y-50590269D01*
X94386115Y-50575926D01*
X94295108Y-50563263D01*
X94286363Y-50560160D01*
X94277200Y-50558712D01*
X94191213Y-50526400D01*
X94104609Y-50495673D01*
X94096666Y-50490872D01*
X94087984Y-50487610D01*
X94010244Y-50438640D01*
X93931616Y-50391119D01*
X93924806Y-50384822D01*
X93916953Y-50379875D01*
X93850650Y-50316247D01*
X93783210Y-50253883D01*
X93776268Y-50244866D01*
X93771111Y-50239917D01*
X93720172Y-50174718D01*
X93638299Y-50060471D01*
X93446454Y-49826707D01*
X93203292Y-49583545D01*
X92937454Y-49365377D01*
X92651528Y-49174327D01*
X92514631Y-49101154D01*
X96535369Y-49101154D01*
X98200000Y-50765785D01*
X99864630Y-49101155D01*
X99698246Y-49012221D01*
X99380550Y-48880627D01*
X99380535Y-48880622D01*
X99051458Y-48780797D01*
X98714173Y-48713706D01*
X98371937Y-48680000D01*
X98028063Y-48680000D01*
X97685826Y-48713706D01*
X97348541Y-48780797D01*
X97019464Y-48880622D01*
X97019457Y-48880625D01*
X96701742Y-49012226D01*
X96535369Y-49101154D01*
X92514631Y-49101154D01*
X92348258Y-49012226D01*
X92030542Y-48880624D01*
X91849998Y-48825855D01*
X91604601Y-49007854D01*
X91430896Y-49111222D01*
X91239939Y-49177507D01*
X91039548Y-49203996D01*
X90837926Y-49189604D01*
X90643329Y-49134921D01*
X90463723Y-49042185D01*
X90306462Y-48915193D01*
X90177982Y-48759144D01*
X90083545Y-48580426D01*
X90027017Y-48386357D01*
X90010500Y-48205448D01*
X90010500Y-45519500D01*
X90030950Y-45318403D01*
X90091461Y-45125539D01*
X90189557Y-44948803D01*
X90321222Y-44795432D01*
X90481065Y-44671704D01*
X90662542Y-44582686D01*
X90858224Y-44532020D01*
X90962555Y-44524074D01*
X90962443Y-44522071D01*
X90990405Y-44520500D01*
X90990425Y-44520500D01*
X91269509Y-44489055D01*
X91543318Y-44426560D01*
X91808408Y-44333801D01*
X92061445Y-44211945D01*
X92299248Y-44062523D01*
X92518825Y-43887416D01*
X92717416Y-43688825D01*
X92892523Y-43469248D01*
X93041945Y-43231445D01*
X93163801Y-42978408D01*
X93256560Y-42713318D01*
X93319055Y-42439509D01*
X93350500Y-42160425D01*
X93350500Y-41879580D01*
X95699500Y-41879580D01*
X95699500Y-42160419D01*
X95699501Y-42160441D01*
X95730944Y-42439507D01*
X95793436Y-42713302D01*
X95793440Y-42713318D01*
X95886199Y-42978408D01*
X95886201Y-42978412D01*
X95886202Y-42978415D01*
X96008051Y-43231438D01*
X96008053Y-43231441D01*
X96008055Y-43231445D01*
X96157477Y-43469248D01*
X96332584Y-43688825D01*
X96531175Y-43887416D01*
X96750752Y-44062523D01*
X96988555Y-44211945D01*
X97241592Y-44333801D01*
X97506682Y-44426560D01*
X97780491Y-44489055D01*
X98059575Y-44520500D01*
X98059581Y-44520500D01*
X98340419Y-44520500D01*
X98340425Y-44520500D01*
X98619509Y-44489055D01*
X98893318Y-44426560D01*
X99158408Y-44333801D01*
X99411445Y-44211945D01*
X99649248Y-44062523D01*
X99868825Y-43887416D01*
X100067416Y-43688825D01*
X100242523Y-43469248D01*
X100391945Y-43231445D01*
X100513801Y-42978408D01*
X100606560Y-42713318D01*
X100669055Y-42439509D01*
X100700500Y-42160425D01*
X100700500Y-41879575D01*
X100669055Y-41600491D01*
X100606560Y-41326682D01*
X100513801Y-41061592D01*
X100419919Y-40866644D01*
X100391948Y-40808561D01*
X100391946Y-40808558D01*
X100391945Y-40808555D01*
X100242523Y-40570752D01*
X100228034Y-40552584D01*
X100088391Y-40377477D01*
X100067416Y-40351175D01*
X99868825Y-40152584D01*
X99868820Y-40152580D01*
X99649251Y-39977479D01*
X99649248Y-39977477D01*
X99411445Y-39828055D01*
X99411441Y-39828053D01*
X99411438Y-39828051D01*
X99158415Y-39706202D01*
X99158412Y-39706201D01*
X99158408Y-39706199D01*
X98893318Y-39613440D01*
X98893314Y-39613439D01*
X98893302Y-39613436D01*
X98619507Y-39550944D01*
X98619508Y-39550944D01*
X98340441Y-39519501D01*
X98340429Y-39519500D01*
X98340425Y-39519500D01*
X98059575Y-39519500D01*
X98059571Y-39519500D01*
X98059558Y-39519501D01*
X97780492Y-39550944D01*
X97506697Y-39613436D01*
X97506685Y-39613439D01*
X97506682Y-39613439D01*
X97506682Y-39613440D01*
X97241592Y-39706199D01*
X97241590Y-39706199D01*
X97241584Y-39706202D01*
X96988561Y-39828051D01*
X96988558Y-39828053D01*
X96750748Y-39977479D01*
X96531179Y-40152580D01*
X96332580Y-40351179D01*
X96157479Y-40570748D01*
X96008053Y-40808558D01*
X96008051Y-40808561D01*
X95886202Y-41061584D01*
X95793439Y-41326685D01*
X95793436Y-41326697D01*
X95730944Y-41600492D01*
X95699501Y-41879558D01*
X95699500Y-41879580D01*
X93350500Y-41879580D01*
X93350500Y-41879575D01*
X93319055Y-41600491D01*
X93256560Y-41326682D01*
X93163801Y-41061592D01*
X93069919Y-40866644D01*
X93041948Y-40808561D01*
X93041946Y-40808558D01*
X93041945Y-40808555D01*
X92892523Y-40570752D01*
X92878034Y-40552584D01*
X92738391Y-40377477D01*
X92717416Y-40351175D01*
X92518825Y-40152584D01*
X92518820Y-40152580D01*
X92299251Y-39977479D01*
X92299248Y-39977477D01*
X92061445Y-39828055D01*
X92061437Y-39828051D01*
X92061430Y-39828047D01*
X91826657Y-39714986D01*
X91654348Y-39609309D01*
X91506838Y-39471109D01*
X91390168Y-39306045D01*
X91309112Y-39120874D01*
X91266991Y-38923177D01*
X91265528Y-38721048D01*
X91304783Y-38522762D01*
X91383150Y-38336437D01*
X91497419Y-38169701D01*
X91642913Y-38029380D01*
X91813674Y-37921220D01*
X92002713Y-37849648D01*
X92171647Y-37819843D01*
X92227418Y-37814886D01*
X92423049Y-37758909D01*
X92603407Y-37664698D01*
X92761109Y-37536109D01*
X92889698Y-37378407D01*
X92983909Y-37198049D01*
X93039886Y-37002418D01*
X93050500Y-36883037D01*
X93050499Y-33266964D01*
X93039886Y-33147582D01*
X92983909Y-32951951D01*
X92889698Y-32771593D01*
X92889696Y-32771591D01*
X92889695Y-32771588D01*
X92761115Y-32613898D01*
X92761113Y-32613896D01*
X92761109Y-32613891D01*
X92761103Y-32613886D01*
X92761101Y-32613884D01*
X92603411Y-32485304D01*
X92586279Y-32476355D01*
X92423049Y-32391091D01*
X92423044Y-32391089D01*
X92423043Y-32391089D01*
X92227419Y-32335114D01*
X92203541Y-32332991D01*
X92108037Y-32324500D01*
X92108033Y-32324500D01*
X89991972Y-32324500D01*
X89991963Y-32324501D01*
X89872578Y-32335114D01*
X89628244Y-32405028D01*
X89626883Y-32400274D01*
X89527449Y-32428666D01*
X89325889Y-32443902D01*
X89125389Y-32418252D01*
X89093202Y-32410198D01*
X88901129Y-32358733D01*
X88901118Y-32358730D01*
X88901116Y-32358730D01*
X88901114Y-32358729D01*
X88901111Y-32358729D01*
X88713428Y-32334019D01*
X88641120Y-32324500D01*
X88378880Y-32324500D01*
X88322306Y-32331948D01*
X88118888Y-32358729D01*
X88118882Y-32358730D01*
X87865578Y-32426602D01*
X87623296Y-32526960D01*
X87623294Y-32526960D01*
X87620866Y-32528363D01*
X87616208Y-32530455D01*
X87593968Y-32541423D01*
X87593573Y-32540623D01*
X87436483Y-32611196D01*
X87239201Y-32655217D01*
X87037095Y-32658625D01*
X86838441Y-32621279D01*
X86651370Y-32544709D01*
X86571659Y-32497330D01*
X86553417Y-32485308D01*
X86553409Y-32485304D01*
X86553407Y-32485302D01*
X86373049Y-32391091D01*
X86373044Y-32391089D01*
X86373043Y-32391089D01*
X86177419Y-32335114D01*
X86153541Y-32332991D01*
X86058037Y-32324500D01*
X86058033Y-32324500D01*
X83941972Y-32324500D01*
X83941963Y-32324501D01*
X83822578Y-32335114D01*
X83578244Y-32405028D01*
X83576883Y-32400274D01*
X83477449Y-32428666D01*
X83275889Y-32443902D01*
X83075389Y-32418252D01*
X83043202Y-32410198D01*
X82851129Y-32358733D01*
X82851118Y-32358730D01*
X82851116Y-32358730D01*
X82851114Y-32358729D01*
X82851111Y-32358729D01*
X82663428Y-32334019D01*
X82591120Y-32324500D01*
X82328880Y-32324500D01*
X82272306Y-32331948D01*
X82068888Y-32358729D01*
X82068882Y-32358730D01*
X81815578Y-32426602D01*
X81573296Y-32526960D01*
X81573294Y-32526960D01*
X81570866Y-32528363D01*
X81566208Y-32530455D01*
X81543968Y-32541423D01*
X81543573Y-32540623D01*
X81386483Y-32611196D01*
X81189201Y-32655217D01*
X80987095Y-32658625D01*
X80788441Y-32621279D01*
X80601370Y-32544709D01*
X80521659Y-32497330D01*
X80503417Y-32485308D01*
X80503409Y-32485304D01*
X80503407Y-32485302D01*
X80323049Y-32391091D01*
X80323044Y-32391089D01*
X80323043Y-32391089D01*
X80127419Y-32335114D01*
X80103541Y-32332991D01*
X80008037Y-32324500D01*
X80008033Y-32324500D01*
X77891972Y-32324500D01*
X77891963Y-32324501D01*
X77772578Y-32335114D01*
X77528244Y-32405028D01*
X77526883Y-32400274D01*
X77427449Y-32428666D01*
X77225889Y-32443902D01*
X77025389Y-32418252D01*
X76993202Y-32410198D01*
X76801129Y-32358733D01*
X76801118Y-32358730D01*
X76801116Y-32358730D01*
X76801114Y-32358729D01*
X76801111Y-32358729D01*
X76613428Y-32334019D01*
X76541120Y-32324500D01*
X76278880Y-32324500D01*
X76222306Y-32331948D01*
X76018888Y-32358729D01*
X76018882Y-32358730D01*
X75765578Y-32426602D01*
X75523296Y-32526960D01*
X75523294Y-32526960D01*
X75520866Y-32528363D01*
X75516208Y-32530455D01*
X75493968Y-32541423D01*
X75493573Y-32540623D01*
X75336483Y-32611196D01*
X75139201Y-32655217D01*
X74937095Y-32658625D01*
X74738441Y-32621279D01*
X74551370Y-32544709D01*
X74471659Y-32497330D01*
X74453417Y-32485308D01*
X74453409Y-32485304D01*
X74453407Y-32485302D01*
X74273049Y-32391091D01*
X74273044Y-32391089D01*
X74273043Y-32391089D01*
X74077419Y-32335114D01*
X74053541Y-32332991D01*
X73958037Y-32324500D01*
X73958033Y-32324500D01*
X71841972Y-32324500D01*
X71841963Y-32324501D01*
X71722578Y-32335114D01*
X71478244Y-32405028D01*
X71476883Y-32400274D01*
X71377449Y-32428666D01*
X71175889Y-32443902D01*
X70975389Y-32418252D01*
X70943202Y-32410198D01*
X70751129Y-32358733D01*
X70751118Y-32358730D01*
X70751116Y-32358730D01*
X70751114Y-32358729D01*
X70751111Y-32358729D01*
X70563428Y-32334019D01*
X70491120Y-32324500D01*
X70228880Y-32324500D01*
X70172306Y-32331948D01*
X69968888Y-32358729D01*
X69968882Y-32358730D01*
X69715578Y-32426602D01*
X69473296Y-32526960D01*
X69473294Y-32526960D01*
X69470866Y-32528363D01*
X69466208Y-32530455D01*
X69443968Y-32541423D01*
X69443573Y-32540623D01*
X69286483Y-32611196D01*
X69089201Y-32655217D01*
X68887095Y-32658625D01*
X68688441Y-32621279D01*
X68501370Y-32544709D01*
X68421659Y-32497330D01*
X68403417Y-32485308D01*
X68403409Y-32485304D01*
X68403407Y-32485302D01*
X68223049Y-32391091D01*
X68223044Y-32391089D01*
X68223043Y-32391089D01*
X68027419Y-32335114D01*
X68003541Y-32332991D01*
X67908037Y-32324500D01*
X67908033Y-32324500D01*
X65791972Y-32324500D01*
X65791963Y-32324501D01*
X65672578Y-32335114D01*
X65428244Y-32405028D01*
X65426883Y-32400274D01*
X65327449Y-32428666D01*
X65125889Y-32443902D01*
X64925389Y-32418252D01*
X64893202Y-32410198D01*
X64701129Y-32358733D01*
X64701118Y-32358730D01*
X64701116Y-32358730D01*
X64701114Y-32358729D01*
X64701111Y-32358729D01*
X64513428Y-32334019D01*
X64441120Y-32324500D01*
X64178880Y-32324500D01*
X64122306Y-32331948D01*
X63918888Y-32358729D01*
X63918882Y-32358730D01*
X63665578Y-32426602D01*
X63423296Y-32526960D01*
X63423294Y-32526960D01*
X63420866Y-32528363D01*
X63416208Y-32530455D01*
X63393968Y-32541423D01*
X63393573Y-32540623D01*
X63236483Y-32611196D01*
X63039201Y-32655217D01*
X62837095Y-32658625D01*
X62638441Y-32621279D01*
X62451370Y-32544709D01*
X62371659Y-32497330D01*
X62353417Y-32485308D01*
X62353409Y-32485304D01*
X62353407Y-32485302D01*
X62173049Y-32391091D01*
X62173044Y-32391089D01*
X62173043Y-32391089D01*
X61977419Y-32335114D01*
X61953541Y-32332991D01*
X61858037Y-32324500D01*
X61858033Y-32324500D01*
X59741972Y-32324500D01*
X59741963Y-32324501D01*
X59622578Y-32335114D01*
X59378244Y-32405028D01*
X59376883Y-32400274D01*
X59277449Y-32428666D01*
X59075889Y-32443902D01*
X58875389Y-32418252D01*
X58843202Y-32410198D01*
X58651129Y-32358733D01*
X58651118Y-32358730D01*
X58651116Y-32358730D01*
X58651114Y-32358729D01*
X58651111Y-32358729D01*
X58463428Y-32334019D01*
X58391120Y-32324500D01*
X58128880Y-32324500D01*
X58072306Y-32331948D01*
X57868888Y-32358729D01*
X57868882Y-32358730D01*
X57615578Y-32426602D01*
X57373296Y-32526960D01*
X57373294Y-32526960D01*
X57370866Y-32528363D01*
X57366208Y-32530455D01*
X57343968Y-32541423D01*
X57343573Y-32540623D01*
X57186483Y-32611196D01*
X56989201Y-32655217D01*
X56787095Y-32658625D01*
X56588441Y-32621279D01*
X56401370Y-32544709D01*
X56321659Y-32497330D01*
X56303417Y-32485308D01*
X56303409Y-32485304D01*
X56303407Y-32485302D01*
X56123049Y-32391091D01*
X56123044Y-32391089D01*
X56123043Y-32391089D01*
X55927419Y-32335114D01*
X55903541Y-32332991D01*
X55808037Y-32324500D01*
X55808033Y-32324500D01*
X53691972Y-32324500D01*
X53691963Y-32324501D01*
X53572578Y-32335114D01*
X53328244Y-32405028D01*
X53326883Y-32400274D01*
X53227449Y-32428666D01*
X53025889Y-32443902D01*
X52825389Y-32418252D01*
X52793202Y-32410198D01*
X52601129Y-32358733D01*
X52601118Y-32358730D01*
X52601116Y-32358730D01*
X52601114Y-32358729D01*
X52601111Y-32358729D01*
X52413428Y-32334019D01*
X52341120Y-32324500D01*
X52078880Y-32324500D01*
X52022306Y-32331948D01*
X51818888Y-32358729D01*
X51818882Y-32358730D01*
X51565578Y-32426602D01*
X51323296Y-32526960D01*
X51323294Y-32526960D01*
X51320866Y-32528363D01*
X51316208Y-32530455D01*
X51293968Y-32541423D01*
X51293573Y-32540623D01*
X51136483Y-32611196D01*
X50939201Y-32655217D01*
X50737095Y-32658625D01*
X50538441Y-32621279D01*
X50351370Y-32544709D01*
X50271659Y-32497330D01*
X50253417Y-32485308D01*
X50253409Y-32485304D01*
X50253407Y-32485302D01*
X50073049Y-32391091D01*
X50073044Y-32391089D01*
X50073043Y-32391089D01*
X49877419Y-32335114D01*
X49853541Y-32332991D01*
X49758037Y-32324500D01*
X49758033Y-32324500D01*
X47641972Y-32324500D01*
X47641963Y-32324501D01*
X47522578Y-32335114D01*
X47278244Y-32405028D01*
X47276883Y-32400274D01*
X47177449Y-32428666D01*
X46975889Y-32443902D01*
X46775389Y-32418252D01*
X46743202Y-32410198D01*
X46551129Y-32358733D01*
X46551118Y-32358730D01*
X46551116Y-32358730D01*
X46551114Y-32358729D01*
X46551111Y-32358729D01*
X46363428Y-32334019D01*
X46291120Y-32324500D01*
X46028880Y-32324500D01*
X45972306Y-32331948D01*
X45768888Y-32358729D01*
X45768882Y-32358730D01*
X45515578Y-32426602D01*
X45273301Y-32526958D01*
X45046196Y-32658075D01*
X44838150Y-32817717D01*
X44652717Y-33003150D01*
X44493075Y-33211196D01*
X44361958Y-33438301D01*
X44261602Y-33680578D01*
X44193730Y-33933882D01*
X44193729Y-33933888D01*
X44159500Y-34193880D01*
X44159500Y-35956119D01*
X44193729Y-36216111D01*
X44193730Y-36216117D01*
X44261602Y-36469421D01*
X44320389Y-36611343D01*
X44361957Y-36711697D01*
X44361958Y-36711698D01*
X44509429Y-36967128D01*
X44508106Y-36967891D01*
X44585859Y-37114472D01*
X44642695Y-37308452D01*
X44659500Y-37490918D01*
X44659500Y-57334051D01*
X44639050Y-57535148D01*
X44578539Y-57728012D01*
X44480443Y-57904748D01*
X44348778Y-58058119D01*
X44188935Y-58181847D01*
X44042802Y-58257006D01*
X43752495Y-58377255D01*
X43497007Y-58524761D01*
X43262960Y-58704352D01*
X43054352Y-58912960D01*
X42874761Y-59147007D01*
X42727256Y-59402493D01*
X42614361Y-59675047D01*
X42587566Y-59775048D01*
X42557423Y-59887547D01*
X42538005Y-59960016D01*
X42499500Y-60252488D01*
X20649775Y-60252488D01*
X20650315Y-24929754D01*
X20650490Y-24911289D01*
X20873925Y-13080634D01*
X20898168Y-12879961D01*
X20962311Y-12688274D01*
X21063727Y-12513422D01*
X21198264Y-12362564D01*
X21360415Y-12241877D01*
X21543541Y-12156301D01*
X21740144Y-12109340D01*
X21872747Y-12100500D01*
X271010353Y-12100500D01*
X271211450Y-12120950D01*
G37*
%TD.AperFunction*%
%TA.AperFunction,Conductor*%
G36*
X98500322Y-96044076D02*
G01*
X98689874Y-96114278D01*
X98861414Y-96221200D01*
X98956315Y-96304780D01*
X100159631Y-97508097D01*
X100159634Y-97508099D01*
X109225117Y-106573582D01*
X109352854Y-106730240D01*
X109446441Y-106909403D01*
X109502048Y-107103739D01*
X109517396Y-107305289D01*
X109491859Y-107505804D01*
X109426481Y-107697073D01*
X109323939Y-107871267D01*
X109188431Y-108021254D01*
X109025505Y-108140892D01*
X108841832Y-108225285D01*
X108644929Y-108270977D01*
X108442860Y-108276098D01*
X108388321Y-108270435D01*
X108223989Y-108248800D01*
X108223983Y-108248800D01*
X107961743Y-108248800D01*
X107905169Y-108256248D01*
X107701751Y-108283029D01*
X107701745Y-108283030D01*
X107448442Y-108350902D01*
X107205163Y-108451672D01*
X107011547Y-108509735D01*
X106810207Y-108527636D01*
X106609385Y-108504640D01*
X106440563Y-108451672D01*
X106197283Y-108350902D01*
X105943980Y-108283030D01*
X105943974Y-108283029D01*
X105756291Y-108258319D01*
X105683983Y-108248800D01*
X105421743Y-108248800D01*
X105365169Y-108256248D01*
X105161751Y-108283029D01*
X105161745Y-108283030D01*
X104908442Y-108350902D01*
X104665163Y-108451672D01*
X104471547Y-108509735D01*
X104270207Y-108527636D01*
X104069385Y-108504640D01*
X104048927Y-108499940D01*
X103937319Y-108473057D01*
X103899560Y-108451257D01*
X103657282Y-108350902D01*
X103403979Y-108283030D01*
X103143983Y-108248800D01*
X103006277Y-108248800D01*
X102890960Y-108221024D01*
X102811375Y-108193077D01*
X102730935Y-108167839D01*
X102716175Y-108159646D01*
X102700243Y-108154052D01*
X102627921Y-108110662D01*
X102554199Y-108069743D01*
X102536788Y-108055985D01*
X102526911Y-108050060D01*
X102512303Y-108036639D01*
X102497848Y-108025217D01*
X102496966Y-108026324D01*
X102211616Y-107798764D01*
X102211604Y-107798756D01*
X101926309Y-107619495D01*
X101926304Y-107619492D01*
X101622726Y-107473295D01*
X101472863Y-107420856D01*
X101472863Y-108647977D01*
X101472005Y-108656414D01*
X101472720Y-108664862D01*
X101461786Y-108756895D01*
X101452413Y-108849074D01*
X101449875Y-108857160D01*
X101448875Y-108865585D01*
X101419635Y-108953544D01*
X101391902Y-109041938D01*
X101386998Y-109051725D01*
X101385112Y-109057399D01*
X101339016Y-109147488D01*
X101337016Y-109150952D01*
X101218755Y-109314881D01*
X101069917Y-109451649D01*
X100896594Y-109555656D01*
X100705883Y-109622644D01*
X100505591Y-109649871D01*
X100303918Y-109636223D01*
X100109120Y-109582257D01*
X99929174Y-109490184D01*
X99771445Y-109363772D01*
X99642391Y-109208198D01*
X99547296Y-109029829D01*
X99490053Y-108835970D01*
X99472863Y-108651441D01*
X99472863Y-107420856D01*
X99322999Y-107473295D01*
X99019421Y-107619492D01*
X99019416Y-107619495D01*
X98781417Y-107769039D01*
X98600263Y-107858714D01*
X98404766Y-107910086D01*
X98202929Y-107921054D01*
X98003016Y-107891168D01*
X97813212Y-107821652D01*
X97641286Y-107715351D01*
X97494278Y-107576617D01*
X97378206Y-107411132D01*
X97297822Y-107225668D01*
X97256417Y-107027820D01*
X97250920Y-106923160D01*
X97250920Y-97011185D01*
X97271370Y-96810088D01*
X97331881Y-96617224D01*
X97429977Y-96440488D01*
X97561642Y-96287117D01*
X97721485Y-96163389D01*
X97902962Y-96074371D01*
X98098644Y-96023705D01*
X98300519Y-96013467D01*
X98500322Y-96044076D01*
G37*
%TD.AperFunction*%
%TA.AperFunction,Conductor*%
G36*
X100613622Y-89355746D02*
G01*
X100614446Y-89355738D01*
X100617705Y-89356372D01*
X100772265Y-89380050D01*
X100808612Y-89393511D01*
X100812861Y-89394338D01*
X100828979Y-89401054D01*
X100961817Y-89450252D01*
X100991616Y-89468826D01*
X100999444Y-89472088D01*
X101027727Y-89491334D01*
X101133357Y-89557174D01*
X101155718Y-89578430D01*
X101166556Y-89585805D01*
X101203397Y-89623752D01*
X101279862Y-89696438D01*
X101295802Y-89718932D01*
X101307357Y-89730834D01*
X101335556Y-89775031D01*
X101387016Y-89847648D01*
X101389016Y-89851112D01*
X101400720Y-89877162D01*
X101416081Y-89901237D01*
X101442053Y-89969156D01*
X101471857Y-90035491D01*
X101478078Y-90063365D01*
X101488278Y-90090039D01*
X101500047Y-90161800D01*
X101515887Y-90232772D01*
X101518258Y-90272843D01*
X101520992Y-90289508D01*
X101521370Y-90325410D01*
X101522863Y-90350623D01*
X101522863Y-91577743D01*
X101672717Y-91525307D01*
X101976305Y-91379106D01*
X101976309Y-91379104D01*
X102261604Y-91199843D01*
X102261616Y-91199835D01*
X102546966Y-90972276D01*
X102549099Y-90974951D01*
X102672748Y-90885175D01*
X102856874Y-90801772D01*
X102940960Y-90777577D01*
X103056281Y-90749800D01*
X103193983Y-90749800D01*
X103453979Y-90715570D01*
X103707282Y-90647698D01*
X103949560Y-90547343D01*
X103987319Y-90525542D01*
X104098927Y-90498660D01*
X104121932Y-90495534D01*
X104144176Y-90488864D01*
X104221909Y-90481952D01*
X104299221Y-90471450D01*
X104322384Y-90473019D01*
X104345516Y-90470963D01*
X104423052Y-90479841D01*
X104500893Y-90485116D01*
X104523266Y-90491316D01*
X104546338Y-90493958D01*
X104648776Y-90526098D01*
X104695686Y-90539098D01*
X104704362Y-90543538D01*
X104715166Y-90546928D01*
X104716161Y-90547340D01*
X104716166Y-90547343D01*
X104958444Y-90647698D01*
X105211747Y-90715570D01*
X105471743Y-90749800D01*
X105471744Y-90749800D01*
X105733982Y-90749800D01*
X105733983Y-90749800D01*
X105993979Y-90715570D01*
X106247282Y-90647698D01*
X106489560Y-90547343D01*
X106489564Y-90547340D01*
X106490560Y-90546928D01*
X106684176Y-90488864D01*
X106885516Y-90470963D01*
X107086338Y-90493958D01*
X107255166Y-90546928D01*
X107256161Y-90547340D01*
X107256166Y-90547343D01*
X107498444Y-90647698D01*
X107751747Y-90715570D01*
X108011743Y-90749800D01*
X108011744Y-90749800D01*
X108273982Y-90749800D01*
X108273983Y-90749800D01*
X108533979Y-90715570D01*
X108787282Y-90647698D01*
X109029560Y-90547343D01*
X109029564Y-90547340D01*
X109030560Y-90546928D01*
X109224176Y-90488864D01*
X109425516Y-90470963D01*
X109626338Y-90493958D01*
X109795166Y-90546928D01*
X109796161Y-90547340D01*
X109796166Y-90547343D01*
X110038444Y-90647698D01*
X110291747Y-90715570D01*
X110551743Y-90749800D01*
X110551744Y-90749800D01*
X110813982Y-90749800D01*
X110813983Y-90749800D01*
X111073979Y-90715570D01*
X111327282Y-90647698D01*
X111569560Y-90547343D01*
X111569564Y-90547340D01*
X111570560Y-90546928D01*
X111764176Y-90488864D01*
X111965516Y-90470963D01*
X112166338Y-90493958D01*
X112335166Y-90546928D01*
X112336161Y-90547340D01*
X112336166Y-90547343D01*
X112578444Y-90647698D01*
X112831747Y-90715570D01*
X113091743Y-90749800D01*
X113091744Y-90749800D01*
X113353982Y-90749800D01*
X113353983Y-90749800D01*
X113613979Y-90715570D01*
X113867282Y-90647698D01*
X114109560Y-90547343D01*
X114109564Y-90547340D01*
X114110560Y-90546928D01*
X114304176Y-90488864D01*
X114505516Y-90470963D01*
X114706338Y-90493958D01*
X114875166Y-90546928D01*
X114876161Y-90547340D01*
X114876166Y-90547343D01*
X115118444Y-90647698D01*
X115371747Y-90715570D01*
X115631743Y-90749800D01*
X115631744Y-90749800D01*
X115893982Y-90749800D01*
X115893983Y-90749800D01*
X116153979Y-90715570D01*
X116407282Y-90647698D01*
X116649560Y-90547343D01*
X116649564Y-90547340D01*
X116650560Y-90546928D01*
X116844176Y-90488864D01*
X117045516Y-90470963D01*
X117246338Y-90493958D01*
X117415166Y-90546928D01*
X117416161Y-90547340D01*
X117416166Y-90547343D01*
X117658444Y-90647698D01*
X117911747Y-90715570D01*
X118171743Y-90749800D01*
X118171744Y-90749800D01*
X118433982Y-90749800D01*
X118433983Y-90749800D01*
X118693979Y-90715570D01*
X118947282Y-90647698D01*
X119189560Y-90547343D01*
X119189564Y-90547340D01*
X119190560Y-90546928D01*
X119384176Y-90488864D01*
X119585516Y-90470963D01*
X119780825Y-90492768D01*
X119908824Y-90520010D01*
X119956166Y-90547343D01*
X120198444Y-90647698D01*
X120451747Y-90715570D01*
X120711743Y-90749800D01*
X120973983Y-90749800D01*
X120982950Y-90748619D01*
X121091325Y-90771685D01*
X121184300Y-90801574D01*
X121277324Y-90830761D01*
X121280403Y-90832470D01*
X121283759Y-90833549D01*
X121368731Y-90881495D01*
X121454060Y-90928857D01*
X121456734Y-90931153D01*
X121459802Y-90932884D01*
X121533375Y-90996947D01*
X121607431Y-91060522D01*
X121609587Y-91063308D01*
X121612245Y-91065622D01*
X121671396Y-91143158D01*
X121731159Y-91220365D01*
X121732712Y-91223532D01*
X121734847Y-91226330D01*
X121777189Y-91314206D01*
X121820177Y-91401842D01*
X121821059Y-91405251D01*
X121822590Y-91408427D01*
X121846380Y-91503045D01*
X121870843Y-91597524D01*
X121871150Y-91601557D01*
X121871880Y-91604460D01*
X121872564Y-91620129D01*
X121882363Y-91748800D01*
X121882363Y-93210961D01*
X121919309Y-93444232D01*
X121919310Y-93444236D01*
X121992294Y-93668856D01*
X121992295Y-93668858D01*
X122098199Y-93876705D01*
X122099520Y-93879297D01*
X122238346Y-94070373D01*
X130279587Y-102111614D01*
X131164373Y-102996400D01*
X131292110Y-103153058D01*
X131385697Y-103332221D01*
X131441304Y-103526557D01*
X131456652Y-103728107D01*
X131431115Y-103928622D01*
X131365737Y-104119892D01*
X131263195Y-104294085D01*
X131127687Y-104444072D01*
X130964761Y-104563710D01*
X130781087Y-104648103D01*
X130584185Y-104693795D01*
X130457973Y-104701800D01*
X119189683Y-104701800D01*
X118956421Y-104738745D01*
X118956415Y-104738746D01*
X118956414Y-104738747D01*
X118801084Y-104789217D01*
X118801082Y-104789217D01*
X118731791Y-104811731D01*
X118521346Y-104918958D01*
X118330266Y-105057787D01*
X115838330Y-107549722D01*
X115681673Y-107677459D01*
X115502509Y-107771046D01*
X115308174Y-107826653D01*
X115106623Y-107842001D01*
X114906109Y-107816464D01*
X114714839Y-107751086D01*
X114540646Y-107648544D01*
X114390659Y-107513036D01*
X114323715Y-107430508D01*
X114317381Y-107421790D01*
X102281661Y-95386072D01*
X102281659Y-95386069D01*
X99745481Y-92849891D01*
X99617744Y-92693233D01*
X99524157Y-92514069D01*
X99468550Y-92319734D01*
X99453202Y-92118183D01*
X99453685Y-92103414D01*
X99522863Y-90380385D01*
X99522863Y-90347159D01*
X99525067Y-90325482D01*
X99525667Y-90310546D01*
X99528881Y-90287976D01*
X99543313Y-90146062D01*
X99553898Y-90112323D01*
X99554168Y-90110431D01*
X99556769Y-90103172D01*
X99603824Y-89953198D01*
X99701920Y-89776462D01*
X99833585Y-89623091D01*
X99993428Y-89499363D01*
X100174905Y-89410345D01*
X100370587Y-89359679D01*
X100572462Y-89349441D01*
X100613622Y-89355746D01*
G37*
%TD.AperFunction*%
%TA.AperFunction,Conductor*%
G36*
X108979402Y-24680750D02*
G01*
X109168954Y-24750952D01*
X109340494Y-24857874D01*
X109486999Y-24997138D01*
X109594153Y-25148348D01*
X109596153Y-25151812D01*
X109678994Y-25336191D01*
X109723024Y-25533472D01*
X109730000Y-25651323D01*
X109730000Y-26878443D01*
X109879854Y-26826007D01*
X110183442Y-26679806D01*
X110183446Y-26679804D01*
X110468741Y-26500543D01*
X110468753Y-26500535D01*
X110687633Y-26325984D01*
X110857607Y-26216590D01*
X111046123Y-26143650D01*
X111245462Y-26110152D01*
X111447464Y-26117467D01*
X111643859Y-26165294D01*
X111826606Y-26251676D01*
X111988223Y-26373076D01*
X112122095Y-26524525D01*
X112222739Y-26699822D01*
X112286036Y-26891790D01*
X112309395Y-27092570D01*
X112309500Y-27107033D01*
X112309500Y-66725550D01*
X112289050Y-66926647D01*
X112228539Y-67119511D01*
X112130443Y-67296247D01*
X112016900Y-67431950D01*
X109707929Y-69740922D01*
X109285900Y-70162951D01*
X109129242Y-70290688D01*
X108950079Y-70384275D01*
X108755743Y-70439882D01*
X108554193Y-70455230D01*
X108353678Y-70429693D01*
X108162409Y-70364315D01*
X107988215Y-70261773D01*
X107838228Y-70126265D01*
X107718590Y-69963339D01*
X107634197Y-69779666D01*
X107588505Y-69582763D01*
X107580500Y-69456551D01*
X107580500Y-27500614D01*
X107600950Y-27299517D01*
X107661461Y-27106653D01*
X107730000Y-26983168D01*
X107730000Y-25647859D01*
X107750450Y-25446762D01*
X107810961Y-25253898D01*
X107909057Y-25077162D01*
X108040722Y-24923791D01*
X108200565Y-24800063D01*
X108382042Y-24711045D01*
X108577724Y-24660379D01*
X108779599Y-24650141D01*
X108979402Y-24680750D01*
G37*
%TD.AperFunction*%
%TD*%
D19*
X220047863Y-152699300D02*
X220047863Y-162199300D01*
X20147863Y-152599300D02*
X20150020Y-11600000D01*
X58147863Y-152599300D02*
X58147863Y-162199300D01*
X58147863Y-162199300D02*
X220047863Y-162199300D01*
X220047863Y-162199300D02*
X220047863Y-152699300D01*
X58147863Y-152599300D02*
X20147863Y-152599300D01*
X220047863Y-152699300D02*
X273147863Y-152599300D01*
X273147863Y-152599300D02*
X273100000Y-11600000D01*
X20200000Y-11600000D02*
X273100000Y-11600000D01*
X58147863Y-152599300D02*
X58147863Y-162199300D01*
M02*
